<svg width="98" height="98" viewBox="0 0 98 98" fill="none" xmlns="http://www.w3.org/2000/svg">
<g id="Brand=TRX,Color=Transparent/White">
<circle id="BG" cx="49.4819" cy="48.5499" r="47" stroke="#F9F9FB" stroke-width="3"/>
<g id="TRX-Flask">
<path id="Vector" d="M54.9085 39.1964C55.1732 39.2831 55.4617 39.2606 55.7106 39.134C55.9594 39.0072 56.1483 38.7867 56.2357 38.5207L61.7577 21.7172C61.8237 21.4579 61.7893 21.1833 61.6615 20.949C61.5337 20.7147 61.3218 20.5382 61.0688 20.455C60.8158 20.3719 60.5406 20.3884 60.2987 20.5012C60.0567 20.6139 59.8662 20.8146 59.7655 21.0626L54.2448 37.8623C54.2011 37.9939 54.1835 38.1329 54.1931 38.2712C54.2028 38.4094 54.2394 38.5444 54.3011 38.6682C54.3627 38.7921 54.448 38.9025 54.5523 38.9931C54.6565 39.0838 54.7776 39.1528 54.9085 39.1964Z" fill="#F9F9FB"/>
<path id="Vector_2" d="M47.7176 64.2338C47.6422 64.8857 47.5729 65.1815 47.5834 66.0636L46.7589 65.7926C47.0307 65.2271 47.371 64.5446 47.7176 64.2338Z" fill="#F9F9FB"/>
<path id="Vector_3" d="M43.0766 60.1665C38.8147 58.7659 34.3195 59.0304 30.9525 60.2715C32.8704 62.9453 35.5751 65.7465 40.6575 67.5281C45.0016 69.0504 49.7789 68.2269 51.7465 67.1121C50.6694 64.8488 47.432 61.5977 43.0766 60.1665ZM37.9169 61.0537L36.8236 60.7465L35.6605 64.4244C35.3684 64.237 35.091 64.0274 34.8307 63.7977L35.915 60.4885L34.8687 60.1801L34.9972 59.7892C36.1862 59.6823 37.443 59.6779 38.3304 59.8144L37.9169 61.0537ZM38.7137 66.247C37.662 65.867 37.3462 64.9336 37.6347 63.6177C37.9231 62.3019 38.7941 59.8564 38.7941 59.8564C39.1093 59.8987 39.4213 59.9623 39.7279 60.0467C39.6513 60.2641 38.687 62.9621 38.4966 63.9104C38.3062 64.8586 38.737 65.0856 38.8854 65.1385C38.9979 65.1807 39.5548 65.3835 39.8934 64.3152C40.1031 63.5857 41.1404 60.388 41.1404 60.388C41.4513 60.4349 41.7561 60.5161 42.049 60.6304C42.049 60.6304 41.1227 63.4491 40.7429 64.6048C40.4362 65.6388 39.7708 66.6267 38.7175 66.2483L38.7137 66.247ZM43.2452 67.6123L43.1484 66.8319C43.1067 66.3293 43.0937 65.8245 43.1097 65.3201C43.1454 64.3574 42.9366 63.1614 42.9366 63.1614L41.7555 67.282C41.4803 67.217 41.2094 67.1352 40.9441 67.0372L42.7875 60.8824C43.133 60.9834 43.4705 61.1103 43.7969 61.262C43.754 61.7092 43.7365 62.1584 43.7443 62.6075C43.7507 63.026 43.8076 63.584 43.8551 63.9973C43.9346 64.634 43.9501 65.2773 43.9015 65.9176C44.0963 65.2081 44.2672 64.3919 45.1883 61.7182C45.1883 61.7182 45.894 62.0355 45.9633 62.0989C45.3705 63.805 44.681 66.001 44.2108 67.7911C43.8873 67.7482 43.5663 67.689 43.2489 67.6135L43.2452 67.6123ZM47.5109 67.8096C47.4841 67.5478 47.477 67.2321 47.4765 66.9404C47.0822 66.9156 46.6914 66.8513 46.31 66.7487C46.179 67.0939 46.0076 67.4009 45.7118 67.9388C45.4311 67.9735 44.8602 67.9108 44.6606 67.8817C45.1392 67.1374 45.7899 65.8792 45.9512 65.5304C46.3815 64.6307 46.8402 63.7706 47.4514 63.1084C47.8361 63.2963 48.4575 63.8638 48.5013 63.9386C48.3062 65.1029 48.275 66.1243 48.5758 67.6171C48.2319 67.7328 47.8731 67.7976 47.5109 67.8096Z" fill="#F9F9FB"/>
<path id="Vector_4" d="M61.326 74.2815L56.0477 48.7382C55.8879 47.9706 55.4469 47.2921 54.8121 46.8366C54.1773 46.3811 53.3946 46.1817 52.6188 46.2778C49.5999 46.6391 46.6818 46.6493 45.2843 46.1901C43.8054 45.7041 42.796 45.0059 42.1336 44.3802L22.9026 61.6548C22.6069 61.9202 22.3859 62.259 22.2616 62.637C22.1374 63.0151 22.1144 63.4189 22.1949 63.8081C22.2754 64.1972 22.4566 64.5579 22.7203 64.8538C22.984 65.1498 23.3209 65.3705 23.697 65.494L58.4091 76.901C58.7852 77.0248 59.1873 77.0469 59.5752 76.965C59.9631 76.8832 60.3229 76.7003 60.6186 76.4349C60.9142 76.1693 61.1352 75.8305 61.2595 75.4525C61.3836 75.0744 61.4066 74.6706 61.326 74.2815ZM53.6939 72.3918C53.4924 71.03 53.0894 69.7067 52.4982 68.4656C52.4653 68.3977 52.4078 68.3451 52.3374 68.3184C52.267 68.2918 52.1891 68.2932 52.1196 68.3224C51.2392 68.6802 50.3291 68.9584 49.3999 69.1537C49.3501 69.1662 49.3034 69.1897 49.2634 69.2223C49.1557 69.3075 49.0756 69.4228 49.0333 69.5537C49.0132 69.6118 49.0016 69.6725 48.9989 69.734C48.9865 69.9146 48.9517 70.0931 48.8957 70.2654L48.319 72.0205C48.3012 72.0739 48.2631 72.1181 48.213 72.1436C48.1629 72.1691 48.105 72.1737 48.0516 72.1565L45.9828 71.4766C45.9728 71.4747 45.9631 71.4715 45.9538 71.4671C45.9053 71.4447 45.8637 71.4095 45.8336 71.3652C45.8034 71.321 45.7859 71.2692 45.7827 71.2156C45.7796 71.162 45.7911 71.1085 45.8159 71.0608C45.8406 71.0132 45.8779 70.973 45.9235 70.9449C45.9264 70.9408 45.9301 70.9374 45.9344 70.9351C45.9389 70.9327 45.9437 70.9315 45.9486 70.9313C46.0288 70.8817 46.1201 70.8533 46.214 70.8488L46.6105 70.8178C46.7561 70.8152 46.8985 70.7753 47.0246 70.7019C47.0679 70.6786 47.1005 70.6392 47.1155 70.5923L47.4354 69.6189C47.4409 69.6022 47.4422 69.5845 47.4393 69.5672C47.4363 69.55 47.4291 69.5337 47.4184 69.5198C47.4077 69.506 47.3938 69.4951 47.3778 69.488C47.3619 69.481 47.3444 69.4778 47.327 69.4792C45.1523 69.7015 42.74 69.5469 40.4383 68.7155C38.0471 67.8506 36.185 66.8192 34.6916 65.7153C34.6701 65.6997 34.6453 65.6894 34.6191 65.6853C34.5929 65.6812 34.566 65.6833 34.5407 65.6915C34.5155 65.6997 34.4925 65.7138 34.4736 65.7326C34.4547 65.7514 34.4404 65.7743 34.4319 65.7996L33.9477 67.2729C33.9386 67.302 33.9236 67.3292 33.9039 67.3526C33.8841 67.3759 33.8599 67.3951 33.8327 67.4089C33.8055 67.4228 33.7757 67.431 33.7453 67.4332C33.7148 67.4353 33.6844 67.4314 33.6555 67.4215L31.0791 66.5748C31.0296 66.5585 30.9885 66.5231 30.965 66.4763C30.9415 66.4296 30.9375 66.3752 30.9539 66.3255L31.0073 66.1629C31.0228 66.1119 31.055 66.0675 31.0986 66.0371C31.1423 66.0066 31.1949 65.9919 31.2478 65.9952L32.3959 66.0602C32.4792 66.064 32.5615 66.0404 32.6302 65.9929C32.699 65.9453 32.7504 65.8765 32.7765 65.797L33.1014 64.8085C33.1159 64.765 33.1196 64.7186 33.1123 64.6734C33.1049 64.6282 33.0867 64.5855 33.0592 64.549L32.5981 63.9665C32.506 63.844 32.4058 63.7278 32.298 63.619C31.0335 62.2946 30.1201 60.9545 29.326 59.7399C32.6782 58.1848 37.7031 57.172 43.5907 59.1068C43.945 59.2232 44.2869 59.3491 44.6188 59.48C44.8136 59.0006 45.3223 57.6229 45.5685 56.9053C44.8649 57.4892 44.0226 57.6632 42.7648 57.5132C43.218 57.091 43.7707 56.7913 44.3704 56.6428C43.2263 56.5499 42.6007 56.2694 41.0406 54.9999C41.9402 54.9384 43.3577 54.9712 44.0764 55.3468C42.2481 53.7997 41.9532 52.8658 41.2053 50.439C43.29 51.4927 44.4525 52.1724 45.7257 54.9644C45.623 52.6955 46.2215 50.6758 48.6625 47.7958C48.8271 49.5801 49.1978 52.1775 46.9692 55.2211C48.7547 54.2004 49.4911 53.8792 53.0147 54.2074C51.5729 55.5117 49.759 56.3268 47.8318 56.5362C49.0214 56.8751 49.3901 57.1524 50.473 58.0996C49.2022 58.2222 48.0819 58.1581 46.7384 57.4459C47.0319 57.7443 47.1554 58.0681 47.3943 59.0273C46.4487 58.5167 45.6895 57.7821 45.7109 56.9479C45.4688 57.6846 45.0049 59.0552 44.909 59.5931C48.9172 61.2486 51.2871 63.8898 52.7118 66.2965C52.7593 66.3757 52.8345 66.4341 52.9227 66.4604C53.0111 66.4867 53.1061 66.479 53.1891 66.4387C54.609 65.7331 55.5949 65.1066 56.4967 63.9382L57.6873 64.52C57.4037 64.9827 56.4767 66.0668 53.4425 67.6661C53.9493 68.5729 54.8196 70.4506 55.0123 72.7012C55.0132 72.6983 54.4752 72.5986 53.6939 72.3918Z" fill="#F9F9FB"/>
<path id="Vector_5" d="M66.2126 73.2483L59.6493 41.5069L65.8959 22.4982C66.4937 22.4613 67.0605 22.2164 67.4988 21.8055C67.9371 21.3946 68.2194 20.8436 68.2973 20.2473C68.3751 19.651 68.2435 19.0467 67.9252 18.5385C67.6068 18.0303 67.1216 17.6501 66.5531 17.4631L52.4007 12.8124C51.8565 12.6334 51.2677 12.6422 50.728 12.8373C50.1881 13.0324 49.7281 13.4026 49.4207 13.8894C49.1135 14.3761 48.9764 14.9514 49.0314 15.5241C49.0865 16.0968 49.3304 16.6341 49.7245 17.0507L43.2936 36.6204L19.5823 57.9247C18.6328 58.7776 17.9228 59.8658 17.5238 61.0799C17.1248 62.2939 17.0507 63.5912 17.309 64.8411C17.5673 66.091 18.1489 67.2497 18.9954 68.2006C19.8418 69.1516 20.9233 69.8614 22.1312 70.2586L56.8433 81.6657C58.0514 82.0626 59.3432 82.1328 60.5889 81.8694C61.8345 81.606 62.9901 81.0184 63.9397 80.1653C64.8892 79.3123 65.5991 78.2239 65.9981 77.0097C66.3971 75.7956 66.471 74.4983 66.2126 73.2483ZM62.5407 78.6003C61.8686 79.2092 61.0478 79.6281 60.1625 79.8142C59.2772 80.0002 58.3593 79.9465 57.5028 79.6587L22.7907 68.2516C21.9329 67.97 21.1647 67.4662 20.5634 66.7912C19.9621 66.1161 19.5489 65.2934 19.3652 64.4059C19.1815 63.5183 19.2339 62.5972 19.5171 61.735C19.8003 60.8728 20.3043 60.1001 20.9785 59.4943L44.9029 37.9987C45.0416 37.8758 45.145 37.7178 45.2024 37.5412L51.9569 16.9869C52.0382 16.7399 52.026 16.4718 51.9227 16.2338C51.8193 15.9958 51.632 15.8048 51.3967 15.6972C51.3158 15.6608 51.2469 15.6021 51.198 15.5279C51.1492 15.4536 51.1224 15.3669 51.1207 15.2778C51.1191 15.1887 51.1427 15.1009 51.1888 15.0245C51.2349 14.9482 51.3015 14.8866 51.381 14.8467C51.4363 14.8182 51.4966 14.801 51.5585 14.7961C51.6204 14.7912 51.6826 14.7988 51.7415 14.8184L65.8939 19.4691C66.0117 19.5097 66.1088 19.595 66.1646 19.7067C66.2203 19.8184 66.2304 19.9477 66.1925 20.067C66.1731 20.126 66.1422 20.1805 66.1015 20.2274C66.0608 20.2743 66.0112 20.3125 65.9557 20.34C65.901 20.3687 65.8412 20.3861 65.7797 20.3911C65.7183 20.3961 65.6565 20.3887 65.5981 20.3693L65.5046 20.3385C65.3734 20.2949 65.2349 20.2777 65.0969 20.2879C64.9589 20.2981 64.8242 20.3356 64.7005 20.3981C64.5768 20.4606 64.4666 20.5471 64.376 20.6524C64.2855 20.7577 64.2165 20.8798 64.173 21.0118L57.5654 41.1188C57.5084 41.2953 57.4979 41.4834 57.5352 41.6648L64.1562 73.6844C64.3452 74.5718 64.2954 75.4946 64.0118 76.3577C63.7282 77.2208 63.2209 77.9932 62.5422 78.5956L62.5407 78.6003Z" fill="#F9F9FB"/>
</g>
</g>
</svg>
