<svg width="119" height="118" viewBox="0 0 119 118" fill="none" xmlns="http://www.w3.org/2000/svg">
<g id="Logo">
<circle id="Circle" cx="59" cy="58.5498" r="53.5" fill="#232323" stroke="#F9F9FB" stroke-width="10"/>
<g id="TRX-Flask">
<path id="Vector" d="M64.9679 49.1985C65.2335 49.2847 65.5232 49.2616 65.7734 49.1345C66.0234 49.0073 66.2135 48.7865 66.3018 48.5204L71.8803 31.7131C71.9472 31.4537 71.9132 31.1793 71.7853 30.9454C71.6575 30.7115 71.4451 30.5354 71.1913 30.4528C70.9375 30.3703 70.6611 30.3873 70.418 30.5005C70.1748 30.6137 69.9831 30.8147 69.8815 31.0628L64.3043 47.8663C64.2601 47.998 64.2422 48.1369 64.2516 48.2752C64.261 48.4133 64.2975 48.5481 64.3592 48.6718C64.4208 48.7956 64.5062 48.9057 64.6107 48.9961C64.7152 49.0865 64.8366 49.1552 64.9679 49.1985Z" fill="#F9F9FB"/>
<path id="Vector_2" d="M57.7221 74.2331C57.6449 74.8853 57.5746 75.1813 57.5833 76.0636L56.7541 75.7943C57.0288 75.2281 57.3727 74.5447 57.7221 74.2331Z" fill="#F9F9FB"/>
<path id="Vector_3" d="M53.0475 70.1538C48.7523 68.7582 44.2183 69.0325 40.8201 70.2837C42.7488 72.9606 45.4707 75.7637 50.5926 77.5396C54.9706 79.0571 59.7902 78.2218 61.7768 77.1C60.6952 74.833 57.437 71.5799 53.0475 70.1538ZM47.8421 71.0538L46.7401 70.748L45.5596 74.4379C45.2654 74.2506 44.9861 74.0411 44.724 73.8113L45.8244 70.4912L44.7698 70.1841L44.9002 69.7919C46.0995 69.6823 47.367 69.6753 48.2616 69.8104L47.8421 71.0538ZM48.635 76.2592C47.5751 75.8803 47.2586 74.945 47.5522 73.6251C47.8458 72.3053 48.7292 69.8516 48.7292 69.8516C49.047 69.8933 49.3616 69.9565 49.6706 70.0405C49.5929 70.2586 48.6149 72.9656 48.4208 73.9168C48.2268 74.8679 48.6609 75.0946 48.8104 75.1474C48.9238 75.1894 49.485 75.3916 49.8287 74.3199C50.0417 73.588 51.0944 70.3798 51.0944 70.3798C51.4078 70.4262 51.715 70.507 52.0101 70.621C52.0101 70.621 51.0702 73.449 50.6848 74.6085C50.3734 75.6458 49.7003 76.6377 48.6388 76.2604L48.635 76.2592ZM53.2022 77.6188L53.1062 76.8366C53.0652 76.3327 53.0531 75.8266 53.0703 75.3209C53.1082 74.3556 52.9002 73.1568 52.9002 73.1568L51.7005 77.2907C51.4231 77.226 51.1501 77.1446 50.8827 77.0469L52.7544 70.8722C53.1027 70.9727 53.4428 71.0993 53.7717 71.2507C53.7274 71.6992 53.7089 72.1496 53.7158 72.5998C53.7214 73.0194 53.7777 73.5788 53.8248 73.993C53.9036 74.6313 53.9179 75.2763 53.8676 75.9183C54.0655 75.2066 54.2395 74.3879 55.1739 71.7053C55.1739 71.7053 55.885 72.022 55.9547 72.0854C55.3534 73.7972 54.6535 76.0003 54.1756 77.7961C53.8495 77.7538 53.5259 77.695 53.2059 77.62L53.2022 77.6188ZM57.5038 77.8079C57.4772 77.5455 57.4707 77.229 57.4708 76.9366C57.0732 76.9125 56.6793 76.8488 56.2949 76.7467C56.162 77.0931 55.9886 77.4013 55.6891 77.9411C55.4059 77.9765 54.8303 77.9149 54.6291 77.886C55.1133 77.1388 55.7721 75.876 55.9355 75.5259C56.3713 74.623 56.8357 73.7597 57.4534 73.0945C57.841 73.2821 58.4665 73.8499 58.5105 73.9247C58.3113 75.0925 58.2778 76.1167 58.5781 77.6128C58.231 77.7295 57.8691 77.7952 57.5038 77.8079Z" fill="#F9F9FB"/>
<path id="Vector_4" d="M71.4032 84.2747L66.1353 58.7017C65.9758 57.9333 65.5327 57.2545 64.8938 56.7996C64.2549 56.3447 63.4664 56.1465 62.6842 56.2444C59.6405 56.6123 56.6991 56.6286 55.2914 56.1714C53.8017 55.6876 52.7857 54.9904 52.1193 54.365L32.6996 71.706C32.401 71.9725 32.1775 72.3122 32.0515 72.6911C31.9254 73.07 31.9014 73.4745 31.9818 73.8641C32.0622 74.2537 32.2441 74.6146 32.5093 74.9104C32.7744 75.2064 33.1135 75.4268 33.4924 75.5496L68.4577 86.9043C68.8365 87.0275 69.2418 87.0488 69.633 86.966C70.0241 86.8833 70.3872 86.6994 70.6857 86.4329C70.9843 86.1663 71.2078 85.8266 71.3338 85.4476C71.4597 85.0687 71.4837 84.6642 71.4032 84.2747ZM63.7142 82.3975C63.5138 81.0339 63.1104 79.7094 62.517 78.4675C62.484 78.3996 62.4262 78.347 62.3553 78.3204C62.2844 78.2939 62.2058 78.2955 62.1357 78.3248C61.2476 78.685 60.3297 78.9655 59.3926 79.1629C59.3424 79.1756 59.2953 79.1993 59.2549 79.2319C59.1462 79.3175 59.0652 79.4332 59.0223 79.5644C59.0019 79.6225 58.9901 79.6834 58.9872 79.745C58.9743 79.9259 58.939 80.1047 58.8822 80.2774L58.2972 82.0365C58.2792 82.09 58.2406 82.1344 58.1902 82.16C58.1396 82.1857 58.0812 82.1904 58.0274 82.1732L55.9435 81.4965C55.9334 81.4946 55.9236 81.4914 55.9143 81.487C55.8654 81.4647 55.8236 81.4295 55.7934 81.3852C55.763 81.341 55.7455 81.2891 55.7424 81.2354C55.7394 81.1818 55.751 81.1282 55.7761 81.0804C55.8012 81.0326 55.8388 80.9923 55.8848 80.9641C55.8877 80.9599 55.8915 80.9566 55.8959 80.9542C55.9004 80.9518 55.9052 80.9506 55.9102 80.9504C55.9911 80.9005 56.0832 80.8719 56.1778 80.8673L56.5776 80.8354C56.7243 80.8325 56.868 80.7922 56.9952 80.7185C57.0389 80.695 57.0719 80.6555 57.0871 80.6085L57.4115 79.6329C57.4171 79.6161 57.4185 79.5984 57.4156 79.5811C57.4126 79.5639 57.4054 79.5475 57.3946 79.5337C57.3839 79.5199 57.3699 79.509 57.3538 79.5019C57.3377 79.4949 57.3201 79.4918 57.3025 79.4932C55.1101 79.7202 52.6789 79.5703 50.3605 78.7423C47.952 77.8809 46.0772 76.8516 44.5742 75.7489C44.5526 75.7334 44.5276 75.7232 44.5012 75.7191C44.4748 75.7151 44.4476 75.7172 44.4222 75.7255C44.3967 75.7338 44.3735 75.7479 44.3544 75.7668C44.3353 75.7856 44.3209 75.8086 44.3122 75.8339L43.8212 77.3105C43.8119 77.3397 43.7968 77.367 43.7769 77.3905C43.7569 77.4139 43.7324 77.4331 43.705 77.447C43.6775 77.4609 43.6475 77.4693 43.6168 77.4715C43.5861 77.4737 43.5554 77.4698 43.5263 77.46L40.9311 76.6172C40.8812 76.601 40.8399 76.5656 40.8163 76.5188C40.7928 76.472 40.7888 76.4176 40.8054 76.3677L40.8596 76.2048C40.8754 76.1537 40.9079 76.1091 40.9519 76.0786C40.9959 76.048 41.049 76.0331 41.1024 76.0363L42.2594 76.0991C42.3435 76.1028 42.4264 76.0789 42.4958 76.0312C42.5652 75.9834 42.6172 75.9144 42.6437 75.8347L42.9731 74.844C42.9878 74.8004 42.9917 74.7539 42.9844 74.7087C42.977 74.6634 42.9588 74.6207 42.9312 74.5842L42.4676 74.0016C42.375 73.8791 42.2742 73.763 42.1658 73.6543C40.8939 72.3304 39.976 70.9899 39.1781 69.7751C42.5602 68.2107 47.6273 67.1861 53.5578 69.112C53.9147 69.2279 54.259 69.3533 54.5933 69.4837C54.7907 69.0032 55.3062 67.6222 55.5558 66.903C54.8455 67.4893 53.9961 67.6652 52.7285 67.5176C53.1862 67.0937 53.7439 66.7925 54.3487 66.6425C53.1957 66.5518 52.5657 66.2721 50.9958 65.0038C51.9026 64.9404 53.3315 64.9703 54.0551 65.3451C52.2153 63.7992 51.92 62.8645 51.1711 60.4354C53.2703 61.4864 54.4407 62.1649 55.7183 64.9587C55.6194 62.6864 56.2268 60.6623 58.6933 57.7728C58.8555 59.5596 59.2238 62.1604 56.9712 65.2132C58.773 64.1874 59.5159 63.8641 63.0669 64.1857C61.6109 65.495 59.7809 66.315 57.8379 66.5287C59.0363 66.8657 59.4074 67.1427 60.497 68.0892C59.2158 68.2146 58.0867 68.1526 56.734 67.4421C57.0291 67.7404 57.153 68.0644 57.3919 69.0247C56.4397 68.5151 55.676 67.7809 55.6993 66.9454C55.4538 67.6837 54.9834 69.0574 54.8855 69.5964C58.9223 71.2464 61.3057 73.887 62.7368 76.2945C62.7845 76.3737 62.8602 76.4321 62.9491 76.4583C63.038 76.4845 63.1338 76.4765 63.2176 76.436C64.6503 75.7264 65.6453 75.0969 66.5567 73.9249L67.7556 74.5051C67.4688 74.9691 66.5322 76.0569 63.4705 77.6648C63.9795 78.572 64.8529 80.4509 65.0424 82.7047C65.0434 82.7018 64.5013 82.603 63.7142 82.3975Z" fill="#F9F9FB"/>
<path id="Vector_5" d="M76.2946 83.2352L69.7492 51.4832L76.0798 32.4476C76.682 32.4094 77.2534 32.1631 77.6957 31.751C78.138 31.339 78.4235 30.787 78.5032 30.1901C78.5827 29.5931 78.4514 28.9887 78.1319 28.4808C77.8123 27.9728 77.3243 27.5933 76.7521 27.4073L62.5073 22.7818C61.9595 22.6038 61.3666 22.6137 60.8225 22.8101C60.2784 23.0064 59.8143 23.3779 59.5037 23.8656C59.1933 24.3534 59.054 24.9294 59.1083 25.5024C59.1626 26.0754 59.4071 26.6126 59.8032 27.0288L53.2858 46.6262L29.36 67.9946C28.4019 68.8501 27.6846 69.9405 27.2802 71.1564C26.8758 72.3721 26.7985 73.6705 27.0561 74.9208C27.3137 76.1712 27.8972 77.3295 28.7478 78.2794C29.5984 79.2294 30.6862 79.9375 31.9019 80.3326L66.8406 91.6779C68.0566 92.0727 69.3575 92.1403 70.6127 91.8742C71.8678 91.6081 73.033 91.0176 73.9912 90.162C74.9493 89.3064 75.6666 88.2158 76.0709 86.9998C76.4752 85.784 76.5524 84.4856 76.2946 83.2352ZM72.5853 88.5986C71.9071 89.2094 71.0796 89.6303 70.1875 89.8183C69.2955 90.0062 68.3711 89.9544 67.509 89.6681L32.5703 78.3228C31.7069 78.0427 30.9342 77.5401 30.33 76.8658C29.7257 76.1914 29.3112 75.3689 29.128 74.4811C28.9449 73.5933 28.9996 72.6713 29.2866 71.808C29.5736 70.9445 30.0828 70.1702 30.7631 69.5626L54.9038 48.0023C55.0438 47.879 55.1482 47.7206 55.2064 47.5438L62.0518 26.9604C62.1341 26.713 62.1225 26.4447 62.0188 26.2068C61.9152 25.9688 61.727 25.778 61.4902 25.6708C61.4088 25.6346 61.3395 25.576 61.2904 25.5018C61.2414 25.4275 61.2145 25.3408 61.213 25.2516C61.2116 25.1625 61.2355 25.0745 61.2821 24.9981C61.3287 24.9216 61.396 24.8598 61.4761 24.8197C61.5319 24.7911 61.5927 24.7737 61.655 24.7687C61.7174 24.7637 61.78 24.7712 61.8392 24.7906L76.084 29.4162C76.2026 29.4566 76.3002 29.5417 76.3562 29.6534C76.4121 29.765 76.422 29.8944 76.3836 30.0139C76.3639 30.073 76.3326 30.1276 76.2916 30.1746C76.2505 30.2216 76.2005 30.26 76.1445 30.2876C76.0894 30.3164 76.0291 30.3339 75.9671 30.3391C75.9053 30.3442 75.8431 30.3369 75.7842 30.3176L75.6901 30.287C75.5581 30.2436 75.4186 30.2267 75.2796 30.2372C75.1406 30.2477 75.0049 30.2855 74.8801 30.3483C74.7554 30.4111 74.6442 30.4978 74.5528 30.6034C74.4614 30.7089 74.3916 30.8313 74.3476 30.9635L67.6511 51.0991C67.5933 51.2758 67.5824 51.4641 67.6195 51.6455L74.2225 83.6757C74.4111 84.5635 74.3591 85.4871 74.0716 86.3514C73.7842 87.2157 73.2717 87.9898 72.5869 88.5939L72.5853 88.5986Z" fill="#F9F9FB"/>
</g>
</g>
</svg>
