<svg width="52" height="52" viewBox="0 0 52 52" fill="none" xmlns="http://www.w3.org/2000/svg">
<circle cx="25.9839" cy="26.05" r="25.2739" fill="#F9F9FB"/>
<g clip-path="url(#clip0)">
<path d="M14.4427 34.3795C13.8989 34.2386 13.3664 34.0574 12.8495 33.8373L12.8319 28.2278L11.0667 28.282V27.6185C12.8415 26.8497 14.7645 26.2085 16.2032 25.9725V28.0794L14.3662 28.1576L14.4427 34.3795Z" fill="#232323"/>
<path d="M22.3466 32.0988C22.3976 33.8357 21.8686 35.6843 20.0619 35.6332C18.2552 35.5822 17.2945 34.311 17.0731 32.1482C16.8516 29.9855 16.9552 25.8035 16.9552 25.8035C17.4615 25.709 17.9735 25.6488 18.4878 25.6232C18.4799 25.9965 18.3604 30.6155 18.5468 32.1626C18.7332 33.7097 19.5107 33.8421 19.7656 33.8485C19.96 33.8564 20.9175 33.8868 20.8984 32.0781C20.8537 30.8563 20.833 25.435 20.833 25.435C21.3343 25.3495 21.8436 25.3206 22.3514 25.3489L22.3466 32.0988Z" fill="#232323"/>
<path d="M23.6165 25.3634C24.2017 25.3444 24.7875 25.3694 25.369 25.4384C25.5281 26.1448 25.7281 26.8414 25.968 27.5246C26.1895 28.1626 26.5591 28.9887 26.8411 29.598C27.2844 30.5333 27.6335 31.5106 27.883 32.5152C27.8241 31.3317 27.6727 29.9936 27.7397 25.4352C27.7397 25.4352 28.9855 25.566 29.1241 25.6282C29.0732 28.539 29.1241 32.2504 29.3058 35.2314C28.7258 35.3574 27.7301 35.442 27.7301 35.442L27.1868 34.2952C26.8682 33.5462 26.5931 32.7793 26.3631 31.9984C25.9314 30.5056 25.0057 28.7782 25.0057 28.7782L25.2702 35.686C24.814 35.7249 24.356 35.7361 23.8985 35.7195L23.6165 25.3634Z" fill="#232323"/>
<path d="M33.9561 27.1671C33.8509 27.073 32.6082 26.5164 31.9216 26.4239L30.8382 30.8898C30.7617 31.5054 30.3969 33.7607 30.0416 35.1404C30.3602 35.0861 31.2715 34.8947 31.6874 34.6985C31.8658 33.7272 31.9757 33.1706 32.006 32.5757C32.6416 32.5411 33.2724 32.4444 33.8892 32.287C34.0373 32.7336 34.2078 33.2136 34.3815 33.5996C34.9353 33.3999 35.4566 33.1194 35.9285 32.767C34.7129 30.6298 34.2445 29.0492 33.9561 27.1671ZM32.28 31.1115C32.4107 30.1035 32.5907 28.8785 32.9667 28.2405C33.1802 29.2773 33.2232 29.7637 33.6852 31.1115H32.28Z" fill="#232323"/>
<path d="M43.4905 30.4943C47.3476 26.518 48.2255 24.3903 48.4294 23.537L46.3136 23.2483C45.517 25.4909 44.3094 26.9487 42.4899 28.7446C42.3824 28.8482 42.2401 28.9078 42.0909 28.9117C41.9417 28.9155 41.7965 28.8633 41.6838 28.7653C38.2775 25.7971 33.2956 22.9437 26.2935 22.4253C26.1692 21.5529 26.1835 19.2195 26.1915 17.9674C26.5803 19.2577 28.1177 20.001 29.832 20.3056C28.978 18.9563 28.6243 18.524 28.0237 18.2146C30.4485 18.6293 32.2058 18.1636 34.097 17.3358C31.9541 16.4251 31.2467 16.1906 29.2441 16.2704C32.1028 14.9797 34.481 12.8177 36.0391 10.0931C30.4533 11.369 29.4767 12.2255 27.2526 14.6882C29.1421 8.90482 27.2526 5.11837 26.1055 2.46116C23.7953 8.10255 23.9037 11.4982 25.2005 14.9226C21.8373 11.2845 19.704 10.8283 15.96 10.2653C18.337 13.6068 19.2627 14.8907 22.8585 16.3389C21.5617 16.1236 19.3647 16.7887 18.012 17.3358C21.055 18.4937 22.1543 18.6118 23.9642 18.1763C23.1173 18.708 22.4203 19.4475 21.9393 20.3248C23.9499 19.9212 25.1575 19.2306 25.9446 17.9818C25.9302 19.2051 25.8442 21.572 25.7852 22.4046C25.2085 22.3711 24.619 22.3504 24.0152 22.3504C13.978 22.3504 6.76404 26.4319 2.39389 30.5006C4.23085 31.9632 6.31316 33.5566 8.92601 34.949C9.14732 35.0567 9.3608 35.1798 9.56488 35.3174L10.5702 35.9777C10.6311 36.0197 10.6808 36.0759 10.7149 36.1416C10.7491 36.2072 10.7667 36.2802 10.7662 36.3542V38.0289C10.7663 38.1642 10.7219 38.2958 10.6398 38.4034C10.5578 38.5109 10.4426 38.5884 10.3121 38.6238L8.51337 39.1023C8.43078 39.1241 8.35791 39.1731 8.30647 39.2413C8.25504 39.3096 8.22803 39.3932 8.22978 39.4787V39.7833C8.22978 39.8679 8.26335 39.9491 8.32311 40.0089C8.38286 40.0687 8.46391 40.1023 8.54842 40.1023H12.9265C12.9758 40.1028 13.0247 40.0933 13.0703 40.0747C13.1159 40.056 13.1574 40.0284 13.1922 39.9935C13.2271 39.9586 13.2546 39.9171 13.2733 39.8714C13.292 39.8258 13.3014 39.7768 13.3009 39.7275V37.2154C13.3009 37.1725 13.311 37.1302 13.3304 37.0919C13.3498 37.0536 13.378 37.0204 13.4126 36.9951C13.4472 36.9698 13.4873 36.953 13.5297 36.9461C13.572 36.9392 13.6154 36.9424 13.6562 36.9555C16.516 37.8949 19.9016 38.5361 24.012 38.6589C27.9727 38.7737 31.7613 37.7896 34.9939 36.3605C35.0202 36.3499 35.0486 36.3458 35.0768 36.3487C35.105 36.3515 35.132 36.3612 35.1556 36.377C35.1792 36.3927 35.1985 36.414 35.212 36.4389C35.2255 36.4638 35.2327 36.4917 35.2329 36.52V38.1676C35.2331 38.2474 35.2023 38.324 35.1469 38.3814C34.991 38.5575 34.7923 38.6905 34.5701 38.7673L33.9759 39.013C33.8334 39.0682 33.707 39.1581 33.6079 39.2745C33.6005 39.2773 33.5939 39.2818 33.5887 39.2876C33.5834 39.2934 33.5796 39.3004 33.5776 39.308C33.5217 39.3741 33.4847 39.454 33.4706 39.5394C33.4565 39.6248 33.4658 39.7125 33.4975 39.793C33.5292 39.8736 33.5821 39.944 33.6507 39.9967C33.7192 40.0495 33.8008 40.0827 33.8867 40.0928C33.9036 40.0949 33.9207 40.0949 33.9376 40.0928H37.4682C37.559 40.0923 37.6461 40.0561 37.7105 39.992C37.7749 39.9278 37.8115 39.8408 37.8123 39.7498V36.7704C37.8114 36.4783 37.7745 36.1874 37.7024 35.9044C37.6753 35.8084 37.6624 35.709 37.6641 35.6093C37.6625 35.3879 37.7274 35.1712 37.8505 34.9873C37.8953 34.9171 37.9545 34.8573 38.0242 34.8118C39.3553 34.0455 40.6152 33.1616 41.7889 32.1706C41.8811 32.0914 41.9999 32.0503 42.1212 32.0556C42.2425 32.0609 42.3573 32.1123 42.4421 32.1993C43.9787 33.8026 45.2675 35.6266 46.2658 37.611C47.5738 37.5344 48.4517 37.4212 48.4517 37.4212C47.0162 34.0686 44.7284 31.6299 43.4905 30.4943ZM23.7555 36.7146C15.0343 36.5376 9.45495 33.6156 5.15809 30.4831C9.70986 26.8864 16.4905 24.2197 23.7555 24.2197C31.1766 24.2197 37.7996 27.5691 40.6004 30.4879C38.1389 33.2009 31.2053 36.8677 23.7555 36.721V36.7146Z" fill="#232323"/>
</g>
<defs>
<clipPath id="clip0">
<rect width="46.0546" height="37.63" fill="white" transform="translate(2.39517 2.46102)"/>
</clipPath>
</defs>
</svg>
