<svg width="43" height="57" viewBox="0 0 43 57" fill="none" xmlns="http://www.w3.org/2000/svg">
<g id="State=Close">
<g id="Hamburger">
<line id="Line 1" x1="8.98193" y1="10" x2="34.9819" y2="10" stroke="#232323" stroke-width="2"/>
<line id="Line 2" x1="8.98193" y1="20" x2="34.9819" y2="20" stroke="#232323" stroke-width="2"/>
<line id="Line 3" x1="8.98193" y1="30" x2="34.9819" y2="30" stroke="#232323" stroke-width="2"/>
</g>
<g id="Label">
<path id="MENU" d="M3.771 45.4688L6.23193 52.0078L8.68701 45.4688H10.603V54H9.12646V51.1875L9.27295 47.4258L6.75342 54H5.69287L3.1792 47.4316L3.32568 51.1875V54H1.84912V45.4688H3.771ZM19.8672 50.1914H16.3633V52.8164H20.459V54H14.8808V45.4688H20.4179V46.6641H16.3633V49.0195H19.8672V50.1914ZM30.9536 54H29.4712L25.6684 47.9473V54H24.186V45.4688H25.6684L29.4829 51.5449V45.4688H30.9536V54ZM41.4658 45.4688V51.1699C41.4658 52.0762 41.1747 52.7949 40.5927 53.3262C40.0146 53.8535 39.2431 54.1172 38.2783 54.1172C37.3017 54.1172 36.5263 53.8574 35.9521 53.3379C35.3779 52.8145 35.0908 52.0898 35.0908 51.1641V45.4688H36.5673V51.1758C36.5673 51.7461 36.7119 52.1816 37.0009 52.4824C37.29 52.7832 37.7158 52.9336 38.2783 52.9336C39.4189 52.9336 39.9892 52.332 39.9892 51.1289V45.4688H41.4658Z" fill="#232323"/>
</g>
</g>
</svg>
