<svg width="76" height="76" viewBox="0 0 76 76" fill="none" xmlns="http://www.w3.org/2000/svg">
<circle cx="36.0475" cy="36.0656" r="34.4656" stroke="#232323" stroke-width="2.19993"/>
<path d="M42.1778 30.768C42.3825 30.8351 42.6055 30.8177 42.798 30.7197C42.9903 30.6217 43.1364 30.4512 43.204 30.2455L47.4735 17.2532C47.5246 17.0526 47.498 16.8404 47.3992 16.6592C47.3004 16.4781 47.1365 16.3415 46.9409 16.2773C46.7453 16.213 46.5325 16.2257 46.3455 16.3129C46.1584 16.4001 46.0111 16.5553 45.9332 16.747L41.6647 29.7365C41.6308 29.8383 41.6172 29.9457 41.6247 30.0526C41.6322 30.1595 41.6605 30.2638 41.7081 30.3596C41.7558 30.4554 41.8218 30.5408 41.9024 30.6108C41.983 30.6809 42.0766 30.7343 42.1778 30.768Z" fill="#232323"/>
<path d="M36.6178 50.1268C36.5595 50.6308 36.5059 50.8595 36.5141 51.5416L35.8765 51.3321C36.0867 50.8948 36.3498 50.3671 36.6178 50.1268Z" fill="#232323"/>
<path d="M33.0295 46.9819C29.7342 45.899 26.2586 46.1035 23.6551 47.0631C25.1381 49.1305 27.2294 51.2964 31.159 52.6739C34.5179 53.8509 38.2116 53.2142 39.7331 52.3522C38.9002 50.6023 36.3971 48.0886 33.0295 46.9819ZM29.04 47.6679L28.1947 47.4304L27.2954 50.2741C27.0695 50.1292 26.855 49.9672 26.6538 49.7896L27.4922 47.2309L26.6832 46.9924L26.7825 46.6902C27.7018 46.6076 28.6736 46.6041 29.3597 46.7097L29.04 47.6679ZM29.6561 51.6834C28.8429 51.3896 28.5988 50.6678 28.8218 49.6504C29.0448 48.633 29.7182 46.7422 29.7182 46.7422C29.962 46.7749 30.2032 46.824 30.4403 46.8893C30.3811 47.0574 29.6355 49.1435 29.4882 49.8767C29.341 50.6099 29.6742 50.7853 29.7888 50.8263C29.8758 50.8589 30.3064 51.0157 30.5682 50.1897C30.7304 49.6256 31.5325 47.1532 31.5325 47.1532C31.7728 47.1895 32.0085 47.2522 32.2349 47.3406C32.2349 47.3406 31.5187 49.52 31.2251 50.4136C30.988 51.2131 30.4735 51.9769 29.659 51.6843L29.6561 51.6834ZM33.1598 52.739L33.085 52.1356C33.0528 51.747 33.0427 51.3566 33.0551 50.9667C33.0826 50.2223 32.9212 49.2975 32.9212 49.2975L32.008 52.4836C31.7952 52.4333 31.5857 52.3701 31.3806 52.2943L32.8059 47.5355C33.0731 47.6135 33.334 47.7117 33.5864 47.829C33.5532 48.1747 33.5397 48.5221 33.5457 48.8693C33.5507 49.1929 33.5947 49.6243 33.6315 49.9439C33.6929 50.4362 33.7049 50.9336 33.6673 51.4287C33.8179 50.8801 33.95 50.249 34.6622 48.1817C34.6622 48.1817 35.2079 48.427 35.2614 48.476C34.8031 49.7952 34.27 51.4931 33.9064 52.8772C33.6563 52.8441 33.4081 52.7983 33.1627 52.7399L33.1598 52.739ZM36.4581 52.8915C36.4373 52.6891 36.4318 52.445 36.4315 52.2195C36.1266 52.2003 35.8245 52.1506 35.5296 52.0712C35.4282 52.3382 35.2958 52.5756 35.067 52.9914C34.8499 53.0183 34.4086 52.9698 34.2542 52.9473C34.6243 52.3718 35.1274 51.399 35.2521 51.1292C35.5848 50.4336 35.9395 49.7686 36.4121 49.2566C36.7095 49.4018 37.19 49.8407 37.2238 49.8985C37.0729 50.7987 37.0489 51.5885 37.2814 52.7427C37.0155 52.8322 36.7381 52.8823 36.4581 52.8915Z" fill="#232323"/>
<path d="M47.1397 57.8956L43.0585 38.1456C42.935 37.5521 42.594 37.0275 42.1032 36.6753C41.6123 36.3231 41.0072 36.1689 40.4073 36.2432C38.0731 36.5226 35.8169 36.5305 34.7363 36.1754C33.5928 35.7996 32.8124 35.2598 32.3002 34.776L17.4309 48.1327C17.2023 48.3379 17.0313 48.5998 16.9353 48.8921C16.8392 49.1844 16.8214 49.4967 16.8837 49.7976C16.9459 50.0984 17.0861 50.3773 17.29 50.6061C17.4938 50.835 17.7543 51.0057 18.0451 51.1011L44.8844 59.921C45.1751 60.0167 45.4861 60.0338 45.786 59.9705C46.0859 59.9072 46.3641 59.7658 46.5927 59.5606C46.8213 59.3552 46.9922 59.0933 47.0883 58.801C47.1842 58.5087 47.202 58.1964 47.1397 57.8956ZM41.2386 56.4345C41.0828 55.3815 40.7712 54.3584 40.3141 53.3987C40.2886 53.3463 40.2442 53.3056 40.1898 53.285C40.1354 53.2644 40.0751 53.2655 40.0213 53.288C39.3406 53.5647 38.637 53.7798 37.9185 53.9308C37.8799 53.9405 37.8439 53.9587 37.8129 53.9838C37.7297 54.0497 37.6677 54.1389 37.635 54.2401C37.6195 54.285 37.6105 54.3319 37.6084 54.3795C37.5988 54.5191 37.572 54.6571 37.5287 54.7903L37.0827 56.1474C37.069 56.1887 37.0395 56.2229 37.0008 56.2426C36.9621 56.2623 36.9173 56.2658 36.876 56.2525L35.2764 55.7269C35.2687 55.7254 35.2611 55.7229 35.254 55.7195C35.2165 55.7022 35.1843 55.6749 35.161 55.6407C35.1377 55.6065 35.1242 55.5665 35.1217 55.525C35.1193 55.4836 35.1282 55.4422 35.1473 55.4054C35.1665 55.3685 35.1953 55.3375 35.2305 55.3158C35.2328 55.3125 35.2356 55.3099 35.239 55.3082C35.2424 55.3063 35.2462 55.3054 35.25 55.3052C35.3119 55.2668 35.3826 55.2449 35.4551 55.2415L35.7618 55.2175C35.8743 55.2155 35.9844 55.1846 36.0819 55.1279C36.1154 55.1098 36.1406 55.0794 36.1522 55.0431L36.3995 54.2905C36.4038 54.2775 36.4048 54.2639 36.4026 54.2505C36.4002 54.2372 36.3947 54.2246 36.3864 54.2139C36.3782 54.2032 36.3674 54.1948 36.355 54.1892C36.3427 54.1838 36.3292 54.1814 36.3157 54.1824C34.6343 54.3543 32.7691 54.2348 30.9894 53.592C29.1405 52.9233 27.7008 52.1257 26.5461 51.2722C26.5295 51.2601 26.5103 51.2522 26.4901 51.249C26.4698 51.2459 26.449 51.2475 26.4295 51.2538C26.4099 51.2602 26.3921 51.2711 26.3775 51.2856C26.3629 51.3001 26.3519 51.3178 26.3453 51.3374L25.9709 52.4765C25.9639 52.4991 25.9523 52.5201 25.9371 52.5382C25.9218 52.5562 25.9031 52.571 25.882 52.5817C25.8609 52.5924 25.8379 52.5988 25.8144 52.6005C25.7909 52.6022 25.7673 52.5991 25.745 52.5914L23.7529 51.9368C23.7146 51.9242 23.6829 51.8968 23.6647 51.8606C23.6466 51.8245 23.6435 51.7825 23.6561 51.744L23.6974 51.6183C23.7094 51.5789 23.7343 51.5446 23.768 51.521C23.8017 51.4975 23.8424 51.4861 23.8834 51.4887L24.771 51.5389C24.8355 51.5419 24.8991 51.5236 24.9522 51.4869C25.0054 51.4501 25.0451 51.3969 25.0654 51.3354L25.3165 50.5711C25.3277 50.5374 25.3306 50.5016 25.325 50.4667C25.3192 50.4317 25.3052 50.3987 25.284 50.3704L24.9274 49.92C24.8562 49.8253 24.7787 49.7355 24.6954 49.6514C23.7177 48.6274 23.0114 47.5912 22.3974 46.6521C24.9894 45.4497 28.8746 44.6666 33.4268 46.1626C33.7008 46.2526 33.9651 46.3499 34.2218 46.4512C34.3724 46.0805 34.7657 45.0152 34.9561 44.4604C34.4121 44.9119 33.7608 45.0464 32.7882 44.9304C33.1387 44.6039 33.566 44.3722 34.0297 44.2574C33.1451 44.1856 32.6614 43.9687 31.4551 42.9871C32.1507 42.9396 33.2467 42.9649 33.8024 43.2554C32.3887 42.0592 32.1607 41.3371 31.5824 39.4607C33.1944 40.2753 34.0932 40.8009 35.0776 42.9597C34.9982 41.2054 35.4609 39.6437 37.3484 37.4169C37.4756 38.7966 37.7623 40.8049 36.0391 43.1581C37.4197 42.369 37.989 42.1206 40.7134 42.3744C39.5986 43.3829 38.1962 44.0131 36.706 44.175C37.6258 44.437 37.9109 44.6514 38.7482 45.3838C37.7656 45.4786 36.8994 45.429 35.8606 44.8784C36.0875 45.1091 36.1831 45.3594 36.3678 46.1011C35.6366 45.7063 35.0496 45.1383 35.0662 44.4933C34.879 45.0629 34.5203 46.1227 34.4461 46.5386C37.5453 47.8186 39.3777 49.8608 40.4792 51.7216C40.5159 51.7828 40.5741 51.828 40.6423 51.8484C40.7106 51.8687 40.7841 51.8627 40.8483 51.8316C41.9462 51.286 42.7084 50.8016 43.4057 49.8982L44.3263 50.348C44.107 50.7058 43.3902 51.544 41.0442 52.7806C41.4361 53.4817 42.109 54.9336 42.2579 56.6737C42.2587 56.6715 41.8427 56.5944 41.2386 56.4345Z" fill="#232323"/>
<path d="M50.918 57.0967L45.8433 32.5545L50.6732 17.857C51.1354 17.8285 51.5736 17.6391 51.9125 17.3214C52.2514 17.0037 52.4698 16.5776 52.53 16.1166C52.5901 15.6555 52.4883 15.1883 52.2422 14.7954C51.9961 14.4025 51.6209 14.1084 51.1813 13.9639L40.2388 10.3679C39.818 10.2296 39.3628 10.2363 38.9454 10.3872C38.528 10.538 38.1723 10.8243 37.9347 11.2007C37.6971 11.577 37.5911 12.0218 37.6337 12.4646C37.6763 12.9075 37.8648 13.3229 38.1696 13.645L33.1972 28.7762L14.8637 45.2486C14.1296 45.9081 13.5806 46.7495 13.2721 47.6882C12.9636 48.6269 12.9063 49.6299 13.106 50.5963C13.3057 51.5628 13.7554 52.4587 14.4099 53.1939C15.0644 53.9292 15.9006 54.478 16.8345 54.7851L43.6738 63.605C44.6079 63.9119 45.6067 63.9662 46.5698 63.7626C47.5329 63.5589 48.4265 63.1045 49.1607 62.4449C49.8949 61.7854 50.4438 60.9439 50.7522 60.0051C51.0607 59.0663 51.1179 58.0632 50.918 57.0967ZM48.079 61.2349C47.5593 61.7057 46.9247 62.0296 46.2402 62.1735C45.5556 62.3173 44.8459 62.2758 44.1837 62.0533L17.3444 53.2334C16.6812 53.0156 16.0872 52.6261 15.6223 52.1041C15.1574 51.5821 14.8379 50.946 14.6958 50.2598C14.5538 49.5736 14.5944 48.8613 14.8133 48.1948C15.0323 47.5281 15.422 46.9306 15.9433 46.4622L34.4415 29.8419C34.5487 29.7468 34.6287 29.6247 34.673 29.4882L39.8956 13.5957C39.9585 13.4047 39.9491 13.1974 39.8692 13.0134C39.7892 12.8294 39.6444 12.6817 39.4625 12.5985C39.3999 12.5704 39.3467 12.525 39.3088 12.4675C39.2711 12.4101 39.2504 12.3431 39.2491 12.2742C39.2478 12.2053 39.2661 12.1374 39.3017 12.0784C39.3374 12.0194 39.3889 11.9717 39.4504 11.9409C39.4931 11.9188 39.5398 11.9055 39.5876 11.9018C39.6354 11.898 39.6836 11.9039 39.7291 11.919L50.6716 15.5149C50.7627 15.5463 50.8378 15.6122 50.8809 15.6986C50.9241 15.785 50.9318 15.8849 50.9025 15.9772C50.8876 16.0228 50.8636 16.065 50.8322 16.1012C50.8007 16.1374 50.7624 16.167 50.7194 16.1883C50.6772 16.2105 50.6309 16.2239 50.5834 16.2278C50.5359 16.2317 50.4881 16.2259 50.4429 16.2109L50.3706 16.1871C50.2692 16.1534 50.1621 16.1401 50.0554 16.148C49.9487 16.1559 49.8446 16.1849 49.7489 16.2332C49.6533 16.2816 49.5681 16.3484 49.4981 16.4298C49.4281 16.5112 49.3747 16.6056 49.3411 16.7077L44.2321 32.2544C44.188 32.3908 44.1799 32.5363 44.2087 32.6765L49.328 57.4339C49.4742 58.1201 49.4357 58.8336 49.2164 59.5009C48.9971 60.1683 48.6049 60.7655 48.0802 61.2312L48.079 61.2349Z" fill="#232323"/>
</svg>
