<svg width="51" height="50" viewBox="0 0 51 50" fill="none" xmlns="http://www.w3.org/2000/svg">
<path d="M47.0891 29.294C47.1245 29.3294 47.1751 29.3673 47.2332 29.3977C47.3621 29.4684 47.5238 29.4861 47.5238 29.4861C47.5238 29.4861 47.3646 29.519 47.1978 29.4886C47.1144 29.4735 47.031 29.4457 46.9729 29.4128C46.9603 29.4052 46.9476 29.3977 46.935 29.3901C46.6418 29.567 46.3385 29.7464 46.0226 29.9284C46.0833 29.9789 46.1743 30.0446 46.2804 30.0901C46.379 30.1331 46.4902 30.1609 46.5736 30.1786C46.6595 30.1938 46.7176 30.2039 46.7176 30.2039C46.7176 30.2039 46.657 30.2064 46.571 30.2089C46.4826 30.2089 46.3638 30.2064 46.2475 30.1811C46.1288 30.1584 46.015 30.1129 45.9342 30.0724C45.9013 30.0548 45.8735 30.0396 45.8507 30.027C45.5222 30.214 45.181 30.4061 44.8297 30.6007C44.903 30.6815 45.0243 30.7927 45.1785 30.8686C45.3124 30.9393 45.4641 30.9899 45.5753 31.0253C45.6915 31.0556 45.7673 31.0783 45.7673 31.0783C45.7673 31.0783 45.6865 31.0733 45.5652 31.0632C45.4464 31.0531 45.2846 31.0328 45.1254 30.9873C44.9662 30.9444 44.8145 30.8686 44.7109 30.7978C44.668 30.77 44.6326 30.7447 44.6073 30.722C44.2636 30.909 43.9098 31.0985 43.5484 31.2881C43.561 31.3033 43.5762 31.321 43.5938 31.3386C43.6848 31.4372 43.8264 31.556 43.9906 31.647C44.1549 31.743 44.3344 31.8138 44.4734 31.8643C44.6098 31.9123 44.7033 31.9452 44.7033 31.9452C44.7033 31.9452 44.6048 31.9275 44.4582 31.9022C44.3141 31.877 44.1195 31.834 43.93 31.7632C43.7404 31.695 43.5635 31.5939 43.4397 31.5004C43.3942 31.465 43.3537 31.4322 43.3234 31.4044C43.3133 31.4094 43.3032 31.4145 43.2906 31.422C42.9494 31.5939 42.6031 31.7658 42.2493 31.9376C42.2695 31.9679 42.2948 31.9983 42.3251 32.0337C42.4262 32.155 42.5779 32.3066 42.7573 32.433C42.9342 32.5593 43.1339 32.6604 43.2906 32.7236C43.4473 32.7868 43.5585 32.8146 43.5585 32.8146C43.5585 32.8146 43.4447 32.802 43.2754 32.7615C43.1086 32.7211 42.8887 32.6478 42.684 32.5417C42.4793 32.438 42.2897 32.3016 42.1608 32.1853C42.1002 32.1322 42.0522 32.0842 42.0193 32.0488C41.5088 32.294 40.9856 32.5366 40.4574 32.7716C40.4878 32.7994 40.5206 32.8323 40.5585 32.8652C40.7076 32.9991 40.9174 33.1684 41.1499 33.3125C41.3799 33.454 41.6301 33.5703 41.8247 33.6486C42.0218 33.7219 42.1533 33.7699 42.1533 33.7699C42.1533 33.7699 42.0168 33.7371 41.8095 33.6865C41.6048 33.6309 41.3369 33.545 41.0791 33.4237C40.8239 33.3024 40.5838 33.1533 40.4145 33.0345C40.3285 32.9738 40.2578 32.9208 40.2097 32.8828C39.7953 33.0673 39.3783 33.2468 38.9562 33.4237C38.8753 33.4565 38.7944 33.4894 38.711 33.5223C38.754 33.5602 38.802 33.6031 38.8601 33.6537C39.0295 33.8003 39.2671 33.9848 39.5248 34.1415C39.7852 34.3007 40.0657 34.4296 40.2805 34.5155C40.4979 34.5989 40.647 34.6494 40.647 34.6494C40.647 34.6494 40.4928 34.6141 40.2653 34.5509C40.0379 34.4902 39.7397 34.3891 39.4566 34.2552C39.1735 34.1212 38.9082 33.957 38.7161 33.823C38.5948 33.7371 38.5013 33.6663 38.4507 33.6284C37.9402 33.8306 37.4297 34.0252 36.9217 34.2147C36.9621 34.2552 37.0127 34.3057 37.0708 34.3588C37.2427 34.5206 37.4929 34.7152 37.7709 34.8744C38.3269 35.2055 38.9815 35.3697 38.9815 35.3697C38.9815 35.3697 38.3117 35.2712 37.7052 34.9881C37.4019 34.8516 37.1188 34.6747 36.9217 34.5231C36.8029 34.4346 36.7144 34.3588 36.6614 34.3108C36.1862 34.4852 35.7136 34.6494 35.2461 34.8087C35.284 34.8441 35.332 34.887 35.3851 34.935C35.5595 35.0867 35.8071 35.2762 36.07 35.4456C36.3328 35.6174 36.6108 35.7741 36.8256 35.8803C37.0405 35.9864 37.1896 36.0496 37.1896 36.0496C37.1896 36.0496 37.0329 36.0016 36.8054 35.9156C36.5805 35.8297 36.2848 35.7033 35.9967 35.5568C35.7111 35.4102 35.4381 35.2408 35.241 35.1018C35.1197 35.0159 35.0262 34.9451 34.9731 34.8997C34.8063 34.9578 34.637 35.0109 34.4727 35.0665C34.2756 35.1271 34.081 35.1878 33.8889 35.2484C34.0153 35.39 34.2301 35.6149 34.4676 35.8247C34.8442 36.1608 35.2688 36.4514 35.2688 36.4514C35.2688 36.4514 34.8063 36.2164 34.3817 35.9258C34.0405 35.6958 33.7322 35.4304 33.6185 35.3293C33.1459 35.4734 32.6833 35.6073 32.236 35.7311C32.2588 35.764 32.284 35.8044 32.3194 35.8474C32.4205 35.9814 32.5797 36.1482 32.7516 36.3023C32.9234 36.459 33.1105 36.6031 33.2571 36.7016C33.4036 36.8002 33.5148 36.8482 33.5148 36.8482C33.5148 36.8482 33.3986 36.8154 33.2343 36.7345C33.0726 36.6562 32.8628 36.5374 32.6657 36.4034C32.4685 36.2669 32.279 36.1178 32.1476 35.9915C32.0692 35.9156 32.0111 35.8474 31.9782 35.8044C31.7027 35.8777 31.4348 35.951 31.1745 36.0193C31.1846 36.0496 31.1998 36.0926 31.2175 36.1406C31.2655 36.2543 31.3514 36.3984 31.4626 36.5298C31.5739 36.6637 31.7053 36.7825 31.8089 36.8634C31.9125 36.9468 31.9883 36.9973 31.9883 36.9973C31.9883 36.9973 31.9075 36.9569 31.7912 36.8887C31.6749 36.8204 31.5233 36.7168 31.3894 36.5955C31.2529 36.4767 31.1366 36.3327 31.0684 36.2113C31.033 36.1532 31.0077 36.1027 30.99 36.0673C30.8106 36.1128 30.6312 36.1583 30.4593 36.2012C30.4189 36.2113 30.1383 36.2771 29.739 36.368C29.7592 36.4211 29.7971 36.4944 29.8502 36.5626C29.9488 36.6915 30.0903 36.7952 30.0903 36.7952C30.0903 36.7952 29.926 36.737 29.7794 36.6309C29.7062 36.5778 29.6379 36.5146 29.5949 36.459C29.5823 36.4413 29.5697 36.4236 29.5621 36.411C28.5865 36.6359 27.0853 36.9721 26.4358 37.0732C26.3878 37.0807 26.3574 37.1237 26.3625 37.1717C26.3625 37.1995 26.3625 37.2248 26.36 37.2501C26.3549 37.3006 26.3852 37.3461 26.4307 37.3638C26.6228 37.432 26.9261 37.5812 27.1662 37.6898C27.8258 37.983 27.889 38.0184 29.0566 38.5213C29.1552 38.5643 29.2613 38.6073 29.3776 38.6553C29.3928 38.6401 29.4105 38.6199 29.4307 38.6022C29.4913 38.5466 29.5722 38.4809 29.6581 38.4228C29.7441 38.3646 29.8325 38.3141 29.9058 38.2838C29.9766 38.2534 30.0271 38.2433 30.0271 38.2433C30.0271 38.2433 29.9791 38.2635 29.921 38.309C29.8603 38.3545 29.787 38.4228 29.7213 38.496C29.6531 38.5668 29.5924 38.6452 29.5545 38.7058C29.5495 38.7134 29.5469 38.7185 29.5419 38.726C29.7794 38.8246 30.0549 38.9358 30.3683 39.0622C30.3936 39.0394 30.434 39.0091 30.4846 38.9712C30.5781 38.8979 30.7095 38.812 30.8435 38.7336C31.1139 38.5744 31.3995 38.4556 31.3995 38.4556C31.3995 38.4556 31.1341 38.6174 30.8991 38.812C30.7803 38.908 30.6691 39.0116 30.5907 39.0925C30.5756 39.1077 30.5629 39.1228 30.5478 39.138C30.5857 39.1532 30.621 39.1658 30.659 39.1835C30.9319 39.2947 31.2099 39.4084 31.493 39.5272C31.5081 39.5019 31.5284 39.4741 31.5536 39.4438C31.6219 39.3553 31.7255 39.2492 31.8367 39.1582C31.9504 39.0647 32.0717 38.9864 32.1652 38.9358C32.2588 38.8853 32.327 38.86 32.327 38.86C32.327 38.86 32.2638 38.8954 32.1804 38.9611C32.0995 39.0268 31.9959 39.1203 31.9049 39.2264C31.8139 39.3301 31.7356 39.4438 31.6876 39.5323C31.6775 39.555 31.6648 39.5752 31.6573 39.5954C31.9656 39.7243 32.2764 39.8583 32.5898 39.9973C32.6075 39.9771 32.6277 39.9518 32.6556 39.924C32.7263 39.8456 32.8274 39.7496 32.9336 39.6611C33.0372 39.5702 33.1509 39.4893 33.2394 39.4362C33.3278 39.3806 33.391 39.3528 33.391 39.3528C33.391 39.3528 33.3329 39.3933 33.2571 39.459C33.1812 39.5272 33.0852 39.6232 33.0018 39.7269C32.9159 39.8305 32.8375 39.9392 32.7819 40.0226C32.7718 40.0402 32.7617 40.0554 32.7541 40.0706C32.8375 40.1085 32.9234 40.1464 33.0094 40.1843C33.1964 40.2728 33.3834 40.3637 33.5679 40.4547C33.5831 40.4345 33.6008 40.4092 33.6235 40.384C33.6892 40.3006 33.7878 40.1995 33.8965 40.1085C34.0026 40.0175 34.1214 39.9417 34.2149 39.8962C34.3084 39.8482 34.3741 39.8305 34.3741 39.8305C34.3741 39.8305 34.311 39.8608 34.2301 39.9215C34.1492 39.9821 34.0481 40.0731 33.9647 40.1767C33.8788 40.2778 33.803 40.389 33.7575 40.4749C33.7448 40.4977 33.7322 40.5179 33.7246 40.5356C34.1012 40.7252 34.4676 40.9248 34.8215 41.127C34.8366 41.1068 34.8543 41.084 34.8771 41.0638C34.9453 40.988 35.0489 40.9097 35.1551 40.8389C35.2612 40.7706 35.375 40.7125 35.4634 40.6771C35.5493 40.6392 35.61 40.6241 35.61 40.6241C35.61 40.6241 35.5519 40.6519 35.4761 40.7024C35.4002 40.753 35.3017 40.8288 35.2157 40.9147C35.1273 40.9981 35.0489 41.0916 35.0034 41.1624C34.9908 41.1826 34.9807 41.2003 34.9731 41.2155C35.0717 41.2736 35.1702 41.3292 35.2638 41.3873C35.4937 41.5213 35.7111 41.6628 35.9209 41.8018C35.9335 41.7892 35.9512 41.774 35.9714 41.7588C36.0346 41.7058 36.1231 41.6476 36.2191 41.6047C36.3151 41.5617 36.4162 41.5339 36.492 41.5263C36.5704 41.5187 36.6209 41.5263 36.6209 41.5263C36.6209 41.5263 36.5679 41.5314 36.4996 41.5541C36.4314 41.5794 36.3455 41.6274 36.2696 41.6881C36.1938 41.7462 36.1281 41.817 36.0877 41.87C36.0776 41.8827 36.0725 41.8903 36.0649 41.9004C36.1281 41.9433 36.1913 41.9863 36.2519 42.0267C36.5578 42.239 36.8484 42.4437 37.1062 42.6409C37.369 42.833 37.6015 43.0225 37.8063 43.1868C38.0135 43.3511 38.1904 43.5002 38.3345 43.624C38.6226 43.8692 38.7869 44.0107 38.7869 44.0107C38.7869 44.0107 38.615 43.8818 38.3117 43.6518C38.0135 43.4193 37.5737 43.1034 37.043 42.7293C36.7776 42.5398 36.4845 42.3452 36.1736 42.143C36.118 42.1076 36.0599 42.0697 36.0043 42.0343C35.984 42.0975 35.9664 42.1885 35.9537 42.2795C35.9259 42.464 35.931 42.651 35.931 42.651C35.931 42.651 35.8779 42.469 35.8577 42.2795C35.845 42.1834 35.84 42.0874 35.8425 42.0116C35.8425 41.9838 35.845 41.9585 35.8476 41.9383C35.6327 41.8018 35.4103 41.6653 35.1778 41.5314C35.0868 41.4758 34.9933 41.4202 34.8973 41.3671C34.8922 41.3772 34.8872 41.3873 34.8821 41.4025C34.8493 41.4783 34.8164 41.5895 34.7937 41.7032C34.7431 41.9307 34.7229 42.1683 34.7229 42.1683C34.7229 42.1683 34.6951 41.9332 34.6976 41.6931C34.6976 41.5718 34.7077 41.4505 34.7254 41.357C34.7305 41.3292 34.7355 41.3014 34.7431 41.2786C34.3893 41.0815 34.0203 40.8869 33.6437 40.6999C33.6362 40.715 33.6286 40.7327 33.621 40.753C33.5856 40.8414 33.5477 40.9678 33.5174 41.0967C33.487 41.2256 33.4643 41.357 33.4542 41.4581C33.4441 41.5566 33.4466 41.6249 33.4466 41.6249C33.4466 41.6249 33.4314 41.5592 33.4239 41.4581C33.4163 41.357 33.4137 41.2205 33.4213 41.084C33.4289 40.9476 33.4441 40.8111 33.4643 40.7075C33.4719 40.6771 33.4795 40.6468 33.487 40.6215C33.3 40.5331 33.1155 40.4446 32.926 40.3587C32.8426 40.3183 32.7566 40.2803 32.6707 40.2399C32.6657 40.2551 32.6606 40.2728 32.6556 40.293C32.6277 40.3865 32.5974 40.5204 32.5772 40.6544C32.5342 40.9223 32.5393 41.2003 32.5393 41.2003C32.5393 41.2003 32.4862 40.9273 32.4812 40.6493C32.4786 40.5078 32.4837 40.3688 32.4963 40.2601C32.4989 40.2247 32.5039 40.1919 32.509 40.1666C32.2032 40.0276 31.8974 39.8911 31.5941 39.7597C31.589 39.7799 31.5814 39.8027 31.5764 39.828C31.5511 39.929 31.5334 40.0706 31.5258 40.2121C31.5056 40.4977 31.5334 40.7883 31.5334 40.7883C31.5334 40.7883 31.4576 40.5078 31.4298 40.2146C31.4146 40.0681 31.407 39.9189 31.4146 39.8052C31.4197 39.7597 31.4222 39.7218 31.4273 39.6889C31.1467 39.5676 30.8662 39.4514 30.5958 39.3351C30.5528 39.3174 30.5124 39.2997 30.4694 39.282C30.4644 39.3048 30.4618 39.3301 30.4568 39.3604C30.4366 39.4716 30.4214 39.6207 30.4163 39.7724C30.4012 40.0756 30.4315 40.384 30.4315 40.384C30.4315 40.384 30.3531 40.0857 30.3203 39.7749C30.3026 39.6207 30.2925 39.4665 30.295 39.3478C30.295 39.2922 30.2975 39.2441 30.2975 39.2113C30.0296 39.095 29.7693 38.9813 29.5166 38.8701C29.504 38.865 29.4939 38.86 29.4812 38.8549C29.4812 38.865 29.4787 38.8701 29.4762 38.8827C29.461 38.9484 29.4509 39.047 29.4484 39.143C29.4458 39.2416 29.4509 39.3427 29.4585 39.416C29.4661 39.4893 29.4787 39.5398 29.4787 39.5398C29.4787 39.5398 29.4559 39.4943 29.4307 39.4236C29.4054 39.3503 29.3751 39.2542 29.3549 39.1532C29.3321 39.0546 29.3169 38.951 29.3144 38.8701C29.3119 38.8372 29.3144 38.8069 29.3169 38.7816C28.4197 38.3823 29.5469 38.8928 27.1257 37.7833C26.916 37.6822 26.6203 37.5534 26.4307 37.4573C26.3726 37.4295 26.3069 37.4523 26.269 37.5028C26.2614 37.5154 26.2513 37.5281 26.2412 37.5407C26.1729 37.6216 26.1325 37.7227 26.1199 37.8314C25.9505 39.2922 25.8469 44.9205 26.0365 49.1311C26.0466 49.3863 26.0162 49.6163 25.8368 49.6163C25.7205 49.6163 25.622 49.5228 25.6397 49.1311C25.8292 44.9205 25.7231 39.2922 25.5537 37.8314C25.5411 37.7227 25.5007 37.6216 25.4324 37.5382C25.4223 37.5281 25.4147 37.5154 25.4046 37.5028C25.3692 37.4523 25.3035 37.4295 25.2454 37.4573C25.0559 37.5534 24.7602 37.6822 24.5504 37.7833C22.1292 38.8928 23.2564 38.3823 22.3592 38.7816C22.3617 38.8069 22.3643 38.8372 22.3617 38.8701C22.3592 38.951 22.344 39.0546 22.3213 39.1532C22.3011 39.2542 22.2707 39.3503 22.2455 39.4236C22.2202 39.4943 22.1974 39.5398 22.1974 39.5398C22.1974 39.5398 22.2076 39.4893 22.2151 39.416C22.2252 39.3427 22.2278 39.2416 22.2252 39.143C22.2227 39.047 22.2151 38.9484 22.2 38.8827C22.1974 38.8701 22.1949 38.865 22.1924 38.8549C22.1823 38.86 22.1696 38.865 22.157 38.8701C21.9068 38.9813 21.6465 39.095 21.3761 39.2113C21.3786 39.2441 21.3811 39.2922 21.3811 39.3478C21.3811 39.4665 21.3735 39.6207 21.3558 39.7749C21.323 40.0857 21.2446 40.384 21.2446 40.384C21.2446 40.384 21.275 40.0756 21.2598 39.7724C21.2522 39.6207 21.2371 39.4716 21.2194 39.3604C21.2143 39.3301 21.2093 39.3048 21.2042 39.282C21.1638 39.2997 21.1233 39.3174 21.0804 39.3351C20.8074 39.4514 20.5294 39.5676 20.2489 39.6889C20.2514 39.7218 20.2565 39.7597 20.259 39.8052C20.2666 39.9189 20.2615 40.0681 20.2463 40.2146C20.2185 40.5078 20.1427 40.7883 20.1427 40.7883C20.1427 40.7883 20.1705 40.4977 20.1503 40.2121C20.1402 40.0706 20.1225 39.929 20.0998 39.828C20.0922 39.8027 20.0871 39.7799 20.0821 39.7597C19.7788 39.8911 19.473 40.0276 19.1672 40.1666C19.1722 40.1919 19.1773 40.2247 19.1798 40.2601C19.1925 40.3688 19.1975 40.5078 19.195 40.6493C19.1899 40.9273 19.1343 41.2003 19.1343 41.2003C19.1343 41.2003 19.1419 40.9223 19.0989 40.6544C19.0787 40.5204 19.0484 40.3865 19.0206 40.293C19.0155 40.2728 19.0105 40.2551 19.0054 40.2399C18.9195 40.2803 18.8336 40.3183 18.7476 40.3587C18.5606 40.4446 18.3736 40.5331 18.1891 40.6215C18.1967 40.6468 18.2043 40.6771 18.2093 40.7075C18.2321 40.8111 18.2472 40.9476 18.2548 41.084C18.2599 41.2205 18.2599 41.357 18.2498 41.4581C18.2422 41.5592 18.227 41.6249 18.227 41.6249C18.227 41.6249 18.2321 41.5566 18.222 41.4581C18.2118 41.357 18.1891 41.2256 18.1588 41.0967C18.1284 40.9678 18.0905 40.8414 18.0552 40.753C18.045 40.7327 18.0375 40.715 18.0299 40.6999C17.6533 40.8869 17.2868 41.0815 16.9305 41.2786C16.9381 41.3014 16.9457 41.3292 16.9507 41.357C16.9684 41.4505 16.976 41.5718 16.9785 41.6931C16.981 41.9332 16.9532 42.1683 16.9532 42.1683C16.9532 42.1683 16.933 41.9307 16.8825 41.7032C16.8572 41.5895 16.8269 41.4783 16.794 41.4025C16.789 41.3873 16.7839 41.3772 16.7788 41.3671C16.6828 41.4202 16.5893 41.4758 16.4958 41.5314C16.2658 41.6653 16.0434 41.8018 15.826 41.9383C15.8311 41.9585 15.8336 41.9838 15.8336 42.0116C15.8362 42.0874 15.8311 42.1834 15.8185 42.2795C15.7982 42.469 15.7452 42.651 15.7452 42.651C15.7452 42.651 15.7502 42.464 15.7224 42.2795C15.7098 42.1885 15.6921 42.0975 15.6719 42.0343C15.6137 42.0697 15.5581 42.1076 15.5025 42.143C15.1892 42.3452 14.896 42.5398 14.6331 42.7293C14.1024 43.1034 13.6626 43.4193 13.3644 43.6518C13.0611 43.8818 12.8868 44.0107 12.8868 44.0107C12.8868 44.0107 13.0536 43.8692 13.3391 43.624C13.4832 43.5002 13.6601 43.3511 13.8674 43.1868C14.0746 43.0225 14.3046 42.833 14.57 42.6409C14.8277 42.4437 15.1159 42.239 15.4242 42.0267C15.4849 41.9863 15.548 41.9433 15.6087 41.9004C15.6036 41.8903 15.5961 41.8827 15.5885 41.87C15.5455 41.817 15.4823 41.7462 15.4065 41.6881C15.3307 41.6274 15.2448 41.5794 15.1765 41.5541C15.1058 41.5314 15.0552 41.5263 15.0552 41.5263C15.0552 41.5263 15.1058 41.5187 15.1816 41.5263C15.2599 41.5339 15.361 41.5617 15.4545 41.6047C15.5506 41.6476 15.6415 41.7058 15.7047 41.7588C15.725 41.774 15.7401 41.7892 15.7553 41.8018C15.965 41.6628 16.1824 41.5213 16.4099 41.3873C16.5059 41.3292 16.6045 41.2736 16.7005 41.2155C16.6929 41.2003 16.6853 41.1826 16.6702 41.1624C16.6272 41.0916 16.5489 40.9981 16.4604 40.9147C16.3719 40.8288 16.2759 40.753 16.1976 40.7024C16.1217 40.6519 16.0661 40.6241 16.0661 40.6241C16.0661 40.6241 16.1268 40.6392 16.2127 40.6771C16.3012 40.7125 16.4124 40.7706 16.5211 40.8389C16.6272 40.9097 16.7283 40.988 16.7991 41.0638C16.8218 41.084 16.8395 41.1068 16.8547 41.127C17.206 40.9248 17.575 40.7252 17.9515 40.5356C17.9414 40.5179 17.9313 40.4977 17.9187 40.4749C17.8707 40.389 17.7974 40.2778 17.7114 40.1767C17.6255 40.0731 17.5269 39.9821 17.4461 39.9215C17.3652 39.8608 17.302 39.8305 17.302 39.8305C17.302 39.8305 17.3677 39.8482 17.4612 39.8962C17.5547 39.9417 17.6735 40.0175 17.7797 40.1085C17.8883 40.1995 17.9844 40.3006 18.0526 40.384C18.0754 40.4092 18.0931 40.4345 18.1082 40.4547C18.2927 40.3637 18.4797 40.2728 18.6668 40.1843C18.7527 40.1464 18.8361 40.1085 18.922 40.0706C18.9144 40.0554 18.9043 40.0402 18.8917 40.0226C18.8386 39.9392 18.7603 39.8305 18.6743 39.7269C18.5884 39.6232 18.4949 39.5272 18.4166 39.459C18.3433 39.3933 18.2851 39.3528 18.2851 39.3528C18.2851 39.3528 18.3483 39.3806 18.4368 39.4362C18.5252 39.4893 18.6364 39.5702 18.7426 39.6611C18.8487 39.7496 18.9473 39.8456 19.0206 39.924C19.0459 39.9518 19.0686 39.9771 19.0863 39.9973C19.3997 39.8583 19.7106 39.7243 20.0189 39.5954C20.0088 39.5752 19.9987 39.555 19.986 39.5323C19.9405 39.4438 19.8622 39.3301 19.7712 39.2264C19.6802 39.1203 19.5766 39.0268 19.4932 38.9611C19.4123 38.8954 19.3491 38.86 19.3491 38.86C19.3491 38.86 19.4149 38.8853 19.5109 38.9358C19.6044 38.9864 19.7257 39.0647 19.8369 39.1582C19.9507 39.2492 20.0543 39.3553 20.1225 39.4438C20.1478 39.4741 20.1655 39.5019 20.1832 39.5272C20.4637 39.4084 20.7442 39.2947 21.0147 39.1835C21.0551 39.1658 21.0905 39.1532 21.1259 39.138C21.1132 39.1228 21.1006 39.1077 21.0829 39.0925C21.0071 39.0116 20.8959 38.908 20.7771 38.812C20.542 38.6174 20.2767 38.4556 20.2767 38.4556C20.2767 38.4556 20.5623 38.5744 20.8327 38.7336C20.9666 38.812 21.0981 38.8979 21.1916 38.9712C21.2421 39.0091 21.28 39.0394 21.3078 39.0622C21.6212 38.9358 21.8942 38.8246 22.1317 38.726C22.1292 38.7185 22.1267 38.7134 22.1216 38.7058C22.0812 38.6452 22.0205 38.5668 21.9548 38.496C21.8891 38.4228 21.8158 38.3545 21.7552 38.309C21.697 38.2635 21.649 38.2433 21.649 38.2433C21.649 38.2433 21.6996 38.2534 21.7703 38.2838C21.8411 38.3141 21.9321 38.3646 22.018 38.4228C22.1039 38.4809 22.1848 38.5466 22.2455 38.6022C22.2657 38.6199 22.2834 38.6401 22.2985 38.6553C22.4148 38.6073 22.5209 38.5643 22.6195 38.5213C23.7871 38.0184 23.8478 37.983 24.5074 37.6898C24.7501 37.5812 25.0533 37.4346 25.2454 37.3638C25.2909 37.3461 25.3187 37.3006 25.3136 37.2501C25.3111 37.2248 25.3111 37.1995 25.3136 37.1717C25.3187 37.1237 25.2858 37.0807 25.2404 37.0732C24.5908 36.9721 23.0896 36.6359 22.114 36.411C22.1039 36.4236 22.0938 36.4413 22.0787 36.459C22.0357 36.5146 21.97 36.5778 21.8967 36.6309C21.7501 36.737 21.5858 36.7952 21.5858 36.7952C21.5858 36.7952 21.7248 36.6915 21.8259 36.5626C21.879 36.4944 21.9169 36.4211 21.9371 36.368C21.5378 36.2771 21.2573 36.2113 21.2168 36.2012C21.0425 36.1583 20.8655 36.1128 20.6861 36.0673C20.6684 36.1027 20.6431 36.1532 20.6078 36.2113C20.537 36.3327 20.4233 36.4767 20.2868 36.5955C20.1503 36.7168 20.0012 36.8204 19.8849 36.8887C19.7687 36.9569 19.6878 36.9973 19.6878 36.9973C19.6878 36.9973 19.7611 36.9468 19.8647 36.8634C19.9709 36.7825 20.1023 36.6637 20.211 36.5298C20.3247 36.3984 20.4106 36.2543 20.4561 36.1406C20.4763 36.0926 20.4915 36.0496 20.5016 36.0193C20.2388 35.951 19.9734 35.8777 19.6979 35.8044C19.6625 35.8474 19.6069 35.9156 19.5261 35.9915C19.3972 36.1178 19.2076 36.2669 19.0105 36.4034C18.8134 36.5374 18.6036 36.6562 18.4393 36.7345C18.2776 36.8154 18.1588 36.8482 18.1588 36.8482C18.1588 36.8482 18.2725 36.8002 18.4166 36.7016C18.5657 36.6031 18.7502 36.459 18.922 36.3023C19.0939 36.1482 19.2531 35.9814 19.3567 35.8474C19.3896 35.8044 19.4174 35.764 19.4401 35.7311C18.9928 35.6073 18.5303 35.4734 18.0577 35.3293C17.9439 35.4304 17.6356 35.6958 17.2944 35.9258C16.8698 36.2164 16.4073 36.4514 16.4073 36.4514C16.4073 36.4514 16.8319 36.1608 17.2085 35.8247C17.4461 35.6149 17.6609 35.39 17.7873 35.2484C17.5952 35.1878 17.4006 35.1271 17.2034 35.0665C17.0366 35.0109 16.8698 34.9578 16.703 34.8997C16.65 34.9451 16.5564 35.0159 16.4351 35.1018C16.238 35.2408 15.9625 35.4102 15.6769 35.5568C15.3913 35.7033 15.0956 35.8297 14.8682 35.9156C14.6433 36.0016 14.4866 36.0496 14.4866 36.0496C14.4866 36.0496 14.6357 35.9864 14.8505 35.8803C15.0628 35.7741 15.3408 35.6174 15.6062 35.4456C15.869 35.2762 16.1167 35.0867 16.2911 34.935C16.3441 34.887 16.3896 34.8441 16.4301 34.8087C15.9625 34.6494 15.4899 34.4852 15.0148 34.3108C14.9617 34.3588 14.8732 34.4346 14.7545 34.5231C14.5573 34.6747 14.2743 34.8516 13.971 34.9881C13.3644 35.2712 12.6922 35.3697 12.6922 35.3697C12.6922 35.3697 13.3493 35.2055 13.9027 34.8744C14.1833 34.7152 14.4335 34.5206 14.6053 34.3588C14.6635 34.3057 14.714 34.2552 14.7545 34.2147C14.2465 34.0252 13.7359 33.8306 13.2254 33.6284C13.1749 33.6663 13.0814 33.7371 12.9575 33.823C12.768 33.957 12.5026 34.1212 12.217 34.2552C11.9365 34.3891 11.6357 34.4902 11.4083 34.5509C11.1833 34.6141 11.0292 34.6494 11.0292 34.6494C11.0292 34.6494 11.1783 34.5989 11.3931 34.5155C11.6105 34.4296 11.891 34.3007 12.1488 34.1415C12.4091 33.9848 12.6467 33.8003 12.816 33.6537C12.8741 33.6031 12.9221 33.5602 12.9626 33.5223C12.8817 33.4894 12.8008 33.4565 12.7174 33.4237C12.2979 33.2468 11.8809 33.0673 11.4664 32.8828C11.4184 32.9208 11.3476 32.9738 11.2617 33.0345C11.0898 33.1533 10.8497 33.3024 10.5945 33.4237C10.3392 33.545 10.0688 33.6309 9.86407 33.6865C9.65935 33.7371 9.52288 33.7699 9.52288 33.7699C9.52288 33.7699 9.6543 33.7219 9.8489 33.6486C10.0435 33.5703 10.2962 33.454 10.5262 33.3125C10.7562 33.1684 10.9685 32.9991 11.1176 32.8652C11.153 32.8323 11.1884 32.7994 11.2187 32.7716C10.688 32.5366 10.1673 32.294 9.65683 32.0488C9.62144 32.0842 9.57595 32.1322 9.51529 32.1853C9.3864 32.3016 9.19685 32.438 8.99214 32.5417C8.78742 32.6478 8.56754 32.7211 8.39821 32.7615C8.23141 32.802 8.11515 32.8146 8.11515 32.8146C8.11515 32.8146 8.22888 32.7868 8.38558 32.7236C8.54227 32.6604 8.7394 32.5593 8.91632 32.433C9.09576 32.3066 9.24992 32.155 9.35102 32.0337C9.38134 31.9983 9.40662 31.9679 9.42684 31.9376C9.07301 31.7658 8.72424 31.5939 8.38558 31.422C8.37294 31.4145 8.36283 31.4094 8.35019 31.4044C8.31987 31.4322 8.28196 31.465 8.23394 31.5004C8.11263 31.5939 7.93318 31.695 7.74616 31.7632C7.55661 31.834 7.36201 31.877 7.21542 31.9022C7.06884 31.9275 6.9728 31.9452 6.9728 31.9452C6.9728 31.9452 7.06378 31.9123 7.20279 31.8643C7.33926 31.8138 7.52123 31.743 7.68298 31.647C7.84978 31.556 7.99131 31.4372 8.07977 31.3386C8.09746 31.321 8.11263 31.3033 8.12779 31.2881C7.76385 31.0985 7.41255 30.909 7.06884 30.722C7.04104 30.7447 7.00818 30.77 6.96522 30.7978C6.8616 30.8686 6.70996 30.9444 6.55073 30.9873C6.39151 31.0328 6.22976 31.0531 6.10845 31.0632C5.98967 31.0733 5.90879 31.0783 5.90879 31.0783C5.90879 31.0783 5.98461 31.0556 6.09834 31.0253C6.21207 30.9899 6.36118 30.9393 6.49513 30.8686C6.65183 30.7927 6.77061 30.6815 6.84643 30.6007C6.49261 30.4061 6.15142 30.214 5.82286 30.027C5.80264 30.0396 5.77484 30.0548 5.73946 30.0724C5.66111 30.1129 5.54738 30.1584 5.4286 30.1811C5.31234 30.2064 5.19356 30.2089 5.1051 30.2089C5.01664 30.2064 4.95851 30.2039 4.95851 30.2039C4.95851 30.2039 5.01664 30.1938 5.10005 30.1786C5.18597 30.1609 5.29465 30.1331 5.39574 30.0901C5.50189 30.0446 5.59035 29.9789 5.65353 29.9284C5.33761 29.7464 5.03433 29.567 4.74622 29.3926C4.72853 29.3977 4.71589 29.4052 4.70073 29.4128C4.6426 29.4457 4.56172 29.4735 4.47832 29.4886C4.31152 29.519 4.14977 29.4861 4.14977 29.4861C4.14977 29.4861 4.31404 29.4684 4.44294 29.3977C4.50107 29.3673 4.54909 29.3294 4.58447 29.294C3.6165 28.7001 2.82292 28.1769 2.26185 27.8004C1.67551 27.3985 1.34443 27.161 1.34443 27.161C1.34443 27.161 1.68562 27.3834 2.28965 27.7599C2.86083 28.1188 3.6721 28.6167 4.66029 29.1803C4.67545 29.1323 4.68556 29.0615 4.68556 28.9882C4.68556 28.8391 4.62491 28.6925 4.62491 28.6925C4.62491 28.6925 4.72853 28.8138 4.7816 28.9731C4.8094 29.0514 4.82457 29.1373 4.82457 29.203C4.82457 29.2308 4.82457 29.2536 4.82204 29.2713C5.11268 29.4381 5.41596 29.6099 5.73188 29.7869C5.74451 29.706 5.74957 29.5973 5.73441 29.4861C5.72177 29.38 5.68891 29.2713 5.66111 29.1929C5.63079 29.1121 5.61309 29.059 5.61309 29.059C5.61309 29.059 5.64342 29.107 5.68891 29.1803C5.73441 29.2536 5.79001 29.3547 5.83044 29.4684C5.87088 29.5796 5.8911 29.6984 5.89868 29.7869C5.90121 29.8248 5.90374 29.8551 5.90374 29.8804C6.23735 30.0623 6.58106 30.2494 6.93994 30.4364C6.96522 30.3302 6.99554 30.1634 6.9728 29.9815C6.95763 29.8324 6.91972 29.6832 6.88687 29.5695C6.85401 29.4583 6.83127 29.385 6.83127 29.385C6.83127 29.385 6.86918 29.4533 6.92731 29.5569C6.98038 29.6605 7.05115 29.8046 7.09916 29.9587C7.15224 30.1129 7.17246 30.2797 7.17246 30.4061C7.17246 30.4692 7.16993 30.5198 7.1674 30.5577C7.51365 30.7371 7.86747 30.9166 8.22888 31.0985C8.23646 31.0707 8.24405 31.0379 8.25163 31.0025C8.27437 30.8711 8.28701 30.6891 8.26427 30.5021C8.24657 30.3176 8.20108 30.1306 8.1657 29.9941C8.12779 29.8551 8.10252 29.7616 8.10252 29.7616C8.10252 29.7616 8.14295 29.85 8.20361 29.9815C8.26427 30.1129 8.34009 30.2923 8.39316 30.4819C8.44876 30.6714 8.47403 30.8736 8.47151 31.0253C8.47151 31.1036 8.46645 31.1668 8.4614 31.2123C8.46898 31.2173 8.47656 31.2199 8.48414 31.2249C8.82533 31.3942 9.17158 31.5636 9.52288 31.7304C9.53299 31.6975 9.54057 31.6596 9.54815 31.6166C9.57848 31.4625 9.5987 31.2502 9.58606 31.0328C9.57595 30.818 9.53551 30.6032 9.49002 30.444C9.44453 30.2847 9.40156 30.1837 9.40156 30.1837C9.40156 30.1837 9.45969 30.2772 9.52793 30.4313C9.59617 30.583 9.67199 30.7978 9.71495 31.0202C9.76297 31.2426 9.77561 31.4726 9.76803 31.6444C9.7655 31.7228 9.76045 31.791 9.75539 31.8391C10.2684 32.0817 10.7916 32.3192 11.3223 32.5543C11.3223 32.5088 11.3223 32.4557 11.3223 32.3976C11.3198 32.1954 11.2996 31.93 11.2566 31.6647C11.2111 31.4018 11.1353 31.1415 11.0696 30.9494C11.0014 30.7548 10.9584 30.6285 10.9584 30.6285C10.9584 30.6285 11.0165 30.7498 11.1075 30.9343C11.196 31.1188 11.3046 31.3715 11.383 31.6394C11.4613 31.9048 11.5144 32.1777 11.5422 32.385C11.5599 32.5088 11.57 32.6048 11.5776 32.6655C11.987 32.8424 12.4015 33.0193 12.816 33.1887C12.8893 33.219 12.9626 33.2493 13.0333 33.2771C13.0308 33.2367 13.0283 33.1886 13.0232 33.1356C13.003 32.9157 12.96 32.62 12.8893 32.3294C12.8185 32.0387 12.7174 31.7557 12.634 31.5459C12.5481 31.3361 12.4874 31.1996 12.4874 31.1996C12.4874 31.1996 12.5633 31.3285 12.6694 31.5307C12.7781 31.7304 12.9095 32.0059 13.0131 32.2965C13.1193 32.5846 13.1951 32.8828 13.2406 33.1078C13.2659 33.224 13.2835 33.3175 13.2937 33.3858C13.8067 33.593 14.3198 33.7952 14.8328 33.9898C14.8277 33.9317 14.8227 33.866 14.8126 33.7902C14.7848 33.5576 14.7216 33.2493 14.6205 32.9486C14.4284 32.342 14.0847 31.7961 14.0847 31.7961C14.0847 31.7961 14.4815 32.3041 14.7418 32.9056C14.8783 33.2013 14.9769 33.5147 15.0325 33.7573C15.0653 33.9014 15.0855 34.0176 15.0956 34.0884C15.5683 34.2653 16.0358 34.4321 16.4983 34.5938C16.4907 34.5408 16.4781 34.4801 16.4629 34.4119C16.4149 34.1869 16.334 33.8912 16.2329 33.5981C16.1344 33.3049 16.0181 33.0168 15.9246 32.802C15.8336 32.5897 15.7629 32.4507 15.7629 32.4507C15.7629 32.4507 15.8463 32.5821 15.9625 32.7843C16.0763 32.989 16.2228 33.267 16.3543 33.5526C16.4857 33.8382 16.6019 34.1339 16.6778 34.3613C16.7258 34.5079 16.7586 34.6242 16.7763 34.6899C16.9431 34.7455 17.1074 34.8011 17.2717 34.8567C17.4663 34.9224 17.6609 34.9856 17.8504 35.0488C17.8252 34.8643 17.7746 34.5509 17.7013 34.2425C17.5876 33.7573 17.4258 33.2822 17.4258 33.2822C17.4258 33.2822 17.6483 33.732 17.8252 34.2097C17.9768 34.604 18.0905 35.0109 18.1234 35.1372C18.5909 35.2889 19.0459 35.4304 19.4856 35.5618C19.4831 35.5239 19.4806 35.4759 19.473 35.4228C19.4528 35.256 19.4047 35.0311 19.3416 34.8112C19.2784 34.5913 19.1975 34.374 19.1293 34.2147C19.0636 34.053 18.9978 33.957 18.9978 33.957C18.9978 33.957 19.0762 34.0429 19.1672 34.1945C19.2582 34.3462 19.3694 34.5534 19.4629 34.7708C19.5589 34.9856 19.6448 35.208 19.6903 35.3849C19.7232 35.4936 19.7384 35.5846 19.7459 35.6376C20.0164 35.7185 20.2817 35.7943 20.5395 35.8676C20.5446 35.8373 20.5496 35.7994 20.5547 35.7564C20.5673 35.6326 20.5623 35.4632 20.5294 35.2964C20.4966 35.1271 20.441 34.9628 20.3929 34.839C20.3449 34.7177 20.3095 34.6368 20.3095 34.6368C20.3095 34.6368 20.3576 34.7126 20.4207 34.8289C20.4864 34.9426 20.5648 35.1044 20.6254 35.2737C20.6836 35.443 20.7164 35.625 20.7215 35.7615C20.724 35.8247 20.724 35.8777 20.7215 35.9182C20.9009 35.9687 21.0804 36.0167 21.2522 36.0622C21.4923 36.1279 21.7299 36.1911 21.9649 36.2492C21.9649 36.2417 21.9675 36.2341 21.9675 36.2265C21.9725 36.1684 21.97 36.09 21.9523 36.0117C21.9194 35.8525 21.8411 35.6983 21.8411 35.6983C21.8411 35.6983 21.9599 35.8221 22.0458 35.9814C22.0888 36.0597 22.1191 36.1456 22.1343 36.2139C22.1418 36.2467 22.1469 36.2745 22.1494 36.2947C23.5066 36.6309 24.7172 36.8533 25.258 36.9872C25.3111 36.9999 25.3642 36.9771 25.3945 36.9291C25.4021 36.9165 25.4122 36.9064 25.4198 36.8937C25.4527 36.8533 25.4476 36.7977 25.4097 36.7648C25.1216 36.5096 24.5934 35.9384 23.8807 35.1903C23.8225 35.1296 23.7644 35.0665 23.7063 35.0033C23.686 35.0134 23.6633 35.0235 23.633 35.0336C23.5546 35.0589 23.4459 35.0816 23.3398 35.0841C23.1225 35.0943 22.9152 35.0462 22.9152 35.0462C22.9152 35.0462 23.1275 35.0538 23.3221 35.0033C23.4181 34.978 23.5091 34.9401 23.5673 34.9047C23.5799 34.8971 23.59 34.8895 23.6001 34.8845C23.3069 34.5534 23.0011 34.1819 22.6675 33.8104C22.6069 33.7421 22.5437 33.6714 22.4805 33.6006C22.4426 33.6259 22.3718 33.6663 22.2808 33.7093C22.1317 33.78 21.9194 33.8407 21.7021 33.8685C21.4822 33.8938 21.2623 33.8912 21.0981 33.8786C20.9338 33.866 20.8226 33.8508 20.8226 33.8508C20.8226 33.8508 20.9338 33.8559 21.0955 33.8533C21.2598 33.8483 21.4746 33.8306 21.6819 33.7851C21.8866 33.7396 22.0787 33.6613 22.2101 33.5829C22.2834 33.5425 22.3365 33.5046 22.3718 33.4768C22.2379 33.3251 22.1039 33.1735 21.97 33.0143C21.8739 32.9031 21.7754 32.7868 21.6793 32.6705C21.6364 32.6857 21.51 32.7261 21.3331 32.7514C21.1158 32.7868 20.8276 32.802 20.537 32.7969C20.2438 32.7919 19.9532 32.7615 19.7358 32.7236C19.5159 32.6882 19.3769 32.6326 19.3769 32.6326C19.3769 32.6326 19.521 32.6731 19.7358 32.6882C19.9532 32.7034 20.2413 32.7059 20.5244 32.6832C20.8074 32.663 21.0879 32.62 21.2851 32.5669C21.3938 32.5391 21.4746 32.5113 21.5302 32.4911C21.1309 32.0084 20.719 31.4928 20.2994 30.9469C20.1604 30.9621 19.6297 31.0101 19.0888 30.9899C18.778 30.9798 18.4646 30.9494 18.2295 30.9191C17.9945 30.8888 17.8378 30.866 17.8378 30.866C17.8378 30.866 17.9945 30.8736 18.2295 30.8837C18.4621 30.8938 18.7729 30.8964 19.0812 30.8787C19.5134 30.8559 19.9355 30.7877 20.1478 30.7498C19.8445 30.353 19.5387 29.941 19.2329 29.5139C19.1621 29.519 19.0029 29.524 18.7906 29.519C18.5 29.5114 18.1108 29.4735 17.7266 29.4052C17.3399 29.3395 16.9583 29.2435 16.6752 29.1576C16.3896 29.0716 16.2026 29.0009 16.2026 29.0009C16.2026 29.0009 16.3922 29.059 16.6803 29.1222C16.9659 29.1879 17.35 29.2536 17.7342 29.294C18.1158 29.3345 18.4974 29.3421 18.7805 29.3294C18.9043 29.3244 19.0105 29.3168 19.0888 29.3092C19.008 29.1955 18.9271 29.0817 18.8462 28.9655C18.5278 28.5055 18.2093 28.0304 17.8959 27.5451C17.8757 27.5451 17.8504 27.5476 17.8201 27.5502C17.7317 27.5578 17.6078 27.5628 17.4587 27.5628C17.1579 27.5603 16.7561 27.5224 16.3618 27.4263C15.9676 27.3328 15.5859 27.1862 15.3054 27.0599C15.0249 26.931 14.8454 26.8274 14.8454 26.8274C14.8454 26.8274 15.0299 26.9183 15.3155 27.027C15.6011 27.1332 15.9878 27.2519 16.377 27.3151C16.7662 27.3808 17.1554 27.3909 17.4435 27.3733C17.575 27.3657 17.6862 27.353 17.767 27.3404C17.3778 26.7338 16.9962 26.1096 16.6272 25.4752C16.607 25.4752 16.5868 25.4752 16.5615 25.4727C16.4781 25.4752 16.3618 25.4702 16.2203 25.4626C15.9398 25.4474 15.5657 25.4019 15.1942 25.3135C14.8252 25.2276 14.4638 25.0936 14.1984 24.9773C13.9356 24.8636 13.7612 24.7752 13.7612 24.7752C13.7612 24.7752 13.9407 24.851 14.2086 24.9445C14.479 25.0405 14.8429 25.1441 15.2094 25.2023C15.5758 25.2629 15.9423 25.2781 16.2153 25.273C16.3315 25.2705 16.4275 25.268 16.5034 25.2629C16.2582 24.8409 16.0206 24.4138 15.7881 23.9841C15.6693 23.7617 15.5506 23.5368 15.4343 23.3144C15.3635 23.3118 15.2397 23.3093 15.083 23.2967C14.8328 23.2815 14.4941 23.2385 14.1605 23.1551C13.8295 23.0717 13.5085 22.9454 13.2734 22.8367C13.0384 22.728 12.8842 22.6497 12.8842 22.6497C12.8842 22.6497 13.0435 22.7154 13.2835 22.8038C13.5236 22.8923 13.8497 22.9909 14.1782 23.0439C14.5042 23.0995 14.8353 23.1122 15.0805 23.1096C15.1765 23.1071 15.2624 23.1046 15.3282 23.1021C14.9769 22.4146 14.6433 21.7221 14.3273 21.0322C14.2667 21.0423 14.1782 21.0499 14.0645 21.0549C13.8573 21.0625 13.5792 21.0448 13.3088 20.9816C13.0384 20.921 12.7756 20.8199 12.5885 20.7264C12.399 20.6329 12.2827 20.552 12.2827 20.552C12.2827 20.552 12.4066 20.6202 12.5986 20.6935C12.7907 20.7668 13.0561 20.8401 13.3215 20.8704C13.5868 20.9033 13.8497 20.8932 14.0417 20.8654C14.1201 20.8553 14.1858 20.8426 14.2364 20.8325C14.0013 20.3144 13.7764 19.7988 13.5666 19.2883C13.511 19.2934 13.4352 19.2934 13.3417 19.2908C13.1597 19.2833 12.9171 19.2403 12.6922 19.1544C12.4622 19.071 12.2499 18.9572 12.0932 18.8663C11.9365 18.7753 11.8329 18.7121 11.8329 18.7121C11.8329 18.7121 11.9415 18.7626 12.1058 18.8359C12.2701 18.9067 12.49 18.9926 12.7174 19.0457C12.9398 19.1013 13.1673 19.1139 13.3316 19.1013C13.3897 19.0962 13.4402 19.0912 13.4832 19.0836C13.4276 18.9522 13.372 18.8208 13.3215 18.6893C13.1698 18.3077 13.0258 17.9311 12.8893 17.5571C12.8463 17.5571 12.7831 17.5546 12.7073 17.5445C12.5607 17.5293 12.3636 17.4813 12.1842 17.3953C12.0047 17.3119 11.8404 17.2033 11.7191 17.1173C11.6029 17.0314 11.522 16.9708 11.522 16.9708C11.522 16.9708 11.6079 17.0188 11.7368 17.087C11.8657 17.1527 12.0401 17.2361 12.217 17.2892C12.3965 17.3448 12.5759 17.36 12.7098 17.3549C12.7478 17.3524 12.7806 17.3524 12.8109 17.3499C12.6264 16.8444 12.4571 16.3516 12.2979 15.8714C12.2676 15.8663 12.2296 15.8587 12.1867 15.8461C12.0805 15.8208 11.9441 15.7728 11.8202 15.702C11.6939 15.6313 11.5827 15.5403 11.5018 15.4695C11.4234 15.3988 11.3729 15.3482 11.3729 15.3482C11.3729 15.3482 11.4285 15.3912 11.5169 15.4468C11.6029 15.5049 11.7242 15.5757 11.8506 15.6237C11.9769 15.6742 12.1058 15.697 12.2044 15.7071C12.217 15.7071 12.2296 15.7071 12.2423 15.7096C12.078 15.2092 11.9289 14.7265 11.7899 14.264C11.7722 14.2615 11.7495 14.2589 11.7242 14.2513C11.6509 14.2362 11.5549 14.1983 11.4689 14.1477C11.2945 14.0441 11.1732 13.8874 11.1732 13.8874C11.1732 13.8874 11.3249 14.0138 11.4993 14.0694C11.5902 14.0997 11.6812 14.1123 11.7444 14.1098C11.7191 14.0264 11.6939 13.9405 11.6711 13.8571C11.2617 12.4165 10.9811 11.1983 10.8017 10.3416C10.6248 9.48227 10.5389 8.98944 10.5389 8.98944C10.5389 8.98944 10.6374 9.47974 10.8421 10.3315C11.0418 11.1832 11.3476 12.3963 11.7874 13.8242C11.8126 13.9076 11.8404 13.9961 11.8657 14.082C11.8758 14.077 11.8859 14.0694 11.896 14.0618C11.9491 14.0289 12.0174 13.9708 12.073 13.9C12.1892 13.7585 12.2473 13.574 12.2473 13.574C12.2473 13.574 12.2296 13.7686 12.1412 13.9455C12.0982 14.0365 12.0376 14.1199 11.9845 14.173C11.9567 14.2033 11.9314 14.2261 11.9137 14.2412C12.0578 14.6987 12.2145 15.1789 12.3838 15.6742C12.399 15.6591 12.4167 15.6464 12.4344 15.6287C12.5051 15.563 12.5961 15.467 12.6669 15.3558C12.7402 15.2446 12.7958 15.1182 12.8312 15.0222C12.8691 14.9261 12.8918 14.8604 12.8918 14.8604C12.8918 14.8604 12.8792 14.9287 12.8564 15.0298C12.8337 15.1309 12.7983 15.2673 12.7376 15.3988C12.682 15.5276 12.6012 15.6464 12.5329 15.7298C12.495 15.7804 12.4622 15.8158 12.4419 15.8385C12.6062 16.3111 12.7806 16.7964 12.9702 17.2943C12.9954 17.274 13.0258 17.2513 13.0586 17.226C13.1622 17.1451 13.2886 17.0162 13.3897 16.8621C13.4933 16.7104 13.5742 16.5386 13.6323 16.4097C13.6879 16.2808 13.7258 16.1949 13.7258 16.1949C13.7258 16.1949 13.7006 16.2858 13.6652 16.4223C13.6247 16.5613 13.5666 16.7433 13.4832 16.9202C13.4023 17.0971 13.2861 17.2589 13.185 17.3675C13.1294 17.4282 13.0814 17.4712 13.0485 17.5015C13.19 17.8705 13.3391 18.242 13.4933 18.6211C13.5464 18.75 13.602 18.8814 13.6576 19.0128C13.693 18.9901 13.7334 18.9572 13.7814 18.9193C13.9078 18.8132 14.062 18.6464 14.1858 18.4543C14.3122 18.2648 14.4133 18.0575 14.4866 17.9008C14.5573 17.7416 14.6079 17.6354 14.6079 17.6354C14.6079 17.6354 14.57 17.7466 14.5194 17.9135C14.4638 18.0803 14.3855 18.3027 14.2793 18.5124C14.1732 18.7273 14.0316 18.9244 13.9103 19.0583C13.8421 19.1291 13.784 19.1847 13.741 19.2176C13.9558 19.7255 14.1808 20.2386 14.4158 20.7516C14.4588 20.7213 14.5144 20.6784 14.575 20.6278C14.7241 20.5014 14.9061 20.3144 15.0603 20.0996C15.217 19.8873 15.3433 19.6523 15.4242 19.4703C15.5051 19.2883 15.543 19.1569 15.543 19.1569C15.543 19.1569 15.5177 19.2908 15.4545 19.4829C15.3939 19.675 15.2877 19.9277 15.1512 20.1628C15.0148 20.4003 14.8454 20.6177 14.7014 20.7668C14.623 20.8502 14.5548 20.9134 14.5093 20.9513C14.8252 21.6362 15.1614 22.3236 15.5127 23.006C15.5556 22.9555 15.6062 22.8898 15.6643 22.8139C15.8134 22.6219 15.9979 22.354 16.1571 22.0684C16.3138 21.7828 16.4427 21.4795 16.5261 21.247C16.612 21.017 16.6651 20.8603 16.6651 20.8603C16.6651 20.8603 16.6247 21.0195 16.559 21.2571C16.4933 21.4972 16.3896 21.8131 16.2532 22.1189C16.1167 22.4247 15.9499 22.7154 15.8159 22.9277C15.7325 23.0566 15.6643 23.1577 15.6239 23.2183C15.7401 23.4407 15.8564 23.6631 15.9777 23.883C16.2051 24.3127 16.4427 24.7398 16.6828 25.1618C16.7258 25.0987 16.7763 25.0178 16.8395 24.9243C16.9836 24.6943 17.163 24.3784 17.3121 24.0473C17.4612 23.7187 17.58 23.3725 17.6558 23.1096C17.7317 22.8468 17.7771 22.6699 17.7771 22.6699C17.7771 22.6699 17.7468 22.8493 17.6887 23.1172C17.6306 23.3877 17.5396 23.744 17.4107 24.0928C17.2868 24.439 17.1276 24.7777 16.9987 25.0228C16.933 25.1467 16.8774 25.2478 16.8344 25.3185C16.8218 25.3388 16.8117 25.3564 16.8041 25.3716C17.1706 26.006 17.5472 26.6302 17.9313 27.2368C17.9768 27.1711 18.0324 27.0776 18.0981 26.9638C18.2422 26.7187 18.4065 26.3699 18.5303 26.006C18.6567 25.642 18.7426 25.2655 18.7931 24.9799C18.8437 24.6943 18.8639 24.5022 18.8639 24.5022C18.8639 24.5022 18.8588 24.6968 18.8285 24.9849C18.7957 25.2756 18.735 25.6597 18.6339 26.0414C18.5353 26.4205 18.3913 26.7894 18.2624 27.0573C18.1967 27.1913 18.1411 27.3025 18.0956 27.3758C18.0804 27.4011 18.0703 27.4213 18.0602 27.439C18.3685 27.9242 18.6845 28.4019 18.9978 28.8619C19.0762 28.9781 19.1571 29.0918 19.2354 29.2056C19.2708 29.1348 19.3138 29.0438 19.3643 28.9301C19.478 28.6748 19.6095 28.3235 19.7232 27.9672C19.8394 27.6083 19.9355 27.2444 19.9987 26.9714C20.0644 26.6959 20.0972 26.5114 20.0972 26.5114C20.0972 26.5114 20.077 26.6985 20.0315 26.979C19.9886 27.257 19.9178 27.6285 19.8293 27.9975C19.7409 28.369 19.6322 28.7355 19.5362 29.0059C19.4654 29.2005 19.4073 29.3446 19.3769 29.4128C19.6777 29.8425 19.9785 30.2595 20.2767 30.6613C20.3727 30.4718 20.5648 30.0876 20.7265 29.6883C20.8428 29.4103 20.9439 29.1247 21.0172 28.9073C21.0879 28.6925 21.136 28.5485 21.136 28.5485C21.136 28.5485 21.1006 28.6951 21.05 28.9175C20.997 29.1399 20.9186 29.4356 20.8302 29.7287C20.676 30.2418 20.4738 30.7371 20.4233 30.8584C20.8327 31.4018 21.2345 31.9199 21.6212 32.4001C21.6515 32.3546 21.6895 32.2914 21.7299 32.2131C21.8259 32.0311 21.9296 31.7708 22.018 31.508C22.109 31.2426 22.1798 30.9722 22.2227 30.7649C22.2657 30.5602 22.2682 30.4187 22.2682 30.4187C22.2682 30.4187 22.2808 30.5602 22.2556 30.7725C22.2328 30.9823 22.1873 31.2628 22.1242 31.5408C22.0584 31.8188 21.9801 32.0943 21.8992 32.2965C21.8487 32.4254 21.7981 32.524 21.7678 32.5796C21.8664 32.7009 21.9649 32.8222 22.061 32.9384C22.1924 33.1002 22.3238 33.2544 22.4527 33.4085C22.483 33.3782 22.5311 33.3302 22.5867 33.267C22.6827 33.1507 22.7939 32.9738 22.8748 32.7817C22.9556 32.5897 23.0138 32.3875 23.0492 32.2308C23.0845 32.0766 23.1022 31.9705 23.1022 31.9705C23.1022 31.9705 23.0947 32.0766 23.0744 32.2358C23.0542 32.3951 23.0163 32.6074 22.9506 32.8146C22.8899 33.0193 22.7914 33.2164 22.7004 33.3529C22.6423 33.4389 22.5892 33.4995 22.5589 33.5349C22.6246 33.6132 22.6877 33.6891 22.7535 33.7649C23.077 34.144 23.3903 34.4928 23.6835 34.8137C23.6936 34.8011 23.7063 34.7859 23.7189 34.7657C23.7619 34.7101 23.8074 34.6267 23.8427 34.5332C23.911 34.3462 23.9287 34.1364 23.9287 34.1364C23.9287 34.1364 23.9539 34.3462 23.9211 34.5559C23.9085 34.6621 23.8756 34.7657 23.8427 34.8415C23.8251 34.882 23.8074 34.9148 23.7947 34.935C23.8453 34.9906 23.8983 35.0488 23.9464 35.1044C24.654 35.8803 25.2505 36.4186 25.5133 36.6941C25.5487 36.7294 25.6018 36.7421 25.6498 36.7244C25.7029 36.7016 25.7357 36.6536 25.7332 36.598C25.7003 36.1153 25.7054 35.2636 25.718 34.149C25.7003 34.1415 25.6852 34.1364 25.6675 34.1288C25.5765 34.0934 25.4628 34.0303 25.3667 33.9519C25.1671 33.8003 25.0205 33.6057 25.0205 33.6057C25.0205 33.6057 25.205 33.7699 25.4173 33.871C25.5234 33.9241 25.6346 33.962 25.718 33.9747C25.7256 33.4186 25.7307 32.7994 25.7357 32.1297C25.6801 32.1221 25.6018 32.107 25.5083 32.0817C25.3187 32.0337 25.0761 31.9351 24.8562 31.8011C24.6363 31.6672 24.4392 31.5105 24.2977 31.3841C24.1561 31.2578 24.0677 31.1693 24.0677 31.1693C24.0677 31.1693 24.1637 31.2502 24.3154 31.3614C24.467 31.4726 24.6793 31.6091 24.9017 31.7177C25.1266 31.8264 25.3642 31.8972 25.5436 31.925C25.622 31.9376 25.6852 31.9452 25.7382 31.9477C25.7382 31.7632 25.7382 31.5737 25.7408 31.3816C25.7382 31.1263 25.7357 30.8635 25.7357 30.5956C25.6649 30.5678 25.5436 30.5173 25.4021 30.4414C25.1746 30.3201 24.8916 30.1306 24.6237 29.9284C24.3558 29.7237 24.1056 29.5013 23.9261 29.3244C23.7467 29.1474 23.6532 29.0084 23.6532 29.0084C23.6532 29.0084 23.7619 29.1373 23.9539 29.294C24.146 29.4533 24.4164 29.6504 24.697 29.8222C24.98 29.9992 25.2707 30.1533 25.4956 30.2468C25.5917 30.2873 25.6725 30.3151 25.7357 30.3353C25.7332 29.6504 25.7332 28.92 25.7332 28.1618C25.579 28.0759 25.0458 27.7701 24.5504 27.4086C24.2547 27.1989 23.9716 26.9714 23.7644 26.797C23.5597 26.6201 23.4232 26.5013 23.4232 26.5013C23.4232 26.5013 23.5698 26.6075 23.7897 26.7642C24.0121 26.9209 24.3103 27.1205 24.6212 27.3025C25.0508 27.5603 25.5007 27.7802 25.7332 27.8863C25.7332 27.3353 25.7332 26.7718 25.7307 26.2006C25.6548 26.1576 25.4981 26.0616 25.296 25.9226C25.0154 25.7305 24.6591 25.455 24.3229 25.1568C23.9843 24.8586 23.6658 24.5426 23.4384 24.295C23.2109 24.0498 23.0694 23.878 23.0694 23.878C23.0694 23.878 23.2235 24.0397 23.4662 24.2672C23.7113 24.4972 24.05 24.7878 24.4038 25.0582C24.7576 25.3286 25.1266 25.5763 25.4147 25.7406C25.5386 25.8164 25.6473 25.8745 25.7281 25.9175C25.7281 25.7937 25.7281 25.6724 25.7256 25.5485C25.7256 24.9192 25.7231 24.2747 25.7205 23.6252C25.7003 23.6126 25.6751 23.6 25.6422 23.5848C25.5487 23.5393 25.4198 23.4685 25.2682 23.3801C24.9674 23.2006 24.5858 22.9277 24.2446 22.6118C23.9009 22.2984 23.5976 21.9471 23.3878 21.6716C23.1806 21.3986 23.0567 21.204 23.0567 21.204C23.0567 21.204 23.1932 21.3885 23.4207 21.6463C23.6481 21.9041 23.9716 22.2301 24.328 22.5157C24.6818 22.8013 25.071 23.0389 25.3743 23.1931C25.5133 23.2613 25.6321 23.3169 25.7205 23.3523C25.718 22.541 25.718 21.7171 25.7155 20.8881C25.6953 20.878 25.6751 20.8654 25.6498 20.8527C25.5639 20.8072 25.4451 20.7365 25.3035 20.6531C25.0205 20.4812 24.6565 20.2335 24.3229 19.9505C23.9843 19.6699 23.6835 19.354 23.4712 19.1089C23.2564 18.8612 23.1225 18.6919 23.1225 18.6919C23.1225 18.6919 23.269 18.8511 23.499 19.0811C23.729 19.3111 24.05 19.5992 24.4013 19.8519C24.7501 20.1046 25.1216 20.3195 25.4097 20.4661C25.531 20.5267 25.6321 20.5747 25.713 20.6126C25.713 20.0642 25.7104 19.5133 25.7104 18.9598C25.7104 18.6767 25.7104 18.3911 25.713 18.1081C25.6371 18.0701 25.5083 18.0019 25.3465 17.9109C25.0862 17.7669 24.7501 17.5546 24.4392 17.3094C24.1283 17.0643 23.8503 16.7863 23.6557 16.5664C23.4586 16.349 23.3322 16.1999 23.3322 16.1999C23.3322 16.1999 23.4712 16.3389 23.6835 16.5386C23.8958 16.7408 24.194 16.9935 24.515 17.2083C24.8385 17.4206 25.1822 17.6001 25.4451 17.7214C25.5487 17.7694 25.6397 17.8073 25.713 17.8376C25.7155 16.991 25.718 16.1443 25.718 15.3103C25.6498 15.2901 25.5462 15.2572 25.4198 15.2117C25.1898 15.1233 24.8966 14.9767 24.6313 14.7897C24.3659 14.6077 24.1283 14.3904 23.9666 14.2134C23.8048 14.0365 23.7164 13.9051 23.7164 13.9051C23.7164 13.9051 23.8175 14.0264 23.9944 14.1831C24.1713 14.3423 24.424 14.5319 24.6995 14.6835C24.9725 14.8352 25.2656 14.9464 25.488 15.007C25.579 15.0323 25.6574 15.0475 25.7205 15.0601C25.7205 14.4308 25.7231 13.804 25.7231 13.1899C25.6624 13.1722 25.574 13.1393 25.4703 13.0964C25.2732 13.0079 25.0255 12.8613 24.8132 12.6793C24.5984 12.4999 24.4114 12.2952 24.2774 12.1385C24.146 11.9818 24.0576 11.8757 24.0576 11.8757C24.0576 11.8757 24.1561 11.9717 24.3052 12.1132C24.4569 12.2497 24.6641 12.4291 24.8916 12.5783C25.114 12.7274 25.3591 12.836 25.5462 12.8942C25.6144 12.9144 25.6751 12.9296 25.7256 12.9422C25.7256 12.7501 25.7256 12.5606 25.7256 12.3735C25.7281 11.9515 25.7332 11.5345 25.7357 11.125C25.6877 11.1073 25.6169 11.077 25.5335 11.0366C25.3743 10.9633 25.1746 10.8369 25.0104 10.6777C24.8436 10.5235 24.702 10.3466 24.6009 10.2127C24.5049 10.0787 24.4392 9.98774 24.4392 9.98774C24.4392 9.98774 24.5175 10.0686 24.6338 10.1874C24.7501 10.3037 24.9118 10.4553 25.0912 10.5791C25.2682 10.7055 25.4628 10.7914 25.6144 10.8394C25.6599 10.8521 25.7003 10.8647 25.7357 10.8723C25.7408 10.2809 25.7433 9.70468 25.7484 9.14613C25.7155 9.12844 25.67 9.1057 25.6169 9.07284C25.5108 9.00713 25.3718 8.90857 25.258 8.78978C25.1418 8.66847 25.0508 8.53452 24.9851 8.43343C24.9219 8.32981 24.884 8.25904 24.884 8.25904C24.884 8.25904 24.932 8.32475 25.0104 8.41574C25.0887 8.50672 25.1974 8.62298 25.3238 8.71902C25.4476 8.81253 25.5841 8.88582 25.6927 8.92878C25.713 8.93889 25.7307 8.94648 25.7509 8.95153C25.7534 8.36013 25.7585 7.79148 25.761 7.24558C25.7382 7.23547 25.7079 7.22283 25.6751 7.20514C25.5942 7.16218 25.4981 7.09141 25.4173 7.00801C25.253 6.84373 25.1671 6.63649 25.1671 6.63649C25.1671 6.63649 25.2985 6.82099 25.4805 6.93725C25.5689 6.99538 25.6649 7.03581 25.7382 7.05603C25.7458 7.05856 25.7534 7.06108 25.7635 7.06361C25.7635 6.9145 25.7635 6.77044 25.766 6.62638C25.7863 4.94571 25.8014 3.54304 25.8115 2.56243C25.8292 1.5793 25.8368 1.02076 25.8368 1.02076C25.8368 1.02076 25.8469 1.5793 25.8621 2.56243C25.8747 3.54304 25.8899 4.94571 25.9101 6.62638C25.9101 6.77044 25.9126 6.9145 25.9126 7.06361C25.9202 7.06108 25.9278 7.05856 25.9379 7.05603C26.0112 7.03581 26.1072 6.99538 26.1957 6.93725C26.3777 6.82099 26.5065 6.63649 26.5065 6.63649C26.5065 6.63649 26.4206 6.84373 26.2563 7.00801C26.178 7.09141 26.0794 7.16218 26.0011 7.20514C25.9657 7.22283 25.9379 7.23547 25.9152 7.24558C25.9177 7.79148 25.9227 8.36013 25.9253 8.95153C25.943 8.94648 25.9632 8.93889 25.9834 8.92878C26.0895 8.88582 26.2285 8.81253 26.3524 8.71902C26.4762 8.62298 26.5874 8.50672 26.6658 8.41574C26.7441 8.32475 26.7921 8.25904 26.7921 8.25904C26.7921 8.25904 26.7542 8.32981 26.6885 8.43343C26.6253 8.53452 26.5318 8.66847 26.4181 8.78978C26.3018 8.90857 26.1654 9.00713 26.0567 9.07284C26.0036 9.10317 25.9581 9.12844 25.9278 9.14613C25.9303 9.70468 25.9354 10.2809 25.9379 10.8723C25.9733 10.8647 26.0137 10.8521 26.0592 10.8394C26.2109 10.7914 26.408 10.7055 26.5849 10.5791C26.7618 10.4553 26.9236 10.3037 27.0423 10.1874C27.1586 10.0686 27.2344 9.98774 27.2344 9.98774C27.2344 9.98774 27.1712 10.0787 27.0727 10.2127C26.9716 10.3466 26.8326 10.5235 26.6658 10.6777C26.499 10.8369 26.2993 10.9633 26.1426 11.0366C26.0592 11.077 25.9884 11.1073 25.9404 11.125C25.943 11.5345 25.9455 11.9515 25.948 12.3735C25.9505 12.5606 25.9505 12.7501 25.9505 12.9422C26.0011 12.9296 26.0592 12.9144 26.1274 12.8942C26.317 12.836 26.5596 12.7274 26.7846 12.5783C27.012 12.4291 27.2167 12.2497 27.3684 12.1132C27.5175 11.9717 27.6186 11.8757 27.6186 11.8757C27.6186 11.8757 27.5301 11.9818 27.3987 12.1385C27.2622 12.2952 27.0777 12.4999 26.8629 12.6793C26.6481 12.8613 26.4029 13.0079 26.2058 13.0964C26.1022 13.1393 26.0137 13.1722 25.9505 13.1899C25.9531 13.804 25.9531 14.4308 25.9556 15.0601C26.0188 15.0475 26.0971 15.0323 26.1881 15.007C26.4105 14.9464 26.7037 14.8352 26.9766 14.6835C27.2496 14.5319 27.5048 14.3423 27.6792 14.1831C27.8561 14.0264 27.9598 13.9051 27.9598 13.9051C27.9598 13.9051 27.8688 14.0365 27.7096 14.2134C27.5478 14.3904 27.3102 14.6077 27.0449 14.7897C26.7795 14.9767 26.4863 15.1233 26.2563 15.2117C26.13 15.2572 26.0264 15.2901 25.9556 15.3103C25.9581 16.1443 25.9606 16.991 25.9632 17.8376C26.0339 17.8073 26.1249 17.7694 26.2285 17.7214C26.4939 17.6001 26.8376 17.4206 27.1586 17.2083C27.4821 16.9935 27.7778 16.7408 27.9926 16.5386C28.2049 16.3389 28.3414 16.1999 28.3414 16.1999C28.3414 16.1999 28.2176 16.349 28.0204 16.5664C27.8233 16.7863 27.5453 17.0643 27.2344 17.3094C26.9261 17.5546 26.5874 17.7669 26.3296 17.9109C26.1679 18.0019 26.039 18.0676 25.9632 18.1081C25.9657 18.3911 25.9657 18.6767 25.9657 18.9598C25.9657 19.5133 25.9632 20.0642 25.9606 20.6126C26.0415 20.5747 26.1451 20.5267 26.2665 20.4661C26.552 20.3195 26.9261 20.1046 27.2749 19.8519C27.6236 19.5992 27.9446 19.3111 28.1746 19.0811C28.4071 18.8511 28.5512 18.6919 28.5512 18.6919C28.5512 18.6919 28.4197 18.8612 28.2049 19.1089C27.9926 19.354 27.6893 19.6699 27.3532 19.9505C27.0196 20.2335 26.6531 20.4812 26.3726 20.6531C26.2311 20.7365 26.1123 20.8072 26.0264 20.8527C26.0011 20.8654 25.9809 20.878 25.9606 20.8881C25.9581 21.7171 25.9556 22.541 25.9556 23.3523C26.044 23.3169 26.1603 23.2613 26.3018 23.1931C26.6026 23.0389 26.9918 22.8013 27.3482 22.5157C27.7045 22.2301 28.028 21.9041 28.2555 21.6463C28.4829 21.3885 28.6194 21.204 28.6194 21.204C28.6194 21.204 28.4956 21.3986 28.2858 21.6716C28.076 21.9471 27.7753 22.2984 27.4316 22.6118C27.0904 22.9277 26.7087 23.2006 26.4055 23.3801C26.2538 23.4685 26.1274 23.5393 26.0339 23.5848C26.0011 23.6 25.9758 23.6126 25.9531 23.6252C25.9531 24.2747 25.9505 24.9192 25.948 25.5485C25.948 25.6724 25.948 25.7937 25.9455 25.9175C26.0289 25.8745 26.135 25.8164 26.2614 25.7406C26.547 25.5763 26.9185 25.3286 27.2723 25.0582C27.6262 24.7878 27.9623 24.4972 28.2074 24.2672C28.4526 24.0397 28.6068 23.878 28.6068 23.878C28.6068 23.878 28.4652 24.0498 28.2352 24.295C28.0078 24.5426 27.6893 24.8586 27.3532 25.1568C27.0171 25.455 26.6607 25.7305 26.3777 25.9226C26.178 26.0616 26.0213 26.1551 25.9455 26.2006C25.943 26.7718 25.943 27.3353 25.943 27.8863C26.178 27.7776 26.6253 27.5603 27.055 27.3025C27.3633 27.1205 27.6641 26.9209 27.8865 26.7642C28.1064 26.6075 28.2529 26.5013 28.2529 26.5013C28.2529 26.5013 28.1165 26.6201 27.9092 26.797C27.702 26.9714 27.4214 27.1989 27.1257 27.4086C26.6304 27.7675 26.1022 28.0733 25.943 28.1618C25.9455 28.9175 25.9455 29.6479 25.9455 30.3328C26.0087 30.3151 26.087 30.2873 26.178 30.2468C26.4029 30.1533 26.6961 29.9992 26.9766 29.8222C27.2597 29.6504 27.5301 29.4533 27.7197 29.294C27.9143 29.1373 28.0204 29.0084 28.0204 29.0084C28.0204 29.0084 27.9269 29.1474 27.7475 29.3244C27.5706 29.5013 27.3204 29.7237 27.0499 29.9284C26.782 30.1306 26.5015 30.3201 26.274 30.4414C26.135 30.5173 26.0162 30.5653 25.9455 30.5931C25.9455 30.8635 25.943 31.1263 25.943 31.3816C25.943 31.5737 25.943 31.7632 25.943 31.9477C25.9935 31.9427 26.0567 31.9376 26.1325 31.925C26.3119 31.8972 26.5495 31.8264 26.7719 31.7177C26.9969 31.6091 27.2066 31.4726 27.3583 31.3614C27.5124 31.2502 27.6085 31.1693 27.6085 31.1693C27.6085 31.1693 27.52 31.2578 27.3785 31.3841C27.2369 31.5105 27.0373 31.6672 26.8174 31.8011C26.6001 31.9351 26.3574 32.0337 26.1679 32.0817C26.0769 32.107 26.0011 32.1196 25.943 32.1297C25.9455 32.7994 25.9505 33.4186 25.9581 33.9747C26.039 33.962 26.1527 33.9241 26.2589 33.871C26.4712 33.7699 26.6531 33.6057 26.6531 33.6057C26.6531 33.6057 26.5091 33.8003 26.3094 33.9519C26.2109 34.0303 26.0996 34.0934 26.0087 34.1288C25.991 34.1364 25.9733 34.1415 25.9581 34.149C25.9682 35.2712 25.9733 36.1178 25.943 36.598C25.9379 36.6536 25.9708 36.7016 26.0238 36.7219C26.0718 36.7421 26.1275 36.7294 26.1628 36.6941C26.4231 36.4186 27.0196 35.8803 27.7273 35.1044C27.7778 35.0488 27.8309 34.9906 27.8814 34.935C27.8688 34.9148 27.8511 34.882 27.8334 34.8415C27.798 34.7657 27.7677 34.6621 27.7525 34.5559C27.7222 34.3462 27.7475 34.1364 27.7475 34.1364C27.7475 34.1364 27.7652 34.3462 27.8334 34.5332C27.8663 34.6267 27.9143 34.7101 27.9547 34.7657C27.9699 34.7859 27.9825 34.8011 27.9926 34.8137C28.2858 34.4928 28.5967 34.144 28.9227 33.7649C28.9859 33.6891 29.0516 33.6132 29.1173 33.5349C29.0844 33.4995 29.0339 33.4389 28.9758 33.3529C28.8848 33.2164 28.7862 33.0193 28.723 32.8146C28.6598 32.6074 28.6219 32.3951 28.6017 32.2358C28.5815 32.0766 28.5739 31.9705 28.5739 31.9705C28.5739 31.9705 28.5916 32.0766 28.627 32.2308C28.6598 32.3875 28.718 32.5897 28.8014 32.7817C28.8822 32.9738 28.9909 33.1507 29.0895 33.267C29.1426 33.3302 29.1906 33.3782 29.2234 33.4085C29.3523 33.2544 29.4812 33.1002 29.6126 32.9384C29.7112 32.8222 29.8098 32.7009 29.9083 32.5796C29.878 32.524 29.8249 32.4254 29.7769 32.2965C29.696 32.0943 29.6152 31.8188 29.552 31.5408C29.4863 31.2628 29.4408 30.9823 29.4206 30.7725C29.3953 30.5602 29.4079 30.4187 29.4079 30.4187C29.4079 30.4187 29.4105 30.5602 29.4534 30.7649C29.4964 30.9722 29.5671 31.2426 29.6581 31.508C29.7466 31.7708 29.8502 32.0311 29.9462 32.2131C29.9867 32.2914 30.0221 32.3546 30.0524 32.4001C30.4416 31.9199 30.8435 31.4018 31.2529 30.8584C31.2023 30.7371 31.0001 30.2418 30.846 29.7287C30.755 29.4356 30.6792 29.1399 30.6261 28.9175C30.573 28.6951 30.5376 28.5485 30.5376 28.5485C30.5376 28.5485 30.5882 28.6925 30.659 28.9073C30.7297 29.1247 30.8333 29.4103 30.9496 29.6883C31.1113 30.0876 31.3009 30.4718 31.3995 30.6613C31.6977 30.2595 31.9959 29.8425 32.2967 29.4128C32.2689 29.3446 32.2082 29.2005 32.14 29.0059C32.0439 28.7355 31.9353 28.369 31.8468 27.9975C31.7583 27.6285 31.6876 27.257 31.6421 26.979C31.5966 26.6985 31.5764 26.5114 31.5764 26.5114C31.5764 26.5114 31.6118 26.6959 31.6749 26.9714C31.7407 27.2444 31.8367 27.6083 31.9504 27.9672C32.0642 28.3235 32.1981 28.6748 32.3118 28.9301C32.3624 29.0438 32.4053 29.1348 32.4407 29.2056C32.5191 29.0918 32.5974 28.9781 32.6758 28.8619C32.9917 28.4019 33.3051 27.9242 33.6159 27.439C33.6058 27.4213 33.5932 27.4011 33.5806 27.3758C33.5351 27.3025 33.4795 27.1913 33.4137 27.0573C33.2849 26.7894 33.1408 26.4205 33.0422 26.0414C32.9386 25.6597 32.8805 25.2756 32.8476 24.9849C32.8173 24.6968 32.8122 24.5022 32.8122 24.5022C32.8122 24.5022 32.8299 24.6943 32.8805 24.9799C32.9336 25.2655 33.0195 25.642 33.1459 26.006C33.2697 26.3699 33.434 26.7187 33.5755 26.9638C33.6412 27.0776 33.6993 27.1711 33.7448 27.2368C34.129 26.6302 34.5056 26.006 34.872 25.3716C34.8619 25.3564 34.8518 25.3388 34.8417 25.3185C34.7987 25.2478 34.7431 25.1467 34.6774 25.0228C34.5485 24.7777 34.3893 24.439 34.2629 24.0928C34.1366 23.744 34.0456 23.3877 33.9875 23.1172C33.9293 22.8493 33.899 22.6699 33.899 22.6699C33.899 22.6699 33.942 22.8468 34.0203 23.1096C34.0961 23.3725 34.2124 23.7187 34.364 24.0473C34.5131 24.3784 34.6926 24.6943 34.8366 24.9243C34.8973 25.0178 34.9504 25.0987 34.9933 25.1618C35.2334 24.7398 35.4685 24.3127 35.6985 23.883C35.8172 23.6631 35.936 23.4407 36.0523 23.2183C36.0118 23.1577 35.9436 23.0566 35.8602 22.9277C35.7263 22.7154 35.5595 22.4247 35.423 22.1189C35.2865 21.8131 35.1829 21.4972 35.1172 21.2571C35.0489 21.0195 35.011 20.8603 35.011 20.8603C35.011 20.8603 35.0641 21.017 35.1475 21.247C35.2334 21.4795 35.3598 21.7828 35.519 22.0684C35.6782 22.354 35.8627 22.6219 36.0118 22.8139C36.07 22.8898 36.1205 22.9555 36.161 23.006C36.5148 22.3236 36.8484 21.6362 37.1668 20.9513C37.1213 20.9134 37.0531 20.8502 36.9748 20.7668C36.8307 20.6177 36.6614 20.4003 36.5249 20.1628C36.3859 19.9277 36.2823 19.675 36.2191 19.4829C36.1584 19.2908 36.1332 19.1569 36.1332 19.1569C36.1332 19.1569 36.1711 19.2883 36.2519 19.4703C36.3328 19.6523 36.4592 19.8873 36.6159 20.0996C36.77 20.3144 36.952 20.5014 37.1011 20.6278C37.1618 20.6784 37.2174 20.7213 37.2603 20.7516C37.4954 20.2386 37.7203 19.7255 37.9351 19.2176C37.8922 19.1847 37.8341 19.1291 37.7658 19.0583C37.642 18.9244 37.503 18.7273 37.3968 18.5124C37.2907 18.3027 37.2123 18.0803 37.1567 17.9135C37.1037 17.7466 37.0683 17.6354 37.0683 17.6354C37.0683 17.6354 37.1163 17.7416 37.1871 17.9008C37.2603 18.0575 37.364 18.2648 37.4903 18.4543C37.6142 18.6464 37.7683 18.8132 37.8947 18.9193C37.9427 18.9572 37.9832 18.9901 38.0185 19.0128C38.0742 18.8814 38.1297 18.75 38.1828 18.6211C38.337 18.242 38.4836 17.8705 38.6251 17.5015C38.5948 17.4712 38.5468 17.4282 38.4912 17.3675C38.3901 17.2589 38.2738 17.0971 38.1929 16.9202C38.107 16.7433 38.0514 16.5613 38.011 16.4223C37.9731 16.2858 37.9503 16.1949 37.9503 16.1949C37.9503 16.1949 37.9882 16.2808 38.0413 16.4097C38.102 16.5386 38.1828 16.7104 38.2864 16.8621C38.3875 17.0162 38.5114 17.1451 38.6175 17.226C38.6504 17.2513 38.6807 17.274 38.706 17.2943C38.8955 16.7964 39.0699 16.3111 39.2342 15.8385C39.214 15.8158 39.1811 15.7804 39.1407 15.7298C39.075 15.6464 38.9941 15.5276 38.936 15.3988C38.8778 15.2673 38.8425 15.1309 38.8197 15.0298C38.797 14.9287 38.7843 14.8604 38.7843 14.8604C38.7843 14.8604 38.8071 14.9261 38.8425 15.0222C38.8804 15.1182 38.936 15.2446 39.0067 15.3558C39.08 15.467 39.1685 15.563 39.2418 15.6287C39.2595 15.6464 39.2772 15.6591 39.2898 15.6742C39.4617 15.1789 39.6184 14.6987 39.7599 14.2412C39.7422 14.2261 39.7194 14.2033 39.6891 14.173C39.636 14.1199 39.5779 14.0365 39.5349 13.9455C39.444 13.7686 39.4288 13.574 39.4288 13.574C39.4288 13.574 39.4869 13.7585 39.6032 13.9C39.6588 13.9708 39.7245 14.0289 39.7776 14.0618C39.7902 14.0694 39.8003 14.077 39.8104 14.082C39.8357 13.9961 39.8635 13.9076 39.8888 13.8242C40.3285 12.3963 40.6343 11.1832 40.834 10.3315C41.0362 9.47974 41.1348 8.98944 41.1348 8.98944C41.1348 8.98944 41.0513 9.48227 40.8744 10.3416C40.6925 11.1983 40.4145 12.4165 40.005 13.8571C39.9823 13.9405 39.9545 14.0264 39.9317 14.1098C39.9949 14.1123 40.0859 14.0997 40.1769 14.0694C40.3513 14.0138 40.5029 13.8874 40.5029 13.8874C40.5029 13.8874 40.3816 14.0441 40.2072 14.1477C40.1213 14.1983 40.0252 14.2362 39.9494 14.2513C39.9242 14.2589 39.9039 14.2615 39.8862 14.264C39.7472 14.7265 39.5956 15.2092 39.4313 15.7096C39.444 15.7071 39.4566 15.7071 39.4718 15.7071C39.5703 15.697 39.6992 15.6742 39.8256 15.6237C39.952 15.5757 40.0707 15.5049 40.1592 15.4468C40.2477 15.3912 40.3033 15.3482 40.3033 15.3482C40.3033 15.3482 40.2527 15.3988 40.1718 15.4695C40.0935 15.5403 39.9823 15.6313 39.8559 15.702C39.7296 15.7728 39.5931 15.8208 39.4895 15.8461C39.4465 15.8587 39.4086 15.8663 39.3783 15.8714C39.219 16.3516 39.0472 16.8444 38.8652 17.3499C38.893 17.3524 38.9284 17.3524 38.9663 17.3549C39.1002 17.36 39.2797 17.3448 39.4591 17.2892C39.636 17.2361 39.8104 17.1527 39.9393 17.087C40.0682 17.0188 40.1516 16.9708 40.1516 16.9708C40.1516 16.9708 40.0733 17.0314 39.9545 17.1173C39.8357 17.2033 39.6714 17.3119 39.492 17.3953C39.3125 17.4813 39.1154 17.5293 38.9663 17.5445C38.893 17.5546 38.8298 17.5571 38.7869 17.5571C38.6504 17.9311 38.5063 18.3077 38.3547 18.6893C38.3016 18.8208 38.2485 18.9522 38.1929 19.0836C38.2334 19.0912 38.2839 19.0962 38.342 19.1013C38.5089 19.1139 38.7338 19.1013 38.9587 19.0457C39.1836 18.9926 39.4061 18.9067 39.5703 18.8359C39.7346 18.7626 39.8433 18.7121 39.8433 18.7121C39.8433 18.7121 39.7397 18.7753 39.583 18.8663C39.4263 18.9572 39.2114 19.071 38.984 19.1544C38.7565 19.2403 38.5164 19.2833 38.3345 19.2908C38.241 19.2934 38.1626 19.2934 38.1095 19.2883C37.8972 19.7988 37.6748 20.3144 37.4398 20.8325C37.4903 20.8426 37.556 20.8553 37.6344 20.8654C37.8239 20.8932 38.0893 20.9033 38.3547 20.8704C38.6201 20.8401 38.8829 20.7668 39.0775 20.6935C39.2696 20.6202 39.3934 20.552 39.3934 20.552C39.3934 20.552 39.2772 20.6329 39.0876 20.7264C38.9006 20.8199 38.6377 20.921 38.3673 20.9816C38.0944 21.0448 37.8164 21.0625 37.6091 21.0549C37.4979 21.0499 37.4095 21.0423 37.3463 21.0322C37.0329 21.7221 36.6993 22.4146 36.348 23.1021C36.4137 23.1046 36.4971 23.1071 36.5957 23.1096C36.8408 23.1122 37.1694 23.0995 37.4979 23.0439C37.8265 22.9909 38.1525 22.8923 38.3926 22.8038C38.6327 22.7154 38.7919 22.6497 38.7919 22.6497C38.7919 22.6497 38.6377 22.728 38.4027 22.8367C38.1677 22.9454 37.8467 23.0717 37.5131 23.1551C37.182 23.2385 36.8433 23.2815 36.5906 23.2967C36.4339 23.3093 36.3126 23.3118 36.2393 23.3144C36.1231 23.5368 36.0068 23.7617 35.888 23.9841C35.6555 24.4138 35.4154 24.8409 35.1728 25.2629C35.2486 25.268 35.3446 25.2705 35.4609 25.273C35.7338 25.2781 36.1003 25.2629 36.4668 25.2023C36.8332 25.1441 37.1972 25.0405 37.4651 24.9445C37.7355 24.851 37.9124 24.7752 37.9124 24.7752C37.9124 24.7752 37.7405 24.8636 37.4752 24.9773C37.2123 25.0936 36.8509 25.2276 36.4794 25.3135C36.1104 25.4019 35.7338 25.4474 35.4533 25.4626C35.3143 25.4702 35.1955 25.4752 35.1146 25.4727C35.0894 25.4752 35.0666 25.4752 35.0489 25.4752C34.6774 26.1096 34.2958 26.7338 33.9091 27.3404C33.99 27.353 34.1012 27.3657 34.2326 27.3733C34.5207 27.3909 34.9099 27.3808 35.2991 27.3151C35.6883 27.2519 36.075 27.1332 36.3606 27.027C36.6437 26.9183 36.8307 26.8274 36.8307 26.8274C36.8307 26.8274 36.6513 26.931 36.3707 27.0599C36.0902 27.1862 35.706 27.3328 35.3118 27.4263C34.92 27.5224 34.5182 27.5603 34.2174 27.5628C34.0683 27.5628 33.942 27.5578 33.856 27.5502C33.8232 27.5476 33.8004 27.5451 33.7777 27.5451C33.4643 28.0304 33.1484 28.5055 32.8299 28.9655C32.7491 29.0817 32.6682 29.1955 32.5873 29.3092C32.6657 29.3168 32.7693 29.3244 32.8956 29.3294C33.1787 29.3421 33.5603 29.3345 33.942 29.294C34.3261 29.2536 34.7077 29.1879 34.9959 29.1222C35.2814 29.059 35.471 29.0009 35.471 29.0009C35.471 29.0009 35.2865 29.0716 35.0009 29.1576C34.7179 29.2435 34.3337 29.3395 33.9495 29.4052C33.5629 29.4735 33.1762 29.5114 32.883 29.519C32.6732 29.524 32.514 29.519 32.4407 29.5139C32.1349 29.941 31.8291 30.353 31.5284 30.7498C31.7407 30.7877 32.1627 30.8559 32.5949 30.8787C32.9007 30.8964 33.2116 30.8938 33.4466 30.8837C33.6816 30.8736 33.8383 30.866 33.8383 30.866C33.8383 30.866 33.6816 30.8888 33.4466 30.9191C33.2116 30.9494 32.8982 30.9798 32.5848 30.9899C32.0465 31.0101 31.5157 30.9621 31.3767 30.9469C30.9572 31.4928 30.5452 32.0084 30.1459 32.4911C30.199 32.5113 30.2824 32.5391 30.3885 32.5669C30.5882 32.62 30.8687 32.663 31.1518 32.6832C31.4348 32.7059 31.723 32.7034 31.9378 32.6882C32.1551 32.6731 32.2992 32.6326 32.2992 32.6326C32.2992 32.6326 32.1577 32.6882 31.9403 32.7236C31.723 32.7615 31.4298 32.7919 31.1392 32.7969C30.8485 32.802 30.5579 32.7868 30.3405 32.7514C30.1661 32.7261 30.0398 32.6857 29.9968 32.6705C29.8982 32.7868 29.8022 32.9031 29.7062 33.0143C29.5697 33.1735 29.4357 33.3251 29.3043 33.4768C29.3397 33.5046 29.3928 33.5425 29.4635 33.5829C29.5949 33.6613 29.787 33.7396 29.9943 33.7851C30.2015 33.8306 30.4163 33.8483 30.5781 33.8533C30.7424 33.8559 30.851 33.8508 30.851 33.8508C30.851 33.8508 30.7424 33.866 30.5781 33.8786C30.4138 33.8912 30.1914 33.8938 29.9741 33.8685C29.7567 33.8407 29.5444 33.78 29.3953 33.7093C29.3018 33.6663 29.2335 33.6259 29.1931 33.6006C29.1324 33.6714 29.0693 33.7421 29.0086 33.8104C28.675 34.1819 28.3692 34.5534 28.076 34.8845C28.0861 34.8895 28.0962 34.8971 28.1064 34.9047C28.167 34.9401 28.258 34.978 28.354 35.0033C28.5486 35.0538 28.7609 35.0462 28.7609 35.0462C28.7609 35.0462 28.5512 35.0943 28.3363 35.0841C28.2302 35.0816 28.1215 35.0589 28.0432 35.0336C28.0128 35.0235 27.9876 35.0134 27.9673 35.0033C27.9092 35.0665 27.8536 35.1296 27.7955 35.1903C27.0828 35.9384 26.5546 36.5096 26.2639 36.7648C26.226 36.7977 26.2235 36.8533 26.2538 36.8937C26.2639 36.9064 26.2715 36.9165 26.2816 36.9291C26.3094 36.9771 26.365 36.9999 26.4181 36.9872C26.9589 36.8533 28.1695 36.6309 29.5267 36.2947C29.5292 36.2745 29.5318 36.2467 29.5393 36.2139C29.5545 36.1456 29.5874 36.0597 29.6303 35.9814C29.7137 35.8221 29.835 35.6983 29.835 35.6983C29.835 35.6983 29.7542 35.8525 29.7238 36.0117C29.7062 36.09 29.7036 36.1684 29.7087 36.2265C29.7087 36.2341 29.7087 36.2417 29.7112 36.2492C29.9462 36.1911 30.1838 36.1279 30.4239 36.0622C30.5958 36.0167 30.7752 35.9687 30.9547 35.9182C30.9521 35.8777 30.9521 35.8247 30.9547 35.7615C30.9597 35.625 30.9926 35.443 31.0507 35.2737C31.1088 35.1044 31.1897 34.9426 31.2529 34.8289C31.3186 34.7126 31.3666 34.6368 31.3666 34.6368C31.3666 34.6368 31.3287 34.7177 31.2807 34.839C31.2352 34.9628 31.1796 35.1271 31.1467 35.2964C31.1139 35.4632 31.1088 35.6326 31.1215 35.7564C31.1265 35.7994 31.1316 35.8373 31.1366 35.8676C31.3944 35.7943 31.6598 35.7185 31.9302 35.6376C31.9378 35.5846 31.953 35.4936 31.9833 35.3849C32.0313 35.208 32.1147 34.9856 32.2107 34.7708C32.3068 34.5534 32.418 34.3462 32.509 34.1945C32.5999 34.0429 32.6783 33.957 32.6783 33.957C32.6783 33.957 32.6126 34.053 32.5443 34.2147C32.4761 34.374 32.3978 34.5913 32.3346 34.8112C32.2714 35.0311 32.2208 35.256 32.2032 35.4228C32.1956 35.4759 32.1905 35.5239 32.1905 35.5618C32.6303 35.4304 33.0852 35.2889 33.5502 35.1372C33.5856 35.0109 33.6993 34.604 33.851 34.2097C34.0279 33.732 34.2503 33.2822 34.2503 33.2822C34.2503 33.2822 34.0885 33.7573 33.9748 34.2425C33.9015 34.5509 33.851 34.8643 33.8232 35.0488C34.0153 34.9856 34.2073 34.9224 34.4045 34.8567C34.5662 34.8011 34.733 34.7455 34.8998 34.6899C34.915 34.6242 34.9478 34.5079 34.9984 34.3613C35.0717 34.1339 35.1879 33.8382 35.3219 33.5526C35.4533 33.267 35.5974 32.989 35.7136 32.7843C35.8299 32.5821 35.9133 32.4507 35.9133 32.4507C35.9133 32.4507 35.8425 32.5897 35.749 32.802C35.6555 33.0168 35.5418 33.3049 35.4432 33.5981C35.3421 33.8912 35.2612 34.1869 35.2132 34.4119C35.198 34.4801 35.1854 34.5408 35.1753 34.5938C35.6378 34.4321 36.1079 34.2653 36.5805 34.0884C36.5906 34.0176 36.6108 33.9014 36.6437 33.7573C36.6993 33.5147 36.7978 33.2013 36.9318 32.9056C37.1946 32.3041 37.5914 31.7961 37.5914 31.7961C37.5914 31.7961 37.2477 32.342 37.0556 32.9486C36.9545 33.2493 36.8914 33.5576 36.861 33.7902C36.8534 33.866 36.8459 33.9317 36.8433 33.9898C37.3539 33.7952 37.8694 33.593 38.3825 33.3858C38.3926 33.3175 38.4103 33.224 38.433 33.1078C38.4811 32.8828 38.5569 32.5846 38.663 32.2965C38.7666 32.0059 38.8981 31.7304 39.0067 31.5307C39.1129 31.3285 39.1887 31.1996 39.1887 31.1996C39.1887 31.1996 39.1255 31.3361 39.0421 31.5459C38.9562 31.7557 38.8576 32.0387 38.7869 32.3294C38.7161 32.62 38.6731 32.9157 38.6529 33.1356C38.6479 33.1886 38.6453 33.2367 38.6403 33.2771C38.7136 33.2493 38.7869 33.219 38.8576 33.1887C39.2746 33.0193 39.6891 32.8424 40.0985 32.6655C40.1061 32.6048 40.1162 32.5088 40.1339 32.385C40.1617 32.1777 40.2148 31.9048 40.2931 31.6394C40.3715 31.3715 40.4802 31.1188 40.5686 30.9343C40.6596 30.7498 40.7177 30.6285 40.7177 30.6285C40.7177 30.6285 40.6722 30.7548 40.604 30.9494C40.5408 31.1415 40.465 31.4018 40.4195 31.6647C40.374 31.93 40.3563 32.1954 40.3538 32.3976C40.3538 32.4557 40.3538 32.5088 40.3538 32.5543C40.8845 32.3192 41.4077 32.0817 41.9207 31.8391C41.9157 31.791 41.9081 31.7228 41.9056 31.6444C41.9005 31.4726 41.9132 31.2426 41.9612 31.0202C42.0042 30.7978 42.08 30.583 42.1482 30.4313C42.2164 30.2772 42.2746 30.1837 42.2746 30.1837C42.2746 30.1837 42.2291 30.2847 42.1861 30.444C42.1406 30.6032 42.1002 30.818 42.0901 31.0328C42.0774 31.2502 42.0977 31.4625 42.1255 31.6166C42.1356 31.6596 42.1432 31.6975 42.1507 31.7304C42.5046 31.5636 42.8508 31.3942 43.1895 31.2249C43.1996 31.2199 43.2072 31.2173 43.2147 31.2123C43.2097 31.1668 43.2046 31.1036 43.2046 31.0253C43.2021 30.8736 43.2249 30.6714 43.2805 30.4819C43.3335 30.2923 43.4119 30.1129 43.47 29.9815C43.5332 29.85 43.5736 29.7616 43.5736 29.7616C43.5736 29.7616 43.5484 29.8551 43.5104 29.9941C43.4725 30.1306 43.427 30.3176 43.4093 30.5021C43.3891 30.6891 43.3992 30.8711 43.4245 31.0025C43.4321 31.0379 43.4397 31.0707 43.4447 31.0985C43.8087 30.9166 44.1625 30.7371 44.5062 30.5577C44.5037 30.5198 44.5012 30.4692 44.5012 30.4061C44.5012 30.2797 44.5239 30.1129 44.5744 29.9587C44.625 29.8046 44.6958 29.6605 44.7488 29.5569C44.807 29.4533 44.8423 29.385 44.8423 29.385C44.8423 29.385 44.8221 29.4583 44.7867 29.5695C44.7564 29.6832 44.7185 29.8324 44.7033 29.9815C44.6806 30.1634 44.7084 30.3302 44.7362 30.4364C45.0926 30.2494 45.4388 30.0623 45.7699 29.8804C45.7724 29.8551 45.7724 29.8248 45.7749 29.7869C45.7825 29.6984 45.8053 29.5796 45.8457 29.4684C45.8836 29.3547 45.9417 29.2536 45.9847 29.1803C46.0327 29.107 46.063 29.059 46.063 29.059C46.063 29.059 46.0428 29.1121 46.0125 29.1929C45.9847 29.2713 45.9544 29.38 45.9392 29.4861C45.924 29.5973 45.9316 29.706 45.9417 29.7869C46.2602 29.6099 46.5635 29.4381 46.8541 29.2713C46.8516 29.2536 46.8516 29.2308 46.8516 29.203C46.8516 29.1373 46.8667 29.0514 46.8945 28.9731C46.9476 28.8138 47.0512 28.6925 47.0512 28.6925C47.0512 28.6925 46.9906 28.8391 46.9906 28.9882C46.9881 29.0615 47.0007 29.1323 47.0159 29.1803C48.0015 28.6167 48.8128 28.1188 49.3865 27.7599C49.9905 27.3834 50.3317 27.161 50.3317 27.161C50.3317 27.161 50.0006 27.3985 49.4118 27.8004C48.8532 28.1769 48.0596 28.7001 47.0891 29.294ZM50.8043 26.9562C50.8978 26.8526 50.779 26.6959 50.6552 26.7566C49.4067 27.348 48.8911 27.6007 48.5499 28.0152C48.5727 27.9369 48.6586 27.7246 48.6157 27.6715C48.512 27.7321 47.6452 28.1491 47.1978 28.5156C47.1346 28.3286 47.2635 28.134 47.3191 28.0455C46.7859 28.1567 46.1768 28.5434 46.0681 28.7987C45.9923 28.6015 46.058 28.4651 46.1136 28.3665C45.5475 28.5055 44.9738 28.8669 44.8676 29.1474C44.7792 28.9352 44.8626 28.7683 44.9182 28.6622C44.3167 28.8265 43.6975 29.2485 43.5938 29.5493C43.4928 29.3269 43.5711 29.0767 43.6267 28.9629C42.9898 29.15 42.3453 29.6807 42.2392 30.0067C42.1204 29.7717 42.1912 29.5038 42.2442 29.3774C41.5745 29.6074 40.973 30.1028 40.7481 30.5274C40.6192 30.2797 40.6925 29.9941 40.7481 29.8602C40.0404 30.1053 39.3656 30.6462 39.1432 31.0783C39.032 30.8458 39.1002 30.5754 39.1508 30.4339C38.5114 30.6689 37.7052 31.3007 37.5434 31.652C37.4474 31.4397 37.5106 31.1819 37.5535 31.0303C36.9823 31.2603 36.0877 31.9553 35.8653 32.3218C35.7844 32.1272 35.8425 31.882 35.8779 31.7203C35.3724 31.9503 34.4626 32.6958 34.2402 33.08C34.1745 32.9056 34.225 32.6756 34.2554 32.5037C33.8156 32.7363 33.1105 33.4667 32.7693 33.7371C32.7769 33.5172 32.7794 33.4262 32.8299 33.2316C32.4534 33.4768 31.7381 34.235 31.3388 34.4725C31.3135 34.3765 31.306 34.3158 31.3312 34.1212C31.0178 34.379 30.0448 35.3697 29.5848 35.5694C29.5747 35.4986 29.5848 35.4051 29.6228 35.2712C29.3953 35.5189 27.7803 36.3706 26.7719 36.684C26.6809 36.7143 26.6102 36.6031 26.6759 36.5348C27.3962 35.8019 28.7053 35.1852 29.14 35.074C28.9631 35.0361 28.8519 34.9906 28.7811 34.9325C29.3169 34.5382 30.7322 34.1162 31.2251 33.8685C30.9825 33.7977 30.9167 33.7573 30.8207 33.6739C31.3413 33.3201 32.7036 32.8879 33.204 32.5113C32.9437 32.4911 32.8325 32.4557 32.5646 32.3673C33.0726 32.0589 34.5359 31.6419 35.0287 31.139C34.8013 31.1238 34.4929 31.1087 34.3084 30.9621C34.8847 30.8079 36.2115 29.8147 36.6866 29.1803C36.4668 29.1929 36.1382 29.2106 35.9234 29.0565C36.4642 28.8467 37.6496 27.7599 38.0944 26.9967C37.8897 27.0371 37.5409 27.0902 37.2932 26.931C37.7886 26.7616 38.7944 25.7052 39.1988 24.8181C39.0093 24.8838 38.6453 24.9698 38.3648 24.808C38.9562 24.5224 39.7523 23.5797 40.1061 22.5739C39.9317 22.6623 39.5552 22.7836 39.2418 22.6219C39.8028 22.2908 40.4675 21.4037 40.7278 20.4458C40.5712 20.5419 40.2274 20.6809 39.9216 20.552C40.3336 20.3624 40.9806 19.3818 41.1322 18.472C40.9932 18.5781 40.6849 18.7424 40.3867 18.6565C40.7582 18.4518 41.2055 17.5091 41.2813 16.6649C41.16 16.7711 40.9679 16.9303 40.6824 16.8747C41.0109 16.6548 41.3395 15.7829 41.347 15.002C41.2434 15.1081 41.0918 15.2421 40.8239 15.2143C41.1095 14.9843 41.4052 14.0517 41.3496 13.3365C41.2611 13.4451 41.069 13.6852 40.8188 13.6827C41.1095 12.9776 41.2561 11.7215 41.2839 11.5623C41.2005 11.537 40.9856 11.7417 40.9022 11.8049C41.2712 11.1705 41.39 10.3593 41.3445 8.36772C41.342 8.25651 41.1853 8.22871 41.1474 8.33486C40.4448 10.1925 40.1415 10.9077 40.1794 11.633C40.1339 11.5395 40.0328 11.264 39.9469 11.2489C39.9039 11.4005 39.4515 12.5403 39.3403 13.2707C39.123 13.1469 39.08 12.8537 39.0573 12.7223C38.6529 13.2834 38.4052 14.1679 38.5164 14.5041C38.2763 14.3802 38.2258 14.1932 38.1955 14.0542C37.7785 14.6658 37.5384 15.4923 37.6698 15.8461C37.4095 15.7197 37.3488 15.4923 37.3134 15.3432C36.8812 16.0053 36.6386 16.9202 36.7877 17.2968C36.5072 17.1654 36.3783 16.8621 36.3353 16.7054C35.883 17.413 35.6985 18.4518 35.8602 18.8511C35.5544 18.7222 35.4028 18.4063 35.3522 18.242C34.8973 19.0103 34.7179 19.9758 34.8417 20.5697C34.5157 20.4332 34.3564 20.0945 34.3034 19.9202C33.8131 20.7314 33.5907 21.7954 33.717 22.3944C33.4239 22.2554 33.2747 21.937 33.2065 21.7575C32.7718 22.4955 32.4761 23.7491 32.5949 24.2267C32.3321 24.0903 32.193 23.787 32.1147 23.605C31.7331 24.2798 31.3868 25.6623 31.445 26.198C31.215 26.0666 31.0835 25.781 30.9951 25.5915C30.6691 26.2082 30.3304 27.6513 30.3986 28.2098C30.199 28.086 30.0726 27.8155 29.9741 27.6184C29.7087 28.1871 29.5469 29.4608 29.4029 29.9941C29.2437 29.7641 29.1805 29.6681 29.0844 29.4381C28.8848 29.9663 28.7205 31.278 28.4855 31.8188C28.3869 31.7405 28.3363 31.6824 28.215 31.465C28.0861 31.9604 28.1089 33.1179 27.7778 33.6663C27.7121 33.6031 27.6565 33.497 27.5958 33.3302C27.5402 33.7598 27.0777 35.5492 26.3296 36.3579C26.2563 36.4363 26.1224 36.3731 26.135 36.2669C26.2892 35.0412 27.0575 33.6385 27.3633 33.2291C27.1738 33.3251 27.0373 33.3706 26.9261 33.3757C27.0803 32.668 28.1443 31.374 28.4096 30.8357C28.1291 30.9419 28.0356 30.9545 27.8839 30.952C28.0887 30.305 28.9277 29.0009 29.1299 28.369C28.8646 28.5156 28.7331 28.5586 28.4122 28.6571C28.6674 28.0683 29.4332 26.7566 29.5697 26.0287C29.3321 26.1526 29.0187 26.3269 28.7331 26.3118C29.1931 25.8265 29.8401 24.1888 29.9109 23.3624C29.696 23.4963 29.3751 23.696 29.0541 23.6808C29.4661 23.1905 29.9917 21.573 29.9993 20.6531C29.8072 20.7946 29.4762 21.0246 29.1198 21.0069C29.5343 20.5924 29.969 19.119 29.9083 18.1005C29.739 18.2521 29.4003 18.5074 29.0086 18.4922C29.4787 17.9362 29.8224 16.6826 29.6986 15.5706C29.552 15.7324 29.2032 16.0129 28.7736 15.9977C29.2158 15.4291 29.504 14.2968 29.3523 13.2581C29.2184 13.4123 28.9025 13.6878 28.5006 13.6878C28.8721 13.3314 29.1426 12.1158 28.9277 11.1579C28.814 11.3121 28.5385 11.5926 28.1645 11.6179C28.4956 11.2716 28.6068 10.1722 28.3667 9.28767C28.2681 9.43678 28.1114 9.66424 27.7626 9.7072C28.0533 9.36854 28.0937 8.3753 27.8283 7.56655C27.7424 7.71061 27.616 7.89511 27.2976 7.95071C27.5453 7.62215 27.5655 6.57078 27.2723 5.83786C27.2016 5.97686 27.0575 6.28519 26.7643 6.35343C26.8755 5.527 26.6784 4.15971 26.6683 3.98532C26.5622 3.97774 26.3675 4.25069 26.2867 4.33915C26.5369 3.57589 26.4206 2.71155 25.9758 0.618915C25.9455 0.469802 25.7307 0.469802 25.6978 0.618915C25.2555 2.71155 25.1393 3.57589 25.3869 4.33915C25.3086 4.25069 25.1115 3.97774 25.0078 3.98532C24.9977 4.15971 24.8006 5.527 24.9093 6.35343C24.6161 6.28519 24.472 5.97686 24.4038 5.83786C24.1106 6.57078 24.1309 7.62215 24.3785 7.95071C24.0576 7.89511 23.9312 7.71061 23.8478 7.56655C23.5799 8.3753 23.6229 9.36854 23.911 9.7072C23.5647 9.66424 23.408 9.43678 23.3095 9.28767C23.0669 10.1722 23.1806 11.2716 23.5117 11.6179C23.1376 11.5926 22.8596 11.3121 22.7459 11.1579C22.5311 12.1158 22.804 13.3314 23.1755 13.6878C22.7737 13.6878 22.4552 13.4123 22.3238 13.2581C22.1696 14.2968 22.4578 15.4291 22.9 15.9977C22.4729 16.0129 22.1242 15.7324 21.975 15.5706C21.8537 16.6826 22.1974 17.9362 22.6675 18.4922C22.2758 18.5074 21.9346 18.2521 21.7653 18.1005C21.7071 19.119 22.1418 20.5924 22.5563 21.0069C22.2 21.0246 21.8689 20.7946 21.6768 20.6531C21.6819 21.573 22.2101 23.1905 22.622 23.6808C22.3011 23.696 21.9776 23.4963 21.7627 23.3624C21.836 24.1888 22.4805 25.8265 22.9405 26.3118C22.6574 26.3269 22.344 26.1526 22.1065 26.0287C22.2429 26.7566 23.0062 28.0683 23.264 28.6571C22.943 28.5586 22.8116 28.5156 22.5462 28.369C22.7459 29.0009 23.5875 30.305 23.7922 30.952C23.638 30.9545 23.547 30.9419 23.2665 30.8357C23.5319 31.374 24.5959 32.668 24.7475 33.3757C24.6389 33.3706 24.5024 33.3251 24.3103 33.2291C24.6161 33.6385 25.3844 35.0412 25.5411 36.2669C25.5537 36.3731 25.4198 36.4363 25.3465 36.3579C24.5959 35.5492 24.1334 33.7598 24.0778 33.3302C24.0197 33.497 23.9615 33.6031 23.8983 33.6663C23.5673 33.1179 23.59 31.9604 23.4586 31.465C23.3398 31.6824 23.2867 31.7405 23.1882 31.8188C22.9531 31.278 22.7888 29.9663 22.5917 29.4381C22.4957 29.6681 22.43 29.7641 22.2733 29.9941C22.1292 29.4608 21.9675 28.1871 21.7021 27.6184C21.6035 27.8155 21.4772 28.086 21.2775 28.2098C21.3457 27.6513 21.0045 26.2082 20.681 25.5915C20.5926 25.781 20.4586 26.0666 20.2287 26.198C20.2868 25.6623 19.9431 24.2798 19.5614 23.605C19.4831 23.787 19.3416 24.0903 19.0812 24.2267C19.1975 23.7491 18.9043 22.4955 18.4671 21.7575C18.4014 21.937 18.2523 22.2554 17.9591 22.3944C18.083 21.7954 17.8605 20.7314 17.3728 19.9202C17.3197 20.0945 17.1605 20.4332 16.8344 20.5697C16.9558 19.9758 16.7763 19.0103 16.3214 18.242C16.2709 18.4063 16.1192 18.7222 15.8134 18.8511C15.9777 18.4518 15.7932 17.413 15.3383 16.7054C15.2978 16.8621 15.1689 17.1654 14.8884 17.2968C15.035 16.9202 14.7949 16.0053 14.3627 15.3432C14.3248 15.4923 14.2667 15.7197 14.0064 15.8461C14.1378 15.4923 13.8977 14.6658 13.4807 14.0542C13.4504 14.1932 13.3973 14.3802 13.1597 14.5041C13.2709 14.1679 13.0232 13.2834 12.6189 12.7223C12.5936 12.8537 12.5531 13.1469 12.3358 13.2707C12.2246 12.5403 11.7722 11.4005 11.7267 11.2489C11.6408 11.264 11.5397 11.5395 11.4967 11.633C11.5346 10.9077 11.2314 10.1925 10.5288 8.33486C10.4883 8.22871 10.3316 8.25651 10.3291 8.36772C10.2861 10.3593 10.4024 11.1705 10.7714 11.8049C10.6905 11.7417 10.4732 11.537 10.3898 11.5623C10.4201 11.7215 10.5641 12.9776 10.8573 13.6827C10.6071 13.6852 10.415 13.4451 10.3266 13.3365C10.2684 14.0517 10.5667 14.9843 10.8523 15.2143C10.5844 15.2421 10.4327 15.1081 10.3266 15.002C10.3342 15.7829 10.6627 16.6548 10.9913 16.8747C10.7082 16.9303 10.5161 16.7711 10.3923 16.6649C10.4681 17.5091 10.918 18.4518 11.2895 18.6565C10.9887 18.7424 10.6829 18.5781 10.5439 18.472C10.693 19.3818 11.34 20.3624 11.7545 20.552C11.4487 20.6809 11.105 20.5419 10.9458 20.4458C11.2086 21.4037 11.8733 22.2908 12.4344 22.6219C12.1184 22.7836 11.7444 22.6623 11.5675 22.5739C11.9213 23.5797 12.72 24.5224 13.3088 24.808C13.0283 24.9698 12.6669 24.8838 12.4748 24.8181C12.8792 25.7052 13.8876 26.7616 14.3804 26.931C14.1327 27.0902 13.7865 27.0371 13.5818 26.9967C14.0241 27.7599 15.2119 28.8467 15.7502 29.0565C15.5354 29.2106 15.2068 29.1929 14.9895 29.1803C15.4646 29.8147 16.7915 30.8079 17.3652 30.9621C17.1832 31.1087 16.8749 31.1238 16.6474 31.139C17.1403 31.6419 18.6011 32.0589 19.1116 32.3673C18.8412 32.4557 18.7325 32.4911 18.4722 32.5113C18.97 32.8879 20.3348 33.3201 20.8529 33.6739C20.7594 33.7573 20.6912 33.7977 20.4485 33.8685C20.9439 34.1162 22.3592 34.5382 22.8925 34.9325C22.8242 34.9906 22.713 35.0361 22.5361 35.074C22.9683 35.1852 24.2825 35.8044 25.0003 36.5374C25.066 36.6031 24.9977 36.7143 24.9067 36.689C23.868 36.3756 22.0686 35.5214 21.8411 35.2712C21.879 35.4076 21.8916 35.5012 21.879 35.5719C21.419 35.3723 20.6583 34.379 20.3449 34.1212C20.3702 34.3158 20.3626 34.3765 20.3373 34.4725C19.938 34.235 19.2228 33.4768 18.8462 33.2316C18.8942 33.4262 18.8993 33.5172 18.9069 33.7371C18.5657 33.4667 17.858 32.7363 17.4183 32.5037C17.4511 32.6756 17.5017 32.9056 17.436 33.08C17.211 32.6958 16.3012 31.9503 15.7982 31.7203C15.8336 31.882 15.8918 32.1272 15.8109 32.3218C15.5859 31.9553 14.6938 31.2603 14.1226 31.0303C14.1656 31.1819 14.2288 31.4397 14.1327 31.652C13.971 31.3007 13.1648 30.6689 12.5253 30.4339C12.5734 30.5754 12.6416 30.8458 12.5304 31.0783C12.308 30.6462 11.6357 30.1053 10.9255 29.8602C10.9837 29.9941 11.057 30.2797 10.9281 30.5274C10.7006 30.1028 10.0991 29.6074 9.43189 29.3774C9.48497 29.5038 9.55573 29.7717 9.43695 30.0067C9.3308 29.6807 8.68633 29.15 8.04691 28.9629C8.10252 29.0767 8.18339 29.3269 8.0823 29.5493C7.97615 29.2485 7.35948 28.8265 6.75798 28.6622C6.81358 28.7683 6.89698 28.9352 6.80852 29.1474C6.69985 28.8669 6.12867 28.5055 5.56255 28.3665C5.61815 28.4651 5.68386 28.6015 5.60804 28.7987C5.49684 28.5434 4.88775 28.1567 4.35701 28.0455C4.41261 28.134 4.5415 28.3286 4.47832 28.5156C4.02846 28.1491 3.16411 27.7321 3.05796 27.6715C3.015 27.7246 3.10345 27.9369 3.1262 28.0152C2.78501 27.6007 2.26943 27.348 1.02093 26.7566C0.894564 26.6959 0.778307 26.8526 0.871818 26.9562C1.80693 27.9722 2.27449 28.3463 2.79512 28.503C2.71424 28.5131 2.48173 28.5106 2.44635 28.5687C2.54491 28.6445 3.28795 29.289 3.82627 29.5417C3.68221 29.6782 3.44464 29.6403 3.33597 29.6251C3.67463 30.0674 4.32921 30.4515 4.6148 30.4339C4.47327 30.5931 4.31404 30.5931 4.19779 30.588C4.60469 31.0379 5.24158 31.3766 5.54738 31.3311C5.40838 31.513 5.21377 31.5206 5.08741 31.5231C5.56255 31.9781 6.30305 32.299 6.62655 32.2283C6.49261 32.433 6.22723 32.4962 6.09076 32.5063C6.63666 32.9637 7.51112 33.2139 7.85231 33.1128C7.73353 33.3479 7.46057 33.4414 7.31904 33.4667C7.95088 33.9014 8.7849 34.0909 9.28278 34.005C9.1741 34.2628 8.88852 34.3815 8.7394 34.4195C9.44706 34.8415 10.3847 35.0083 10.8801 34.8845C10.7891 35.1246 10.5288 35.256 10.3796 35.3116C11.0519 35.6452 12.169 35.7893 12.5531 35.6477C12.4773 35.8702 12.2423 36.0092 12.0957 36.0875C12.7301 36.3327 13.971 36.4211 14.4006 36.2872C14.34 36.4868 14.1302 36.6385 13.9887 36.737C14.5801 36.8962 15.8589 36.8735 16.2885 36.6915C16.2405 36.8735 16.0586 37.0302 15.9246 37.1515C16.4629 37.2273 17.5269 37.0226 17.9844 36.9771C17.858 37.1591 17.8049 37.2324 17.6533 37.3714C18.136 37.3714 19.195 37.0858 19.6828 37.0681C19.66 37.1641 19.6347 37.2223 19.5159 37.3815C19.938 37.3082 21.0096 36.8457 21.5252 36.8533C21.505 36.924 21.4544 37.0049 21.3609 37.1111C21.6844 36.9796 23.4409 36.9417 24.7804 37.1768C24.8688 37.1919 24.8663 37.3158 24.7804 37.3335C23.6481 37.5382 23.59 37.2602 22.6574 37.3107C22.7257 37.3815 22.8722 37.6418 22.8925 37.7859C22.617 37.5104 21.8537 37.3436 21.189 37.3815C21.2573 37.4573 21.3028 37.662 21.3028 37.8263C20.9919 37.5913 20.3904 37.609 19.7282 37.7277C19.8142 37.7934 19.9405 37.9274 19.9557 38.1119C19.5665 37.9855 19.1621 37.6898 18.553 37.9931C18.6668 38.0285 18.922 38.2029 18.9448 38.4202C18.3963 38.2939 18.0046 38.1827 17.4562 38.5365C17.5775 38.5592 17.7418 38.7134 17.8378 38.9156C17.4056 38.8322 16.8142 38.8271 16.2557 39.2163C16.3795 39.2366 16.6778 39.4185 16.7814 39.6182C16.2709 39.5171 15.5683 39.7218 15.0678 40.1944C15.1942 40.202 15.4394 40.25 15.5632 40.437C15.1462 40.4522 14.5775 40.8465 14.1251 41.3267C14.249 41.3216 14.4992 41.3469 14.6458 41.5162C14.1631 41.7361 13.7435 42.095 13.5161 42.4614C13.6399 42.4437 13.8926 42.4437 14.0569 42.6004C13.2785 42.7394 12.9626 43.4774 12.586 44.0941C12.5178 44.2078 12.6315 44.3418 12.7553 44.2938C13.4124 44.0309 14.1808 43.8944 14.5144 43.2045C14.623 43.4016 14.5624 43.6366 14.5194 43.7478C14.9187 43.6366 15.3534 43.3637 15.7022 43.0073C15.8159 43.1994 15.7679 43.4345 15.7275 43.5431C16.2911 43.3056 16.8168 42.9795 16.981 42.6257C17.1023 42.8153 17.0594 43.0478 17.024 43.1564C17.5901 42.9088 18.0097 42.5145 18.2346 42.0823C18.3332 42.2567 18.3458 42.5095 18.2902 42.6232C18.8361 42.3654 19.0509 42.0899 19.1874 41.7032C19.3062 41.8953 19.3517 42.1101 19.3138 42.2188C19.842 41.9939 20.0088 41.7462 20.2792 41.2433C20.3146 41.4101 20.2716 41.683 20.2413 41.7866C20.7771 41.5339 21.1815 41.1523 21.3179 40.7934C21.4418 40.9324 21.462 41.1118 21.4595 41.2155C21.9169 40.8414 22.3036 40.4168 22.3541 40.0402C22.4628 40.1616 22.5664 40.3461 22.5715 40.4446C23.0214 40.0504 23.3347 39.2593 23.3676 38.8802C23.4409 39.004 23.494 39.2972 23.4864 39.3933C24.3002 38.9383 24.05 38.3444 25.0104 37.7783C25.1014 37.7227 25.2201 37.7833 25.2328 37.8895C25.3971 39.3377 25.4956 44.5364 25.2024 49.0906C25.157 49.7856 25.5436 49.9626 25.8368 49.9626C26.1325 49.9626 26.5192 49.7856 26.4737 49.0906C26.1805 44.5364 26.2791 39.3377 26.4434 37.8895C26.456 37.7833 26.5723 37.7227 26.6658 37.7783C27.6262 38.3444 27.376 38.9383 28.1898 39.3933C28.1822 39.2972 28.2352 39.004 28.3085 38.8802C28.3414 39.2593 28.6548 40.0504 29.1046 40.4446C29.1097 40.3461 29.2108 40.1616 29.322 40.0402C29.37 40.4168 29.7592 40.8414 30.2141 41.2155C30.2141 41.1118 30.2318 40.9324 30.3557 40.7934C30.4947 41.1523 30.7322 41.4707 31.268 41.7235C31.2377 41.6198 31.1948 41.3444 31.2301 41.1801C31.6573 41.8549 31.8342 41.9939 32.3624 42.2188C32.3245 42.1101 32.37 41.8953 32.4862 41.7032C32.6252 42.0899 32.84 42.3654 33.3834 42.6232C33.3278 42.5095 33.3405 42.2567 33.439 42.0823C33.664 42.5145 34.0835 42.9088 34.6521 43.1564C34.6142 43.0478 34.5738 42.8153 34.6926 42.6257C34.8569 42.9795 35.3851 43.3056 35.9461 43.5431C35.9082 43.4345 35.8602 43.1994 35.9739 43.0073C36.3227 43.3637 36.7574 43.6366 37.1567 43.7478C37.1112 43.6366 37.0531 43.4016 37.1593 43.2045C37.4954 43.8944 38.2637 44.0309 38.9208 44.2938C39.0421 44.3418 39.1584 44.2078 39.0901 44.0941C38.7136 43.4774 38.3976 42.7394 37.6192 42.6004C37.7835 42.4437 38.0337 42.4437 38.1576 42.4614C37.9326 42.095 37.5106 41.7361 37.0304 41.5162C37.1744 41.3469 37.4246 41.3216 37.551 41.3267C37.0986 40.8465 36.5299 40.4522 36.1129 40.437C36.2368 40.25 36.4819 40.202 36.6083 40.1944C36.1079 39.7218 35.4053 39.5171 34.8948 39.6182C34.9984 39.4185 35.2941 39.2366 35.4179 39.2163C34.8619 38.8271 34.268 38.8322 33.8358 38.9156C33.9319 38.7134 34.0961 38.5592 34.22 38.5365C33.669 38.1827 33.2773 38.2939 32.7288 38.4202C32.7541 38.2029 33.0094 38.0285 33.1206 37.9931C32.514 37.6898 32.1096 37.9855 31.7204 38.1119C31.7331 37.9274 31.862 37.7934 31.9454 37.7277C31.2832 37.609 30.6842 37.5913 30.3708 37.8263C30.3708 37.662 30.4189 37.4573 30.4871 37.3815C29.8199 37.3436 29.0566 37.5104 28.7837 37.7859C28.8039 37.6418 28.948 37.3815 29.0187 37.3107C28.0861 37.2602 28.028 37.5382 26.8958 37.3335C26.8073 37.3158 26.8073 37.1919 26.8958 37.1768C28.2352 36.9417 29.9892 36.9796 30.3152 37.1111C30.2192 37.0049 30.1712 36.924 30.151 36.8533C30.6665 36.8457 31.7381 37.3082 32.1602 37.3815C32.0389 37.2223 32.0161 37.1641 31.9934 37.0681C32.4812 37.0858 33.5401 37.3714 34.0228 37.3714C33.8712 37.2324 33.8181 37.1591 33.6892 36.9771C34.1492 37.0226 35.2132 37.2273 35.7515 37.1515C35.6176 37.0302 35.4331 36.8735 35.3876 36.6915C35.8147 36.8735 37.0961 36.8962 37.6849 36.737C37.5459 36.6385 37.3362 36.4868 37.2755 36.2872C37.7052 36.4211 38.9436 36.3327 39.5779 36.0875C39.4339 36.0092 39.1988 35.8702 39.123 35.6477C39.5046 35.7893 40.6217 35.6452 41.294 35.3116C41.1474 35.256 40.8871 35.1246 40.7961 34.8845C41.2914 35.0083 42.2291 34.8415 42.9342 34.4195C42.7851 34.3815 42.502 34.2628 42.3908 34.005C42.8912 34.0909 43.7253 33.9014 44.3571 33.4667C44.2156 33.4414 43.9426 33.3479 43.8213 33.1128C44.1625 33.2139 45.0369 32.9637 45.5829 32.5063C45.4489 32.4962 45.1835 32.433 45.0496 32.2283C45.3731 32.299 46.1136 31.9781 46.5887 31.5231C46.4624 31.5206 46.2678 31.513 46.1262 31.3311C46.4346 31.3766 47.0715 31.0379 47.4784 30.588C47.3596 30.5931 47.2029 30.5931 47.0588 30.4339C47.3469 30.4515 47.999 30.0674 48.3376 29.6251C48.2315 29.6403 47.9939 29.6782 47.8499 29.5417C48.3857 29.289 49.1287 28.6445 49.2298 28.5687C49.1944 28.5106 48.9594 28.5131 48.8785 28.503C49.3991 28.3463 49.8667 27.9722 50.8043 26.9562Z" fill="#004A10"/>
</svg>
