<svg width="51" height="50" viewBox="0 0 51 50" fill="none" xmlns="http://www.w3.org/2000/svg">
<path fill-rule="evenodd" clip-rule="evenodd" d="M32.2177 46.3518C32.1194 45.9033 31.6406 44.9054 31.4567 44.6509C31.4769 44.6534 31.492 44.6483 31.4995 44.6408C31.56 44.5652 31.4113 44.3056 31.1921 44.0511C31.3055 44.1065 31.3332 44.041 31.2879 43.8924C31.2249 43.6807 31.0535 43.3254 30.7738 43.028C30.93 43.1036 30.9653 43.0406 30.8947 42.8793C30.8494 42.7307 30.6957 42.4661 30.4311 42.2242C30.5596 42.267 30.5823 42.199 30.5092 42.0528C30.4487 41.889 30.2421 41.5841 29.8943 41.3346L29.9271 41.3422C29.9649 41.3523 30.1816 41.3951 30.1967 41.3573C30.227 41.2817 30.0858 41.0322 29.8691 40.8382C29.7986 40.7752 29.7079 40.7147 29.5945 40.6542C29.6625 40.6593 29.7079 40.6492 29.7154 40.6215C29.7356 40.5459 29.6096 40.3518 29.3777 40.1628C29.2265 40.0368 28.962 39.9008 28.6646 39.7823C28.7604 39.7975 28.8259 39.7949 28.8334 39.7622C28.8511 39.6992 28.7049 39.5077 28.5109 39.3489C28.3773 39.2405 28.148 39.1221 27.8935 39.0188C27.8985 39.0137 27.9011 39.0112 27.9036 39.0087C27.9162 38.9633 27.8305 38.8273 27.6944 38.7214C27.5508 38.608 27.4323 38.5425 27.3215 38.482C26.7595 38.1771 26.5705 37.9302 26.2732 37.5219C25.4214 36.3527 27.576 37.8218 27.8406 38.0864C27.9489 38.1948 28.0623 38.3056 28.2412 38.4342C28.4126 38.5526 28.5966 38.608 28.647 38.5753C28.6495 38.5728 28.652 38.5702 28.6545 38.5627C28.8586 38.8172 29.0728 39.0415 29.2442 39.1574C29.4911 39.3262 29.7633 39.4321 29.8313 39.3892C29.854 39.3766 29.854 39.3388 29.8389 39.2884C30.0606 39.5606 30.2874 39.7924 30.4689 39.9159C30.7738 40.1225 31.0485 40.2082 31.1341 40.1553C31.1518 40.1452 31.1568 40.1175 31.1518 40.0822C31.3055 40.2561 31.4542 40.4022 31.5802 40.498C31.8876 40.7248 32.1774 40.7827 32.2706 40.7147C32.321 40.6744 32.2782 40.5282 32.2228 40.3896C32.4798 40.687 32.7393 40.9415 32.946 41.0877C33.3063 41.3422 33.6465 41.4153 33.7498 41.3472C33.8053 41.3119 33.7574 41.1683 33.6944 41.0272C33.9187 41.2767 34.1404 41.4883 34.3244 41.6168C34.6847 41.8714 35.0224 41.9444 35.1257 41.8764C35.1736 41.8462 35.156 41.7655 35.1157 41.6647C35.1031 41.632 35.0879 41.6017 35.0753 41.569C35.2089 41.7176 35.3475 41.8386 35.476 41.9167C35.8212 42.1284 36.2169 42.2191 36.3076 42.1486C36.3504 42.1183 36.2093 41.8462 36.1816 41.7983L36.1589 41.758C36.6327 42.1259 37.1266 42.2821 37.3735 42.2998C37.5978 42.3401 37.681 42.2872 37.5726 42.1334C38.006 42.393 38.4218 42.4938 38.6436 42.5013C38.888 42.5316 38.9636 42.4585 38.7998 42.2796C39.3114 42.5391 39.8632 42.6299 40.1707 42.6349C40.3924 42.6399 40.4705 42.5769 40.3521 42.4484C40.783 42.6399 41.1912 42.7382 41.2719 42.6299C41.2794 42.6173 41.2769 42.5971 41.2693 42.5719C41.6851 42.7155 43.2248 42.9726 43.8724 42.9323C44.3966 42.8995 44.3008 42.713 43.822 42.5064C43.5297 42.3804 42.9753 42.1586 42.2345 41.9268C41.8137 41.7932 41.5541 41.7202 41.3651 41.6849C41.3903 41.6546 41.3853 41.6244 41.3399 41.5967C41.1862 41.5009 40.8309 41.2943 40.2513 41.2565C40.3697 41.2263 40.4604 41.191 40.4579 41.1305C40.4403 40.9465 39.7649 40.5912 38.9384 40.5383L38.9712 40.5358C39.2509 40.4879 39.2408 40.3821 39.014 40.2586C38.7418 40.115 38.2202 39.9234 37.6482 39.9008L37.6507 39.8982C37.8296 39.8478 37.9859 39.7874 38.0035 39.7168C38.0262 39.6437 37.88 39.5379 37.5474 39.4598C37.2828 39.3993 36.9653 39.3817 36.6427 39.4094C36.6957 39.3842 36.7461 39.3539 36.799 39.3262C36.8847 39.2783 36.9426 39.2279 36.9275 39.1775C36.8897 39.0717 36.6024 38.9356 36.1942 38.918C36.0153 38.9129 35.7784 38.9306 35.5214 38.9734C35.6146 38.9281 35.7078 38.8777 35.7986 38.8273C35.8918 38.7718 35.9548 38.7189 35.9372 38.666C35.8994 38.5476 35.5869 38.4014 35.1434 38.3838C34.8511 38.3712 34.4227 38.4291 33.9691 38.5324C34.1228 38.4568 34.274 38.3812 34.4227 38.2981C34.5159 38.2426 34.5789 38.1897 34.5613 38.1343C34.5235 38.0184 34.211 37.8722 33.765 37.8546C33.5079 37.8445 33.135 37.8899 32.7393 37.9705C32.8124 37.9277 32.883 37.8848 32.9535 37.8395C33.0392 37.784 33.0972 37.7336 33.0821 37.6857C33.0518 37.5749 32.7847 37.4489 32.3992 37.4463C32.2228 37.4438 31.9859 37.4791 31.7238 37.5345C31.7591 37.5068 31.7792 37.4766 31.7666 37.4489C31.7515 37.4161 31.7087 37.3833 31.6457 37.3556C31.5247 37.2977 31.2627 37.2548 31.0233 37.2523C30.8091 37.2523 30.5294 37.2901 30.232 37.3531L30.2396 37.3481C30.3 37.3153 30.3454 37.2825 30.3303 37.2473C30.3202 37.2195 30.2874 37.1944 30.237 37.1666C30.1413 37.1112 29.9296 37.0633 29.7356 37.0507C29.5491 37.0406 29.287 37.0658 29.0073 37.1188C29.0224 37.1036 29.03 37.091 29.025 37.0759C29.0199 37.0583 28.9972 37.0381 28.962 37.018C28.899 36.9827 28.7528 36.9499 28.6192 36.9449C27.7121 36.9071 27.5079 37.0432 26.5982 36.7836C26.7318 36.7458 26.8679 36.7105 27.0065 36.6752C28.3975 36.3199 28.6192 36.5316 29.8792 36.5392C30.0556 36.5417 30.2496 36.5089 30.3353 36.4661C30.3832 36.4434 30.4134 36.4157 30.421 36.3905C30.4311 36.3754 30.421 36.3552 30.4034 36.335C30.7637 36.4232 31.1064 36.4736 31.3559 36.4686C31.6104 36.4661 31.8926 36.4157 32.0237 36.3527C32.0917 36.3199 32.1371 36.2821 32.1497 36.2494C32.1724 36.204 32.1169 36.1587 32.0363 36.1108L32.0262 36.1057C32.4143 36.2091 32.7822 36.272 33.0619 36.2846C33.3769 36.2998 33.7246 36.2595 33.8859 36.1939C33.9741 36.1561 34.0321 36.1158 34.0522 36.0755C34.0699 36.0402 34.0472 36.0024 34.0044 35.9621C34.3445 36.0528 34.6545 36.1108 34.8863 36.1183C35.3903 36.141 35.7507 35.9898 35.7986 35.8487C35.8187 35.7857 35.7482 35.7126 35.6398 35.637C35.5491 35.574 35.4584 35.5135 35.3626 35.4531C35.8817 35.5841 36.3681 35.6673 36.7108 35.6698C37.2929 35.6748 37.7137 35.5009 37.7742 35.3498C37.7994 35.2792 37.7213 35.2061 37.6003 35.1305C37.4113 35.0096 37.2173 34.9012 37.0207 34.7903C37.6079 34.9541 38.1723 35.0574 38.5554 35.06C39.14 35.0625 39.5608 34.8886 39.6188 34.7374C39.6465 34.6694 39.5659 34.5963 39.4449 34.5182C39.3265 34.4476 39.208 34.3745 39.0896 34.3065C39.4298 34.3796 39.7372 34.4224 39.9716 34.4224C40.5108 34.4249 40.8989 34.2662 40.9518 34.1251C40.9796 34.0621 40.904 33.994 40.7906 33.9235C40.725 33.8831 40.662 33.8428 40.594 33.8025C41.0174 33.863 41.4357 33.8605 41.7859 33.7949C42.2294 33.7143 42.4285 33.5858 42.4058 33.4875C42.3857 33.3918 42.1841 33.3036 41.9548 33.2229H41.9447C42.7032 33.2254 43.4012 33.0112 43.7666 32.8374C44.074 32.6887 44.0942 32.5526 43.7288 32.472L43.686 32.4619C44.7796 32.4443 45.6893 32.0234 45.7221 31.7815C45.7322 31.7059 45.6162 31.6505 45.4625 31.6026C46.2261 31.59 46.7074 31.3405 46.9165 31.2246C46.977 31.1893 46.9846 31.1515 46.9543 31.1087C47.2038 31.0759 47.549 30.9953 48.1135 30.8466C49.1038 30.5871 49.8447 30.3351 50.2378 30.1864C50.8804 29.9445 51.0165 29.7026 50.3311 29.627C49.4844 29.5337 47.4407 29.7756 46.8813 29.9394C46.8964 29.9042 46.9014 29.8764 46.8913 29.8613C46.7931 29.7126 46.2488 29.8185 45.6692 30.0402C45.833 29.8815 45.7347 29.7933 45.4424 29.7832C45.0367 29.7706 44.3084 29.8563 43.6154 30.1637C43.8447 29.942 43.749 29.8412 43.4264 29.8664C43.1366 29.8613 42.5822 29.9672 41.9926 30.2847C42.1488 30.0856 42.0405 30.01 41.7431 30.0478C41.4155 30.0579 40.7578 30.2318 40.1102 30.6853C40.1203 30.6677 40.1303 30.6526 40.1455 30.6349C40.1833 30.5719 40.3823 30.2242 40.3294 30.1763C40.2135 30.0831 39.6893 30.1763 39.2206 30.4333C39.0468 30.5291 38.8603 30.6778 38.6688 30.8643C38.6889 30.8239 38.7091 30.7836 38.7318 30.7408C38.7922 30.6123 38.82 30.5064 38.7595 30.4636C38.6259 30.3678 38.1774 30.4434 37.686 30.7534C37.439 30.9121 37.1341 31.1742 36.8191 31.4892C36.9149 31.3103 36.9829 31.1238 36.9124 31.0734C36.7813 30.9777 36.3303 31.0507 35.8414 31.3632C35.5592 31.5421 35.2013 31.8596 34.8435 32.2351C34.9267 32.0562 34.9947 31.8672 34.9267 31.8118C34.8082 31.7185 34.4227 31.774 34.0069 32.0537C33.833 32.1696 33.6289 32.351 33.4147 32.5753C33.4248 32.5249 33.4197 32.4896 33.3945 32.4745C33.2887 32.4014 32.9208 32.4972 32.505 32.7492C32.258 32.9004 31.9456 33.1902 31.6356 33.5354C31.6583 33.4674 31.6608 33.4195 31.6331 33.4018C31.5449 33.3439 31.182 33.4623 30.8443 33.6689C30.6125 33.8101 30.3152 34.0923 30.0329 34.4123C30.0304 34.4073 30.0254 34.3997 30.0203 34.3947C29.9599 34.3519 29.7079 34.4123 29.4811 34.5585C29.2341 34.7147 29.0804 34.8558 28.9317 34.9894C28.0775 35.7605 27.5709 35.8865 26.5831 36.1965C26.6486 36.1133 26.7368 35.9923 26.8049 35.9092C27.6919 34.8432 27.9792 34.8785 28.962 34.1679C29.098 34.0671 29.2316 33.9335 29.2744 33.8504C29.2996 33.8075 29.3072 33.7697 29.3021 33.7445C29.2971 33.7269 29.282 33.7193 29.2568 33.7143C29.5844 33.5757 29.8792 33.417 30.0682 33.2758C30.2673 33.1246 30.4588 32.9256 30.5243 32.8046C30.5571 32.7391 30.5722 32.6862 30.5672 32.6509C30.5546 32.6081 30.489 32.6005 30.4008 32.6106C30.3756 32.6131 30.3555 32.6181 30.3303 32.6207C30.7184 32.4518 31.0611 32.2653 31.2853 32.094C31.5273 31.91 31.7616 31.6656 31.8422 31.5144C31.8851 31.4363 31.9027 31.3708 31.8926 31.3304C31.8926 31.3254 31.8926 31.3254 31.8901 31.3204C32.1976 31.1994 32.4622 31.0684 32.6486 30.9399C32.9183 30.7584 33.1703 30.5039 33.2534 30.3477C33.2963 30.262 33.3114 30.1914 33.2963 30.1436C33.2786 30.0806 33.1829 30.068 33.0543 30.0705C32.9737 30.073 32.8905 30.078 32.8124 30.0831C33.387 29.8916 33.9036 29.6622 34.2261 29.443C34.5487 29.2238 34.8511 28.9214 34.9493 28.7349C34.9997 28.6341 35.0199 28.5484 35.0023 28.4905C34.9821 28.4149 34.8662 28.3998 34.7125 28.4023C34.6192 28.4073 34.526 28.4124 34.4353 28.4174C34.9519 28.2385 35.4029 28.0419 35.6902 27.8529C36.2118 27.5102 36.4588 27.1045 36.4033 26.9281C36.3781 26.8475 36.2521 26.8298 36.0909 26.8323C35.9523 26.8323 35.8162 26.8374 35.6776 26.8449C36.295 26.603 36.8393 26.3384 37.1845 26.0965C37.7666 25.6833 38.0615 25.207 38.0085 25.0155C37.9859 24.9248 37.8523 24.9071 37.6734 24.9197C37.3987 24.9348 37.124 24.9626 36.8469 24.9978C37.555 24.7383 38.195 24.4384 38.5806 24.1662C39.1652 23.7505 39.4575 23.2767 39.4046 23.0827C39.3819 22.9945 39.2484 22.9794 39.0694 22.9894C38.8981 22.997 38.7292 23.0121 38.5579 23.0323C38.951 22.8609 39.2887 22.682 39.5255 22.5157C40.0673 22.1327 40.337 21.6942 40.2891 21.5178C40.2664 21.4346 40.1429 21.4195 39.9791 21.4271C39.8834 21.4346 39.7876 21.4422 39.6919 21.4498C40.1606 21.2078 40.5764 20.9029 40.8788 20.5879C41.2618 20.1898 41.3651 19.9176 41.2719 19.837C41.1786 19.7589 40.914 19.8118 40.6242 19.8975L40.6167 19.9C41.3752 19.3658 41.917 18.6501 42.1538 18.2116C42.3529 17.8462 42.2723 17.6925 41.8489 17.874L41.7985 17.8941C42.8771 17.0978 43.4768 16.0243 43.3307 15.7597C43.2828 15.6715 43.1291 15.7043 42.9401 15.7648C43.6961 15.2053 43.9934 14.6106 44.1169 14.346C44.1496 14.2704 44.1295 14.2251 44.0665 14.2049C44.2933 13.9932 44.578 13.6657 45.0341 13.1138C45.833 12.1436 46.3874 11.3599 46.6721 10.9315C47.1383 10.2184 47.0879 9.89078 46.3521 10.304C45.4373 10.8181 43.5751 12.5216 43.1366 13.0886C43.1291 13.0407 43.1114 13.0105 43.0887 13.0029C42.8821 12.9223 42.4134 13.4187 42.0001 14.0562C42.0455 13.7816 41.8842 13.7614 41.5869 13.9605C41.1686 14.2402 40.5033 14.8475 40.0396 15.6514C40.1001 15.2633 39.9363 15.2305 39.6289 15.4876C39.3366 15.6917 38.8603 16.1957 38.505 16.9315C38.5125 16.6215 38.3487 16.6215 38.0791 16.8735C37.7616 17.1205 37.2299 17.7656 36.9174 18.6829C36.9174 18.6551 36.9149 18.6299 36.9149 18.6073C36.9099 18.5191 36.8519 18.0252 36.7637 18.0176C36.5772 18.0025 36.1236 18.4737 35.8439 19.0659C35.7406 19.2851 35.665 19.5699 35.6096 19.8924C35.5995 19.837 35.5919 19.7815 35.5793 19.7261C35.5466 19.5548 35.4987 19.4288 35.4029 19.4288C35.2013 19.4262 34.8082 19.8244 34.5461 20.4846C34.4151 20.8223 34.3017 21.3011 34.2236 21.8403C34.1833 21.5909 34.1178 21.359 34.0069 21.359C33.8053 21.359 33.4122 21.7547 33.1501 22.4174C33.0014 22.7979 32.8754 23.3674 32.7948 23.9999C32.7469 23.7631 32.6738 23.5262 32.5655 23.5186C32.3815 23.5085 32.0363 23.8437 31.8271 24.4182C31.7314 24.6778 31.6558 25.0381 31.6079 25.4489C31.5751 25.3758 31.5373 25.3279 31.492 25.3279C31.3156 25.3204 30.9527 25.7463 30.741 26.3006C30.615 26.6282 30.5243 27.1146 30.4739 27.6488C30.4437 27.5606 30.4059 27.5001 30.3605 27.4976C30.2118 27.4926 29.9095 27.8479 29.7331 28.3116C29.6499 28.5283 29.5844 28.8281 29.5415 29.1683C29.4004 29.2389 29.161 29.5488 29.0023 29.9268C28.8939 30.1788 28.8007 30.5467 28.7326 30.9525C28.715 30.8895 28.6948 30.8542 28.6621 30.8567C28.5613 30.8592 28.3269 31.1389 28.1783 31.4892C28.0775 31.7336 27.9918 32.1015 27.9363 32.4947C27.9263 32.4619 27.9086 32.4443 27.891 32.4443C27.8179 32.4443 27.6591 32.6333 27.5634 32.8752C27.4575 33.1347 27.4122 33.3313 27.3719 33.5203C27.1199 34.6668 26.762 34.9818 26.0892 35.8991L26.0665 35.9293C26.0691 35.8613 26.0691 35.7882 26.0691 35.7101C26.0716 34.5157 25.9632 34.0268 26.4722 32.8928C26.5529 32.7063 26.6411 32.5123 26.7142 32.225C26.7822 31.9604 26.7646 31.7009 26.7016 31.6555C26.6864 31.6429 26.6612 31.6505 26.631 31.6706C26.8326 31.3002 26.9914 30.9323 27.0569 30.6652C27.1501 30.2721 27.1274 29.8941 27.0443 29.8286C27.0166 29.8084 26.9762 29.821 26.9258 29.8664C27.1174 29.4808 27.2711 29.1104 27.3391 28.8256C27.4374 28.4048 27.4298 27.994 27.3567 27.8479C27.5306 27.5304 27.6642 27.2355 27.7272 26.9987C27.8708 26.4972 27.833 26.0058 27.707 25.9201C27.6642 25.8899 27.5936 25.9201 27.513 25.9781C27.8053 25.4917 28.0321 25.0205 28.1304 24.6627C28.2992 24.0629 28.2564 23.4733 28.1052 23.375C28.0649 23.3473 28.0019 23.3649 27.9288 23.4077C28.1455 23.0247 28.3093 22.6719 28.3874 22.3947C28.5714 21.7723 28.4882 21.2759 28.3244 21.17C28.2286 21.1121 28.0145 21.2683 27.8255 21.4422C28.1531 20.855 28.405 20.2906 28.5159 19.8723C28.71 19.1465 28.6243 18.5669 28.4504 18.4435C28.3546 18.3779 28.1531 18.5367 27.9641 18.7232C28.2337 18.2141 28.4428 17.7354 28.5386 17.37C28.7326 16.6442 28.647 16.0621 28.4706 15.9386C28.3924 15.8832 28.2715 15.9588 28.1329 16.0873C28.0901 16.1276 28.0472 16.168 28.0044 16.2108C28.1606 15.9008 28.2765 15.611 28.3244 15.3641C28.458 14.6837 28.3647 14.0033 28.1984 13.9025C28.1178 13.8546 27.7599 14.2402 27.6995 14.3133C27.6843 14.3334 27.6667 14.3561 27.6491 14.3763C27.9615 13.4011 27.9111 12.5266 27.7927 12.1209C27.7196 11.7404 27.581 11.6396 27.3945 11.9093C27.5533 11.0625 27.4651 10.3393 27.3416 9.98654C27.2408 9.58082 27.0796 9.50523 26.8906 9.87566C26.9989 8.90548 26.8124 7.98066 26.631 7.48675C26.5025 7.13396 26.3538 7.0508 26.2177 7.31288C26.2656 6.51405 26.1774 5.80595 25.9531 5.74547C25.9279 5.73791 25.8952 5.75555 25.8549 5.78579C25.8397 5.03737 25.3181 2.44183 24.8595 1.44393C24.4714 0.59723 24.2396 0.947502 24.1967 1.7816C24.169 2.32087 24.1463 3.33137 24.2194 4.6493C24.2623 5.40024 24.3026 5.85383 24.3605 6.17386C24.295 6.15118 24.2497 6.17638 24.2295 6.26458C24.169 6.56445 24.0481 7.25744 24.3404 8.19738C24.2194 8.02602 24.106 7.90506 24.0103 7.95042C23.7205 8.08902 23.5567 9.37167 23.9775 10.7123L23.9473 10.6644C23.7003 10.2511 23.534 10.3292 23.476 10.7677C23.4004 11.2843 23.4156 12.2268 23.7255 13.1516L23.718 13.1415C23.5264 12.892 23.3349 12.6829 23.2064 12.693C23.0728 12.7056 22.9922 13.0029 23.0703 13.5775C23.1308 14.031 23.2971 14.5451 23.539 15.039C23.4634 14.9735 23.3853 14.908 23.3097 14.8475C23.1762 14.7391 23.0577 14.6736 22.9897 14.7291C22.836 14.8525 22.7906 15.3943 23.0149 16.0495C23.1106 16.3368 23.287 16.6971 23.5138 17.0852C23.3803 16.9643 23.2417 16.8458 23.1031 16.7324C22.9569 16.6165 22.8335 16.5459 22.7579 16.6089C22.5915 16.7425 22.5437 17.3271 22.7831 18.0403C22.9393 18.5065 23.2971 19.1566 23.7381 19.8118C23.5239 19.6127 23.3072 19.4212 23.0829 19.2372C22.9368 19.1188 22.8108 19.0533 22.7352 19.1112C22.5689 19.2448 22.521 19.8294 22.7629 20.5426C22.9015 20.9609 23.2014 21.5228 23.5768 22.1024C23.4609 22.0142 23.3475 21.926 23.2316 21.8403C23.093 21.7395 22.9746 21.6791 22.904 21.732C22.7478 21.8454 22.6999 22.3469 22.9292 22.9567C23.0577 23.2943 23.3173 23.7404 23.6474 24.2091C23.5718 24.1461 23.4962 24.0881 23.4181 24.0277C23.2921 23.9294 23.1837 23.8714 23.1182 23.9243C23.0653 23.9621 23.03 24.0453 23.0098 24.1637C22.972 24.3855 23.0426 24.8265 23.1787 25.212C23.3173 25.5976 23.6146 26.1091 23.9876 26.6257C23.9221 26.5728 23.854 26.5199 23.7885 26.467C23.6827 26.3838 23.5894 26.3384 23.534 26.3813C23.4912 26.4115 23.4609 26.4821 23.4458 26.5804C23.4156 26.7643 23.4735 27.1373 23.5869 27.4598C23.6676 27.679 23.8112 27.9537 23.9951 28.246C23.9926 28.246 23.9876 28.2486 23.9851 28.2536C23.9498 28.2813 23.9271 28.3494 23.9145 28.4426C23.8893 28.619 23.9347 28.9718 24.0254 29.2767C24.1085 29.5614 24.2875 29.9319 24.5092 30.3124C24.4916 30.2947 24.4739 30.2771 24.4563 30.2595C24.3857 30.199 24.3253 30.1612 24.29 30.194C24.2623 30.2192 24.2396 30.2721 24.2295 30.3502C24.2093 30.4938 24.2471 30.7811 24.3227 31.0306C24.3933 31.27 24.5445 31.5824 24.7385 31.905C24.7159 31.8924 24.6957 31.8899 24.6806 31.9025C24.6604 31.9201 24.6453 31.9579 24.6352 32.0083C24.6201 32.1066 24.6503 32.3031 24.7058 32.472C25.0964 33.6815 25.366 33.8277 25.4517 35.2817C25.4744 35.6975 25.6054 36.0604 25.2929 35.5816C24.5571 34.4401 24.6806 34.1855 24.3076 33.0642C24.2547 32.9054 24.169 32.7441 24.1035 32.6786C24.0682 32.6433 24.038 32.6232 24.0103 32.6207C23.9951 32.6207 23.98 32.6333 23.9674 32.6559C23.9372 32.3107 23.8767 31.9907 23.8011 31.774C23.7205 31.5446 23.5894 31.3078 23.4937 31.212C23.4458 31.1591 23.4004 31.1288 23.3652 31.1263C23.3173 31.1188 23.2946 31.1792 23.2744 31.2649C23.2694 31.2876 23.2669 31.3103 23.2618 31.333C23.2215 30.9273 23.1484 30.5493 23.0577 30.2922C22.9544 30.0125 22.7957 29.7252 22.6823 29.6043C22.6193 29.5413 22.5638 29.5035 22.521 29.4984C22.5185 29.4984 22.5134 29.4984 22.5109 29.4984C22.4907 29.1809 22.4479 28.8962 22.3849 28.6895C22.2917 28.3846 22.1329 28.0747 22.0069 27.9512C21.9414 27.8832 21.8784 27.8479 21.828 27.8454C21.765 27.8428 21.7196 27.9285 21.6869 28.0495C21.6642 28.1226 21.644 28.1982 21.6239 28.2763C21.6163 27.6866 21.5584 27.1398 21.4525 26.7794C21.3416 26.414 21.1501 26.0411 21.0015 25.8949C20.9208 25.8168 20.8452 25.774 20.7873 25.7715C20.7091 25.7689 20.6587 25.8722 20.6184 26.0134C20.5907 26.099 20.568 26.1872 20.5453 26.2729C20.5353 25.7437 20.4849 25.2675 20.3941 24.9449C20.2304 24.3628 19.9204 24.0075 19.7415 24.0075C19.6558 24.0075 19.6004 24.1159 19.55 24.267C19.5096 24.3905 19.4744 24.519 19.4391 24.6476C19.4013 24.0075 19.3156 23.4254 19.1921 23.0373C18.9779 22.3695 18.6201 21.9563 18.421 21.9462C18.3303 21.9386 18.2724 22.0571 18.2295 22.2259C18.1615 22.4804 18.1035 22.745 18.0506 23.0096C18.0229 22.2788 17.9322 21.6009 17.7936 21.1625C17.5819 20.4972 17.2215 20.0814 17.0225 20.0713C16.9317 20.0638 16.8763 20.1847 16.831 20.3511C16.7881 20.5123 16.7528 20.6736 16.715 20.8349C16.6747 20.4216 16.6067 20.0562 16.5235 19.7891C16.327 19.1742 15.9943 18.7912 15.8129 18.7811C15.7272 18.7761 15.6768 18.887 15.6365 19.0382C15.6113 19.1289 15.5911 19.2171 15.5685 19.3103C15.4803 18.8063 15.3215 18.3301 15.1174 17.9546C14.8578 17.4808 14.6336 17.3019 14.5277 17.3624C14.4219 17.4254 14.3942 17.685 14.3891 17.9748V17.9874C14.1119 17.1255 13.6004 16.4073 13.2602 16.0571C12.9754 15.7622 12.8066 15.79 12.8494 16.2335L12.8545 16.2864C12.4286 15.0516 11.597 14.1722 11.3022 14.2251C11.2064 14.2427 11.1888 14.3939 11.1913 14.5879C10.894 13.7211 10.4202 13.265 10.2111 13.0735C10.1481 13.0155 10.0977 13.0231 10.0624 13.0735C9.92631 12.8013 9.70456 12.4384 9.32405 11.8488C8.65122 10.8206 8.08171 10.0697 7.75916 9.67658C7.23753 9.03652 6.90742 8.96848 7.07374 9.7799C7.28037 10.7803 8.32111 13.013 8.72178 13.5875C8.6739 13.5825 8.64114 13.5901 8.6235 13.6077C8.48742 13.774 8.8125 14.3561 9.28877 14.9307C9.04181 14.8072 8.97629 14.9483 9.07457 15.2835C9.21065 15.7496 9.58108 16.551 10.1959 17.2238C9.85071 17.0449 9.77007 17.1885 9.91875 17.5514C10.0195 17.8815 10.3522 18.4737 10.9393 19.0256C10.6495 18.9222 10.5991 19.0734 10.7554 19.3985C10.8889 19.7664 11.3375 20.4544 12.1086 21.0188C12.0834 21.0113 12.0582 21.0037 12.0355 20.9987C11.9498 20.976 11.466 20.8802 11.4332 20.9584C11.3652 21.1247 11.6676 21.6866 12.1439 22.1251C12.3177 22.2864 12.5622 22.4426 12.852 22.5913C12.799 22.5837 12.7411 22.5736 12.6856 22.5686C12.5143 22.5459 12.3807 22.5535 12.3505 22.6392C12.2875 22.8256 12.5445 23.3095 13.0888 23.7505C13.3635 23.9747 13.7843 24.2242 14.2707 24.4636C14.0237 24.4233 13.7818 24.4132 13.7491 24.5115C13.6861 24.7005 13.9406 25.1818 14.4874 25.6253C14.8024 25.8798 15.3013 26.1671 15.8734 26.4367C15.634 26.409 15.387 26.4014 15.3492 26.4997C15.2812 26.6686 15.4929 27.0869 15.9742 27.4548C16.1884 27.6211 16.5059 27.8 16.8788 27.9714C16.8007 27.9789 16.7428 27.9991 16.7276 28.0394C16.6697 28.1982 16.962 28.6643 17.4206 29.0272C17.6903 29.2414 18.1212 29.4732 18.61 29.6849C18.5193 29.6849 18.4488 29.7 18.4336 29.7429C18.3832 29.8764 18.6277 30.2645 19.0132 30.5694C19.1921 30.7105 19.4542 30.8617 19.7591 31.0079C19.7868 31.1591 20.0061 31.4741 20.3135 31.7336C20.5201 31.91 20.8402 32.1091 21.2005 32.2931C21.135 32.2905 21.0947 32.3006 21.0871 32.3309C21.0594 32.4241 21.2535 32.724 21.5407 32.9684C21.7348 33.1347 22.0598 33.3262 22.4151 33.4951C22.3799 33.4976 22.3597 33.5077 22.3521 33.5228C22.3295 33.5908 22.4605 33.7949 22.6596 33.9587C22.8713 34.1351 23.0426 34.2359 23.2089 34.3292C24.1892 34.8962 24.3958 35.3145 25.0132 36.1662C24.9855 36.1561 24.9552 36.1435 24.925 36.1309C23.8162 35.7328 23.3248 35.6698 22.4479 34.818C22.3017 34.6769 22.1505 34.5308 21.9137 34.367C21.6894 34.2158 21.4399 34.1452 21.3794 34.1881C21.3744 34.1906 21.3694 34.1956 21.3668 34.2032C21.0947 33.8731 20.8074 33.5833 20.5806 33.4321C20.2505 33.2128 19.8902 33.0818 19.802 33.1398C19.7742 33.1549 19.7742 33.2028 19.7969 33.2708C19.497 32.9155 19.1947 32.6156 18.9527 32.4569C18.547 32.1897 18.1816 32.0839 18.0733 32.1519C18.0481 32.1671 18.043 32.1998 18.0481 32.2502C17.844 32.0209 17.6449 31.8319 17.4761 31.711C17.0703 31.4186 16.6848 31.3456 16.5664 31.4363C16.4983 31.4867 16.5563 31.6807 16.6344 31.8622C16.2892 31.4741 15.9439 31.1465 15.6667 30.9575C15.1905 30.6299 14.7419 30.5392 14.6084 30.6299C14.5353 30.6803 14.5983 30.8643 14.6865 31.0507C14.3816 30.7231 14.0867 30.451 13.8448 30.2872C13.366 29.9571 12.9175 29.8664 12.7839 29.9571C12.7234 29.9999 12.7461 30.1058 12.8016 30.2368C12.8192 30.2796 12.8394 30.3199 12.857 30.3603C12.6756 30.1688 12.4941 30.0125 12.3228 29.9117C11.8616 29.637 11.3425 29.5262 11.2241 29.6194C11.1686 29.6622 11.3551 30.0201 11.3929 30.0831L11.4257 30.1335C10.7957 29.6572 10.143 29.4606 9.81543 29.4405C9.5206 29.3901 9.40972 29.4657 9.55588 29.6673C8.98133 29.3296 8.42947 29.2061 8.14219 29.2011C7.81712 29.1658 7.71884 29.2616 7.93808 29.4934C7.26021 29.1608 6.53447 29.0524 6.12624 29.0499C5.83644 29.0499 5.73313 29.1331 5.89188 29.2994C5.31986 29.0575 4.78059 28.934 4.67727 29.0776C4.66467 29.0953 4.66719 29.123 4.68231 29.1557C4.12792 28.9718 2.09937 28.6618 1.24763 28.7273C0.559686 28.7777 0.688204 29.0222 1.32071 29.2893C1.70878 29.4506 2.43956 29.7278 3.41982 30.0226C3.97925 30.1914 4.32196 30.2821 4.57143 30.3225C4.53868 30.3653 4.54371 30.4031 4.60419 30.4384C4.80831 30.5619 5.27954 30.829 6.0456 30.8668C5.88684 30.9096 5.77093 30.9575 5.77849 31.0381C5.80369 31.28 6.69827 31.7336 7.78688 31.7866L7.74404 31.7941C7.37613 31.8622 7.39125 32.0033 7.69616 32.157C8.05399 32.346 8.74446 32.5829 9.50044 32.6055L9.49288 32.6081C9.25853 32.6786 9.05693 32.7593 9.03173 32.855C9.00653 32.9533 9.20057 33.0868 9.63904 33.1826C9.98679 33.2607 10.4076 33.2758 10.8335 33.233C10.7629 33.2708 10.6974 33.3061 10.6294 33.3464C10.516 33.4119 10.4404 33.48 10.4631 33.543C10.5109 33.6841 10.894 33.8579 11.4307 33.8731C11.6676 33.8781 11.9775 33.8479 12.3203 33.7874C12.1943 33.8504 12.0733 33.9184 11.9549 33.9865C11.8314 34.0595 11.7482 34.1301 11.7734 34.2032C11.8289 34.3544 12.2421 34.5434 12.8268 34.5585C13.2098 34.5686 13.7768 34.4854 14.3715 34.3418C14.1674 34.4451 13.9708 34.5484 13.7793 34.6593C13.6558 34.7324 13.5701 34.8029 13.5979 34.8735C13.6508 35.0272 14.0641 35.2137 14.6487 35.2288C14.9914 35.2414 15.4777 35.1734 16.0019 35.06C15.9061 35.1179 15.8129 35.1734 15.7197 35.2364C15.6088 35.3094 15.5332 35.3775 15.5533 35.443C15.5937 35.5816 15.9515 35.7479 16.4555 35.7429C16.6873 35.7429 16.9998 35.6925 17.345 35.6143C17.2971 35.6521 17.2745 35.6925 17.2896 35.7277C17.3097 35.7706 17.3652 35.8134 17.4534 35.8512C17.6121 35.9218 17.9574 35.9747 18.2724 35.9722C18.5521 35.9671 18.9225 35.9167 19.3106 35.8285L19.303 35.8311C19.2224 35.8764 19.1644 35.9218 19.1846 35.9646C19.1972 35.9999 19.24 36.0377 19.3081 36.0755C19.4341 36.141 19.7138 36.2015 19.9708 36.2141C20.2178 36.2267 20.563 36.1864 20.9284 36.1133C20.9082 36.1309 20.9007 36.1511 20.9057 36.1687C20.9158 36.1939 20.946 36.2191 20.9914 36.2443C21.0771 36.2922 21.2686 36.33 21.445 36.3325C22.7024 36.3678 22.9317 36.1662 24.3101 36.5694C24.5168 36.6274 24.7159 36.6904 24.9174 36.7483C24.2471 36.9751 23.8994 37.1188 23.0728 37.028C22.9191 37.0104 22.7604 36.9953 22.5386 37.0079C22.332 37.0205 22.1505 37.0936 22.1354 37.149C22.1329 37.1515 22.1329 37.1566 22.1354 37.1641C21.8129 37.091 21.5054 37.0532 21.2988 37.0684C20.9964 37.091 20.7217 37.1792 20.694 37.2523C20.6865 37.275 20.7091 37.3027 20.7545 37.3355C20.4067 37.2624 20.0842 37.2221 19.8624 37.2397C19.4945 37.2699 19.2249 37.3733 19.1921 37.4665C19.1871 37.4867 19.1972 37.5119 19.2249 37.5371C18.9956 37.4942 18.7864 37.4766 18.6277 37.4816C18.2472 37.4942 17.9826 37.6303 17.9548 37.7387C17.9372 37.8042 18.0632 37.8899 18.1968 37.9604C17.8087 37.8899 17.4458 37.8546 17.1913 37.8697C16.7503 37.8974 16.4404 38.0511 16.4026 38.167C16.3824 38.23 16.5084 38.3132 16.6495 38.3812C16.3118 38.3283 16.0069 38.3006 15.7852 38.3157C15.3417 38.3409 15.0317 38.4946 14.9939 38.6131C14.9788 38.6685 15.0418 38.7189 15.1376 38.7693C15.1678 38.787 15.2005 38.8046 15.2308 38.8172C15.0292 38.7895 14.8478 38.7794 14.6991 38.797C14.2934 38.8474 13.928 39.0238 13.9028 39.1322C13.8902 39.1851 14.1699 39.3111 14.2253 39.3313L14.2682 39.3464C13.6659 39.3539 13.1846 39.5404 12.9754 39.679C12.7789 39.7874 12.7461 39.8831 12.9326 39.936C12.4261 40.0041 12.038 40.183 11.8641 40.314C11.655 40.4426 11.6424 40.5459 11.8843 40.5812C11.3198 40.6996 10.8335 40.9717 10.5916 41.1582C10.4177 41.2943 10.3975 41.3901 10.5689 41.4178C10.1128 41.5362 9.7348 41.7126 9.73983 41.8487C9.73983 41.8613 9.75496 41.8764 9.78015 41.8915C9.36184 42.0402 8.00359 42.7937 7.52733 43.2271C7.14178 43.5799 7.33329 43.6656 7.83728 43.5295C8.14471 43.4463 8.71422 43.2724 9.43996 42.9953C9.85323 42.834 10.1027 42.7307 10.269 42.6399C10.269 42.6803 10.2917 42.7004 10.3446 42.6929C10.5235 42.6727 10.9343 42.6122 11.408 42.2821C11.335 42.3804 11.2871 42.4635 11.3274 42.5039C11.4584 42.6399 12.2069 42.4938 12.8847 42.02L12.862 42.0452C12.6756 42.2569 12.7512 42.3325 13.0057 42.2846C13.3106 42.2317 13.8373 42.0528 14.2959 41.7126L14.2934 41.7202C14.1875 41.8688 14.1069 42.0125 14.1371 42.0805C14.1649 42.1511 14.3463 42.141 14.6562 41.9948C14.8982 41.8789 15.1577 41.695 15.3895 41.4707C15.3669 41.5236 15.3442 41.5765 15.324 41.632C15.2862 41.7252 15.2711 41.8008 15.3165 41.8285C15.4147 41.889 15.7247 41.8159 16.0523 41.574C16.1959 41.4682 16.3648 41.3069 16.5412 41.1103C16.4983 41.2061 16.4555 41.3019 16.4177 41.4001C16.3799 41.5009 16.3648 41.5816 16.4101 41.6118C16.516 41.6773 16.8536 41.5992 17.2089 41.3371C17.4408 41.1658 17.7407 40.8533 18.0279 40.493C17.9548 40.6467 17.8868 40.8004 17.8238 40.9566C17.786 41.0574 17.7709 41.1381 17.8188 41.1658C17.9246 41.2338 18.2598 41.1532 18.6151 40.8936C18.8242 40.7399 19.0863 40.4728 19.3408 40.1628C19.3106 40.241 19.2829 40.3191 19.2577 40.3997C19.2249 40.493 19.2148 40.5686 19.2551 40.5988C19.3484 40.6618 19.6382 40.5963 19.9355 40.3619C20.0741 40.251 20.2379 40.0772 20.4067 39.8705C20.3967 39.9159 20.4017 39.9512 20.4269 39.9638C20.4597 39.9789 20.5151 39.9789 20.5831 39.9612C20.7117 39.931 20.946 39.8025 21.13 39.6513C21.2963 39.5203 21.4928 39.3187 21.6818 39.0868L21.6793 39.0919C21.6516 39.1574 21.639 39.2078 21.6718 39.2279C21.697 39.2405 21.7398 39.2431 21.7978 39.233C21.9036 39.2153 22.1002 39.1196 22.2589 39.0087C22.4126 38.9029 22.5991 38.7189 22.7805 38.5047C22.778 38.5249 22.7831 38.5425 22.7957 38.5476C22.8108 38.5576 22.841 38.5602 22.8813 38.5551C22.9544 38.545 23.088 38.477 23.1938 38.3989C23.8868 37.8899 23.9851 37.6555 24.7411 37.3229C25.2173 37.1112 25.3458 36.9877 25.0031 37.4514C24.7259 37.8243 24.5218 38.0662 23.98 38.3586C23.8616 38.4216 23.7432 38.4871 23.5945 38.6005C23.4559 38.7088 23.3652 38.85 23.3803 38.8978C23.3828 38.9003 23.3853 38.9029 23.3878 38.9054C23.1283 39.0112 22.8914 39.1322 22.7528 39.2431C22.5537 39.4043 22.4051 39.6009 22.4202 39.6664C22.4303 39.6992 22.4958 39.7017 22.5941 39.6866C22.2891 39.8101 22.017 39.9461 21.8608 40.0746C21.6239 40.2662 21.4928 40.4652 21.513 40.5434C21.5231 40.5711 21.5684 40.5812 21.6365 40.5786C21.5231 40.6366 21.4248 40.7021 21.3542 40.7651C21.13 40.9617 20.9863 41.2212 21.0191 41.2968C21.0317 41.3321 21.256 41.2918 21.2938 41.2817L21.329 41.2741C20.9687 41.5287 20.757 41.8411 20.694 42.01C20.6209 42.1586 20.6411 42.2292 20.7721 42.1838C20.5 42.4333 20.3412 42.7029 20.2934 42.8541C20.2203 43.0179 20.2581 43.086 20.4193 43.0079C20.1296 43.3102 19.9506 43.6782 19.8851 43.8924C19.8372 44.0461 19.8675 44.1116 19.9809 44.0561C19.7591 44.3157 19.6054 44.5803 19.6659 44.6609C19.6734 44.6685 19.6886 44.671 19.7112 44.6685C19.5197 44.9306 19.0258 45.9511 18.9225 46.4073C18.8368 46.7802 18.9905 46.7525 19.2375 46.4627C19.3862 46.2838 19.6558 45.9436 19.9733 45.4724C20.1548 45.2052 20.2606 45.0414 20.3211 44.9155C20.3387 44.9406 20.3614 44.9432 20.3916 44.918C20.4899 44.8298 20.7091 44.6231 20.8553 44.2275C20.8528 44.3182 20.8603 44.3888 20.9032 44.3963C21.0393 44.4215 21.4273 44.0234 21.634 43.4589L21.6314 43.4816C21.6088 43.6857 21.6869 43.7008 21.8204 43.5673C21.9792 43.406 22.2211 43.0809 22.3547 42.6878V42.6929C22.3547 42.8264 22.3647 42.9474 22.4126 42.9751C22.463 43.0053 22.5663 42.9247 22.6873 42.708C22.7856 42.5366 22.8637 42.3174 22.9091 42.0881C22.9166 42.1284 22.9242 42.1712 22.9368 42.2116C22.9544 42.2846 22.9771 42.335 23.0149 42.3325C23.1006 42.3275 23.2543 42.1561 23.35 41.8764C23.3929 41.7529 23.4256 41.5891 23.4458 41.4001C23.4584 41.4531 23.471 41.506 23.4836 41.5564C23.5038 41.6244 23.5264 41.6723 23.5642 41.6672C23.5945 41.6622 23.6298 41.637 23.6701 41.5942C23.7432 41.511 23.8364 41.3145 23.8918 41.1255C23.9498 40.9289 23.9901 40.6492 24.0027 40.3544C24.0103 40.3972 24.0178 40.44 24.0254 40.4804C24.038 40.5383 24.0556 40.5812 24.0859 40.5786C24.1136 40.5786 24.1438 40.5585 24.1791 40.5232C24.2446 40.4577 24.3379 40.2964 24.3933 40.1427C24.4462 39.9915 24.4865 39.7723 24.5092 39.5354C24.5168 39.5505 24.5269 39.5606 24.5395 39.5581C24.5571 39.5581 24.5773 39.5455 24.605 39.5228C24.6503 39.4774 24.7108 39.3665 24.7461 39.2607C24.9678 38.603 24.9351 38.3787 25.245 37.842C25.3156 37.7261 25.3635 37.6379 25.3988 37.5774C25.2677 40.8029 25.4366 43.7462 25.7364 46.2863H26.4244C26.0917 43.8546 25.9027 41.0221 26.0338 37.8848C26.4471 38.5375 26.3337 38.6509 26.568 39.3565C26.6033 39.4623 26.6638 39.5707 26.7066 39.6135C26.7318 39.6387 26.752 39.6513 26.7696 39.6513C26.7822 39.6513 26.7898 39.6412 26.7998 39.6261C26.82 39.8579 26.8578 40.0746 26.9107 40.2183C26.9636 40.372 27.0518 40.5257 27.1174 40.5912C27.1501 40.624 27.1804 40.6441 27.2056 40.6467C27.2383 40.6467 27.2534 40.6063 27.266 40.5509C27.2761 40.5106 27.2812 40.4703 27.2887 40.43C27.2988 40.7147 27.3366 40.9894 27.392 41.1809C27.4475 41.3623 27.5382 41.5564 27.6087 41.637C27.6491 41.6798 27.6843 41.705 27.7121 41.7101C27.7473 41.7151 27.7725 41.6672 27.7877 41.6017C27.8028 41.5513 27.8154 41.5009 27.828 41.4505C27.8481 41.632 27.8784 41.7932 27.9187 41.9117C28.0119 42.1864 28.1606 42.3552 28.2438 42.3602C28.279 42.3627 28.3042 42.3124 28.3219 42.2443C28.332 42.204 28.3395 42.1637 28.3496 42.1208C28.3924 42.3476 28.4655 42.5593 28.5613 42.7256C28.6797 42.9398 28.783 43.0179 28.8284 42.9902C28.8738 42.96 28.8864 42.8441 28.8889 42.713V42.708C29.0174 43.0935 29.2492 43.4136 29.4055 43.5698C29.534 43.7008 29.6096 43.6857 29.5869 43.4866V43.4614C29.7835 44.0158 30.1614 44.4039 30.295 44.3787C30.3353 44.3711 30.3454 44.3031 30.3429 44.2149C30.4815 44.603 30.6957 44.8046 30.7914 44.8903C30.8217 44.9155 30.8418 44.9129 30.8595 44.8903C30.9199 45.0112 31.0207 45.1725 31.1946 45.4346C31.5046 45.8932 31.7641 46.2258 31.9103 46.3997C32.0917 46.6164 32.311 46.7777 32.2177 46.3518Z" fill="#5FB749"/>
</svg>
