<svg width="50" height="47" viewBox="0 0 50 47" fill="none" xmlns="http://www.w3.org/2000/svg">
<path fill-rule="evenodd" clip-rule="evenodd" d="M31.4316 45.8054C31.3333 45.3569 30.8545 44.359 30.6706 44.1045C30.6907 44.107 30.7058 44.1019 30.7134 44.0944C30.7739 44.0188 30.6252 43.7592 30.406 43.5047C30.5194 43.5602 30.5471 43.4946 30.5017 43.346C30.4387 43.1343 30.2674 42.779 29.9877 42.4816C30.1439 42.5572 30.1792 42.4942 30.1086 42.3329C30.0633 42.1843 29.9095 41.9197 29.6449 41.6778C29.7735 41.7206 29.7961 41.6526 29.7231 41.5064C29.6626 41.3426 29.4559 41.0377 29.1082 40.7882L29.141 40.7958C29.1788 40.8059 29.3955 40.8487 29.4106 40.8109C29.4408 40.7353 29.2997 40.4858 29.083 40.2918C29.0124 40.2288 28.9217 40.1683 28.8083 40.1078C28.8764 40.1129 28.9217 40.1028 28.9293 40.0751C28.9494 39.9995 28.8234 39.8055 28.5916 39.6165C28.4404 39.4905 28.1758 39.3544 27.8785 39.2359C27.9742 39.2511 28.0397 39.2485 28.0473 39.2158C28.0649 39.1528 27.9188 38.9613 27.7248 38.8025C27.5912 38.6942 27.3619 38.5757 27.1074 38.4724C27.1124 38.4674 27.1149 38.4648 27.1174 38.4623C27.13 38.417 27.0444 38.2809 26.9083 38.175C26.7647 38.0617 26.6462 37.9961 26.5353 37.9357C25.9734 37.6307 25.7844 37.3838 25.487 36.9756C24.6353 35.8063 26.7899 37.2754 27.0544 37.54C27.1628 37.6484 27.2762 37.7593 27.4551 37.8878C27.6265 38.0062 27.8104 38.0617 27.8608 38.0289C27.8633 38.0264 27.8659 38.0239 27.8684 38.0163C28.0725 38.2708 28.2867 38.4951 28.4581 38.611C28.705 38.7798 28.9772 38.8857 29.0452 38.8428C29.0679 38.8302 29.0679 38.7924 29.0528 38.742C29.2745 39.0142 29.5013 39.246 29.6827 39.3695C29.9877 39.5761 30.2623 39.6618 30.348 39.6089C30.3656 39.5988 30.3707 39.5711 30.3656 39.5358C30.5194 39.7097 30.668 39.8558 30.794 39.9516C31.1015 40.1784 31.3913 40.2364 31.4845 40.1683C31.5349 40.128 31.4921 39.9818 31.4366 39.8432C31.6937 40.1406 31.9532 40.3951 32.1598 40.5413C32.5202 40.7958 32.8604 40.8689 32.9637 40.8008C33.0191 40.7655 32.9713 40.6219 32.9083 40.4808C33.1325 40.7303 33.3543 40.9419 33.5383 41.0705C33.8986 41.325 34.2363 41.3981 34.3396 41.33C34.3875 41.2998 34.3698 41.2191 34.3295 41.1183C34.3169 41.0856 34.3018 41.0553 34.2892 41.0226C34.4228 41.1713 34.5614 41.2922 34.6899 41.3703C35.0351 41.582 35.4307 41.6727 35.5215 41.6022C35.5643 41.5719 35.4232 41.2998 35.3955 41.2519L35.3728 41.2116C35.8465 41.5795 36.3404 41.7357 36.5874 41.7534C36.8117 41.7937 36.8948 41.7408 36.7865 41.587C37.2199 41.8466 37.6357 41.9474 37.8574 41.955C38.1019 41.9852 38.1775 41.9121 38.0137 41.7332C38.5252 41.9928 39.0771 42.0835 39.3845 42.0885C39.6063 42.0936 39.6844 42.0306 39.566 41.902C39.9969 42.0936 40.4051 42.1918 40.4857 42.0835C40.4933 42.0709 40.4908 42.0507 40.4832 42.0255C40.899 42.1692 42.4387 42.4262 43.0863 42.3859C43.6105 42.3531 43.5147 42.1666 43.0359 41.96C42.7436 41.834 42.1892 41.6122 41.4484 41.3804C41.0275 41.2469 40.768 41.1738 40.579 41.1385C40.6042 41.1083 40.5991 41.078 40.5538 41.0503C40.4001 40.9545 40.0447 40.7479 39.4652 40.7101C39.5836 40.6799 39.6743 40.6446 39.6718 40.5841C39.6542 40.4002 38.9788 40.0448 38.1523 39.9919L38.185 39.9894C38.4647 39.9415 38.4547 39.8357 38.2279 39.7122C37.9557 39.5686 37.4341 39.3771 36.8621 39.3544L36.8646 39.3519C37.0435 39.3015 37.1997 39.241 37.2174 39.1704C37.2401 39.0973 37.0939 38.9915 36.7613 38.9134C36.4967 38.8529 36.1792 38.8353 35.8566 38.863C35.9095 38.8378 35.9599 38.8076 36.0128 38.7798C36.0985 38.732 36.1565 38.6816 36.1414 38.6312C36.1036 38.5253 35.8163 38.3892 35.4081 38.3716C35.2291 38.3666 34.9923 38.3842 34.7352 38.427C34.8285 38.3817 34.9217 38.3313 35.0124 38.2809C35.1057 38.2254 35.1687 38.1725 35.151 38.1196C35.1132 38.0012 34.8007 37.855 34.3572 37.8374C34.0649 37.8248 33.6365 37.8827 33.1829 37.9861C33.3367 37.9105 33.4879 37.8349 33.6365 37.7517C33.7298 37.6963 33.7928 37.6433 33.7751 37.5879C33.7373 37.472 33.4249 37.3258 32.9788 37.3082C32.7218 37.2981 32.3488 37.3435 31.9532 37.4241C32.0263 37.3813 32.0968 37.3384 32.1674 37.2931C32.2531 37.2376 32.311 37.1872 32.2959 37.1394C32.2657 37.0285 31.9986 36.9025 31.613 36.9C31.4366 36.8974 31.1997 36.9327 30.9377 36.9882C30.973 36.9604 30.9931 36.9302 30.9805 36.9025C30.9654 36.8697 30.9226 36.837 30.8596 36.8092C30.7386 36.7513 30.4765 36.7084 30.2371 36.7059C30.0229 36.7059 29.7432 36.7437 29.4459 36.8067L29.4534 36.8017C29.5139 36.7689 29.5593 36.7362 29.5441 36.7009C29.5341 36.6732 29.5013 36.648 29.4509 36.6202C29.3552 36.5648 29.1435 36.5169 28.9494 36.5043C28.763 36.4942 28.5009 36.5194 28.2212 36.5724C28.2363 36.5572 28.2439 36.5446 28.2388 36.5295C28.2338 36.5119 28.2111 36.4917 28.1758 36.4716C28.1128 36.4363 27.9667 36.4035 27.8331 36.3985C26.9259 36.3607 26.7218 36.4968 25.8121 36.2372C25.9457 36.1994 26.0817 36.1641 26.2203 36.1289C27.6114 35.7735 27.8331 35.9852 29.0931 35.9928C29.2695 35.9953 29.4635 35.9625 29.5492 35.9197C29.5971 35.897 29.6273 35.8693 29.6349 35.8441C29.6449 35.829 29.6349 35.8088 29.6172 35.7887C29.9776 35.8769 30.3203 35.9273 30.5698 35.9222C30.8243 35.9197 31.1065 35.8693 31.2375 35.8063C31.3056 35.7735 31.3509 35.7357 31.3635 35.703C31.3862 35.6576 31.3308 35.6123 31.2501 35.5644L31.2401 35.5593C31.6281 35.6627 31.9961 35.7257 32.2758 35.7383C32.5908 35.7534 32.9385 35.7131 33.0998 35.6475C33.188 35.6097 33.2459 35.5694 33.2661 35.5291C33.2837 35.4938 33.2611 35.456 33.2182 35.4157C33.5584 35.5064 33.8684 35.5644 34.1002 35.5719C34.6042 35.5946 34.9645 35.4434 35.0124 35.3023C35.0326 35.2393 34.962 35.1662 34.8537 35.0906C34.7629 35.0276 34.6722 34.9672 34.5765 34.9067C35.0956 35.0377 35.5819 35.1209 35.9246 35.1234C36.5067 35.1284 36.9276 34.9546 36.9881 34.8034C37.0133 34.7328 36.9351 34.6597 36.8142 34.5841C36.6252 34.4632 36.4311 34.3548 36.2346 34.2439C36.8217 34.4077 37.3862 34.5111 37.7692 34.5136C38.3539 34.5161 38.7747 34.3422 38.8327 34.191C38.8604 34.123 38.7797 34.0499 38.6588 33.9718C38.5403 33.9012 38.4219 33.8281 38.3035 33.7601C38.6437 33.8332 38.9511 33.876 39.1854 33.876C39.7247 33.8785 40.1128 33.7198 40.1657 33.5787C40.1934 33.5157 40.1178 33.4476 40.0044 33.3771C39.9389 33.3368 39.8759 33.2964 39.8079 33.2561C40.2312 33.3166 40.6495 33.3141 40.9998 33.2486C41.4433 33.1679 41.6424 33.0394 41.6197 32.9411C41.5996 32.8454 41.398 32.7572 41.1686 32.6765H41.1586C41.9171 32.6791 42.6151 32.4649 42.9805 32.291C43.2879 32.1423 43.3081 32.0062 42.9427 31.9256L42.8998 31.9155C43.9935 31.8979 44.9032 31.477 44.936 31.2351C44.946 31.1595 44.8301 31.1041 44.6764 31.0562C45.4399 31.0436 45.9213 30.7941 46.1304 30.6782C46.1909 30.6429 46.1984 30.6051 46.1682 30.5623C46.4177 30.5295 46.7629 30.4489 47.3274 30.3002C48.3177 30.0407 49.0586 29.7887 49.4517 29.64C50.0943 29.3981 50.2304 29.1562 49.5449 29.0806C48.6982 28.9873 46.6546 29.2293 46.0951 29.393C46.1102 29.3578 46.1153 29.3301 46.1052 29.3149C46.0069 29.1663 45.4626 29.2721 44.883 29.4938C45.0468 29.3351 44.9486 29.2469 44.6562 29.2368C44.2505 29.2242 43.5223 29.3099 42.8293 29.6173C43.0586 29.3956 42.9628 29.2948 42.6403 29.32C42.3505 29.3149 41.7961 29.4208 41.2064 29.7383C41.3627 29.5392 41.2543 29.4636 40.957 29.5014C40.6294 29.5115 39.9717 29.6854 39.324 30.139C39.3341 30.1213 39.3442 30.1062 39.3593 30.0886C39.3971 30.0256 39.5962 29.6778 39.5433 29.6299C39.4274 29.5367 38.9032 29.6299 38.4345 29.887C38.2606 29.9827 38.0742 30.1314 37.8826 30.3179C37.9028 30.2775 37.923 30.2372 37.9456 30.1944C38.0061 30.0659 38.0338 29.96 37.9734 29.9172C37.8398 29.8214 37.3912 29.897 36.8999 30.207C36.6529 30.3657 36.348 30.6278 36.033 30.9428C36.1288 30.7639 36.1968 30.5774 36.1262 30.527C35.9952 30.4313 35.5441 30.5043 35.0553 30.8168C34.773 30.9957 34.4152 31.3132 34.0574 31.6887C34.1405 31.5098 34.2086 31.3208 34.1405 31.2654C34.0221 31.1721 33.6365 31.2276 33.2207 31.5073C33.0469 31.6232 32.8428 31.8046 32.6286 32.0289C32.6386 31.9785 32.6336 31.9432 32.6084 31.9281C32.5026 31.855 32.1346 31.9508 31.7189 32.2028C31.4719 32.354 31.1594 32.6438 30.8495 32.989C30.8722 32.921 30.8747 32.8731 30.847 32.8555C30.7588 32.7975 30.3959 32.9159 30.0582 33.1226C29.8264 33.2637 29.529 33.5459 29.2468 33.8659C29.2443 33.8609 29.2392 33.8533 29.2342 33.8483C29.1737 33.8055 28.9217 33.8659 28.6949 34.0121C28.448 34.1683 28.2943 34.3095 28.1456 34.443C27.2913 35.2141 26.7848 35.3401 25.797 35.6501C25.8625 35.5669 25.9507 35.446 26.0187 35.3628C26.9058 34.2969 27.193 34.3321 28.1758 33.6215C28.3119 33.5207 28.4455 33.3872 28.4883 33.304C28.5135 33.2612 28.5211 33.2234 28.516 33.1982C28.511 33.1805 28.4959 33.173 28.4707 33.1679C28.7982 33.0293 29.0931 32.8706 29.2821 32.7295C29.4811 32.5783 29.6727 32.3792 29.7382 32.2582C29.7709 32.1927 29.7861 32.1398 29.781 32.1045C29.7684 32.0617 29.7029 32.0541 29.6147 32.0642C29.5895 32.0667 29.5693 32.0717 29.5441 32.0743C29.9322 31.9054 30.2749 31.719 30.4992 31.5476C30.7411 31.3636 30.9755 31.1192 31.0561 30.968C31.099 30.8899 31.1166 30.8244 31.1065 30.7841C31.1065 30.779 31.1065 30.779 31.104 30.774C31.4114 30.653 31.676 30.522 31.8625 30.3935C32.1321 30.212 32.3841 29.9575 32.4673 29.8013C32.5101 29.7156 32.5252 29.645 32.5101 29.5972C32.4925 29.5342 32.3967 29.5216 32.2682 29.5241C32.1876 29.5266 32.1044 29.5316 32.0263 29.5367C32.6008 29.3452 33.1174 29.1159 33.44 28.8966C33.7625 28.6774 34.0649 28.375 34.1632 28.1885C34.2136 28.0877 34.2338 28.002 34.2161 27.9441C34.196 27.8685 34.08 27.8534 33.9263 27.8559C33.8331 27.8609 33.7399 27.866 33.6491 27.871C34.1657 27.6921 34.6168 27.4955 34.9041 27.3065C35.4257 26.9638 35.6726 26.5581 35.6172 26.3817C35.592 26.3011 35.466 26.2834 35.3047 26.286C35.1661 26.286 35.0301 26.291 34.8915 26.2986C35.5089 26.0566 36.0532 25.7921 36.3984 25.5501C36.9805 25.1369 37.2753 24.6606 37.2224 24.4691C37.1997 24.3784 37.0662 24.3607 36.8873 24.3733C36.6126 24.3884 36.3379 24.4162 36.0607 24.4514C36.7688 24.1919 37.4089 23.892 37.7944 23.6199C38.3791 23.2041 38.6714 22.7303 38.6185 22.5363C38.5958 22.4481 38.4622 22.433 38.2833 22.443C38.112 22.4506 37.9431 22.4657 37.7718 22.4859C38.1649 22.3145 38.5025 22.1356 38.7394 21.9693C39.2812 21.5863 39.5508 21.1478 39.503 20.9714C39.4803 20.8882 39.3568 20.8731 39.193 20.8807C39.0972 20.8882 39.0015 20.8958 38.9057 20.9034C39.3744 20.6615 39.7902 20.3565 40.0926 20.0415C40.4757 19.6434 40.579 19.3712 40.4857 19.2906C40.3925 19.2125 40.1279 19.2654 39.8381 19.3511L39.8306 19.3536C40.5891 18.8194 41.1308 18.1037 41.3677 17.6652C41.5668 17.2998 41.4862 17.1461 41.0628 17.3276L41.0124 17.3477C42.0909 16.5514 42.6907 15.4779 42.5445 15.2133C42.4966 15.1251 42.3429 15.1579 42.1539 15.2184C42.9099 14.6589 43.2073 14.0642 43.3308 13.7996C43.3635 13.724 43.3433 13.6787 43.2804 13.6585C43.5071 13.4469 43.7919 13.1193 44.248 12.5674C45.0468 11.5972 45.6012 10.8135 45.886 10.3851C46.3522 9.67198 46.3018 9.34439 45.5659 9.75766C44.6512 10.2717 42.789 11.9752 42.3505 12.5422C42.3429 12.4943 42.3253 12.4641 42.3026 12.4565C42.096 12.3759 41.6273 12.8723 41.214 13.5099C41.2594 13.2352 41.0981 13.215 40.8007 13.4141C40.3824 13.6938 39.7172 14.3011 39.2535 15.105C39.314 14.7169 39.1502 14.6841 38.8427 14.9412C38.5504 15.1453 38.0742 15.6493 37.7188 16.3851C37.7264 16.0752 37.5626 16.0752 37.293 16.3271C36.9755 16.5741 36.4437 17.2192 36.1313 18.1365C36.1313 18.1087 36.1288 18.0835 36.1288 18.0609C36.1237 17.9727 36.0658 17.4788 35.9776 17.4712C35.7911 17.4561 35.3375 17.9273 35.0578 18.5195C34.9545 18.7387 34.8789 19.0235 34.8234 19.346C34.8133 19.2906 34.8058 19.2352 34.7932 19.1797C34.7604 19.0084 34.7125 18.8824 34.6168 18.8824C34.4152 18.8799 34.0221 19.278 33.76 19.9382C33.629 20.2759 33.5156 20.7547 33.4375 21.294C33.3971 21.0445 33.3316 20.8126 33.2207 20.8126C33.0191 20.8126 32.626 21.2083 32.364 21.871C32.2153 22.2515 32.0893 22.821 32.0087 23.4535C31.9608 23.2167 31.8877 22.9798 31.7793 22.9722C31.5954 22.9622 31.2501 23.2973 31.041 23.8719C30.9452 24.1314 30.8696 24.4918 30.8218 24.9025C30.789 24.8294 30.7512 24.7816 30.7058 24.7816C30.5294 24.774 30.1666 25.1999 29.9549 25.7543C29.8289 26.0818 29.7382 26.5682 29.6878 27.1024C29.6575 27.0142 29.6197 26.9537 29.5744 26.9512C29.4257 26.9462 29.1233 27.3015 28.9469 27.7652C28.8638 27.9819 28.7982 28.2818 28.7554 28.6219C28.6143 28.6925 28.3749 29.0025 28.2161 29.3804C28.1078 29.6324 28.0145 30.0004 27.9465 30.4061C27.9289 30.3431 27.9087 30.3078 27.8759 30.3103C27.7751 30.3128 27.5408 30.5925 27.3921 30.9428C27.2913 31.1872 27.2056 31.5552 27.1502 31.9483C27.1401 31.9155 27.1225 31.8979 27.1048 31.8979C27.0318 31.8979 26.873 32.0869 26.7773 32.3288C26.6714 32.5883 26.6261 32.7849 26.5857 32.9739C26.3337 34.1205 25.9759 34.4355 25.3031 35.3527L25.2804 35.383C25.2829 35.3149 25.2829 35.2418 25.2829 35.1637C25.2854 33.9693 25.1771 33.4804 25.6861 32.3464C25.7668 32.1599 25.855 31.9659 25.928 31.6786C25.9961 31.414 25.9784 31.1545 25.9154 31.1091C25.9003 31.0965 25.8751 31.1041 25.8449 31.1242C26.0465 30.7538 26.2052 30.3859 26.2707 30.1188C26.364 29.7257 26.3413 29.3477 26.2581 29.2822C26.2304 29.262 26.1901 29.2746 26.1397 29.32C26.3312 28.9344 26.4849 28.564 26.553 28.2792C26.6513 27.8584 26.6437 27.4477 26.5706 27.3015C26.7445 26.984 26.878 26.6892 26.941 26.4523C27.0847 25.9508 27.0469 25.4594 26.9209 25.3737C26.878 25.3435 26.8075 25.3737 26.7269 25.4317C27.0192 24.9454 27.246 24.4741 27.3442 24.1163C27.5131 23.5165 27.4702 22.9269 27.319 22.8286C27.2787 22.8009 27.2157 22.8185 27.1426 22.8614C27.3594 22.4783 27.5232 22.1255 27.6013 21.8483C27.7852 21.2259 27.7021 20.7295 27.5383 20.6237C27.4425 20.5657 27.2283 20.7219 27.0393 20.8958C27.3669 20.3087 27.6189 19.7442 27.7298 19.3259C27.9238 18.6001 27.8381 18.0206 27.6643 17.8971C27.5685 17.8316 27.3669 17.9903 27.1779 18.1768C27.4476 17.6678 27.6567 17.189 27.7525 16.8236C27.9465 16.0978 27.8608 15.5157 27.6844 15.3923C27.6063 15.3368 27.4854 15.4124 27.3468 15.5409C27.3039 15.5812 27.2611 15.6216 27.2182 15.6644C27.3745 15.3545 27.4904 15.0647 27.5383 14.8177C27.6718 14.1373 27.5786 13.4569 27.4123 13.3561C27.3316 13.3083 26.9738 13.6938 26.9133 13.7669C26.8982 13.787 26.8806 13.8097 26.8629 13.8299C27.1754 12.8547 27.125 11.9802 27.0066 11.5745C26.9335 11.194 26.7949 11.0932 26.6084 11.3629C26.7672 10.5162 26.679 9.79294 26.5555 9.44015C26.4547 9.03444 26.2934 8.95884 26.1044 9.32927C26.2128 8.35909 26.0263 7.43427 25.8449 6.94037C25.7164 6.58757 25.5677 6.50442 25.4316 6.76649C25.4795 5.96767 25.3913 5.25956 25.167 5.19908C25.1418 5.19152 25.1091 5.20916 25.0687 5.2394C25.0536 4.49098 24.532 1.89544 24.0734 0.897544C23.6853 0.0508433 23.4534 0.401116 23.4106 1.23522C23.3829 1.77448 23.3602 2.78498 23.4333 4.10291C23.4761 4.85385 23.5164 5.30744 23.5744 5.62748C23.5089 5.6048 23.4635 5.63 23.4434 5.71819C23.3829 6.01807 23.2619 6.71105 23.5542 7.65099C23.4333 7.47963 23.3199 7.35868 23.2241 7.40403C22.9343 7.54263 22.7705 8.82528 23.1914 10.1659L23.1611 10.118C22.9142 9.70474 22.7479 9.78286 22.6899 10.2213C22.6143 10.7379 22.6294 11.6804 22.9394 12.6052L22.9318 12.5951C22.7403 12.3456 22.5488 12.1365 22.4203 12.1466C22.2867 12.1592 22.2061 12.4565 22.2842 13.0311C22.3447 13.4847 22.511 13.9987 22.7529 14.4926C22.6773 14.4271 22.5992 14.3616 22.5236 14.3011C22.39 14.1928 22.2716 14.1272 22.2036 14.1827C22.0498 14.3062 22.0045 14.8479 22.2288 15.5031C22.3245 15.7904 22.5009 16.1508 22.7277 16.5388C22.5941 16.4179 22.4556 16.2994 22.317 16.186C22.1708 16.0701 22.0473 15.9996 21.9717 16.0626C21.8054 16.1961 21.7575 16.7807 21.9969 17.4939C22.1532 17.9601 22.511 18.6102 22.952 19.2654C22.7378 19.0663 22.5211 18.8748 22.2968 18.6909C22.1506 18.5724 22.0246 18.5069 21.949 18.5649C21.7827 18.6984 21.7348 19.283 21.9768 19.9962C22.1154 20.4145 22.4152 20.9764 22.7907 21.556C22.6748 21.4678 22.5614 21.3796 22.4455 21.294C22.3069 21.1932 22.1884 21.1327 22.1179 21.1856C21.9616 21.299 21.9138 21.8005 22.1431 22.4103C22.2716 22.748 22.5311 23.194 22.8613 23.6627C22.7857 23.5997 22.7101 23.5417 22.6319 23.4813C22.506 23.383 22.3976 23.325 22.3321 23.3779C22.2792 23.4157 22.2439 23.4989 22.2237 23.6173C22.1859 23.8391 22.2565 24.2801 22.3926 24.6656C22.5312 25.0512 22.8285 25.5627 23.2015 26.0793C23.1359 26.0264 23.0679 25.9735 23.0024 25.9206C22.8965 25.8374 22.8033 25.7921 22.7479 25.8349C22.705 25.8651 22.6748 25.9357 22.6597 26.034C22.6294 26.2179 22.6874 26.5909 22.8008 26.9134C22.8814 27.1327 23.0251 27.4073 23.209 27.6996C23.2065 27.6996 23.2015 27.7022 23.1989 27.7072C23.1637 27.7349 23.141 27.803 23.1284 27.8962C23.1032 28.0726 23.1485 28.4254 23.2393 28.7303C23.3224 29.0151 23.5013 29.3855 23.7231 29.766C23.7054 29.7484 23.6878 29.7307 23.6702 29.7131C23.5996 29.6526 23.5391 29.6148 23.5038 29.6476C23.4761 29.6728 23.4534 29.7257 23.4434 29.8038C23.4232 29.9474 23.461 30.2347 23.5366 30.4842C23.6072 30.7236 23.7584 31.0361 23.9524 31.3586C23.9297 31.346 23.9096 31.3435 23.8944 31.3561C23.8743 31.3737 23.8592 31.4115 23.8491 31.4619C23.834 31.5602 23.8642 31.7568 23.9196 31.9256C24.3102 33.1352 24.5799 33.2813 24.6655 34.7353C24.6882 35.1511 24.8193 35.514 24.5068 35.0352C23.771 33.8937 23.8944 33.6392 23.5215 32.5178C23.4686 32.359 23.3829 32.1977 23.3174 32.1322C23.2821 32.0969 23.2519 32.0768 23.2241 32.0743C23.209 32.0743 23.1939 32.0869 23.1813 32.1095C23.1511 31.7643 23.0906 31.4443 23.015 31.2276C22.9343 30.9983 22.8033 30.7614 22.7075 30.6656C22.6597 30.6127 22.6143 30.5825 22.579 30.5799C22.5311 30.5724 22.5085 30.6329 22.4883 30.7185C22.4833 30.7412 22.4808 30.7639 22.4757 30.7866C22.4354 30.3809 22.3623 30.0029 22.2716 29.7458C22.1683 29.4661 22.0095 29.1789 21.8961 29.0579C21.8331 28.9949 21.7777 28.9571 21.7348 28.9521C21.7323 28.9521 21.7273 28.9521 21.7248 28.9521C21.7046 28.6345 21.6618 28.3498 21.5988 28.1432C21.5055 27.8382 21.3468 27.5283 21.2208 27.4048C21.1553 27.3368 21.0923 27.3015 21.0419 27.299C20.9789 27.2965 20.9335 27.3821 20.9007 27.5031C20.8781 27.5762 20.8579 27.6518 20.8377 27.7299C20.8302 27.1402 20.7722 26.5934 20.6664 26.233C20.5555 25.8677 20.364 25.4947 20.2153 25.3485C20.1347 25.2704 20.0591 25.2276 20.0011 25.2251C19.923 25.2225 19.8726 25.3259 19.8323 25.467C19.8046 25.5527 19.7819 25.6409 19.7592 25.7265C19.7491 25.1973 19.6987 24.7211 19.608 24.3985C19.4442 23.8164 19.1343 23.4611 18.9554 23.4611C18.8697 23.4611 18.8142 23.5695 18.7638 23.7207C18.7235 23.8441 18.6882 23.9727 18.653 24.1012C18.6152 23.4611 18.5295 22.879 18.406 22.4909C18.1918 21.8231 17.834 21.4099 17.6349 21.3998C17.5442 21.3922 17.4862 21.5107 17.4434 21.6795C17.3753 21.934 17.3174 22.1986 17.2645 22.4632C17.2368 21.7324 17.146 21.0546 17.0074 20.6161C16.7958 19.9508 16.4354 19.535 16.2363 19.525C16.1456 19.5174 16.0902 19.6384 16.0448 19.8047C16.002 19.9659 15.9667 20.1272 15.9289 20.2885C15.8886 19.8752 15.8205 19.5098 15.7374 19.2427C15.5408 18.6279 15.2082 18.2448 15.0268 18.2347C14.9411 18.2297 14.8907 18.3406 14.8504 18.4918C14.8252 18.5825 14.805 18.6707 14.7823 18.7639C14.6941 18.2599 14.5354 17.7837 14.3313 17.4082C14.0717 16.9345 13.8474 16.7555 13.7416 16.816C13.6358 16.879 13.608 17.1386 13.603 17.4284V17.441C13.3258 16.5791 12.8143 15.861 12.4741 15.5107C12.1893 15.2159 12.0205 15.2436 12.0633 15.6871L12.0683 15.74C11.6425 14.5052 10.8109 13.6258 10.5161 13.6787C10.4203 13.6963 10.4027 13.8475 10.4052 14.0416C10.1078 13.1747 9.63409 12.7186 9.42493 12.5271C9.36193 12.4691 9.31153 12.4767 9.27625 12.5271C9.14018 12.2549 8.91842 11.8921 8.53791 11.3024C7.86509 10.2742 7.29558 9.52331 6.97303 9.13019C6.4514 8.49013 6.12129 8.42209 6.2876 9.23351C6.49424 10.2339 7.53497 12.4666 7.93565 13.0411C7.88777 13.0361 7.85501 13.0437 7.83737 13.0613C7.70129 13.2276 8.02636 13.8097 8.50263 14.3843C8.25568 14.2608 8.19016 14.4019 8.28844 14.7371C8.42451 15.2033 8.79495 16.0046 9.40981 16.6774C9.06458 16.4985 8.98394 16.6421 9.13262 17.005C9.23342 17.3351 9.56605 17.9273 10.1532 18.4792C9.8634 18.3759 9.813 18.5271 9.96924 18.8521C10.1028 19.22 10.5513 19.908 11.3224 20.4725C11.2972 20.4649 11.272 20.4573 11.2494 20.4523C11.1637 20.4296 10.6799 20.3339 10.6471 20.412C10.5791 20.5783 10.8815 21.1402 11.3577 21.5787C11.5316 21.74 11.776 21.8962 12.0658 22.0449C12.0129 22.0373 11.955 22.0273 11.8995 22.0222C11.7282 21.9995 11.5946 22.0071 11.5644 22.0928C11.5014 22.2793 11.7584 22.7631 12.3027 23.2041C12.5774 23.4283 12.9982 23.6778 13.4846 23.9172C13.2376 23.8769 12.9957 23.8668 12.9629 23.9651C12.8999 24.1541 13.1544 24.6354 13.7013 25.0789C14.0163 25.3334 14.5152 25.6207 15.0872 25.8903C14.8478 25.8626 14.6009 25.8551 14.5631 25.9533C14.4951 26.1222 14.7067 26.5405 15.188 26.9084C15.4022 27.0747 15.7197 27.2536 16.0927 27.425C16.0146 27.4325 15.9566 27.4527 15.9415 27.493C15.8835 27.6518 16.1759 28.118 16.6345 28.4808C16.9041 28.695 17.335 28.9269 17.8239 29.1385C17.7332 29.1385 17.6626 29.1537 17.6475 29.1965C17.5971 29.3301 17.8415 29.7181 18.2271 30.023C18.406 30.1642 18.6681 30.3153 18.973 30.4615C19.0007 30.6127 19.2199 30.9277 19.5274 31.1872C19.734 31.3636 20.054 31.5627 20.4144 31.7467C20.3489 31.7442 20.3086 31.7542 20.301 31.7845C20.2733 31.8777 20.4673 32.1776 20.7546 32.422C20.9486 32.5883 21.2737 32.7799 21.629 32.9487C21.5937 32.9512 21.5736 32.9613 21.566 32.9764C21.5433 33.0444 21.6744 33.2486 21.8734 33.4124C22.0851 33.5888 22.2565 33.6896 22.4228 33.7828C23.403 34.3498 23.6097 34.7681 24.2271 35.6198C24.1994 35.6097 24.1691 35.5971 24.1389 35.5845C23.0301 35.1864 22.5387 35.1234 21.6618 34.2717C21.5156 34.1305 21.3644 33.9844 21.1275 33.8206C20.9033 33.6694 20.6538 33.5988 20.5933 33.6417C20.5883 33.6442 20.5832 33.6492 20.5807 33.6568C20.3086 33.3267 20.0213 33.0369 19.7945 32.8857C19.4644 32.6665 19.104 32.5354 19.0158 32.5934C18.9881 32.6085 18.9881 32.6564 19.0108 32.7244C18.7109 32.3691 18.4085 32.0692 18.1666 31.9105C17.7609 31.6434 17.3955 31.5375 17.2871 31.6056C17.262 31.6207 17.2569 31.6534 17.262 31.7038C17.0578 31.4745 16.8588 31.2855 16.6899 31.1646C16.2842 30.8723 15.8987 30.7992 15.7802 30.8899C15.7122 30.9403 15.7701 31.1343 15.8483 31.3158C15.503 30.9277 15.1578 30.6001 14.8806 30.4111C14.4043 30.0835 13.9558 29.9928 13.8222 30.0835C13.7492 30.1339 13.8121 30.3179 13.9003 30.5043C13.5954 30.1768 13.3006 29.9046 13.0587 29.7408C12.5799 29.4107 12.1313 29.32 11.9978 29.4107C11.9373 29.4535 11.96 29.5594 12.0154 29.6904C12.0331 29.7332 12.0532 29.7736 12.0709 29.8139C11.8894 29.6224 11.708 29.4661 11.5366 29.3653C11.0755 29.0907 10.5564 28.9798 10.4379 29.073C10.3825 29.1159 10.569 29.4737 10.6068 29.5367L10.6395 29.5871C10.0096 29.1108 9.35689 28.9143 9.0293 28.8941C8.73447 28.8437 8.62359 28.9193 8.76975 29.1209C8.1952 28.7832 7.64333 28.6597 7.35606 28.6547C7.03099 28.6194 6.93271 28.7152 7.15194 28.947C6.47408 28.6144 5.74834 28.506 5.34011 28.5035C5.05031 28.5035 4.94699 28.5867 5.10575 28.753C4.53372 28.5111 3.99446 28.3876 3.89114 28.5312C3.87854 28.5489 3.88106 28.5766 3.89618 28.6093C3.34179 28.4254 1.31324 28.1154 0.461498 28.181C-0.226447 28.2314 -0.0979293 28.4758 0.534576 28.7429C0.922647 28.9042 1.65343 29.1814 2.63369 29.4762C3.19312 29.645 3.53583 29.7358 3.7853 29.7761C3.75254 29.8189 3.75758 29.8567 3.81806 29.892C4.02218 30.0155 4.49341 30.2826 5.25947 30.3204C5.10071 30.3632 4.98479 30.4111 4.99235 30.4917C5.01755 30.7337 5.91213 31.1872 7.00075 31.2402L6.95791 31.2477C6.59 31.3158 6.60512 31.4569 6.91003 31.6106C7.26786 31.7996 7.95832 32.0365 8.71431 32.0591L8.70675 32.0617C8.47239 32.1322 8.2708 32.2129 8.2456 32.3086C8.2204 32.4069 8.41444 32.5405 8.8529 32.6362C9.20066 32.7143 9.62149 32.7295 10.0474 32.6866C9.9768 32.7244 9.91128 32.7597 9.84324 32.8C9.72984 32.8655 9.65425 32.9336 9.67693 32.9966C9.7248 33.1377 10.1078 33.3116 10.6446 33.3267C10.8815 33.3317 11.1914 33.3015 11.5341 33.241C11.4081 33.304 11.2872 33.372 11.1687 33.4401C11.0453 33.5132 10.9621 33.5837 10.9873 33.6568C11.0427 33.808 11.456 33.997 12.0406 34.0121C12.4237 34.0222 12.9906 33.939 13.5854 33.7954C13.3812 33.8987 13.1847 34.002 12.9932 34.1129C12.8697 34.186 12.784 34.2565 12.8117 34.3271C12.8647 34.4808 13.2779 34.6673 13.8625 34.6824C14.2053 34.695 14.6916 34.627 15.2158 34.5136C15.12 34.5715 15.0268 34.627 14.9335 34.69C14.8226 34.763 14.747 34.8311 14.7672 34.8966C14.8075 35.0352 15.1654 35.2015 15.6693 35.1965C15.9012 35.1965 16.2137 35.1461 16.5589 35.068C16.511 35.1058 16.4883 35.1461 16.5034 35.1814C16.5236 35.2242 16.579 35.267 16.6672 35.3048C16.826 35.3754 17.1712 35.4283 17.4862 35.4258C17.7659 35.4208 18.1364 35.3704 18.5244 35.2822L18.5169 35.2847C18.4362 35.33 18.3783 35.3754 18.3984 35.4182C18.411 35.4535 18.4539 35.4913 18.5219 35.5291C18.6479 35.5946 18.9276 35.6551 19.1847 35.6677C19.4316 35.6803 19.7769 35.64 20.1422 35.5669C20.1221 35.5845 20.1145 35.6047 20.1196 35.6223C20.1296 35.6475 20.1599 35.6727 20.2052 35.6979C20.2909 35.7458 20.4824 35.7836 20.6588 35.7861C21.9163 35.8214 22.1456 35.6198 23.524 36.023C23.7306 36.081 23.9297 36.144 24.1313 36.2019C23.461 36.4287 23.1133 36.5724 22.2867 36.4816C22.133 36.464 21.9742 36.4489 21.7525 36.4615C21.5459 36.4741 21.3644 36.5472 21.3493 36.6026C21.3468 36.6051 21.3468 36.6102 21.3493 36.6177C21.0267 36.5446 20.7193 36.5068 20.5127 36.522C20.2103 36.5446 19.9356 36.6328 19.9079 36.7059C19.9003 36.7286 19.923 36.7563 19.9684 36.7891C19.6206 36.716 19.2981 36.6757 19.0763 36.6933C18.7084 36.7236 18.4388 36.8269 18.406 36.9201C18.401 36.9403 18.411 36.9655 18.4388 36.9907C18.2094 36.9478 18.0003 36.9302 17.8415 36.9352C17.461 36.9478 17.1964 37.0839 17.1687 37.1923C17.1511 37.2578 17.2771 37.3435 17.4106 37.414C17.0226 37.3435 16.6597 37.3082 16.4052 37.3233C15.9642 37.351 15.6542 37.5047 15.6164 37.6207C15.5963 37.6837 15.7223 37.7668 15.8634 37.8349C15.5257 37.7819 15.2208 37.7542 14.999 37.7693C14.5555 37.7945 14.2456 37.9483 14.2078 38.0667C14.1927 38.1221 14.2557 38.1725 14.3514 38.2229C14.3817 38.2406 14.4144 38.2582 14.4447 38.2708C14.2431 38.2431 14.0616 38.233 13.9129 38.2506C13.5072 38.301 13.1418 38.4774 13.1166 38.5858C13.104 38.6387 13.3838 38.7647 13.4392 38.7849L13.482 38.8C12.8798 38.8076 12.3985 38.994 12.1893 39.1326C11.9928 39.241 11.96 39.3367 12.1465 39.3897C11.64 39.4577 11.2519 39.6366 11.078 39.7677C10.8689 39.8962 10.8563 39.9995 11.0982 40.0348C10.5337 40.1532 10.0474 40.4254 9.80544 40.6118C9.63157 40.7479 9.61141 40.8437 9.78276 40.8714C9.32665 40.9898 8.94866 41.1662 8.9537 41.3023C8.9537 41.3149 8.96882 41.33 8.99402 41.3451C8.57571 41.4938 7.21746 42.2473 6.74119 42.6807C6.35564 43.0335 6.54716 43.1192 7.05115 42.9831C7.35858 42.8999 7.92809 42.7261 8.65383 42.4489C9.0671 42.2876 9.31657 42.1843 9.48289 42.0936C9.48289 42.1339 9.50557 42.154 9.55849 42.1465C9.7374 42.1263 10.1482 42.0658 10.6219 41.7357C10.5488 41.834 10.5009 41.9172 10.5413 41.9575C10.6723 42.0936 11.4207 41.9474 12.0986 41.4737L12.0759 41.4989C11.8894 41.7105 11.965 41.7861 12.2195 41.7382C12.5245 41.6853 13.0511 41.5064 13.5098 41.1662L13.5072 41.1738C13.4014 41.3225 13.3208 41.4661 13.351 41.5341C13.3787 41.6047 13.5602 41.5946 13.8701 41.4485C14.112 41.3325 14.3716 41.1486 14.6034 40.9243C14.5807 40.9772 14.5581 41.0301 14.5379 41.0856C14.5001 41.1788 14.485 41.2544 14.5303 41.2821C14.6286 41.3426 14.9386 41.2695 15.2662 41.0276C15.4098 40.9218 15.5786 40.7605 15.755 40.564C15.7122 40.6597 15.6693 40.7555 15.6315 40.8537C15.5937 40.9545 15.5786 41.0352 15.624 41.0654C15.7298 41.1309 16.0675 41.0528 16.4228 40.7907C16.6546 40.6194 16.9545 40.3069 17.2418 39.9466C17.1687 40.1003 17.1007 40.254 17.0377 40.4102C16.9999 40.511 16.9848 40.5917 17.0326 40.6194C17.1385 40.6874 17.4736 40.6068 17.8289 40.3472C18.0381 40.1935 18.3002 39.9264 18.5547 39.6165C18.5244 39.6946 18.4967 39.7727 18.4715 39.8533C18.4388 39.9466 18.4287 40.0222 18.469 40.0524C18.5622 40.1154 18.852 40.0499 19.1494 39.8155C19.288 39.7047 19.4518 39.5308 19.6206 39.3241C19.6105 39.3695 19.6156 39.4048 19.6408 39.4174C19.6735 39.4325 19.729 39.4325 19.797 39.4149C19.9255 39.3846 20.1599 39.2561 20.3438 39.1049C20.5102 38.9739 20.7067 38.7723 20.8957 38.5404L20.8932 38.5455C20.8655 38.611 20.8529 38.6614 20.8856 38.6816C20.9108 38.6942 20.9537 38.6967 21.0116 38.6866C21.1175 38.669 21.314 38.5732 21.4728 38.4623C21.6265 38.3565 21.813 38.1725 21.9944 37.9583C21.9919 37.9785 21.9969 37.9961 22.0095 38.0012C22.0246 38.0113 22.0549 38.0138 22.0952 38.0087C22.1683 37.9987 22.3018 37.9306 22.4077 37.8525C23.1007 37.3435 23.1989 37.1091 23.9549 36.7765C24.4312 36.5648 24.5597 36.4413 24.217 36.905C23.9398 37.2779 23.7357 37.5199 23.1939 37.8122C23.0755 37.8752 22.957 37.9407 22.8083 38.0541C22.6697 38.1624 22.579 38.3036 22.5941 38.3514C22.5967 38.354 22.5992 38.3565 22.6017 38.359C22.3422 38.4648 22.1053 38.5858 21.9667 38.6967C21.7676 38.858 21.6189 39.0545 21.6341 39.12C21.6441 39.1528 21.7096 39.1553 21.8079 39.1402C21.503 39.2637 21.2309 39.3997 21.0746 39.5283C20.8377 39.7198 20.7067 39.9188 20.7269 39.997C20.737 40.0247 20.7823 40.0348 20.8503 40.0322C20.737 40.0902 20.6387 40.1557 20.5681 40.2187C20.3438 40.4153 20.2002 40.6748 20.233 40.7504C20.2456 40.7857 20.4698 40.7454 20.5076 40.7353L20.5429 40.7277C20.1826 40.9823 19.9709 41.2947 19.9079 41.4636C19.8348 41.6122 19.855 41.6828 19.986 41.6374C19.7139 41.8869 19.5551 42.1566 19.5072 42.3078C19.4341 42.4715 19.4719 42.5396 19.6332 42.4615C19.3434 42.7639 19.1645 43.1318 19.099 43.346C19.0511 43.4997 19.0813 43.5652 19.1947 43.5098C18.973 43.7693 18.8193 44.0339 18.8798 44.1145C18.8873 44.1221 18.9024 44.1246 18.9251 44.1221C18.7336 44.3842 18.2397 45.4048 18.1364 45.8609C18.0507 46.2338 18.2044 46.2061 18.4514 45.9163C18.6 45.7374 18.8697 45.3972 19.1872 44.926C19.3686 44.6589 19.4745 44.4951 19.5349 44.3691C19.5526 44.3943 19.5753 44.3968 19.6055 44.3716C19.7038 44.2834 19.923 44.0767 20.0692 43.6811C20.0666 43.7718 20.0742 43.8424 20.117 43.85C20.2531 43.8752 20.6412 43.477 20.8478 42.9125L20.8453 42.9352C20.8226 43.1393 20.9007 43.1545 21.0343 43.0209C21.1931 42.8596 21.435 42.5345 21.5685 42.1414V42.1465C21.5685 42.28 21.5786 42.401 21.6265 42.4287C21.6769 42.4589 21.7802 42.3783 21.9012 42.1616C21.9994 41.9902 22.0776 41.771 22.1229 41.5417C22.1305 41.582 22.138 41.6248 22.1506 41.6652C22.1683 41.7382 22.191 41.7886 22.2288 41.7861C22.3144 41.7811 22.4682 41.6097 22.5639 41.33C22.6067 41.2065 22.6395 41.0427 22.6597 40.8537C22.6723 40.9067 22.6849 40.9596 22.6975 41.01C22.7176 41.078 22.7403 41.1259 22.7781 41.1209C22.8083 41.1158 22.8436 41.0906 22.8839 41.0478C22.957 40.9646 23.0503 40.7681 23.1057 40.5791C23.1637 40.3825 23.204 40.1028 23.2166 39.808C23.2241 39.8508 23.2317 39.8936 23.2393 39.934C23.2519 39.9919 23.2695 40.0348 23.2997 40.0322C23.3275 40.0322 23.3577 40.0121 23.393 39.9768C23.4585 39.9113 23.5517 39.75 23.6072 39.5963C23.6601 39.4451 23.7004 39.2259 23.7231 38.989C23.7306 39.0041 23.7407 39.0142 23.7533 39.0117C23.771 39.0117 23.7911 38.9991 23.8188 38.9764C23.8642 38.931 23.9247 38.8202 23.96 38.7143C24.1817 38.0566 24.149 37.8323 24.4589 37.2956C24.5295 37.1797 24.5773 37.0915 24.6126 37.031C24.4816 40.2565 24.6504 43.1998 24.9503 45.7399H25.6382C25.3056 43.3082 25.1166 40.4758 25.2476 37.3384C25.6609 37.9911 25.5475 38.1045 25.7819 38.8101C25.8172 38.9159 25.8776 39.0243 25.9205 39.0671C25.9457 39.0923 25.9658 39.1049 25.9835 39.1049C25.9961 39.1049 26.0036 39.0948 26.0137 39.0797C26.0339 39.3115 26.0717 39.5283 26.1246 39.6719C26.1775 39.8256 26.2657 39.9793 26.3312 40.0448C26.364 40.0776 26.3942 40.0978 26.4194 40.1003C26.4522 40.1003 26.4673 40.06 26.4799 40.0045C26.49 39.9642 26.495 39.9239 26.5026 39.8836C26.5127 40.1683 26.5505 40.443 26.6059 40.6345C26.6613 40.8159 26.7521 41.01 26.8226 41.0906C26.8629 41.1335 26.8982 41.1587 26.9259 41.1637C26.9612 41.1687 26.9864 41.1209 27.0015 41.0553C27.0166 41.0049 27.0292 40.9545 27.0418 40.9041C27.062 41.0856 27.0922 41.2469 27.1326 41.3653C27.2258 41.64 27.3745 41.8088 27.4576 41.8138C27.4929 41.8164 27.5181 41.766 27.5358 41.6979C27.5458 41.6576 27.5534 41.6173 27.5635 41.5744C27.6063 41.8012 27.6794 42.0129 27.7751 42.1792C27.8936 42.3934 27.9969 42.4715 28.0423 42.4438C28.0876 42.4136 28.1002 42.2977 28.1027 42.1666V42.1616C28.2313 42.5471 28.4631 42.8672 28.6193 43.0234C28.7478 43.1545 28.8234 43.1393 28.8008 42.9403V42.9151C28.9973 43.4694 29.3753 43.8575 29.5089 43.8323C29.5492 43.8248 29.5593 43.7567 29.5567 43.6685C29.6953 44.0566 29.9095 44.2582 30.0053 44.3439C30.0355 44.3691 30.0557 44.3665 30.0733 44.3439C30.1338 44.4648 30.2346 44.6261 30.4085 44.8882C30.7184 45.3468 30.978 45.6794 31.1242 45.8533C31.3056 46.07 31.5248 46.2313 31.4316 45.8054Z" fill="#5FB749"/>
</svg>
