<svg width="54" height="53" viewBox="0 0 54 53" fill="none" xmlns="http://www.w3.org/2000/svg">
<mask id="path-1-outside-1" maskUnits="userSpaceOnUse" x="0" y="1.55957" width="54" height="50" fill="black">
<rect fill="white" y="1.55957" width="54" height="50"/>
<path fill-rule="evenodd" clip-rule="evenodd" d="M33.4316 48.9546C33.3333 48.5061 32.8545 47.5082 32.6706 47.2536C32.6907 47.2562 32.7058 47.2511 32.7134 47.2436C32.7739 47.168 32.6252 46.9084 32.406 46.6539C32.5194 46.7093 32.5471 46.6438 32.5017 46.4951C32.4387 46.2835 32.2674 45.9282 31.9877 45.6308C32.1439 45.7064 32.1792 45.6434 32.1086 45.4821C32.0633 45.3334 31.9095 45.0689 31.6449 44.8269C31.7735 44.8698 31.7961 44.8017 31.7231 44.6556C31.6626 44.4918 31.4559 44.1869 31.1082 43.9374L31.141 43.945C31.1788 43.955 31.3955 43.9979 31.4106 43.9601C31.4408 43.8845 31.2997 43.635 31.083 43.441C31.0124 43.378 30.9217 43.3175 30.8083 43.257C30.8764 43.2621 30.9217 43.252 30.9293 43.2243C30.9494 43.1487 30.8234 42.9546 30.5916 42.7656C30.4404 42.6396 30.1758 42.5036 29.8785 42.3851C29.9742 42.4002 30.0397 42.3977 30.0473 42.365C30.0649 42.302 29.9188 42.1104 29.7248 41.9517C29.5912 41.8433 29.3619 41.7249 29.1074 41.6216C29.1124 41.6165 29.1149 41.614 29.1174 41.6115C29.13 41.5661 29.0444 41.4301 28.9083 41.3242C28.7647 41.2108 28.6462 41.1453 28.5353 41.0848C27.9734 40.7799 27.7844 40.533 27.487 40.1247C26.6353 38.9555 28.7899 40.4246 29.0544 40.6892C29.1628 40.7976 29.2762 40.9084 29.4551 41.0369C29.6265 41.1554 29.8104 41.2108 29.8608 41.1781C29.8633 41.1755 29.8659 41.173 29.8684 41.1655C30.0725 41.42 30.2867 41.6442 30.4581 41.7602C30.705 41.929 30.9772 42.0348 31.0452 41.992C31.0679 41.9794 31.0679 41.9416 31.0528 41.8912C31.2745 42.1634 31.5013 42.3952 31.6827 42.5187C31.9877 42.7253 32.2623 42.811 32.348 42.7581C32.3656 42.748 32.3707 42.7203 32.3656 42.685C32.5194 42.8589 32.668 43.005 32.794 43.1008C33.1015 43.3276 33.3913 43.3855 33.4845 43.3175C33.5349 43.2772 33.4921 43.131 33.4366 42.9924C33.6937 43.2898 33.9532 43.5443 34.1598 43.6904C34.5202 43.945 34.8604 44.018 34.9637 43.95C35.0191 43.9147 34.9713 43.7711 34.9083 43.63C35.1325 43.8794 35.3543 44.0911 35.5383 44.2196C35.8986 44.4741 36.2363 44.5472 36.3396 44.4792C36.3875 44.4489 36.3698 44.3683 36.3295 44.2675C36.3169 44.2348 36.3018 44.2045 36.2892 44.1718C36.4228 44.3204 36.5614 44.4414 36.6899 44.5195C37.0351 44.7312 37.4307 44.8219 37.5215 44.7513C37.5643 44.7211 37.4232 44.4489 37.3955 44.4011L37.3728 44.3607C37.8465 44.7287 38.3404 44.8849 38.5874 44.9025C38.8117 44.9429 38.8948 44.8899 38.7865 44.7362C39.2199 44.9958 39.6357 45.0966 39.8574 45.1041C40.1019 45.1344 40.1775 45.0613 40.0137 44.8824C40.5252 45.1419 41.0771 45.2326 41.3845 45.2377C41.6063 45.2427 41.6844 45.1797 41.566 45.0512C41.9969 45.2427 42.4051 45.341 42.4857 45.2326C42.4933 45.22 42.4908 45.1999 42.4832 45.1747C42.899 45.3183 44.4387 45.5754 45.0863 45.535C45.6105 45.5023 45.5147 45.3158 45.0359 45.1092C44.7436 44.9832 44.1892 44.7614 43.4484 44.5296C43.0275 44.396 42.768 44.3229 42.579 44.2877C42.6042 44.2574 42.5991 44.2272 42.5538 44.1995C42.4001 44.1037 42.0447 43.8971 41.4652 43.8593C41.5836 43.829 41.6743 43.7938 41.6718 43.7333C41.6542 43.5493 40.9788 43.194 40.1523 43.1411L40.185 43.1386C40.4647 43.0907 40.4547 42.9849 40.2279 42.8614C39.9557 42.7177 39.4341 42.5262 38.8621 42.5036L38.8646 42.501C39.0435 42.4506 39.1997 42.3902 39.2174 42.3196C39.2401 42.2465 39.0939 42.1407 38.7613 42.0626C38.4967 42.0021 38.1792 41.9844 37.8566 42.0122C37.9095 41.987 37.9599 41.9567 38.0128 41.929C38.0985 41.8811 38.1565 41.8307 38.1414 41.7803C38.1036 41.6745 37.8163 41.5384 37.4081 41.5208C37.2291 41.5157 36.9923 41.5334 36.7352 41.5762C36.8285 41.5309 36.9217 41.4805 37.0124 41.4301C37.1057 41.3746 37.1687 41.3217 37.151 41.2688C37.1132 41.1503 36.8007 41.0042 36.3572 40.9865C36.0649 40.9739 35.6365 41.0319 35.1829 41.1352C35.3367 41.0596 35.4879 40.984 35.6365 40.9009C35.7298 40.8454 35.7928 40.7925 35.7751 40.7371C35.7373 40.6212 35.4249 40.475 34.9788 40.4574C34.7218 40.4473 34.3488 40.4926 33.9532 40.5733C34.0263 40.5304 34.0968 40.4876 34.1674 40.4422C34.2531 40.3868 34.311 40.3364 34.2959 40.2885C34.2657 40.1776 33.9986 40.0516 33.613 40.0491C33.4366 40.0466 33.1997 40.0819 32.9377 40.1373C32.973 40.1096 32.9931 40.0794 32.9805 40.0516C32.9654 40.0189 32.9226 39.9861 32.8596 39.9584C32.7386 39.9004 32.4765 39.8576 32.2371 39.8551C32.0229 39.8551 31.7432 39.8929 31.4459 39.9559L31.4534 39.9508C31.5139 39.9181 31.5593 39.8853 31.5441 39.8501C31.5341 39.8223 31.5013 39.7971 31.4509 39.7694C31.3552 39.714 31.1435 39.6661 30.9494 39.6535C30.763 39.6434 30.5009 39.6686 30.2212 39.7215C30.2363 39.7064 30.2439 39.6938 30.2388 39.6787C30.2338 39.6611 30.2111 39.6409 30.1758 39.6207C30.1128 39.5855 29.9667 39.5527 29.8331 39.5477C28.9259 39.5099 28.7218 39.6459 27.8121 39.3864C27.9457 39.3486 28.0817 39.3133 28.2203 39.278C29.6114 38.9227 29.8331 39.1344 31.0931 39.1419C31.2695 39.1445 31.4635 39.1117 31.5492 39.0689C31.5971 39.0462 31.6273 39.0185 31.6349 38.9933C31.6449 38.9782 31.6349 38.958 31.6172 38.9378C31.9776 39.026 32.3203 39.0764 32.5698 39.0714C32.8243 39.0689 33.1065 39.0185 33.2375 38.9555C33.3056 38.9227 33.3509 38.8849 33.3635 38.8522C33.3862 38.8068 33.3308 38.7614 33.2501 38.7136L33.2401 38.7085C33.6281 38.8118 33.9961 38.8748 34.2758 38.8874C34.5908 38.9026 34.9385 38.8622 35.0998 38.7967C35.188 38.7589 35.2459 38.7186 35.2661 38.6783C35.2837 38.643 35.2611 38.6052 35.2182 38.5649C35.5584 38.6556 35.8684 38.7136 36.1002 38.7211C36.6042 38.7438 36.9645 38.5926 37.0124 38.4515C37.0326 38.3885 36.962 38.3154 36.8537 38.2398C36.7629 38.1768 36.6722 38.1163 36.5765 38.0559C37.0956 38.1869 37.5819 38.27 37.9246 38.2726C38.5067 38.2776 38.9276 38.1037 38.9881 37.9525C39.0133 37.882 38.9351 37.8089 38.8142 37.7333C38.6252 37.6123 38.4311 37.504 38.2346 37.3931C38.8217 37.5569 39.3862 37.6602 39.7692 37.6627C40.3539 37.6653 40.7747 37.4914 40.8327 37.3402C40.8604 37.2722 40.7797 37.1991 40.6588 37.121C40.5403 37.0504 40.4219 36.9773 40.3035 36.9093C40.6437 36.9824 40.9511 37.0252 41.1854 37.0252C41.7247 37.0277 42.1128 36.869 42.1657 36.7278C42.1934 36.6648 42.1178 36.5968 42.0044 36.5262C41.9389 36.4859 41.8759 36.4456 41.8079 36.4053C42.2312 36.4658 42.6495 36.4633 42.9998 36.3977C43.4433 36.3171 43.6424 36.1886 43.6197 36.0903C43.5995 35.9945 43.398 35.9063 43.1686 35.8257H43.1586C43.9171 35.8282 44.6151 35.614 44.9805 35.4402C45.2879 35.2915 45.3081 35.1554 44.9427 35.0748L44.8998 35.0647C45.9935 35.047 46.9032 34.6262 46.936 34.3843C46.946 34.3087 46.8301 34.2533 46.6764 34.2054C47.4399 34.1928 47.9213 33.9433 48.1304 33.8274C48.1909 33.7921 48.1984 33.7543 48.1682 33.7115C48.4177 33.6787 48.7629 33.5981 49.3274 33.4494C50.3177 33.1898 51.0586 32.9378 51.4517 32.7892C52.0943 32.5473 52.2303 32.3053 51.5449 32.2297C50.6982 32.1365 48.6546 32.3784 48.0951 32.5422C48.1102 32.5069 48.1153 32.4792 48.1052 32.4641C48.0069 32.3154 47.4626 32.4213 46.883 32.643C47.0468 32.4843 46.9486 32.3961 46.6562 32.386C46.2505 32.3734 45.5223 32.4591 44.8293 32.7665C45.0586 32.5447 44.9628 32.4439 44.6403 32.4691C44.3505 32.4641 43.7961 32.5699 43.2064 32.8875C43.3627 32.6884 43.2543 32.6128 42.957 32.6506C42.6294 32.6607 41.9717 32.8345 41.324 33.2881C41.3341 33.2705 41.3442 33.2554 41.3593 33.2377C41.3971 33.1747 41.5962 32.827 41.5433 32.7791C41.4274 32.6859 40.9032 32.7791 40.4345 33.0361C40.2606 33.1319 40.0742 33.2806 39.8826 33.467C39.9028 33.4267 39.923 33.3864 39.9456 33.3436C40.0061 33.215 40.0338 33.1092 39.9734 33.0664C39.8398 32.9706 39.3912 33.0462 38.8999 33.3562C38.6529 33.5149 38.348 33.777 38.033 34.092C38.1288 33.9131 38.1968 33.7266 38.1262 33.6762C37.9952 33.5804 37.5441 33.6535 37.0553 33.966C36.773 34.1449 36.4152 34.4624 36.0574 34.8379C36.1405 34.659 36.2086 34.47 36.1405 34.4145C36.0221 34.3213 35.6365 34.3767 35.2207 34.6565C35.0469 34.7724 34.8428 34.9538 34.6286 35.1781C34.6386 35.1277 34.6336 35.0924 34.6084 35.0773C34.5026 35.0042 34.1346 35.1 33.7189 35.352C33.4719 35.5032 33.1594 35.7929 32.8495 36.1382C32.8722 36.0701 32.8747 36.0223 32.847 36.0046C32.7588 35.9467 32.3959 36.0651 32.0582 36.2717C31.8264 36.4128 31.529 36.6951 31.2468 37.0151C31.2443 37.0101 31.2392 37.0025 31.2342 36.9975C31.1737 36.9546 30.9217 37.0151 30.6949 37.1613C30.448 37.3175 30.2943 37.4586 30.1456 37.5922C29.2913 38.3633 28.7848 38.4893 27.797 38.7992C27.8625 38.7161 27.9507 38.5951 28.0187 38.512C28.9058 37.446 29.193 37.4813 30.1758 36.7707C30.3119 36.6699 30.4455 36.5363 30.4883 36.4532C30.5135 36.4103 30.5211 36.3725 30.516 36.3473C30.511 36.3297 30.4959 36.3221 30.4707 36.3171C30.7982 36.1785 31.0931 36.0197 31.2821 35.8786C31.4811 35.7274 31.6727 35.5284 31.7382 35.4074C31.7709 35.3419 31.7861 35.289 31.781 35.2537C31.7684 35.2108 31.7029 35.2033 31.6147 35.2134C31.5895 35.2159 31.5693 35.2209 31.5441 35.2234C31.9322 35.0546 32.2749 34.8681 32.4992 34.6968C32.7411 34.5128 32.9755 34.2684 33.0561 34.1172C33.099 34.0391 33.1166 33.9735 33.1065 33.9332C33.1065 33.9282 33.1065 33.9282 33.104 33.9231C33.4114 33.8022 33.676 33.6712 33.8625 33.5426C34.1321 33.3612 34.3841 33.1067 34.4673 32.9505C34.5101 32.8648 34.5252 32.7942 34.5101 32.7463C34.4925 32.6833 34.3967 32.6707 34.2682 32.6733C34.1876 32.6758 34.1044 32.6808 34.0263 32.6859C34.6008 32.4943 35.1174 32.265 35.44 32.0458C35.7625 31.8266 36.0649 31.5242 36.1632 31.3377C36.2136 31.2369 36.2338 31.1512 36.2161 31.0933C36.196 31.0177 36.08 31.0025 35.9263 31.0051C35.8331 31.0101 35.7398 31.0151 35.6491 31.0202C36.1657 30.8413 36.6168 30.6447 36.9041 30.4557C37.4257 30.113 37.6726 29.7073 37.6172 29.5309C37.592 29.4503 37.466 29.4326 37.3047 29.4351C37.1661 29.4351 37.0301 29.4402 36.8915 29.4477C37.5089 29.2058 38.0532 28.9412 38.3984 28.6993C38.9805 28.286 39.2753 27.8098 39.2224 27.6183C39.1997 27.5275 39.0662 27.5099 38.8873 27.5225C38.6126 27.5376 38.3379 27.5653 38.0607 27.6006C38.7688 27.3411 39.4089 27.0412 39.7944 26.769C40.3791 26.3532 40.6714 25.8795 40.6185 25.6855C40.5958 25.5973 40.4622 25.5821 40.2833 25.5922C40.112 25.5998 39.9431 25.6149 39.7718 25.6351C40.1649 25.4637 40.5025 25.2848 40.7394 25.1185C41.2812 24.7354 41.5508 24.297 41.503 24.1206C41.4803 24.0374 41.3568 24.0223 41.193 24.0299C41.0972 24.0374 41.0015 24.045 40.9057 24.0525C41.3744 23.8106 41.7902 23.5057 42.0926 23.1907C42.4757 22.7926 42.579 22.5204 42.4857 22.4398C42.3925 22.3617 42.1279 22.4146 41.8381 22.5002L41.8306 22.5028C42.5891 21.9685 43.1308 21.2529 43.3677 20.8144C43.5668 20.449 43.4862 20.2953 43.0628 20.4767L43.0124 20.4969C44.0909 19.7006 44.6907 18.6271 44.5445 18.3625C44.4966 18.2743 44.3429 18.3071 44.1539 18.3675C44.9099 17.8081 45.2073 17.2134 45.3307 16.9488C45.3635 16.8732 45.3433 16.8279 45.2803 16.8077C45.5071 16.596 45.7919 16.2684 46.248 15.7166C47.0468 14.7464 47.6012 13.9627 47.886 13.5343C48.3522 12.8212 48.3018 12.4936 47.5659 12.9068C46.6512 13.4209 44.789 15.1244 44.3505 15.6914C44.3429 15.6435 44.3253 15.6132 44.3026 15.6057C44.096 15.525 43.6273 16.0215 43.214 16.659C43.2594 16.3844 43.0981 16.3642 42.8007 16.5633C42.3824 16.843 41.7172 17.4503 41.2535 18.2541C41.314 17.8661 41.1502 17.8333 40.8427 18.0904C40.5504 18.2945 40.0741 18.7985 39.7188 19.5343C39.7264 19.2243 39.5626 19.2243 39.293 19.4763C38.9755 19.7233 38.4437 20.3684 38.1313 21.2856C38.1313 21.2579 38.1288 21.2327 38.1288 21.21C38.1237 21.1218 38.0658 20.6279 37.9776 20.6204C37.7911 20.6053 37.3375 21.0765 37.0578 21.6687C36.9545 21.8879 36.8789 22.1727 36.8234 22.4952C36.8133 22.4398 36.8058 22.3843 36.7932 22.3289C36.7604 22.1575 36.7125 22.0315 36.6168 22.0315C36.4152 22.029 36.0221 22.4272 35.76 23.0874C35.629 23.4251 35.5156 23.9039 35.4375 24.4431C35.3971 24.1937 35.3316 23.9618 35.2207 23.9618C35.0191 23.9618 34.626 24.3574 34.364 25.0202C34.2153 25.4007 34.0893 25.9702 34.0087 26.6027C33.9608 26.3658 33.8877 26.129 33.7793 26.1214C33.5954 26.1113 33.2501 26.4465 33.041 27.021C32.9452 27.2806 32.8696 27.6409 32.8218 28.0517C32.789 27.9786 32.7512 27.9307 32.7058 27.9307C32.5294 27.9232 32.1666 28.349 31.9549 28.9034C31.8289 29.231 31.7382 29.7174 31.6878 30.2516C31.6575 30.1634 31.6197 30.1029 31.5744 30.1004C31.4257 30.0954 31.1233 30.4507 30.9469 30.9143C30.8638 31.1311 30.7982 31.4309 30.7554 31.7711C30.6143 31.8417 30.3749 32.1516 30.2161 32.5296C30.1078 32.7816 30.0145 33.1495 29.9465 33.5552C29.9289 33.4922 29.9087 33.457 29.8759 33.4595C29.7751 33.462 29.5408 33.7417 29.3921 34.092C29.2913 34.3364 29.2056 34.7043 29.1502 35.0974C29.1401 35.0647 29.1225 35.047 29.1048 35.047C29.0318 35.047 28.873 35.236 28.7773 35.478C28.6714 35.7375 28.6261 35.9341 28.5857 36.1231C28.3337 37.2696 27.9759 37.5846 27.3031 38.5019L27.2804 38.5321C27.2829 38.4641 27.2829 38.391 27.2829 38.3129C27.2854 37.1184 27.1771 36.6296 27.6861 35.4956C27.7668 35.3091 27.855 35.1151 27.928 34.8278C27.9961 34.5632 27.9784 34.3037 27.9154 34.2583C27.9003 34.2457 27.8751 34.2533 27.8449 34.2734C28.0465 33.903 28.2052 33.5351 28.2707 33.268C28.364 32.8749 28.3413 32.4969 28.2581 32.4313C28.2304 32.4112 28.1901 32.4238 28.1397 32.4691C28.3312 32.0836 28.4849 31.7132 28.553 31.4284C28.6513 31.0076 28.6437 30.5968 28.5706 30.4507C28.7445 30.1332 28.878 29.8383 28.941 29.6014C29.0847 29.1 29.0469 28.6086 28.9209 28.5229C28.8781 28.4927 28.8075 28.5229 28.7269 28.5809C29.0192 28.0945 29.246 27.6233 29.3442 27.2655C29.5131 26.6657 29.4702 26.076 29.319 25.9778C29.2787 25.9501 29.2157 25.9677 29.1426 26.0105C29.3594 25.6275 29.5232 25.2747 29.6013 24.9975C29.7852 24.3751 29.7021 23.8787 29.5383 23.7728C29.4425 23.7149 29.2283 23.8711 29.0393 24.045C29.3669 23.4578 29.6189 22.8934 29.7298 22.475C29.9238 21.7493 29.8381 21.1697 29.6643 21.0462C29.5685 20.9807 29.3669 21.1395 29.1779 21.326C29.4476 20.8169 29.6567 20.3381 29.7525 19.9727C29.9465 19.247 29.8608 18.6649 29.6844 18.5414C29.6063 18.486 29.4854 18.5616 29.3468 18.6901C29.3039 18.7304 29.2611 18.7707 29.2182 18.8136C29.3745 18.5036 29.4904 18.2138 29.5383 17.9669C29.6718 17.2865 29.5786 16.6061 29.4123 16.5053C29.3316 16.4574 28.9738 16.843 28.9133 16.9161C28.8982 16.9362 28.8806 16.9589 28.8629 16.9791C29.1754 16.0038 29.125 15.1294 29.0066 14.7237C28.9335 14.3432 28.7949 14.2424 28.6084 14.512C28.7672 13.6653 28.679 12.9421 28.5555 12.5893C28.4547 12.1836 28.2934 12.108 28.1044 12.4784C28.2128 11.5083 28.0263 10.5834 27.8449 10.0895C27.7164 9.73674 27.5677 9.65359 27.4316 9.91566C27.4795 9.11684 27.3913 8.40873 27.167 8.34825C27.1418 8.34069 27.1091 8.35833 27.0687 8.38857C27.0536 7.64015 26.532 5.04461 26.0734 4.04671C25.6853 3.20001 25.4534 3.55029 25.4106 4.38439C25.3829 4.92365 25.3602 5.93415 25.4333 7.25208C25.4761 8.00302 25.5164 8.45661 25.5744 8.77665C25.5089 8.75397 25.4635 8.77917 25.4434 8.86736C25.3829 9.16724 25.2619 9.86022 25.5542 10.8002C25.4333 10.6288 25.3199 10.5078 25.2241 10.5532C24.9343 10.6918 24.7705 11.9745 25.1914 13.3151L25.1611 13.2672C24.9142 12.8539 24.7479 12.932 24.6899 13.3705C24.6143 13.8871 24.6294 14.8295 24.9394 15.7544L24.9318 15.7443C24.7403 15.4948 24.5488 15.2857 24.4203 15.2957C24.2867 15.3083 24.2061 15.6057 24.2842 16.1802C24.3447 16.6338 24.511 17.1479 24.7529 17.6418C24.6773 17.5763 24.5992 17.5108 24.5236 17.4503C24.39 17.3419 24.2716 17.2764 24.2036 17.3318C24.0498 17.4553 24.0045 17.9971 24.2288 18.6523C24.3245 18.9396 24.5009 19.2999 24.7277 19.688C24.5941 19.567 24.4556 19.4486 24.317 19.3352C24.1708 19.2193 24.0473 19.1487 23.9717 19.2117C23.8054 19.3453 23.7575 19.9299 23.9969 20.6431C24.1532 21.1092 24.511 21.7594 24.952 22.4146C24.7378 22.2155 24.5211 22.024 24.2968 21.84C24.1506 21.7216 24.0246 21.6561 23.949 21.714C23.7827 21.8476 23.7348 22.4322 23.9768 23.1454C24.1154 23.5637 24.4152 24.1256 24.7907 24.7052C24.6748 24.617 24.5614 24.5288 24.4455 24.4431C24.3069 24.3423 24.1884 24.2818 24.1179 24.3348C23.9616 24.4482 23.9138 24.9496 24.1431 25.5595C24.2716 25.8971 24.5311 26.3432 24.8613 26.8119C24.7857 26.7489 24.7101 26.6909 24.6319 26.6304C24.506 26.5322 24.3976 26.4742 24.3321 26.5271C24.2792 26.5649 24.2439 26.6481 24.2237 26.7665C24.1859 26.9883 24.2565 27.4293 24.3926 27.8148C24.5312 28.2004 24.8285 28.7119 25.2015 29.2285C25.1359 29.1756 25.0679 29.1227 25.0024 29.0697C24.8965 28.9866 24.8033 28.9412 24.7479 28.9841C24.705 29.0143 24.6748 29.0849 24.6597 29.1831C24.6294 29.3671 24.6874 29.74 24.8008 30.0626C24.8814 30.2818 25.0251 30.5565 25.209 30.8488C25.2065 30.8488 25.2015 30.8513 25.1989 30.8564C25.1637 30.8841 25.141 30.9521 25.1284 31.0454C25.1032 31.2218 25.1485 31.5746 25.2393 31.8795C25.3224 32.1642 25.5013 32.5347 25.7231 32.9152C25.7054 32.8975 25.6878 32.8799 25.6702 32.8623C25.5996 32.8018 25.5391 32.764 25.5038 32.7967C25.4761 32.8219 25.4534 32.8749 25.4434 32.953C25.4232 33.0966 25.461 33.3839 25.5366 33.6334C25.6072 33.8727 25.7584 34.1852 25.9524 34.5078C25.9297 34.4952 25.9096 34.4927 25.8944 34.5053C25.8743 34.5229 25.8592 34.5607 25.8491 34.6111C25.834 34.7094 25.8642 34.9059 25.9196 35.0748C26.3102 36.2843 26.5799 36.4305 26.6655 37.8845C26.6882 38.3003 26.8193 38.6632 26.5068 38.1844C25.771 37.0428 25.8944 36.7883 25.5215 35.6669C25.4686 35.5082 25.3829 35.3469 25.3174 35.2814C25.2821 35.2461 25.2519 35.226 25.2241 35.2234C25.209 35.2234 25.1939 35.236 25.1813 35.2587C25.1511 34.9135 25.0906 34.5935 25.015 34.3767C24.9343 34.1474 24.8033 33.9105 24.7075 33.8148C24.6597 33.7619 24.6143 33.7316 24.579 33.7291C24.5312 33.7216 24.5085 33.782 24.4883 33.8677C24.4833 33.8904 24.4808 33.9131 24.4757 33.9357C24.4354 33.53 24.3623 33.152 24.2716 32.895C24.1683 32.6153 24.0095 32.328 23.8961 32.2071C23.8331 32.1441 23.7777 32.1063 23.7348 32.1012C23.7323 32.1012 23.7273 32.1012 23.7248 32.1012C23.7046 31.7837 23.6618 31.499 23.5988 31.2923C23.5055 30.9874 23.3468 30.6775 23.2208 30.554C23.1553 30.4859 23.0923 30.4507 23.0419 30.4481C22.9789 30.4456 22.9335 30.5313 22.9007 30.6523C22.8781 30.7253 22.8579 30.8009 22.8377 30.8791C22.8302 30.2894 22.7722 29.7426 22.6664 29.3822C22.5555 29.0168 22.364 28.6439 22.2153 28.4977C22.1347 28.4196 22.0591 28.3768 22.0011 28.3742C21.923 28.3717 21.8726 28.475 21.8323 28.6161C21.8046 28.7018 21.7819 28.79 21.7592 28.8757C21.7491 28.3465 21.6987 27.8702 21.608 27.5477C21.4442 26.9656 21.1343 26.6103 20.9554 26.6103C20.8697 26.6103 20.8142 26.7186 20.7638 26.8698C20.7235 26.9933 20.6882 27.1218 20.653 27.2503C20.6152 26.6103 20.5295 26.0282 20.406 25.6401C20.1918 24.9723 19.834 24.559 19.6349 24.549C19.5442 24.5414 19.4862 24.6598 19.4434 24.8287C19.3753 25.0832 19.3174 25.3478 19.2645 25.6124C19.2367 24.8816 19.146 24.2037 19.0074 23.7653C18.7958 23.1 18.4354 22.6842 18.2363 22.6741C18.1456 22.6666 18.0902 22.7875 18.0448 22.9538C18.002 23.1151 17.9667 23.2764 17.9289 23.4377C17.8886 23.0244 17.8205 22.659 17.7374 22.3919C17.5408 21.777 17.2082 21.394 17.0268 21.3839C16.9411 21.3789 16.8907 21.4898 16.8504 21.6409C16.8252 21.7317 16.805 21.8199 16.7823 21.9131C16.6941 21.4091 16.5354 20.9328 16.3313 20.5574C16.0717 20.0836 15.8474 19.9047 15.7416 19.9652C15.6358 20.0282 15.608 20.2877 15.603 20.5775V20.5901C15.3258 19.7283 14.8143 19.0101 14.4741 18.6599C14.1893 18.365 14.0205 18.3927 14.0633 18.8363L14.0683 18.8892C13.6425 17.6544 12.8109 16.7749 12.5161 16.8279C12.4203 16.8455 12.4027 16.9967 12.4052 17.1907C12.1078 16.3239 11.6341 15.8678 11.4249 15.6762C11.3619 15.6183 11.3115 15.6258 11.2763 15.6762C11.1402 15.4041 10.9184 15.0412 10.5379 14.4516C9.86509 13.4234 9.29558 12.6725 8.97303 12.2794C8.4514 11.6393 8.12129 11.5713 8.2876 12.3827C8.49424 13.3831 9.53498 15.6158 9.93565 16.1903C9.88777 16.1853 9.85501 16.1928 9.83737 16.2105C9.70129 16.3768 10.0264 16.9589 10.5026 17.5334C10.2557 17.41 10.1902 17.5511 10.2884 17.8862C10.4245 18.3524 10.7949 19.1538 11.4098 19.8266C11.0646 19.6477 10.9839 19.7913 11.1326 20.1542C11.2334 20.4843 11.566 21.0765 12.1532 21.6283C11.8634 21.525 11.813 21.6762 11.9692 22.0013C12.1028 22.3692 12.5513 23.0572 13.3224 23.6216C13.2972 23.6141 13.272 23.6065 13.2494 23.6015C13.1637 23.5788 12.6799 23.483 12.6471 23.5611C12.5791 23.7275 12.8815 24.2894 13.3577 24.7279C13.5316 24.8892 13.776 25.0454 14.0658 25.1941C14.0129 25.1865 13.955 25.1764 13.8995 25.1714C13.7282 25.1487 13.5946 25.1563 13.5644 25.2419C13.5014 25.4284 13.7584 25.9123 14.3027 26.3532C14.5774 26.5775 14.9982 26.827 15.4846 27.0664C15.2376 27.0261 14.9957 27.016 14.9629 27.1143C14.8999 27.3033 15.1544 27.7846 15.7013 28.2281C16.0163 28.4826 16.5152 28.7699 17.0872 29.0395C16.8478 29.0118 16.6009 29.0042 16.5631 29.1025C16.4951 29.2713 16.7067 29.6896 17.188 30.0576C17.4022 30.2239 17.7197 30.4028 18.0927 30.5741C18.0146 30.5817 17.9566 30.6019 17.9415 30.6422C17.8835 30.8009 18.1759 31.2671 18.6345 31.63C18.9041 31.8442 19.335 32.076 19.8239 32.2877C19.7332 32.2877 19.6626 32.3028 19.6475 32.3457C19.5971 32.4792 19.8415 32.8673 20.2271 33.1722C20.406 33.3133 20.6681 33.4645 20.973 33.6107C21.0007 33.7619 21.2199 34.0769 21.5274 34.3364C21.734 34.5128 22.054 34.7119 22.4144 34.8958C22.3489 34.8933 22.3086 34.9034 22.301 34.9336C22.2733 35.0269 22.4673 35.3268 22.7546 35.5712C22.9486 35.7375 23.2737 35.929 23.629 36.0979C23.5937 36.1004 23.5736 36.1105 23.566 36.1256C23.5433 36.1936 23.6744 36.3977 23.8734 36.5615C24.0851 36.7379 24.2565 36.8387 24.4228 36.932C25.403 37.4989 25.6097 37.9173 26.2271 38.769C26.1994 38.7589 26.1691 38.7463 26.1389 38.7337C25.0301 38.3356 24.5387 38.2726 23.6618 37.4208C23.5156 37.2797 23.3644 37.1336 23.1275 36.9698C22.9033 36.8186 22.6538 36.748 22.5933 36.7908C22.5883 36.7934 22.5832 36.7984 22.5807 36.806C22.3086 36.4758 22.0213 36.1861 21.7945 36.0349C21.4644 35.8156 21.104 35.6846 21.0158 35.7425C20.9881 35.7577 20.9881 35.8055 21.0108 35.8736C20.7109 35.5183 20.4085 35.2184 20.1666 35.0596C19.7609 34.7925 19.3955 34.6867 19.2871 34.7547C19.262 34.7698 19.2569 34.8026 19.2619 34.853C19.0578 34.6237 18.8588 34.4347 18.6899 34.3137C18.2842 34.0214 17.8987 33.9483 17.7802 34.0391C17.7122 34.0895 17.7701 34.2835 17.8483 34.4649C17.503 34.0769 17.1578 33.7493 16.8806 33.5603C16.4043 33.2327 15.9558 33.142 15.8222 33.2327C15.7492 33.2831 15.8121 33.467 15.9003 33.6535C15.5954 33.3259 15.3006 33.0538 15.0587 32.89C14.5799 32.5599 14.1313 32.4691 13.9978 32.5599C13.9373 32.6027 13.96 32.7085 14.0154 32.8396C14.0331 32.8824 14.0532 32.9227 14.0709 32.963C13.8894 32.7715 13.708 32.6153 13.5366 32.5145C13.0755 32.2398 12.5564 32.1289 12.4379 32.2222C12.3825 32.265 12.569 32.6229 12.6068 32.6859L12.6395 32.7363C12.0096 32.26 11.3569 32.0634 11.0293 32.0433C10.7345 31.9929 10.6236 32.0685 10.7697 32.2701C10.1952 31.9324 9.64333 31.8089 9.35606 31.8039C9.03099 31.7686 8.93271 31.8644 9.15194 32.0962C8.47408 31.7636 7.74834 31.6552 7.34011 31.6527C7.05031 31.6527 6.94699 31.7358 7.10575 31.9022C6.53372 31.6602 5.99446 31.5368 5.89114 31.6804C5.87854 31.698 5.88106 31.7258 5.89618 31.7585C5.34179 31.5746 3.31324 31.2646 2.4615 31.3301C1.77355 31.3805 1.90207 31.625 2.53458 31.8921C2.92265 32.0534 3.65343 32.3305 4.63369 32.6254C5.19312 32.7942 5.53583 32.8849 5.7853 32.9253C5.75254 32.9681 5.75758 33.0059 5.81806 33.0412C6.02218 33.1646 6.49341 33.4318 7.25947 33.4696C7.10071 33.5124 6.98479 33.5603 6.99235 33.6409C7.01755 33.8828 7.91213 34.3364 9.00075 34.3893L8.95791 34.3969C8.59 34.4649 8.60512 34.6061 8.91003 34.7598C9.26786 34.9488 9.95832 35.1856 10.7143 35.2083L10.7067 35.2108C10.4724 35.2814 10.2708 35.362 10.2456 35.4578C10.2204 35.5561 10.4144 35.6896 10.8529 35.7854C11.2007 35.8635 11.6215 35.8786 12.0474 35.8358C11.9768 35.8736 11.9113 35.9089 11.8432 35.9492C11.7298 36.0147 11.6542 36.0827 11.6769 36.1457C11.7248 36.2869 12.1078 36.4607 12.6446 36.4758C12.8815 36.4809 13.1914 36.4506 13.5341 36.3902C13.4081 36.4532 13.2872 36.5212 13.1687 36.5892C13.0453 36.6623 12.9621 36.7329 12.9873 36.806C13.0427 36.9572 13.456 37.1462 14.0406 37.1613C14.4237 37.1714 14.9906 37.0882 15.5854 36.9446C15.3812 37.0479 15.1847 37.1512 14.9932 37.2621C14.8697 37.3351 14.784 37.4057 14.8117 37.4763C14.8647 37.63 15.2779 37.8165 15.8625 37.8316C16.2053 37.8442 16.6916 37.7761 17.2158 37.6627C17.12 37.7207 17.0268 37.7761 16.9335 37.8391C16.8226 37.9122 16.747 37.9803 16.7672 38.0458C16.8075 38.1844 17.1654 38.3507 17.6693 38.3456C17.9012 38.3456 18.2137 38.2952 18.5589 38.2171C18.511 38.2549 18.4883 38.2952 18.5034 38.3305C18.5236 38.3734 18.579 38.4162 18.6672 38.454C18.826 38.5246 19.1712 38.5775 19.4862 38.575C19.7659 38.5699 20.1364 38.5195 20.5244 38.4313L20.5169 38.4338C20.4362 38.4792 20.3783 38.5246 20.3984 38.5674C20.411 38.6027 20.4539 38.6405 20.5219 38.6783C20.6479 38.7438 20.9276 38.8043 21.1847 38.8169C21.4316 38.8295 21.7769 38.7892 22.1422 38.7161C22.1221 38.7337 22.1145 38.7539 22.1196 38.7715C22.1296 38.7967 22.1599 38.8219 22.2052 38.8471C22.2909 38.895 22.4824 38.9328 22.6588 38.9353C23.9163 38.9706 24.1456 38.769 25.524 39.1722C25.7306 39.2301 25.9297 39.2931 26.1313 39.3511C25.461 39.5779 25.1133 39.7215 24.2867 39.6308C24.133 39.6132 23.9742 39.5981 23.7525 39.6107C23.5459 39.6233 23.3644 39.6963 23.3493 39.7518C23.3468 39.7543 23.3468 39.7593 23.3493 39.7669C23.0267 39.6938 22.7193 39.656 22.5127 39.6711C22.2103 39.6938 21.9356 39.782 21.9079 39.8551C21.9003 39.8778 21.923 39.9055 21.9684 39.9383C21.6206 39.8652 21.2981 39.8249 21.0763 39.8425C20.7084 39.8727 20.4388 39.976 20.406 40.0693C20.401 40.0894 20.411 40.1146 20.4388 40.1398C20.2094 40.097 20.0003 40.0794 19.8415 40.0844C19.461 40.097 19.1964 40.2331 19.1687 40.3414C19.1511 40.407 19.2771 40.4926 19.4106 40.5632C19.0226 40.4926 18.6597 40.4574 18.4052 40.4725C17.9642 40.5002 17.6542 40.6539 17.6164 40.7698C17.5963 40.8328 17.7223 40.916 17.8634 40.984C17.5257 40.9311 17.2208 40.9034 16.999 40.9185C16.5555 40.9437 16.2456 41.0974 16.2078 41.2159C16.1927 41.2713 16.2557 41.3217 16.3514 41.3721C16.3817 41.3897 16.4144 41.4074 16.4447 41.42C16.2431 41.3923 16.0616 41.3822 15.9129 41.3998C15.5072 41.4502 15.1418 41.6266 15.1166 41.735C15.104 41.7879 15.3838 41.9139 15.4392 41.934L15.482 41.9492C14.8798 41.9567 14.3985 42.1432 14.1893 42.2818C13.9928 42.3902 13.96 42.4859 14.1465 42.5388C13.64 42.6069 13.2519 42.7858 13.078 42.9168C12.8689 43.0453 12.8563 43.1487 13.0982 43.1839C12.5337 43.3024 12.0474 43.5745 11.8054 43.761C11.6316 43.8971 11.6114 43.9928 11.7828 44.0206C11.3267 44.139 10.9487 44.3154 10.9537 44.4515C10.9537 44.4641 10.9688 44.4792 10.994 44.4943C10.5757 44.643 9.21746 45.3964 8.74119 45.8299C8.35564 46.1827 8.54716 46.2683 9.05115 46.1323C9.35858 46.0491 9.92809 45.8752 10.6538 45.598C11.0671 45.4368 11.3166 45.3334 11.4829 45.2427C11.4829 45.283 11.5056 45.3032 11.5585 45.2956C11.7374 45.2755 12.1482 45.215 12.6219 44.8849C12.5488 44.9832 12.5009 45.0663 12.5413 45.1066C12.6723 45.2427 13.4207 45.0966 14.0986 44.6228L14.0759 44.648C13.8894 44.8597 13.965 44.9353 14.2195 44.8874C14.5245 44.8345 15.0511 44.6556 15.5098 44.3154L15.5072 44.3229C15.4014 44.4716 15.3208 44.6153 15.351 44.6833C15.3787 44.7539 15.5602 44.7438 15.8701 44.5976C16.112 44.4817 16.3716 44.2977 16.6034 44.0735C16.5807 44.1264 16.5581 44.1793 16.5379 44.2348C16.5001 44.328 16.485 44.4036 16.5303 44.4313C16.6286 44.4918 16.9386 44.4187 17.2662 44.1768C17.4098 44.071 17.5786 43.9097 17.755 43.7131C17.7122 43.8089 17.6693 43.9046 17.6315 44.0029C17.5937 44.1037 17.5786 44.1844 17.624 44.2146C17.7298 44.2801 18.0675 44.202 18.4228 43.9399C18.6546 43.7686 18.9545 43.4561 19.2418 43.0957C19.1687 43.2495 19.1007 43.4032 19.0377 43.5594C18.9999 43.6602 18.9848 43.7408 19.0326 43.7686C19.1385 43.8366 19.4736 43.756 19.8289 43.4964C20.0381 43.3427 20.3002 43.0756 20.5547 42.7656C20.5244 42.8437 20.4967 42.9219 20.4715 43.0025C20.4388 43.0957 20.4287 43.1713 20.469 43.2016C20.5622 43.2646 20.852 43.1991 21.1494 42.9647C21.288 42.8538 21.4518 42.6799 21.6206 42.4733C21.6105 42.5187 21.6156 42.5539 21.6408 42.5665C21.6735 42.5817 21.729 42.5817 21.797 42.564C21.9255 42.5338 22.1599 42.4053 22.3438 42.2541C22.5102 42.123 22.7067 41.9214 22.8957 41.6896L22.8932 41.6946C22.8655 41.7602 22.8529 41.8106 22.8856 41.8307C22.9108 41.8433 22.9537 41.8458 23.0116 41.8358C23.1175 41.8181 23.314 41.7224 23.4728 41.6115C23.6265 41.5057 23.813 41.3217 23.9944 41.1075C23.9919 41.1277 23.9969 41.1453 24.0095 41.1503C24.0246 41.1604 24.0549 41.1629 24.0952 41.1579C24.1683 41.1478 24.3018 41.0798 24.4077 41.0017C25.1007 40.4926 25.1989 40.2583 25.9549 39.9257C26.4312 39.714 26.5597 39.5905 26.217 40.0542C25.9398 40.4271 25.7357 40.669 25.1939 40.9613C25.0755 41.0243 24.957 41.0899 24.8083 41.2033C24.6697 41.3116 24.579 41.4527 24.5941 41.5006C24.5967 41.5031 24.5992 41.5057 24.6017 41.5082C24.3422 41.614 24.1053 41.735 23.9667 41.8458C23.7676 42.0071 23.6189 42.2037 23.6341 42.2692C23.6441 42.302 23.7096 42.3045 23.8079 42.2894C23.503 42.4128 23.2309 42.5489 23.0746 42.6774C22.8377 42.8689 22.7067 43.068 22.7269 43.1461C22.737 43.1739 22.7823 43.1839 22.8503 43.1814C22.737 43.2394 22.6387 43.3049 22.5681 43.3679C22.3438 43.5644 22.2002 43.824 22.233 43.8996C22.2456 43.9349 22.4698 43.8946 22.5076 43.8845L22.5429 43.8769C22.1826 44.1314 21.9709 44.4439 21.9079 44.6127C21.8348 44.7614 21.855 44.832 21.986 44.7866C21.7139 45.0361 21.5551 45.3057 21.5072 45.4569C21.4341 45.6207 21.4719 45.6888 21.6332 45.6106C21.3434 45.913 21.1645 46.2809 21.099 46.4951C21.0511 46.6489 21.0813 46.7144 21.1947 46.6589C20.973 46.9185 20.8193 47.1831 20.8798 47.2637C20.8873 47.2713 20.9024 47.2738 20.9251 47.2713C20.7336 47.5334 20.2397 48.5539 20.1364 49.01C20.0507 49.383 20.2044 49.3553 20.4514 49.0655C20.6 48.8866 20.8697 48.5464 21.1872 48.0751C21.3686 47.808 21.4745 47.6442 21.5349 47.5182C21.5526 47.5434 21.5753 47.546 21.6055 47.5208C21.7038 47.4326 21.923 47.2259 22.0692 46.8303C22.0666 46.921 22.0742 46.9916 22.117 46.9991C22.2531 47.0243 22.6412 46.6262 22.8478 46.0617L22.8453 46.0844C22.8226 46.2885 22.9007 46.3036 23.0343 46.1701C23.1931 46.0088 23.435 45.6837 23.5685 45.2906V45.2956C23.5685 45.4292 23.5786 45.5502 23.6265 45.5779C23.6769 45.6081 23.7802 45.5275 23.9012 45.3108C23.9994 45.1394 24.0776 44.9202 24.1229 44.6909C24.1305 44.7312 24.138 44.774 24.1506 44.8143C24.1683 44.8874 24.191 44.9378 24.2288 44.9353C24.3144 44.9303 24.4682 44.7589 24.5639 44.4792C24.6067 44.3557 24.6395 44.1919 24.6597 44.0029C24.6723 44.0558 24.6849 44.1088 24.6975 44.1592C24.7176 44.2272 24.7403 44.2751 24.7781 44.27C24.8083 44.265 24.8436 44.2398 24.8839 44.197C24.957 44.1138 25.0503 43.9172 25.1057 43.7282C25.1637 43.5317 25.204 43.252 25.2166 42.9571C25.2241 43 25.2317 43.0428 25.2393 43.0831C25.2519 43.1411 25.2695 43.1839 25.2997 43.1814C25.3275 43.1814 25.3577 43.1613 25.393 43.126C25.4585 43.0605 25.5517 42.8992 25.6072 42.7455C25.6601 42.5943 25.7004 42.375 25.7231 42.1382C25.7306 42.1533 25.7407 42.1634 25.7533 42.1608C25.771 42.1608 25.7911 42.1482 25.8188 42.1256C25.8642 42.0802 25.9247 41.9693 25.96 41.8635C26.1817 41.2058 26.149 40.9815 26.4589 40.4448C26.5295 40.3288 26.5773 40.2406 26.6126 40.1802C26.4816 43.4057 26.6504 46.349 26.9503 48.8891C27.0489 49.7239 27.7241 49.5171 27.6382 48.8891C27.3056 46.4573 27.1166 43.6249 27.2476 40.4876C27.6609 41.1403 27.5475 41.2537 27.7819 41.9592C27.8172 42.0651 27.8776 42.1734 27.9205 42.2163C27.9457 42.2415 27.9658 42.2541 27.9835 42.2541C27.9961 42.2541 28.0036 42.244 28.0137 42.2289C28.0339 42.4607 28.0717 42.6774 28.1246 42.8211C28.1775 42.9748 28.2657 43.1285 28.3312 43.194C28.364 43.2268 28.3942 43.2469 28.4194 43.2495C28.4522 43.2495 28.4673 43.2091 28.4799 43.1537C28.49 43.1134 28.495 43.0731 28.5026 43.0327C28.5127 43.3175 28.5505 43.5922 28.6059 43.7837C28.6613 43.9651 28.7521 44.1592 28.8226 44.2398C28.8629 44.2826 28.8982 44.3078 28.9259 44.3129C28.9612 44.3179 28.9864 44.27 29.0015 44.2045C29.0166 44.1541 29.0292 44.1037 29.0418 44.0533C29.062 44.2348 29.0922 44.396 29.1326 44.5145C29.2258 44.7891 29.3745 44.958 29.4576 44.963C29.4929 44.9655 29.5181 44.9151 29.5358 44.8471C29.5458 44.8068 29.5534 44.7665 29.5635 44.7236C29.6063 44.9504 29.6794 45.1621 29.7751 45.3284C29.8936 45.5426 29.9969 45.6207 30.0423 45.593C30.0876 45.5628 30.1002 45.4468 30.1027 45.3158V45.3108C30.2313 45.6963 30.4631 46.0163 30.6193 46.1726C30.7478 46.3036 30.8234 46.2885 30.8008 46.0894V46.0642C30.9973 46.6186 31.3753 47.0067 31.5089 46.9815C31.5492 46.9739 31.5593 46.9059 31.5567 46.8177C31.6953 47.2058 31.9095 47.4074 32.0053 47.493C32.0355 47.5182 32.0557 47.5157 32.0733 47.493C32.1338 47.614 32.2346 47.7753 32.4085 48.0373C32.7184 48.496 32.978 48.8286 33.1242 49.0025C33.3056 49.2192 33.5248 49.3805 33.4316 48.9546Z"/>
</mask>
<path fill-rule="evenodd" clip-rule="evenodd" d="M33.4316 48.9546C33.3333 48.5061 32.8545 47.5082 32.6706 47.2536C32.6907 47.2562 32.7058 47.2511 32.7134 47.2436C32.7739 47.168 32.6252 46.9084 32.406 46.6539C32.5194 46.7093 32.5471 46.6438 32.5017 46.4951C32.4387 46.2835 32.2674 45.9282 31.9877 45.6308C32.1439 45.7064 32.1792 45.6434 32.1086 45.4821C32.0633 45.3334 31.9095 45.0689 31.6449 44.8269C31.7735 44.8698 31.7961 44.8017 31.7231 44.6556C31.6626 44.4918 31.4559 44.1869 31.1082 43.9374L31.141 43.945C31.1788 43.955 31.3955 43.9979 31.4106 43.9601C31.4408 43.8845 31.2997 43.635 31.083 43.441C31.0124 43.378 30.9217 43.3175 30.8083 43.257C30.8764 43.2621 30.9217 43.252 30.9293 43.2243C30.9494 43.1487 30.8234 42.9546 30.5916 42.7656C30.4404 42.6396 30.1758 42.5036 29.8785 42.3851C29.9742 42.4002 30.0397 42.3977 30.0473 42.365C30.0649 42.302 29.9188 42.1104 29.7248 41.9517C29.5912 41.8433 29.3619 41.7249 29.1074 41.6216C29.1124 41.6165 29.1149 41.614 29.1174 41.6115C29.13 41.5661 29.0444 41.4301 28.9083 41.3242C28.7647 41.2108 28.6462 41.1453 28.5353 41.0848C27.9734 40.7799 27.7844 40.533 27.487 40.1247C26.6353 38.9555 28.7899 40.4246 29.0544 40.6892C29.1628 40.7976 29.2762 40.9084 29.4551 41.0369C29.6265 41.1554 29.8104 41.2108 29.8608 41.1781C29.8633 41.1755 29.8659 41.173 29.8684 41.1655C30.0725 41.42 30.2867 41.6442 30.4581 41.7602C30.705 41.929 30.9772 42.0348 31.0452 41.992C31.0679 41.9794 31.0679 41.9416 31.0528 41.8912C31.2745 42.1634 31.5013 42.3952 31.6827 42.5187C31.9877 42.7253 32.2623 42.811 32.348 42.7581C32.3656 42.748 32.3707 42.7203 32.3656 42.685C32.5194 42.8589 32.668 43.005 32.794 43.1008C33.1015 43.3276 33.3913 43.3855 33.4845 43.3175C33.5349 43.2772 33.4921 43.131 33.4366 42.9924C33.6937 43.2898 33.9532 43.5443 34.1598 43.6904C34.5202 43.945 34.8604 44.018 34.9637 43.95C35.0191 43.9147 34.9713 43.7711 34.9083 43.63C35.1325 43.8794 35.3543 44.0911 35.5383 44.2196C35.8986 44.4741 36.2363 44.5472 36.3396 44.4792C36.3875 44.4489 36.3698 44.3683 36.3295 44.2675C36.3169 44.2348 36.3018 44.2045 36.2892 44.1718C36.4228 44.3204 36.5614 44.4414 36.6899 44.5195C37.0351 44.7312 37.4307 44.8219 37.5215 44.7513C37.5643 44.7211 37.4232 44.4489 37.3955 44.4011L37.3728 44.3607C37.8465 44.7287 38.3404 44.8849 38.5874 44.9025C38.8117 44.9429 38.8948 44.8899 38.7865 44.7362C39.2199 44.9958 39.6357 45.0966 39.8574 45.1041C40.1019 45.1344 40.1775 45.0613 40.0137 44.8824C40.5252 45.1419 41.0771 45.2326 41.3845 45.2377C41.6063 45.2427 41.6844 45.1797 41.566 45.0512C41.9969 45.2427 42.4051 45.341 42.4857 45.2326C42.4933 45.22 42.4908 45.1999 42.4832 45.1747C42.899 45.3183 44.4387 45.5754 45.0863 45.535C45.6105 45.5023 45.5147 45.3158 45.0359 45.1092C44.7436 44.9832 44.1892 44.7614 43.4484 44.5296C43.0275 44.396 42.768 44.3229 42.579 44.2877C42.6042 44.2574 42.5991 44.2272 42.5538 44.1995C42.4001 44.1037 42.0447 43.8971 41.4652 43.8593C41.5836 43.829 41.6743 43.7938 41.6718 43.7333C41.6542 43.5493 40.9788 43.194 40.1523 43.1411L40.185 43.1386C40.4647 43.0907 40.4547 42.9849 40.2279 42.8614C39.9557 42.7177 39.4341 42.5262 38.8621 42.5036L38.8646 42.501C39.0435 42.4506 39.1997 42.3902 39.2174 42.3196C39.2401 42.2465 39.0939 42.1407 38.7613 42.0626C38.4967 42.0021 38.1792 41.9844 37.8566 42.0122C37.9095 41.987 37.9599 41.9567 38.0128 41.929C38.0985 41.8811 38.1565 41.8307 38.1414 41.7803C38.1036 41.6745 37.8163 41.5384 37.4081 41.5208C37.2291 41.5157 36.9923 41.5334 36.7352 41.5762C36.8285 41.5309 36.9217 41.4805 37.0124 41.4301C37.1057 41.3746 37.1687 41.3217 37.151 41.2688C37.1132 41.1503 36.8007 41.0042 36.3572 40.9865C36.0649 40.9739 35.6365 41.0319 35.1829 41.1352C35.3367 41.0596 35.4879 40.984 35.6365 40.9009C35.7298 40.8454 35.7928 40.7925 35.7751 40.7371C35.7373 40.6212 35.4249 40.475 34.9788 40.4574C34.7218 40.4473 34.3488 40.4926 33.9532 40.5733C34.0263 40.5304 34.0968 40.4876 34.1674 40.4422C34.2531 40.3868 34.311 40.3364 34.2959 40.2885C34.2657 40.1776 33.9986 40.0516 33.613 40.0491C33.4366 40.0466 33.1997 40.0819 32.9377 40.1373C32.973 40.1096 32.9931 40.0794 32.9805 40.0516C32.9654 40.0189 32.9226 39.9861 32.8596 39.9584C32.7386 39.9004 32.4765 39.8576 32.2371 39.8551C32.0229 39.8551 31.7432 39.8929 31.4459 39.9559L31.4534 39.9508C31.5139 39.9181 31.5593 39.8853 31.5441 39.8501C31.5341 39.8223 31.5013 39.7971 31.4509 39.7694C31.3552 39.714 31.1435 39.6661 30.9494 39.6535C30.763 39.6434 30.5009 39.6686 30.2212 39.7215C30.2363 39.7064 30.2439 39.6938 30.2388 39.6787C30.2338 39.6611 30.2111 39.6409 30.1758 39.6207C30.1128 39.5855 29.9667 39.5527 29.8331 39.5477C28.9259 39.5099 28.7218 39.6459 27.8121 39.3864C27.9457 39.3486 28.0817 39.3133 28.2203 39.278C29.6114 38.9227 29.8331 39.1344 31.0931 39.1419C31.2695 39.1445 31.4635 39.1117 31.5492 39.0689C31.5971 39.0462 31.6273 39.0185 31.6349 38.9933C31.6449 38.9782 31.6349 38.958 31.6172 38.9378C31.9776 39.026 32.3203 39.0764 32.5698 39.0714C32.8243 39.0689 33.1065 39.0185 33.2375 38.9555C33.3056 38.9227 33.3509 38.8849 33.3635 38.8522C33.3862 38.8068 33.3308 38.7614 33.2501 38.7136L33.2401 38.7085C33.6281 38.8118 33.9961 38.8748 34.2758 38.8874C34.5908 38.9026 34.9385 38.8622 35.0998 38.7967C35.188 38.7589 35.2459 38.7186 35.2661 38.6783C35.2837 38.643 35.2611 38.6052 35.2182 38.5649C35.5584 38.6556 35.8684 38.7136 36.1002 38.7211C36.6042 38.7438 36.9645 38.5926 37.0124 38.4515C37.0326 38.3885 36.962 38.3154 36.8537 38.2398C36.7629 38.1768 36.6722 38.1163 36.5765 38.0559C37.0956 38.1869 37.5819 38.27 37.9246 38.2726C38.5067 38.2776 38.9276 38.1037 38.9881 37.9525C39.0133 37.882 38.9351 37.8089 38.8142 37.7333C38.6252 37.6123 38.4311 37.504 38.2346 37.3931C38.8217 37.5569 39.3862 37.6602 39.7692 37.6627C40.3539 37.6653 40.7747 37.4914 40.8327 37.3402C40.8604 37.2722 40.7797 37.1991 40.6588 37.121C40.5403 37.0504 40.4219 36.9773 40.3035 36.9093C40.6437 36.9824 40.9511 37.0252 41.1854 37.0252C41.7247 37.0277 42.1128 36.869 42.1657 36.7278C42.1934 36.6648 42.1178 36.5968 42.0044 36.5262C41.9389 36.4859 41.8759 36.4456 41.8079 36.4053C42.2312 36.4658 42.6495 36.4633 42.9998 36.3977C43.4433 36.3171 43.6424 36.1886 43.6197 36.0903C43.5995 35.9945 43.398 35.9063 43.1686 35.8257H43.1586C43.9171 35.8282 44.6151 35.614 44.9805 35.4402C45.2879 35.2915 45.3081 35.1554 44.9427 35.0748L44.8998 35.0647C45.9935 35.047 46.9032 34.6262 46.936 34.3843C46.946 34.3087 46.8301 34.2533 46.6764 34.2054C47.4399 34.1928 47.9213 33.9433 48.1304 33.8274C48.1909 33.7921 48.1984 33.7543 48.1682 33.7115C48.4177 33.6787 48.7629 33.5981 49.3274 33.4494C50.3177 33.1898 51.0586 32.9378 51.4517 32.7892C52.0943 32.5473 52.2303 32.3053 51.5449 32.2297C50.6982 32.1365 48.6546 32.3784 48.0951 32.5422C48.1102 32.5069 48.1153 32.4792 48.1052 32.4641C48.0069 32.3154 47.4626 32.4213 46.883 32.643C47.0468 32.4843 46.9486 32.3961 46.6562 32.386C46.2505 32.3734 45.5223 32.4591 44.8293 32.7665C45.0586 32.5447 44.9628 32.4439 44.6403 32.4691C44.3505 32.4641 43.7961 32.5699 43.2064 32.8875C43.3627 32.6884 43.2543 32.6128 42.957 32.6506C42.6294 32.6607 41.9717 32.8345 41.324 33.2881C41.3341 33.2705 41.3442 33.2554 41.3593 33.2377C41.3971 33.1747 41.5962 32.827 41.5433 32.7791C41.4274 32.6859 40.9032 32.7791 40.4345 33.0361C40.2606 33.1319 40.0742 33.2806 39.8826 33.467C39.9028 33.4267 39.923 33.3864 39.9456 33.3436C40.0061 33.215 40.0338 33.1092 39.9734 33.0664C39.8398 32.9706 39.3912 33.0462 38.8999 33.3562C38.6529 33.5149 38.348 33.777 38.033 34.092C38.1288 33.9131 38.1968 33.7266 38.1262 33.6762C37.9952 33.5804 37.5441 33.6535 37.0553 33.966C36.773 34.1449 36.4152 34.4624 36.0574 34.8379C36.1405 34.659 36.2086 34.47 36.1405 34.4145C36.0221 34.3213 35.6365 34.3767 35.2207 34.6565C35.0469 34.7724 34.8428 34.9538 34.6286 35.1781C34.6386 35.1277 34.6336 35.0924 34.6084 35.0773C34.5026 35.0042 34.1346 35.1 33.7189 35.352C33.4719 35.5032 33.1594 35.7929 32.8495 36.1382C32.8722 36.0701 32.8747 36.0223 32.847 36.0046C32.7588 35.9467 32.3959 36.0651 32.0582 36.2717C31.8264 36.4128 31.529 36.6951 31.2468 37.0151C31.2443 37.0101 31.2392 37.0025 31.2342 36.9975C31.1737 36.9546 30.9217 37.0151 30.6949 37.1613C30.448 37.3175 30.2943 37.4586 30.1456 37.5922C29.2913 38.3633 28.7848 38.4893 27.797 38.7992C27.8625 38.7161 27.9507 38.5951 28.0187 38.512C28.9058 37.446 29.193 37.4813 30.1758 36.7707C30.3119 36.6699 30.4455 36.5363 30.4883 36.4532C30.5135 36.4103 30.5211 36.3725 30.516 36.3473C30.511 36.3297 30.4959 36.3221 30.4707 36.3171C30.7982 36.1785 31.0931 36.0197 31.2821 35.8786C31.4811 35.7274 31.6727 35.5284 31.7382 35.4074C31.7709 35.3419 31.7861 35.289 31.781 35.2537C31.7684 35.2108 31.7029 35.2033 31.6147 35.2134C31.5895 35.2159 31.5693 35.2209 31.5441 35.2234C31.9322 35.0546 32.2749 34.8681 32.4992 34.6968C32.7411 34.5128 32.9755 34.2684 33.0561 34.1172C33.099 34.0391 33.1166 33.9735 33.1065 33.9332C33.1065 33.9282 33.1065 33.9282 33.104 33.9231C33.4114 33.8022 33.676 33.6712 33.8625 33.5426C34.1321 33.3612 34.3841 33.1067 34.4673 32.9505C34.5101 32.8648 34.5252 32.7942 34.5101 32.7463C34.4925 32.6833 34.3967 32.6707 34.2682 32.6733C34.1876 32.6758 34.1044 32.6808 34.0263 32.6859C34.6008 32.4943 35.1174 32.265 35.44 32.0458C35.7625 31.8266 36.0649 31.5242 36.1632 31.3377C36.2136 31.2369 36.2338 31.1512 36.2161 31.0933C36.196 31.0177 36.08 31.0025 35.9263 31.0051C35.8331 31.0101 35.7398 31.0151 35.6491 31.0202C36.1657 30.8413 36.6168 30.6447 36.9041 30.4557C37.4257 30.113 37.6726 29.7073 37.6172 29.5309C37.592 29.4503 37.466 29.4326 37.3047 29.4351C37.1661 29.4351 37.0301 29.4402 36.8915 29.4477C37.5089 29.2058 38.0532 28.9412 38.3984 28.6993C38.9805 28.286 39.2753 27.8098 39.2224 27.6183C39.1997 27.5275 39.0662 27.5099 38.8873 27.5225C38.6126 27.5376 38.3379 27.5653 38.0607 27.6006C38.7688 27.3411 39.4089 27.0412 39.7944 26.769C40.3791 26.3532 40.6714 25.8795 40.6185 25.6855C40.5958 25.5973 40.4622 25.5821 40.2833 25.5922C40.112 25.5998 39.9431 25.6149 39.7718 25.6351C40.1649 25.4637 40.5025 25.2848 40.7394 25.1185C41.2812 24.7354 41.5508 24.297 41.503 24.1206C41.4803 24.0374 41.3568 24.0223 41.193 24.0299C41.0972 24.0374 41.0015 24.045 40.9057 24.0525C41.3744 23.8106 41.7902 23.5057 42.0926 23.1907C42.4757 22.7926 42.579 22.5204 42.4857 22.4398C42.3925 22.3617 42.1279 22.4146 41.8381 22.5002L41.8306 22.5028C42.5891 21.9685 43.1308 21.2529 43.3677 20.8144C43.5668 20.449 43.4862 20.2953 43.0628 20.4767L43.0124 20.4969C44.0909 19.7006 44.6907 18.6271 44.5445 18.3625C44.4966 18.2743 44.3429 18.3071 44.1539 18.3675C44.9099 17.8081 45.2073 17.2134 45.3307 16.9488C45.3635 16.8732 45.3433 16.8279 45.2803 16.8077C45.5071 16.596 45.7919 16.2684 46.248 15.7166C47.0468 14.7464 47.6012 13.9627 47.886 13.5343C48.3522 12.8212 48.3018 12.4936 47.5659 12.9068C46.6512 13.4209 44.789 15.1244 44.3505 15.6914C44.3429 15.6435 44.3253 15.6132 44.3026 15.6057C44.096 15.525 43.6273 16.0215 43.214 16.659C43.2594 16.3844 43.0981 16.3642 42.8007 16.5633C42.3824 16.843 41.7172 17.4503 41.2535 18.2541C41.314 17.8661 41.1502 17.8333 40.8427 18.0904C40.5504 18.2945 40.0741 18.7985 39.7188 19.5343C39.7264 19.2243 39.5626 19.2243 39.293 19.4763C38.9755 19.7233 38.4437 20.3684 38.1313 21.2856C38.1313 21.2579 38.1288 21.2327 38.1288 21.21C38.1237 21.1218 38.0658 20.6279 37.9776 20.6204C37.7911 20.6053 37.3375 21.0765 37.0578 21.6687C36.9545 21.8879 36.8789 22.1727 36.8234 22.4952C36.8133 22.4398 36.8058 22.3843 36.7932 22.3289C36.7604 22.1575 36.7125 22.0315 36.6168 22.0315C36.4152 22.029 36.0221 22.4272 35.76 23.0874C35.629 23.4251 35.5156 23.9039 35.4375 24.4431C35.3971 24.1937 35.3316 23.9618 35.2207 23.9618C35.0191 23.9618 34.626 24.3574 34.364 25.0202C34.2153 25.4007 34.0893 25.9702 34.0087 26.6027C33.9608 26.3658 33.8877 26.129 33.7793 26.1214C33.5954 26.1113 33.2501 26.4465 33.041 27.021C32.9452 27.2806 32.8696 27.6409 32.8218 28.0517C32.789 27.9786 32.7512 27.9307 32.7058 27.9307C32.5294 27.9232 32.1666 28.349 31.9549 28.9034C31.8289 29.231 31.7382 29.7174 31.6878 30.2516C31.6575 30.1634 31.6197 30.1029 31.5744 30.1004C31.4257 30.0954 31.1233 30.4507 30.9469 30.9143C30.8638 31.1311 30.7982 31.4309 30.7554 31.7711C30.6143 31.8417 30.3749 32.1516 30.2161 32.5296C30.1078 32.7816 30.0145 33.1495 29.9465 33.5552C29.9289 33.4922 29.9087 33.457 29.8759 33.4595C29.7751 33.462 29.5408 33.7417 29.3921 34.092C29.2913 34.3364 29.2056 34.7043 29.1502 35.0974C29.1401 35.0647 29.1225 35.047 29.1048 35.047C29.0318 35.047 28.873 35.236 28.7773 35.478C28.6714 35.7375 28.6261 35.9341 28.5857 36.1231C28.3337 37.2696 27.9759 37.5846 27.3031 38.5019L27.2804 38.5321C27.2829 38.4641 27.2829 38.391 27.2829 38.3129C27.2854 37.1184 27.1771 36.6296 27.6861 35.4956C27.7668 35.3091 27.855 35.1151 27.928 34.8278C27.9961 34.5632 27.9784 34.3037 27.9154 34.2583C27.9003 34.2457 27.8751 34.2533 27.8449 34.2734C28.0465 33.903 28.2052 33.5351 28.2707 33.268C28.364 32.8749 28.3413 32.4969 28.2581 32.4313C28.2304 32.4112 28.1901 32.4238 28.1397 32.4691C28.3312 32.0836 28.4849 31.7132 28.553 31.4284C28.6513 31.0076 28.6437 30.5968 28.5706 30.4507C28.7445 30.1332 28.878 29.8383 28.941 29.6014C29.0847 29.1 29.0469 28.6086 28.9209 28.5229C28.8781 28.4927 28.8075 28.5229 28.7269 28.5809C29.0192 28.0945 29.246 27.6233 29.3442 27.2655C29.5131 26.6657 29.4702 26.076 29.319 25.9778C29.2787 25.9501 29.2157 25.9677 29.1426 26.0105C29.3594 25.6275 29.5232 25.2747 29.6013 24.9975C29.7852 24.3751 29.7021 23.8787 29.5383 23.7728C29.4425 23.7149 29.2283 23.8711 29.0393 24.045C29.3669 23.4578 29.6189 22.8934 29.7298 22.475C29.9238 21.7493 29.8381 21.1697 29.6643 21.0462C29.5685 20.9807 29.3669 21.1395 29.1779 21.326C29.4476 20.8169 29.6567 20.3381 29.7525 19.9727C29.9465 19.247 29.8608 18.6649 29.6844 18.5414C29.6063 18.486 29.4854 18.5616 29.3468 18.6901C29.3039 18.7304 29.2611 18.7707 29.2182 18.8136C29.3745 18.5036 29.4904 18.2138 29.5383 17.9669C29.6718 17.2865 29.5786 16.6061 29.4123 16.5053C29.3316 16.4574 28.9738 16.843 28.9133 16.9161C28.8982 16.9362 28.8806 16.9589 28.8629 16.9791C29.1754 16.0038 29.125 15.1294 29.0066 14.7237C28.9335 14.3432 28.7949 14.2424 28.6084 14.512C28.7672 13.6653 28.679 12.9421 28.5555 12.5893C28.4547 12.1836 28.2934 12.108 28.1044 12.4784C28.2128 11.5083 28.0263 10.5834 27.8449 10.0895C27.7164 9.73674 27.5677 9.65359 27.4316 9.91566C27.4795 9.11684 27.3913 8.40873 27.167 8.34825C27.1418 8.34069 27.1091 8.35833 27.0687 8.38857C27.0536 7.64015 26.532 5.04461 26.0734 4.04671C25.6853 3.20001 25.4534 3.55029 25.4106 4.38439C25.3829 4.92365 25.3602 5.93415 25.4333 7.25208C25.4761 8.00302 25.5164 8.45661 25.5744 8.77665C25.5089 8.75397 25.4635 8.77917 25.4434 8.86736C25.3829 9.16724 25.2619 9.86022 25.5542 10.8002C25.4333 10.6288 25.3199 10.5078 25.2241 10.5532C24.9343 10.6918 24.7705 11.9745 25.1914 13.3151L25.1611 13.2672C24.9142 12.8539 24.7479 12.932 24.6899 13.3705C24.6143 13.8871 24.6294 14.8295 24.9394 15.7544L24.9318 15.7443C24.7403 15.4948 24.5488 15.2857 24.4203 15.2957C24.2867 15.3083 24.2061 15.6057 24.2842 16.1802C24.3447 16.6338 24.511 17.1479 24.7529 17.6418C24.6773 17.5763 24.5992 17.5108 24.5236 17.4503C24.39 17.3419 24.2716 17.2764 24.2036 17.3318C24.0498 17.4553 24.0045 17.9971 24.2288 18.6523C24.3245 18.9396 24.5009 19.2999 24.7277 19.688C24.5941 19.567 24.4556 19.4486 24.317 19.3352C24.1708 19.2193 24.0473 19.1487 23.9717 19.2117C23.8054 19.3453 23.7575 19.9299 23.9969 20.6431C24.1532 21.1092 24.511 21.7594 24.952 22.4146C24.7378 22.2155 24.5211 22.024 24.2968 21.84C24.1506 21.7216 24.0246 21.6561 23.949 21.714C23.7827 21.8476 23.7348 22.4322 23.9768 23.1454C24.1154 23.5637 24.4152 24.1256 24.7907 24.7052C24.6748 24.617 24.5614 24.5288 24.4455 24.4431C24.3069 24.3423 24.1884 24.2818 24.1179 24.3348C23.9616 24.4482 23.9138 24.9496 24.1431 25.5595C24.2716 25.8971 24.5311 26.3432 24.8613 26.8119C24.7857 26.7489 24.7101 26.6909 24.6319 26.6304C24.506 26.5322 24.3976 26.4742 24.3321 26.5271C24.2792 26.5649 24.2439 26.6481 24.2237 26.7665C24.1859 26.9883 24.2565 27.4293 24.3926 27.8148C24.5312 28.2004 24.8285 28.7119 25.2015 29.2285C25.1359 29.1756 25.0679 29.1227 25.0024 29.0697C24.8965 28.9866 24.8033 28.9412 24.7479 28.9841C24.705 29.0143 24.6748 29.0849 24.6597 29.1831C24.6294 29.3671 24.6874 29.74 24.8008 30.0626C24.8814 30.2818 25.0251 30.5565 25.209 30.8488C25.2065 30.8488 25.2015 30.8513 25.1989 30.8564C25.1637 30.8841 25.141 30.9521 25.1284 31.0454C25.1032 31.2218 25.1485 31.5746 25.2393 31.8795C25.3224 32.1642 25.5013 32.5347 25.7231 32.9152C25.7054 32.8975 25.6878 32.8799 25.6702 32.8623C25.5996 32.8018 25.5391 32.764 25.5038 32.7967C25.4761 32.8219 25.4534 32.8749 25.4434 32.953C25.4232 33.0966 25.461 33.3839 25.5366 33.6334C25.6072 33.8727 25.7584 34.1852 25.9524 34.5078C25.9297 34.4952 25.9096 34.4927 25.8944 34.5053C25.8743 34.5229 25.8592 34.5607 25.8491 34.6111C25.834 34.7094 25.8642 34.9059 25.9196 35.0748C26.3102 36.2843 26.5799 36.4305 26.6655 37.8845C26.6882 38.3003 26.8193 38.6632 26.5068 38.1844C25.771 37.0428 25.8944 36.7883 25.5215 35.6669C25.4686 35.5082 25.3829 35.3469 25.3174 35.2814C25.2821 35.2461 25.2519 35.226 25.2241 35.2234C25.209 35.2234 25.1939 35.236 25.1813 35.2587C25.1511 34.9135 25.0906 34.5935 25.015 34.3767C24.9343 34.1474 24.8033 33.9105 24.7075 33.8148C24.6597 33.7619 24.6143 33.7316 24.579 33.7291C24.5312 33.7216 24.5085 33.782 24.4883 33.8677C24.4833 33.8904 24.4808 33.9131 24.4757 33.9357C24.4354 33.53 24.3623 33.152 24.2716 32.895C24.1683 32.6153 24.0095 32.328 23.8961 32.2071C23.8331 32.1441 23.7777 32.1063 23.7348 32.1012C23.7323 32.1012 23.7273 32.1012 23.7248 32.1012C23.7046 31.7837 23.6618 31.499 23.5988 31.2923C23.5055 30.9874 23.3468 30.6775 23.2208 30.554C23.1553 30.4859 23.0923 30.4507 23.0419 30.4481C22.9789 30.4456 22.9335 30.5313 22.9007 30.6523C22.8781 30.7253 22.8579 30.8009 22.8377 30.8791C22.8302 30.2894 22.7722 29.7426 22.6664 29.3822C22.5555 29.0168 22.364 28.6439 22.2153 28.4977C22.1347 28.4196 22.0591 28.3768 22.0011 28.3742C21.923 28.3717 21.8726 28.475 21.8323 28.6161C21.8046 28.7018 21.7819 28.79 21.7592 28.8757C21.7491 28.3465 21.6987 27.8702 21.608 27.5477C21.4442 26.9656 21.1343 26.6103 20.9554 26.6103C20.8697 26.6103 20.8142 26.7186 20.7638 26.8698C20.7235 26.9933 20.6882 27.1218 20.653 27.2503C20.6152 26.6103 20.5295 26.0282 20.406 25.6401C20.1918 24.9723 19.834 24.559 19.6349 24.549C19.5442 24.5414 19.4862 24.6598 19.4434 24.8287C19.3753 25.0832 19.3174 25.3478 19.2645 25.6124C19.2367 24.8816 19.146 24.2037 19.0074 23.7653C18.7958 23.1 18.4354 22.6842 18.2363 22.6741C18.1456 22.6666 18.0902 22.7875 18.0448 22.9538C18.002 23.1151 17.9667 23.2764 17.9289 23.4377C17.8886 23.0244 17.8205 22.659 17.7374 22.3919C17.5408 21.777 17.2082 21.394 17.0268 21.3839C16.9411 21.3789 16.8907 21.4898 16.8504 21.6409C16.8252 21.7317 16.805 21.8199 16.7823 21.9131C16.6941 21.4091 16.5354 20.9328 16.3313 20.5574C16.0717 20.0836 15.8474 19.9047 15.7416 19.9652C15.6358 20.0282 15.608 20.2877 15.603 20.5775V20.5901C15.3258 19.7283 14.8143 19.0101 14.4741 18.6599C14.1893 18.365 14.0205 18.3927 14.0633 18.8363L14.0683 18.8892C13.6425 17.6544 12.8109 16.7749 12.5161 16.8279C12.4203 16.8455 12.4027 16.9967 12.4052 17.1907C12.1078 16.3239 11.6341 15.8678 11.4249 15.6762C11.3619 15.6183 11.3115 15.6258 11.2763 15.6762C11.1402 15.4041 10.9184 15.0412 10.5379 14.4516C9.86509 13.4234 9.29558 12.6725 8.97303 12.2794C8.4514 11.6393 8.12129 11.5713 8.2876 12.3827C8.49424 13.3831 9.53498 15.6158 9.93565 16.1903C9.88777 16.1853 9.85501 16.1928 9.83737 16.2105C9.70129 16.3768 10.0264 16.9589 10.5026 17.5334C10.2557 17.41 10.1902 17.5511 10.2884 17.8862C10.4245 18.3524 10.7949 19.1538 11.4098 19.8266C11.0646 19.6477 10.9839 19.7913 11.1326 20.1542C11.2334 20.4843 11.566 21.0765 12.1532 21.6283C11.8634 21.525 11.813 21.6762 11.9692 22.0013C12.1028 22.3692 12.5513 23.0572 13.3224 23.6216C13.2972 23.6141 13.272 23.6065 13.2494 23.6015C13.1637 23.5788 12.6799 23.483 12.6471 23.5611C12.5791 23.7275 12.8815 24.2894 13.3577 24.7279C13.5316 24.8892 13.776 25.0454 14.0658 25.1941C14.0129 25.1865 13.955 25.1764 13.8995 25.1714C13.7282 25.1487 13.5946 25.1563 13.5644 25.2419C13.5014 25.4284 13.7584 25.9123 14.3027 26.3532C14.5774 26.5775 14.9982 26.827 15.4846 27.0664C15.2376 27.0261 14.9957 27.016 14.9629 27.1143C14.8999 27.3033 15.1544 27.7846 15.7013 28.2281C16.0163 28.4826 16.5152 28.7699 17.0872 29.0395C16.8478 29.0118 16.6009 29.0042 16.5631 29.1025C16.4951 29.2713 16.7067 29.6896 17.188 30.0576C17.4022 30.2239 17.7197 30.4028 18.0927 30.5741C18.0146 30.5817 17.9566 30.6019 17.9415 30.6422C17.8835 30.8009 18.1759 31.2671 18.6345 31.63C18.9041 31.8442 19.335 32.076 19.8239 32.2877C19.7332 32.2877 19.6626 32.3028 19.6475 32.3457C19.5971 32.4792 19.8415 32.8673 20.2271 33.1722C20.406 33.3133 20.6681 33.4645 20.973 33.6107C21.0007 33.7619 21.2199 34.0769 21.5274 34.3364C21.734 34.5128 22.054 34.7119 22.4144 34.8958C22.3489 34.8933 22.3086 34.9034 22.301 34.9336C22.2733 35.0269 22.4673 35.3268 22.7546 35.5712C22.9486 35.7375 23.2737 35.929 23.629 36.0979C23.5937 36.1004 23.5736 36.1105 23.566 36.1256C23.5433 36.1936 23.6744 36.3977 23.8734 36.5615C24.0851 36.7379 24.2565 36.8387 24.4228 36.932C25.403 37.4989 25.6097 37.9173 26.2271 38.769C26.1994 38.7589 26.1691 38.7463 26.1389 38.7337C25.0301 38.3356 24.5387 38.2726 23.6618 37.4208C23.5156 37.2797 23.3644 37.1336 23.1275 36.9698C22.9033 36.8186 22.6538 36.748 22.5933 36.7908C22.5883 36.7934 22.5832 36.7984 22.5807 36.806C22.3086 36.4758 22.0213 36.1861 21.7945 36.0349C21.4644 35.8156 21.104 35.6846 21.0158 35.7425C20.9881 35.7577 20.9881 35.8055 21.0108 35.8736C20.7109 35.5183 20.4085 35.2184 20.1666 35.0596C19.7609 34.7925 19.3955 34.6867 19.2871 34.7547C19.262 34.7698 19.2569 34.8026 19.2619 34.853C19.0578 34.6237 18.8588 34.4347 18.6899 34.3137C18.2842 34.0214 17.8987 33.9483 17.7802 34.0391C17.7122 34.0895 17.7701 34.2835 17.8483 34.4649C17.503 34.0769 17.1578 33.7493 16.8806 33.5603C16.4043 33.2327 15.9558 33.142 15.8222 33.2327C15.7492 33.2831 15.8121 33.467 15.9003 33.6535C15.5954 33.3259 15.3006 33.0538 15.0587 32.89C14.5799 32.5599 14.1313 32.4691 13.9978 32.5599C13.9373 32.6027 13.96 32.7085 14.0154 32.8396C14.0331 32.8824 14.0532 32.9227 14.0709 32.963C13.8894 32.7715 13.708 32.6153 13.5366 32.5145C13.0755 32.2398 12.5564 32.1289 12.4379 32.2222C12.3825 32.265 12.569 32.6229 12.6068 32.6859L12.6395 32.7363C12.0096 32.26 11.3569 32.0634 11.0293 32.0433C10.7345 31.9929 10.6236 32.0685 10.7697 32.2701C10.1952 31.9324 9.64333 31.8089 9.35606 31.8039C9.03099 31.7686 8.93271 31.8644 9.15194 32.0962C8.47408 31.7636 7.74834 31.6552 7.34011 31.6527C7.05031 31.6527 6.94699 31.7358 7.10575 31.9022C6.53372 31.6602 5.99446 31.5368 5.89114 31.6804C5.87854 31.698 5.88106 31.7258 5.89618 31.7585C5.34179 31.5746 3.31324 31.2646 2.4615 31.3301C1.77355 31.3805 1.90207 31.625 2.53458 31.8921C2.92265 32.0534 3.65343 32.3305 4.63369 32.6254C5.19312 32.7942 5.53583 32.8849 5.7853 32.9253C5.75254 32.9681 5.75758 33.0059 5.81806 33.0412C6.02218 33.1646 6.49341 33.4318 7.25947 33.4696C7.10071 33.5124 6.98479 33.5603 6.99235 33.6409C7.01755 33.8828 7.91213 34.3364 9.00075 34.3893L8.95791 34.3969C8.59 34.4649 8.60512 34.6061 8.91003 34.7598C9.26786 34.9488 9.95832 35.1856 10.7143 35.2083L10.7067 35.2108C10.4724 35.2814 10.2708 35.362 10.2456 35.4578C10.2204 35.5561 10.4144 35.6896 10.8529 35.7854C11.2007 35.8635 11.6215 35.8786 12.0474 35.8358C11.9768 35.8736 11.9113 35.9089 11.8432 35.9492C11.7298 36.0147 11.6542 36.0827 11.6769 36.1457C11.7248 36.2869 12.1078 36.4607 12.6446 36.4758C12.8815 36.4809 13.1914 36.4506 13.5341 36.3902C13.4081 36.4532 13.2872 36.5212 13.1687 36.5892C13.0453 36.6623 12.9621 36.7329 12.9873 36.806C13.0427 36.9572 13.456 37.1462 14.0406 37.1613C14.4237 37.1714 14.9906 37.0882 15.5854 36.9446C15.3812 37.0479 15.1847 37.1512 14.9932 37.2621C14.8697 37.3351 14.784 37.4057 14.8117 37.4763C14.8647 37.63 15.2779 37.8165 15.8625 37.8316C16.2053 37.8442 16.6916 37.7761 17.2158 37.6627C17.12 37.7207 17.0268 37.7761 16.9335 37.8391C16.8226 37.9122 16.747 37.9803 16.7672 38.0458C16.8075 38.1844 17.1654 38.3507 17.6693 38.3456C17.9012 38.3456 18.2137 38.2952 18.5589 38.2171C18.511 38.2549 18.4883 38.2952 18.5034 38.3305C18.5236 38.3734 18.579 38.4162 18.6672 38.454C18.826 38.5246 19.1712 38.5775 19.4862 38.575C19.7659 38.5699 20.1364 38.5195 20.5244 38.4313L20.5169 38.4338C20.4362 38.4792 20.3783 38.5246 20.3984 38.5674C20.411 38.6027 20.4539 38.6405 20.5219 38.6783C20.6479 38.7438 20.9276 38.8043 21.1847 38.8169C21.4316 38.8295 21.7769 38.7892 22.1422 38.7161C22.1221 38.7337 22.1145 38.7539 22.1196 38.7715C22.1296 38.7967 22.1599 38.8219 22.2052 38.8471C22.2909 38.895 22.4824 38.9328 22.6588 38.9353C23.9163 38.9706 24.1456 38.769 25.524 39.1722C25.7306 39.2301 25.9297 39.2931 26.1313 39.3511C25.461 39.5779 25.1133 39.7215 24.2867 39.6308C24.133 39.6132 23.9742 39.5981 23.7525 39.6107C23.5459 39.6233 23.3644 39.6963 23.3493 39.7518C23.3468 39.7543 23.3468 39.7593 23.3493 39.7669C23.0267 39.6938 22.7193 39.656 22.5127 39.6711C22.2103 39.6938 21.9356 39.782 21.9079 39.8551C21.9003 39.8778 21.923 39.9055 21.9684 39.9383C21.6206 39.8652 21.2981 39.8249 21.0763 39.8425C20.7084 39.8727 20.4388 39.976 20.406 40.0693C20.401 40.0894 20.411 40.1146 20.4388 40.1398C20.2094 40.097 20.0003 40.0794 19.8415 40.0844C19.461 40.097 19.1964 40.2331 19.1687 40.3414C19.1511 40.407 19.2771 40.4926 19.4106 40.5632C19.0226 40.4926 18.6597 40.4574 18.4052 40.4725C17.9642 40.5002 17.6542 40.6539 17.6164 40.7698C17.5963 40.8328 17.7223 40.916 17.8634 40.984C17.5257 40.9311 17.2208 40.9034 16.999 40.9185C16.5555 40.9437 16.2456 41.0974 16.2078 41.2159C16.1927 41.2713 16.2557 41.3217 16.3514 41.3721C16.3817 41.3897 16.4144 41.4074 16.4447 41.42C16.2431 41.3923 16.0616 41.3822 15.9129 41.3998C15.5072 41.4502 15.1418 41.6266 15.1166 41.735C15.104 41.7879 15.3838 41.9139 15.4392 41.934L15.482 41.9492C14.8798 41.9567 14.3985 42.1432 14.1893 42.2818C13.9928 42.3902 13.96 42.4859 14.1465 42.5388C13.64 42.6069 13.2519 42.7858 13.078 42.9168C12.8689 43.0453 12.8563 43.1487 13.0982 43.1839C12.5337 43.3024 12.0474 43.5745 11.8054 43.761C11.6316 43.8971 11.6114 43.9928 11.7828 44.0206C11.3267 44.139 10.9487 44.3154 10.9537 44.4515C10.9537 44.4641 10.9688 44.4792 10.994 44.4943C10.5757 44.643 9.21746 45.3964 8.74119 45.8299C8.35564 46.1827 8.54716 46.2683 9.05115 46.1323C9.35858 46.0491 9.92809 45.8752 10.6538 45.598C11.0671 45.4368 11.3166 45.3334 11.4829 45.2427C11.4829 45.283 11.5056 45.3032 11.5585 45.2956C11.7374 45.2755 12.1482 45.215 12.6219 44.8849C12.5488 44.9832 12.5009 45.0663 12.5413 45.1066C12.6723 45.2427 13.4207 45.0966 14.0986 44.6228L14.0759 44.648C13.8894 44.8597 13.965 44.9353 14.2195 44.8874C14.5245 44.8345 15.0511 44.6556 15.5098 44.3154L15.5072 44.3229C15.4014 44.4716 15.3208 44.6153 15.351 44.6833C15.3787 44.7539 15.5602 44.7438 15.8701 44.5976C16.112 44.4817 16.3716 44.2977 16.6034 44.0735C16.5807 44.1264 16.5581 44.1793 16.5379 44.2348C16.5001 44.328 16.485 44.4036 16.5303 44.4313C16.6286 44.4918 16.9386 44.4187 17.2662 44.1768C17.4098 44.071 17.5786 43.9097 17.755 43.7131C17.7122 43.8089 17.6693 43.9046 17.6315 44.0029C17.5937 44.1037 17.5786 44.1844 17.624 44.2146C17.7298 44.2801 18.0675 44.202 18.4228 43.9399C18.6546 43.7686 18.9545 43.4561 19.2418 43.0957C19.1687 43.2495 19.1007 43.4032 19.0377 43.5594C18.9999 43.6602 18.9848 43.7408 19.0326 43.7686C19.1385 43.8366 19.4736 43.756 19.8289 43.4964C20.0381 43.3427 20.3002 43.0756 20.5547 42.7656C20.5244 42.8437 20.4967 42.9219 20.4715 43.0025C20.4388 43.0957 20.4287 43.1713 20.469 43.2016C20.5622 43.2646 20.852 43.1991 21.1494 42.9647C21.288 42.8538 21.4518 42.6799 21.6206 42.4733C21.6105 42.5187 21.6156 42.5539 21.6408 42.5665C21.6735 42.5817 21.729 42.5817 21.797 42.564C21.9255 42.5338 22.1599 42.4053 22.3438 42.2541C22.5102 42.123 22.7067 41.9214 22.8957 41.6896L22.8932 41.6946C22.8655 41.7602 22.8529 41.8106 22.8856 41.8307C22.9108 41.8433 22.9537 41.8458 23.0116 41.8358C23.1175 41.8181 23.314 41.7224 23.4728 41.6115C23.6265 41.5057 23.813 41.3217 23.9944 41.1075C23.9919 41.1277 23.9969 41.1453 24.0095 41.1503C24.0246 41.1604 24.0549 41.1629 24.0952 41.1579C24.1683 41.1478 24.3018 41.0798 24.4077 41.0017C25.1007 40.4926 25.1989 40.2583 25.9549 39.9257C26.4312 39.714 26.5597 39.5905 26.217 40.0542C25.9398 40.4271 25.7357 40.669 25.1939 40.9613C25.0755 41.0243 24.957 41.0899 24.8083 41.2033C24.6697 41.3116 24.579 41.4527 24.5941 41.5006C24.5967 41.5031 24.5992 41.5057 24.6017 41.5082C24.3422 41.614 24.1053 41.735 23.9667 41.8458C23.7676 42.0071 23.6189 42.2037 23.6341 42.2692C23.6441 42.302 23.7096 42.3045 23.8079 42.2894C23.503 42.4128 23.2309 42.5489 23.0746 42.6774C22.8377 42.8689 22.7067 43.068 22.7269 43.1461C22.737 43.1739 22.7823 43.1839 22.8503 43.1814C22.737 43.2394 22.6387 43.3049 22.5681 43.3679C22.3438 43.5644 22.2002 43.824 22.233 43.8996C22.2456 43.9349 22.4698 43.8946 22.5076 43.8845L22.5429 43.8769C22.1826 44.1314 21.9709 44.4439 21.9079 44.6127C21.8348 44.7614 21.855 44.832 21.986 44.7866C21.7139 45.0361 21.5551 45.3057 21.5072 45.4569C21.4341 45.6207 21.4719 45.6888 21.6332 45.6106C21.3434 45.913 21.1645 46.2809 21.099 46.4951C21.0511 46.6489 21.0813 46.7144 21.1947 46.6589C20.973 46.9185 20.8193 47.1831 20.8798 47.2637C20.8873 47.2713 20.9024 47.2738 20.9251 47.2713C20.7336 47.5334 20.2397 48.5539 20.1364 49.01C20.0507 49.383 20.2044 49.3553 20.4514 49.0655C20.6 48.8866 20.8697 48.5464 21.1872 48.0751C21.3686 47.808 21.4745 47.6442 21.5349 47.5182C21.5526 47.5434 21.5753 47.546 21.6055 47.5208C21.7038 47.4326 21.923 47.2259 22.0692 46.8303C22.0666 46.921 22.0742 46.9916 22.117 46.9991C22.2531 47.0243 22.6412 46.6262 22.8478 46.0617L22.8453 46.0844C22.8226 46.2885 22.9007 46.3036 23.0343 46.1701C23.1931 46.0088 23.435 45.6837 23.5685 45.2906V45.2956C23.5685 45.4292 23.5786 45.5502 23.6265 45.5779C23.6769 45.6081 23.7802 45.5275 23.9012 45.3108C23.9994 45.1394 24.0776 44.9202 24.1229 44.6909C24.1305 44.7312 24.138 44.774 24.1506 44.8143C24.1683 44.8874 24.191 44.9378 24.2288 44.9353C24.3144 44.9303 24.4682 44.7589 24.5639 44.4792C24.6067 44.3557 24.6395 44.1919 24.6597 44.0029C24.6723 44.0558 24.6849 44.1088 24.6975 44.1592C24.7176 44.2272 24.7403 44.2751 24.7781 44.27C24.8083 44.265 24.8436 44.2398 24.8839 44.197C24.957 44.1138 25.0503 43.9172 25.1057 43.7282C25.1637 43.5317 25.204 43.252 25.2166 42.9571C25.2241 43 25.2317 43.0428 25.2393 43.0831C25.2519 43.1411 25.2695 43.1839 25.2997 43.1814C25.3275 43.1814 25.3577 43.1613 25.393 43.126C25.4585 43.0605 25.5517 42.8992 25.6072 42.7455C25.6601 42.5943 25.7004 42.375 25.7231 42.1382C25.7306 42.1533 25.7407 42.1634 25.7533 42.1608C25.771 42.1608 25.7911 42.1482 25.8188 42.1256C25.8642 42.0802 25.9247 41.9693 25.96 41.8635C26.1817 41.2058 26.149 40.9815 26.4589 40.4448C26.5295 40.3288 26.5773 40.2406 26.6126 40.1802C26.4816 43.4057 26.6504 46.349 26.9503 48.8891C27.0489 49.7239 27.7241 49.5171 27.6382 48.8891C27.3056 46.4573 27.1166 43.6249 27.2476 40.4876C27.6609 41.1403 27.5475 41.2537 27.7819 41.9592C27.8172 42.0651 27.8776 42.1734 27.9205 42.2163C27.9457 42.2415 27.9658 42.2541 27.9835 42.2541C27.9961 42.2541 28.0036 42.244 28.0137 42.2289C28.0339 42.4607 28.0717 42.6774 28.1246 42.8211C28.1775 42.9748 28.2657 43.1285 28.3312 43.194C28.364 43.2268 28.3942 43.2469 28.4194 43.2495C28.4522 43.2495 28.4673 43.2091 28.4799 43.1537C28.49 43.1134 28.495 43.0731 28.5026 43.0327C28.5127 43.3175 28.5505 43.5922 28.6059 43.7837C28.6613 43.9651 28.7521 44.1592 28.8226 44.2398C28.8629 44.2826 28.8982 44.3078 28.9259 44.3129C28.9612 44.3179 28.9864 44.27 29.0015 44.2045C29.0166 44.1541 29.0292 44.1037 29.0418 44.0533C29.062 44.2348 29.0922 44.396 29.1326 44.5145C29.2258 44.7891 29.3745 44.958 29.4576 44.963C29.4929 44.9655 29.5181 44.9151 29.5358 44.8471C29.5458 44.8068 29.5534 44.7665 29.5635 44.7236C29.6063 44.9504 29.6794 45.1621 29.7751 45.3284C29.8936 45.5426 29.9969 45.6207 30.0423 45.593C30.0876 45.5628 30.1002 45.4468 30.1027 45.3158V45.3108C30.2313 45.6963 30.4631 46.0163 30.6193 46.1726C30.7478 46.3036 30.8234 46.2885 30.8008 46.0894V46.0642C30.9973 46.6186 31.3753 47.0067 31.5089 46.9815C31.5492 46.9739 31.5593 46.9059 31.5567 46.8177C31.6953 47.2058 31.9095 47.4074 32.0053 47.493C32.0355 47.5182 32.0557 47.5157 32.0733 47.493C32.1338 47.614 32.2346 47.7753 32.4085 48.0373C32.7184 48.496 32.978 48.8286 33.1242 49.0025C33.3056 49.2192 33.5248 49.3805 33.4316 48.9546Z" fill="#5FB749"/>
<path fill-rule="evenodd" clip-rule="evenodd" d="M33.4316 48.9546C33.3333 48.5061 32.8545 47.5082 32.6706 47.2536C32.6907 47.2562 32.7058 47.2511 32.7134 47.2436C32.7739 47.168 32.6252 46.9084 32.406 46.6539C32.5194 46.7093 32.5471 46.6438 32.5017 46.4951C32.4387 46.2835 32.2674 45.9282 31.9877 45.6308C32.1439 45.7064 32.1792 45.6434 32.1086 45.4821C32.0633 45.3334 31.9095 45.0689 31.6449 44.8269C31.7735 44.8698 31.7961 44.8017 31.7231 44.6556C31.6626 44.4918 31.4559 44.1869 31.1082 43.9374L31.141 43.945C31.1788 43.955 31.3955 43.9979 31.4106 43.9601C31.4408 43.8845 31.2997 43.635 31.083 43.441C31.0124 43.378 30.9217 43.3175 30.8083 43.257C30.8764 43.2621 30.9217 43.252 30.9293 43.2243C30.9494 43.1487 30.8234 42.9546 30.5916 42.7656C30.4404 42.6396 30.1758 42.5036 29.8785 42.3851C29.9742 42.4002 30.0397 42.3977 30.0473 42.365C30.0649 42.302 29.9188 42.1104 29.7248 41.9517C29.5912 41.8433 29.3619 41.7249 29.1074 41.6216C29.1124 41.6165 29.1149 41.614 29.1174 41.6115C29.13 41.5661 29.0444 41.4301 28.9083 41.3242C28.7647 41.2108 28.6462 41.1453 28.5353 41.0848C27.9734 40.7799 27.7844 40.533 27.487 40.1247C26.6353 38.9555 28.7899 40.4246 29.0544 40.6892C29.1628 40.7976 29.2762 40.9084 29.4551 41.0369C29.6265 41.1554 29.8104 41.2108 29.8608 41.1781C29.8633 41.1755 29.8659 41.173 29.8684 41.1655C30.0725 41.42 30.2867 41.6442 30.4581 41.7602C30.705 41.929 30.9772 42.0348 31.0452 41.992C31.0679 41.9794 31.0679 41.9416 31.0528 41.8912C31.2745 42.1634 31.5013 42.3952 31.6827 42.5187C31.9877 42.7253 32.2623 42.811 32.348 42.7581C32.3656 42.748 32.3707 42.7203 32.3656 42.685C32.5194 42.8589 32.668 43.005 32.794 43.1008C33.1015 43.3276 33.3913 43.3855 33.4845 43.3175C33.5349 43.2772 33.4921 43.131 33.4366 42.9924C33.6937 43.2898 33.9532 43.5443 34.1598 43.6904C34.5202 43.945 34.8604 44.018 34.9637 43.95C35.0191 43.9147 34.9713 43.7711 34.9083 43.63C35.1325 43.8794 35.3543 44.0911 35.5383 44.2196C35.8986 44.4741 36.2363 44.5472 36.3396 44.4792C36.3875 44.4489 36.3698 44.3683 36.3295 44.2675C36.3169 44.2348 36.3018 44.2045 36.2892 44.1718C36.4228 44.3204 36.5614 44.4414 36.6899 44.5195C37.0351 44.7312 37.4307 44.8219 37.5215 44.7513C37.5643 44.7211 37.4232 44.4489 37.3955 44.4011L37.3728 44.3607C37.8465 44.7287 38.3404 44.8849 38.5874 44.9025C38.8117 44.9429 38.8948 44.8899 38.7865 44.7362C39.2199 44.9958 39.6357 45.0966 39.8574 45.1041C40.1019 45.1344 40.1775 45.0613 40.0137 44.8824C40.5252 45.1419 41.0771 45.2326 41.3845 45.2377C41.6063 45.2427 41.6844 45.1797 41.566 45.0512C41.9969 45.2427 42.4051 45.341 42.4857 45.2326C42.4933 45.22 42.4908 45.1999 42.4832 45.1747C42.899 45.3183 44.4387 45.5754 45.0863 45.535C45.6105 45.5023 45.5147 45.3158 45.0359 45.1092C44.7436 44.9832 44.1892 44.7614 43.4484 44.5296C43.0275 44.396 42.768 44.3229 42.579 44.2877C42.6042 44.2574 42.5991 44.2272 42.5538 44.1995C42.4001 44.1037 42.0447 43.8971 41.4652 43.8593C41.5836 43.829 41.6743 43.7938 41.6718 43.7333C41.6542 43.5493 40.9788 43.194 40.1523 43.1411L40.185 43.1386C40.4647 43.0907 40.4547 42.9849 40.2279 42.8614C39.9557 42.7177 39.4341 42.5262 38.8621 42.5036L38.8646 42.501C39.0435 42.4506 39.1997 42.3902 39.2174 42.3196C39.2401 42.2465 39.0939 42.1407 38.7613 42.0626C38.4967 42.0021 38.1792 41.9844 37.8566 42.0122C37.9095 41.987 37.9599 41.9567 38.0128 41.929C38.0985 41.8811 38.1565 41.8307 38.1414 41.7803C38.1036 41.6745 37.8163 41.5384 37.4081 41.5208C37.2291 41.5157 36.9923 41.5334 36.7352 41.5762C36.8285 41.5309 36.9217 41.4805 37.0124 41.4301C37.1057 41.3746 37.1687 41.3217 37.151 41.2688C37.1132 41.1503 36.8007 41.0042 36.3572 40.9865C36.0649 40.9739 35.6365 41.0319 35.1829 41.1352C35.3367 41.0596 35.4879 40.984 35.6365 40.9009C35.7298 40.8454 35.7928 40.7925 35.7751 40.7371C35.7373 40.6212 35.4249 40.475 34.9788 40.4574C34.7218 40.4473 34.3488 40.4926 33.9532 40.5733C34.0263 40.5304 34.0968 40.4876 34.1674 40.4422C34.2531 40.3868 34.311 40.3364 34.2959 40.2885C34.2657 40.1776 33.9986 40.0516 33.613 40.0491C33.4366 40.0466 33.1997 40.0819 32.9377 40.1373C32.973 40.1096 32.9931 40.0794 32.9805 40.0516C32.9654 40.0189 32.9226 39.9861 32.8596 39.9584C32.7386 39.9004 32.4765 39.8576 32.2371 39.8551C32.0229 39.8551 31.7432 39.8929 31.4459 39.9559L31.4534 39.9508C31.5139 39.9181 31.5593 39.8853 31.5441 39.8501C31.5341 39.8223 31.5013 39.7971 31.4509 39.7694C31.3552 39.714 31.1435 39.6661 30.9494 39.6535C30.763 39.6434 30.5009 39.6686 30.2212 39.7215C30.2363 39.7064 30.2439 39.6938 30.2388 39.6787C30.2338 39.6611 30.2111 39.6409 30.1758 39.6207C30.1128 39.5855 29.9667 39.5527 29.8331 39.5477C28.9259 39.5099 28.7218 39.6459 27.8121 39.3864C27.9457 39.3486 28.0817 39.3133 28.2203 39.278C29.6114 38.9227 29.8331 39.1344 31.0931 39.1419C31.2695 39.1445 31.4635 39.1117 31.5492 39.0689C31.5971 39.0462 31.6273 39.0185 31.6349 38.9933C31.6449 38.9782 31.6349 38.958 31.6172 38.9378C31.9776 39.026 32.3203 39.0764 32.5698 39.0714C32.8243 39.0689 33.1065 39.0185 33.2375 38.9555C33.3056 38.9227 33.3509 38.8849 33.3635 38.8522C33.3862 38.8068 33.3308 38.7614 33.2501 38.7136L33.2401 38.7085C33.6281 38.8118 33.9961 38.8748 34.2758 38.8874C34.5908 38.9026 34.9385 38.8622 35.0998 38.7967C35.188 38.7589 35.2459 38.7186 35.2661 38.6783C35.2837 38.643 35.2611 38.6052 35.2182 38.5649C35.5584 38.6556 35.8684 38.7136 36.1002 38.7211C36.6042 38.7438 36.9645 38.5926 37.0124 38.4515C37.0326 38.3885 36.962 38.3154 36.8537 38.2398C36.7629 38.1768 36.6722 38.1163 36.5765 38.0559C37.0956 38.1869 37.5819 38.27 37.9246 38.2726C38.5067 38.2776 38.9276 38.1037 38.9881 37.9525C39.0133 37.882 38.9351 37.8089 38.8142 37.7333C38.6252 37.6123 38.4311 37.504 38.2346 37.3931C38.8217 37.5569 39.3862 37.6602 39.7692 37.6627C40.3539 37.6653 40.7747 37.4914 40.8327 37.3402C40.8604 37.2722 40.7797 37.1991 40.6588 37.121C40.5403 37.0504 40.4219 36.9773 40.3035 36.9093C40.6437 36.9824 40.9511 37.0252 41.1854 37.0252C41.7247 37.0277 42.1128 36.869 42.1657 36.7278C42.1934 36.6648 42.1178 36.5968 42.0044 36.5262C41.9389 36.4859 41.8759 36.4456 41.8079 36.4053C42.2312 36.4658 42.6495 36.4633 42.9998 36.3977C43.4433 36.3171 43.6424 36.1886 43.6197 36.0903C43.5995 35.9945 43.398 35.9063 43.1686 35.8257H43.1586C43.9171 35.8282 44.6151 35.614 44.9805 35.4402C45.2879 35.2915 45.3081 35.1554 44.9427 35.0748L44.8998 35.0647C45.9935 35.047 46.9032 34.6262 46.936 34.3843C46.946 34.3087 46.8301 34.2533 46.6764 34.2054C47.4399 34.1928 47.9213 33.9433 48.1304 33.8274C48.1909 33.7921 48.1984 33.7543 48.1682 33.7115C48.4177 33.6787 48.7629 33.5981 49.3274 33.4494C50.3177 33.1898 51.0586 32.9378 51.4517 32.7892C52.0943 32.5473 52.2303 32.3053 51.5449 32.2297C50.6982 32.1365 48.6546 32.3784 48.0951 32.5422C48.1102 32.5069 48.1153 32.4792 48.1052 32.4641C48.0069 32.3154 47.4626 32.4213 46.883 32.643C47.0468 32.4843 46.9486 32.3961 46.6562 32.386C46.2505 32.3734 45.5223 32.4591 44.8293 32.7665C45.0586 32.5447 44.9628 32.4439 44.6403 32.4691C44.3505 32.4641 43.7961 32.5699 43.2064 32.8875C43.3627 32.6884 43.2543 32.6128 42.957 32.6506C42.6294 32.6607 41.9717 32.8345 41.324 33.2881C41.3341 33.2705 41.3442 33.2554 41.3593 33.2377C41.3971 33.1747 41.5962 32.827 41.5433 32.7791C41.4274 32.6859 40.9032 32.7791 40.4345 33.0361C40.2606 33.1319 40.0742 33.2806 39.8826 33.467C39.9028 33.4267 39.923 33.3864 39.9456 33.3436C40.0061 33.215 40.0338 33.1092 39.9734 33.0664C39.8398 32.9706 39.3912 33.0462 38.8999 33.3562C38.6529 33.5149 38.348 33.777 38.033 34.092C38.1288 33.9131 38.1968 33.7266 38.1262 33.6762C37.9952 33.5804 37.5441 33.6535 37.0553 33.966C36.773 34.1449 36.4152 34.4624 36.0574 34.8379C36.1405 34.659 36.2086 34.47 36.1405 34.4145C36.0221 34.3213 35.6365 34.3767 35.2207 34.6565C35.0469 34.7724 34.8428 34.9538 34.6286 35.1781C34.6386 35.1277 34.6336 35.0924 34.6084 35.0773C34.5026 35.0042 34.1346 35.1 33.7189 35.352C33.4719 35.5032 33.1594 35.7929 32.8495 36.1382C32.8722 36.0701 32.8747 36.0223 32.847 36.0046C32.7588 35.9467 32.3959 36.0651 32.0582 36.2717C31.8264 36.4128 31.529 36.6951 31.2468 37.0151C31.2443 37.0101 31.2392 37.0025 31.2342 36.9975C31.1737 36.9546 30.9217 37.0151 30.6949 37.1613C30.448 37.3175 30.2943 37.4586 30.1456 37.5922C29.2913 38.3633 28.7848 38.4893 27.797 38.7992C27.8625 38.7161 27.9507 38.5951 28.0187 38.512C28.9058 37.446 29.193 37.4813 30.1758 36.7707C30.3119 36.6699 30.4455 36.5363 30.4883 36.4532C30.5135 36.4103 30.5211 36.3725 30.516 36.3473C30.511 36.3297 30.4959 36.3221 30.4707 36.3171C30.7982 36.1785 31.0931 36.0197 31.2821 35.8786C31.4811 35.7274 31.6727 35.5284 31.7382 35.4074C31.7709 35.3419 31.7861 35.289 31.781 35.2537C31.7684 35.2108 31.7029 35.2033 31.6147 35.2134C31.5895 35.2159 31.5693 35.2209 31.5441 35.2234C31.9322 35.0546 32.2749 34.8681 32.4992 34.6968C32.7411 34.5128 32.9755 34.2684 33.0561 34.1172C33.099 34.0391 33.1166 33.9735 33.1065 33.9332C33.1065 33.9282 33.1065 33.9282 33.104 33.9231C33.4114 33.8022 33.676 33.6712 33.8625 33.5426C34.1321 33.3612 34.3841 33.1067 34.4673 32.9505C34.5101 32.8648 34.5252 32.7942 34.5101 32.7463C34.4925 32.6833 34.3967 32.6707 34.2682 32.6733C34.1876 32.6758 34.1044 32.6808 34.0263 32.6859C34.6008 32.4943 35.1174 32.265 35.44 32.0458C35.7625 31.8266 36.0649 31.5242 36.1632 31.3377C36.2136 31.2369 36.2338 31.1512 36.2161 31.0933C36.196 31.0177 36.08 31.0025 35.9263 31.0051C35.8331 31.0101 35.7398 31.0151 35.6491 31.0202C36.1657 30.8413 36.6168 30.6447 36.9041 30.4557C37.4257 30.113 37.6726 29.7073 37.6172 29.5309C37.592 29.4503 37.466 29.4326 37.3047 29.4351C37.1661 29.4351 37.0301 29.4402 36.8915 29.4477C37.5089 29.2058 38.0532 28.9412 38.3984 28.6993C38.9805 28.286 39.2753 27.8098 39.2224 27.6183C39.1997 27.5275 39.0662 27.5099 38.8873 27.5225C38.6126 27.5376 38.3379 27.5653 38.0607 27.6006C38.7688 27.3411 39.4089 27.0412 39.7944 26.769C40.3791 26.3532 40.6714 25.8795 40.6185 25.6855C40.5958 25.5973 40.4622 25.5821 40.2833 25.5922C40.112 25.5998 39.9431 25.6149 39.7718 25.6351C40.1649 25.4637 40.5025 25.2848 40.7394 25.1185C41.2812 24.7354 41.5508 24.297 41.503 24.1206C41.4803 24.0374 41.3568 24.0223 41.193 24.0299C41.0972 24.0374 41.0015 24.045 40.9057 24.0525C41.3744 23.8106 41.7902 23.5057 42.0926 23.1907C42.4757 22.7926 42.579 22.5204 42.4857 22.4398C42.3925 22.3617 42.1279 22.4146 41.8381 22.5002L41.8306 22.5028C42.5891 21.9685 43.1308 21.2529 43.3677 20.8144C43.5668 20.449 43.4862 20.2953 43.0628 20.4767L43.0124 20.4969C44.0909 19.7006 44.6907 18.6271 44.5445 18.3625C44.4966 18.2743 44.3429 18.3071 44.1539 18.3675C44.9099 17.8081 45.2073 17.2134 45.3307 16.9488C45.3635 16.8732 45.3433 16.8279 45.2803 16.8077C45.5071 16.596 45.7919 16.2684 46.248 15.7166C47.0468 14.7464 47.6012 13.9627 47.886 13.5343C48.3522 12.8212 48.3018 12.4936 47.5659 12.9068C46.6512 13.4209 44.789 15.1244 44.3505 15.6914C44.3429 15.6435 44.3253 15.6132 44.3026 15.6057C44.096 15.525 43.6273 16.0215 43.214 16.659C43.2594 16.3844 43.0981 16.3642 42.8007 16.5633C42.3824 16.843 41.7172 17.4503 41.2535 18.2541C41.314 17.8661 41.1502 17.8333 40.8427 18.0904C40.5504 18.2945 40.0741 18.7985 39.7188 19.5343C39.7264 19.2243 39.5626 19.2243 39.293 19.4763C38.9755 19.7233 38.4437 20.3684 38.1313 21.2856C38.1313 21.2579 38.1288 21.2327 38.1288 21.21C38.1237 21.1218 38.0658 20.6279 37.9776 20.6204C37.7911 20.6053 37.3375 21.0765 37.0578 21.6687C36.9545 21.8879 36.8789 22.1727 36.8234 22.4952C36.8133 22.4398 36.8058 22.3843 36.7932 22.3289C36.7604 22.1575 36.7125 22.0315 36.6168 22.0315C36.4152 22.029 36.0221 22.4272 35.76 23.0874C35.629 23.4251 35.5156 23.9039 35.4375 24.4431C35.3971 24.1937 35.3316 23.9618 35.2207 23.9618C35.0191 23.9618 34.626 24.3574 34.364 25.0202C34.2153 25.4007 34.0893 25.9702 34.0087 26.6027C33.9608 26.3658 33.8877 26.129 33.7793 26.1214C33.5954 26.1113 33.2501 26.4465 33.041 27.021C32.9452 27.2806 32.8696 27.6409 32.8218 28.0517C32.789 27.9786 32.7512 27.9307 32.7058 27.9307C32.5294 27.9232 32.1666 28.349 31.9549 28.9034C31.8289 29.231 31.7382 29.7174 31.6878 30.2516C31.6575 30.1634 31.6197 30.1029 31.5744 30.1004C31.4257 30.0954 31.1233 30.4507 30.9469 30.9143C30.8638 31.1311 30.7982 31.4309 30.7554 31.7711C30.6143 31.8417 30.3749 32.1516 30.2161 32.5296C30.1078 32.7816 30.0145 33.1495 29.9465 33.5552C29.9289 33.4922 29.9087 33.457 29.8759 33.4595C29.7751 33.462 29.5408 33.7417 29.3921 34.092C29.2913 34.3364 29.2056 34.7043 29.1502 35.0974C29.1401 35.0647 29.1225 35.047 29.1048 35.047C29.0318 35.047 28.873 35.236 28.7773 35.478C28.6714 35.7375 28.6261 35.9341 28.5857 36.1231C28.3337 37.2696 27.9759 37.5846 27.3031 38.5019L27.2804 38.5321C27.2829 38.4641 27.2829 38.391 27.2829 38.3129C27.2854 37.1184 27.1771 36.6296 27.6861 35.4956C27.7668 35.3091 27.855 35.1151 27.928 34.8278C27.9961 34.5632 27.9784 34.3037 27.9154 34.2583C27.9003 34.2457 27.8751 34.2533 27.8449 34.2734C28.0465 33.903 28.2052 33.5351 28.2707 33.268C28.364 32.8749 28.3413 32.4969 28.2581 32.4313C28.2304 32.4112 28.1901 32.4238 28.1397 32.4691C28.3312 32.0836 28.4849 31.7132 28.553 31.4284C28.6513 31.0076 28.6437 30.5968 28.5706 30.4507C28.7445 30.1332 28.878 29.8383 28.941 29.6014C29.0847 29.1 29.0469 28.6086 28.9209 28.5229C28.8781 28.4927 28.8075 28.5229 28.7269 28.5809C29.0192 28.0945 29.246 27.6233 29.3442 27.2655C29.5131 26.6657 29.4702 26.076 29.319 25.9778C29.2787 25.9501 29.2157 25.9677 29.1426 26.0105C29.3594 25.6275 29.5232 25.2747 29.6013 24.9975C29.7852 24.3751 29.7021 23.8787 29.5383 23.7728C29.4425 23.7149 29.2283 23.8711 29.0393 24.045C29.3669 23.4578 29.6189 22.8934 29.7298 22.475C29.9238 21.7493 29.8381 21.1697 29.6643 21.0462C29.5685 20.9807 29.3669 21.1395 29.1779 21.326C29.4476 20.8169 29.6567 20.3381 29.7525 19.9727C29.9465 19.247 29.8608 18.6649 29.6844 18.5414C29.6063 18.486 29.4854 18.5616 29.3468 18.6901C29.3039 18.7304 29.2611 18.7707 29.2182 18.8136C29.3745 18.5036 29.4904 18.2138 29.5383 17.9669C29.6718 17.2865 29.5786 16.6061 29.4123 16.5053C29.3316 16.4574 28.9738 16.843 28.9133 16.9161C28.8982 16.9362 28.8806 16.9589 28.8629 16.9791C29.1754 16.0038 29.125 15.1294 29.0066 14.7237C28.9335 14.3432 28.7949 14.2424 28.6084 14.512C28.7672 13.6653 28.679 12.9421 28.5555 12.5893C28.4547 12.1836 28.2934 12.108 28.1044 12.4784C28.2128 11.5083 28.0263 10.5834 27.8449 10.0895C27.7164 9.73674 27.5677 9.65359 27.4316 9.91566C27.4795 9.11684 27.3913 8.40873 27.167 8.34825C27.1418 8.34069 27.1091 8.35833 27.0687 8.38857C27.0536 7.64015 26.532 5.04461 26.0734 4.04671C25.6853 3.20001 25.4534 3.55029 25.4106 4.38439C25.3829 4.92365 25.3602 5.93415 25.4333 7.25208C25.4761 8.00302 25.5164 8.45661 25.5744 8.77665C25.5089 8.75397 25.4635 8.77917 25.4434 8.86736C25.3829 9.16724 25.2619 9.86022 25.5542 10.8002C25.4333 10.6288 25.3199 10.5078 25.2241 10.5532C24.9343 10.6918 24.7705 11.9745 25.1914 13.3151L25.1611 13.2672C24.9142 12.8539 24.7479 12.932 24.6899 13.3705C24.6143 13.8871 24.6294 14.8295 24.9394 15.7544L24.9318 15.7443C24.7403 15.4948 24.5488 15.2857 24.4203 15.2957C24.2867 15.3083 24.2061 15.6057 24.2842 16.1802C24.3447 16.6338 24.511 17.1479 24.7529 17.6418C24.6773 17.5763 24.5992 17.5108 24.5236 17.4503C24.39 17.3419 24.2716 17.2764 24.2036 17.3318C24.0498 17.4553 24.0045 17.9971 24.2288 18.6523C24.3245 18.9396 24.5009 19.2999 24.7277 19.688C24.5941 19.567 24.4556 19.4486 24.317 19.3352C24.1708 19.2193 24.0473 19.1487 23.9717 19.2117C23.8054 19.3453 23.7575 19.9299 23.9969 20.6431C24.1532 21.1092 24.511 21.7594 24.952 22.4146C24.7378 22.2155 24.5211 22.024 24.2968 21.84C24.1506 21.7216 24.0246 21.6561 23.949 21.714C23.7827 21.8476 23.7348 22.4322 23.9768 23.1454C24.1154 23.5637 24.4152 24.1256 24.7907 24.7052C24.6748 24.617 24.5614 24.5288 24.4455 24.4431C24.3069 24.3423 24.1884 24.2818 24.1179 24.3348C23.9616 24.4482 23.9138 24.9496 24.1431 25.5595C24.2716 25.8971 24.5311 26.3432 24.8613 26.8119C24.7857 26.7489 24.7101 26.6909 24.6319 26.6304C24.506 26.5322 24.3976 26.4742 24.3321 26.5271C24.2792 26.5649 24.2439 26.6481 24.2237 26.7665C24.1859 26.9883 24.2565 27.4293 24.3926 27.8148C24.5312 28.2004 24.8285 28.7119 25.2015 29.2285C25.1359 29.1756 25.0679 29.1227 25.0024 29.0697C24.8965 28.9866 24.8033 28.9412 24.7479 28.9841C24.705 29.0143 24.6748 29.0849 24.6597 29.1831C24.6294 29.3671 24.6874 29.74 24.8008 30.0626C24.8814 30.2818 25.0251 30.5565 25.209 30.8488C25.2065 30.8488 25.2015 30.8513 25.1989 30.8564C25.1637 30.8841 25.141 30.9521 25.1284 31.0454C25.1032 31.2218 25.1485 31.5746 25.2393 31.8795C25.3224 32.1642 25.5013 32.5347 25.7231 32.9152C25.7054 32.8975 25.6878 32.8799 25.6702 32.8623C25.5996 32.8018 25.5391 32.764 25.5038 32.7967C25.4761 32.8219 25.4534 32.8749 25.4434 32.953C25.4232 33.0966 25.461 33.3839 25.5366 33.6334C25.6072 33.8727 25.7584 34.1852 25.9524 34.5078C25.9297 34.4952 25.9096 34.4927 25.8944 34.5053C25.8743 34.5229 25.8592 34.5607 25.8491 34.6111C25.834 34.7094 25.8642 34.9059 25.9196 35.0748C26.3102 36.2843 26.5799 36.4305 26.6655 37.8845C26.6882 38.3003 26.8193 38.6632 26.5068 38.1844C25.771 37.0428 25.8944 36.7883 25.5215 35.6669C25.4686 35.5082 25.3829 35.3469 25.3174 35.2814C25.2821 35.2461 25.2519 35.226 25.2241 35.2234C25.209 35.2234 25.1939 35.236 25.1813 35.2587C25.1511 34.9135 25.0906 34.5935 25.015 34.3767C24.9343 34.1474 24.8033 33.9105 24.7075 33.8148C24.6597 33.7619 24.6143 33.7316 24.579 33.7291C24.5312 33.7216 24.5085 33.782 24.4883 33.8677C24.4833 33.8904 24.4808 33.9131 24.4757 33.9357C24.4354 33.53 24.3623 33.152 24.2716 32.895C24.1683 32.6153 24.0095 32.328 23.8961 32.2071C23.8331 32.1441 23.7777 32.1063 23.7348 32.1012C23.7323 32.1012 23.7273 32.1012 23.7248 32.1012C23.7046 31.7837 23.6618 31.499 23.5988 31.2923C23.5055 30.9874 23.3468 30.6775 23.2208 30.554C23.1553 30.4859 23.0923 30.4507 23.0419 30.4481C22.9789 30.4456 22.9335 30.5313 22.9007 30.6523C22.8781 30.7253 22.8579 30.8009 22.8377 30.8791C22.8302 30.2894 22.7722 29.7426 22.6664 29.3822C22.5555 29.0168 22.364 28.6439 22.2153 28.4977C22.1347 28.4196 22.0591 28.3768 22.0011 28.3742C21.923 28.3717 21.8726 28.475 21.8323 28.6161C21.8046 28.7018 21.7819 28.79 21.7592 28.8757C21.7491 28.3465 21.6987 27.8702 21.608 27.5477C21.4442 26.9656 21.1343 26.6103 20.9554 26.6103C20.8697 26.6103 20.8142 26.7186 20.7638 26.8698C20.7235 26.9933 20.6882 27.1218 20.653 27.2503C20.6152 26.6103 20.5295 26.0282 20.406 25.6401C20.1918 24.9723 19.834 24.559 19.6349 24.549C19.5442 24.5414 19.4862 24.6598 19.4434 24.8287C19.3753 25.0832 19.3174 25.3478 19.2645 25.6124C19.2367 24.8816 19.146 24.2037 19.0074 23.7653C18.7958 23.1 18.4354 22.6842 18.2363 22.6741C18.1456 22.6666 18.0902 22.7875 18.0448 22.9538C18.002 23.1151 17.9667 23.2764 17.9289 23.4377C17.8886 23.0244 17.8205 22.659 17.7374 22.3919C17.5408 21.777 17.2082 21.394 17.0268 21.3839C16.9411 21.3789 16.8907 21.4898 16.8504 21.6409C16.8252 21.7317 16.805 21.8199 16.7823 21.9131C16.6941 21.4091 16.5354 20.9328 16.3313 20.5574C16.0717 20.0836 15.8474 19.9047 15.7416 19.9652C15.6358 20.0282 15.608 20.2877 15.603 20.5775V20.5901C15.3258 19.7283 14.8143 19.0101 14.4741 18.6599C14.1893 18.365 14.0205 18.3927 14.0633 18.8363L14.0683 18.8892C13.6425 17.6544 12.8109 16.7749 12.5161 16.8279C12.4203 16.8455 12.4027 16.9967 12.4052 17.1907C12.1078 16.3239 11.6341 15.8678 11.4249 15.6762C11.3619 15.6183 11.3115 15.6258 11.2763 15.6762C11.1402 15.4041 10.9184 15.0412 10.5379 14.4516C9.86509 13.4234 9.29558 12.6725 8.97303 12.2794C8.4514 11.6393 8.12129 11.5713 8.2876 12.3827C8.49424 13.3831 9.53498 15.6158 9.93565 16.1903C9.88777 16.1853 9.85501 16.1928 9.83737 16.2105C9.70129 16.3768 10.0264 16.9589 10.5026 17.5334C10.2557 17.41 10.1902 17.5511 10.2884 17.8862C10.4245 18.3524 10.7949 19.1538 11.4098 19.8266C11.0646 19.6477 10.9839 19.7913 11.1326 20.1542C11.2334 20.4843 11.566 21.0765 12.1532 21.6283C11.8634 21.525 11.813 21.6762 11.9692 22.0013C12.1028 22.3692 12.5513 23.0572 13.3224 23.6216C13.2972 23.6141 13.272 23.6065 13.2494 23.6015C13.1637 23.5788 12.6799 23.483 12.6471 23.5611C12.5791 23.7275 12.8815 24.2894 13.3577 24.7279C13.5316 24.8892 13.776 25.0454 14.0658 25.1941C14.0129 25.1865 13.955 25.1764 13.8995 25.1714C13.7282 25.1487 13.5946 25.1563 13.5644 25.2419C13.5014 25.4284 13.7584 25.9123 14.3027 26.3532C14.5774 26.5775 14.9982 26.827 15.4846 27.0664C15.2376 27.0261 14.9957 27.016 14.9629 27.1143C14.8999 27.3033 15.1544 27.7846 15.7013 28.2281C16.0163 28.4826 16.5152 28.7699 17.0872 29.0395C16.8478 29.0118 16.6009 29.0042 16.5631 29.1025C16.4951 29.2713 16.7067 29.6896 17.188 30.0576C17.4022 30.2239 17.7197 30.4028 18.0927 30.5741C18.0146 30.5817 17.9566 30.6019 17.9415 30.6422C17.8835 30.8009 18.1759 31.2671 18.6345 31.63C18.9041 31.8442 19.335 32.076 19.8239 32.2877C19.7332 32.2877 19.6626 32.3028 19.6475 32.3457C19.5971 32.4792 19.8415 32.8673 20.2271 33.1722C20.406 33.3133 20.6681 33.4645 20.973 33.6107C21.0007 33.7619 21.2199 34.0769 21.5274 34.3364C21.734 34.5128 22.054 34.7119 22.4144 34.8958C22.3489 34.8933 22.3086 34.9034 22.301 34.9336C22.2733 35.0269 22.4673 35.3268 22.7546 35.5712C22.9486 35.7375 23.2737 35.929 23.629 36.0979C23.5937 36.1004 23.5736 36.1105 23.566 36.1256C23.5433 36.1936 23.6744 36.3977 23.8734 36.5615C24.0851 36.7379 24.2565 36.8387 24.4228 36.932C25.403 37.4989 25.6097 37.9173 26.2271 38.769C26.1994 38.7589 26.1691 38.7463 26.1389 38.7337C25.0301 38.3356 24.5387 38.2726 23.6618 37.4208C23.5156 37.2797 23.3644 37.1336 23.1275 36.9698C22.9033 36.8186 22.6538 36.748 22.5933 36.7908C22.5883 36.7934 22.5832 36.7984 22.5807 36.806C22.3086 36.4758 22.0213 36.1861 21.7945 36.0349C21.4644 35.8156 21.104 35.6846 21.0158 35.7425C20.9881 35.7577 20.9881 35.8055 21.0108 35.8736C20.7109 35.5183 20.4085 35.2184 20.1666 35.0596C19.7609 34.7925 19.3955 34.6867 19.2871 34.7547C19.262 34.7698 19.2569 34.8026 19.2619 34.853C19.0578 34.6237 18.8588 34.4347 18.6899 34.3137C18.2842 34.0214 17.8987 33.9483 17.7802 34.0391C17.7122 34.0895 17.7701 34.2835 17.8483 34.4649C17.503 34.0769 17.1578 33.7493 16.8806 33.5603C16.4043 33.2327 15.9558 33.142 15.8222 33.2327C15.7492 33.2831 15.8121 33.467 15.9003 33.6535C15.5954 33.3259 15.3006 33.0538 15.0587 32.89C14.5799 32.5599 14.1313 32.4691 13.9978 32.5599C13.9373 32.6027 13.96 32.7085 14.0154 32.8396C14.0331 32.8824 14.0532 32.9227 14.0709 32.963C13.8894 32.7715 13.708 32.6153 13.5366 32.5145C13.0755 32.2398 12.5564 32.1289 12.4379 32.2222C12.3825 32.265 12.569 32.6229 12.6068 32.6859L12.6395 32.7363C12.0096 32.26 11.3569 32.0634 11.0293 32.0433C10.7345 31.9929 10.6236 32.0685 10.7697 32.2701C10.1952 31.9324 9.64333 31.8089 9.35606 31.8039C9.03099 31.7686 8.93271 31.8644 9.15194 32.0962C8.47408 31.7636 7.74834 31.6552 7.34011 31.6527C7.05031 31.6527 6.94699 31.7358 7.10575 31.9022C6.53372 31.6602 5.99446 31.5368 5.89114 31.6804C5.87854 31.698 5.88106 31.7258 5.89618 31.7585C5.34179 31.5746 3.31324 31.2646 2.4615 31.3301C1.77355 31.3805 1.90207 31.625 2.53458 31.8921C2.92265 32.0534 3.65343 32.3305 4.63369 32.6254C5.19312 32.7942 5.53583 32.8849 5.7853 32.9253C5.75254 32.9681 5.75758 33.0059 5.81806 33.0412C6.02218 33.1646 6.49341 33.4318 7.25947 33.4696C7.10071 33.5124 6.98479 33.5603 6.99235 33.6409C7.01755 33.8828 7.91213 34.3364 9.00075 34.3893L8.95791 34.3969C8.59 34.4649 8.60512 34.6061 8.91003 34.7598C9.26786 34.9488 9.95832 35.1856 10.7143 35.2083L10.7067 35.2108C10.4724 35.2814 10.2708 35.362 10.2456 35.4578C10.2204 35.5561 10.4144 35.6896 10.8529 35.7854C11.2007 35.8635 11.6215 35.8786 12.0474 35.8358C11.9768 35.8736 11.9113 35.9089 11.8432 35.9492C11.7298 36.0147 11.6542 36.0827 11.6769 36.1457C11.7248 36.2869 12.1078 36.4607 12.6446 36.4758C12.8815 36.4809 13.1914 36.4506 13.5341 36.3902C13.4081 36.4532 13.2872 36.5212 13.1687 36.5892C13.0453 36.6623 12.9621 36.7329 12.9873 36.806C13.0427 36.9572 13.456 37.1462 14.0406 37.1613C14.4237 37.1714 14.9906 37.0882 15.5854 36.9446C15.3812 37.0479 15.1847 37.1512 14.9932 37.2621C14.8697 37.3351 14.784 37.4057 14.8117 37.4763C14.8647 37.63 15.2779 37.8165 15.8625 37.8316C16.2053 37.8442 16.6916 37.7761 17.2158 37.6627C17.12 37.7207 17.0268 37.7761 16.9335 37.8391C16.8226 37.9122 16.747 37.9803 16.7672 38.0458C16.8075 38.1844 17.1654 38.3507 17.6693 38.3456C17.9012 38.3456 18.2137 38.2952 18.5589 38.2171C18.511 38.2549 18.4883 38.2952 18.5034 38.3305C18.5236 38.3734 18.579 38.4162 18.6672 38.454C18.826 38.5246 19.1712 38.5775 19.4862 38.575C19.7659 38.5699 20.1364 38.5195 20.5244 38.4313L20.5169 38.4338C20.4362 38.4792 20.3783 38.5246 20.3984 38.5674C20.411 38.6027 20.4539 38.6405 20.5219 38.6783C20.6479 38.7438 20.9276 38.8043 21.1847 38.8169C21.4316 38.8295 21.7769 38.7892 22.1422 38.7161C22.1221 38.7337 22.1145 38.7539 22.1196 38.7715C22.1296 38.7967 22.1599 38.8219 22.2052 38.8471C22.2909 38.895 22.4824 38.9328 22.6588 38.9353C23.9163 38.9706 24.1456 38.769 25.524 39.1722C25.7306 39.2301 25.9297 39.2931 26.1313 39.3511C25.461 39.5779 25.1133 39.7215 24.2867 39.6308C24.133 39.6132 23.9742 39.5981 23.7525 39.6107C23.5459 39.6233 23.3644 39.6963 23.3493 39.7518C23.3468 39.7543 23.3468 39.7593 23.3493 39.7669C23.0267 39.6938 22.7193 39.656 22.5127 39.6711C22.2103 39.6938 21.9356 39.782 21.9079 39.8551C21.9003 39.8778 21.923 39.9055 21.9684 39.9383C21.6206 39.8652 21.2981 39.8249 21.0763 39.8425C20.7084 39.8727 20.4388 39.976 20.406 40.0693C20.401 40.0894 20.411 40.1146 20.4388 40.1398C20.2094 40.097 20.0003 40.0794 19.8415 40.0844C19.461 40.097 19.1964 40.2331 19.1687 40.3414C19.1511 40.407 19.2771 40.4926 19.4106 40.5632C19.0226 40.4926 18.6597 40.4574 18.4052 40.4725C17.9642 40.5002 17.6542 40.6539 17.6164 40.7698C17.5963 40.8328 17.7223 40.916 17.8634 40.984C17.5257 40.9311 17.2208 40.9034 16.999 40.9185C16.5555 40.9437 16.2456 41.0974 16.2078 41.2159C16.1927 41.2713 16.2557 41.3217 16.3514 41.3721C16.3817 41.3897 16.4144 41.4074 16.4447 41.42C16.2431 41.3923 16.0616 41.3822 15.9129 41.3998C15.5072 41.4502 15.1418 41.6266 15.1166 41.735C15.104 41.7879 15.3838 41.9139 15.4392 41.934L15.482 41.9492C14.8798 41.9567 14.3985 42.1432 14.1893 42.2818C13.9928 42.3902 13.96 42.4859 14.1465 42.5388C13.64 42.6069 13.2519 42.7858 13.078 42.9168C12.8689 43.0453 12.8563 43.1487 13.0982 43.1839C12.5337 43.3024 12.0474 43.5745 11.8054 43.761C11.6316 43.8971 11.6114 43.9928 11.7828 44.0206C11.3267 44.139 10.9487 44.3154 10.9537 44.4515C10.9537 44.4641 10.9688 44.4792 10.994 44.4943C10.5757 44.643 9.21746 45.3964 8.74119 45.8299C8.35564 46.1827 8.54716 46.2683 9.05115 46.1323C9.35858 46.0491 9.92809 45.8752 10.6538 45.598C11.0671 45.4368 11.3166 45.3334 11.4829 45.2427C11.4829 45.283 11.5056 45.3032 11.5585 45.2956C11.7374 45.2755 12.1482 45.215 12.6219 44.8849C12.5488 44.9832 12.5009 45.0663 12.5413 45.1066C12.6723 45.2427 13.4207 45.0966 14.0986 44.6228L14.0759 44.648C13.8894 44.8597 13.965 44.9353 14.2195 44.8874C14.5245 44.8345 15.0511 44.6556 15.5098 44.3154L15.5072 44.3229C15.4014 44.4716 15.3208 44.6153 15.351 44.6833C15.3787 44.7539 15.5602 44.7438 15.8701 44.5976C16.112 44.4817 16.3716 44.2977 16.6034 44.0735C16.5807 44.1264 16.5581 44.1793 16.5379 44.2348C16.5001 44.328 16.485 44.4036 16.5303 44.4313C16.6286 44.4918 16.9386 44.4187 17.2662 44.1768C17.4098 44.071 17.5786 43.9097 17.755 43.7131C17.7122 43.8089 17.6693 43.9046 17.6315 44.0029C17.5937 44.1037 17.5786 44.1844 17.624 44.2146C17.7298 44.2801 18.0675 44.202 18.4228 43.9399C18.6546 43.7686 18.9545 43.4561 19.2418 43.0957C19.1687 43.2495 19.1007 43.4032 19.0377 43.5594C18.9999 43.6602 18.9848 43.7408 19.0326 43.7686C19.1385 43.8366 19.4736 43.756 19.8289 43.4964C20.0381 43.3427 20.3002 43.0756 20.5547 42.7656C20.5244 42.8437 20.4967 42.9219 20.4715 43.0025C20.4388 43.0957 20.4287 43.1713 20.469 43.2016C20.5622 43.2646 20.852 43.1991 21.1494 42.9647C21.288 42.8538 21.4518 42.6799 21.6206 42.4733C21.6105 42.5187 21.6156 42.5539 21.6408 42.5665C21.6735 42.5817 21.729 42.5817 21.797 42.564C21.9255 42.5338 22.1599 42.4053 22.3438 42.2541C22.5102 42.123 22.7067 41.9214 22.8957 41.6896L22.8932 41.6946C22.8655 41.7602 22.8529 41.8106 22.8856 41.8307C22.9108 41.8433 22.9537 41.8458 23.0116 41.8358C23.1175 41.8181 23.314 41.7224 23.4728 41.6115C23.6265 41.5057 23.813 41.3217 23.9944 41.1075C23.9919 41.1277 23.9969 41.1453 24.0095 41.1503C24.0246 41.1604 24.0549 41.1629 24.0952 41.1579C24.1683 41.1478 24.3018 41.0798 24.4077 41.0017C25.1007 40.4926 25.1989 40.2583 25.9549 39.9257C26.4312 39.714 26.5597 39.5905 26.217 40.0542C25.9398 40.4271 25.7357 40.669 25.1939 40.9613C25.0755 41.0243 24.957 41.0899 24.8083 41.2033C24.6697 41.3116 24.579 41.4527 24.5941 41.5006C24.5967 41.5031 24.5992 41.5057 24.6017 41.5082C24.3422 41.614 24.1053 41.735 23.9667 41.8458C23.7676 42.0071 23.6189 42.2037 23.6341 42.2692C23.6441 42.302 23.7096 42.3045 23.8079 42.2894C23.503 42.4128 23.2309 42.5489 23.0746 42.6774C22.8377 42.8689 22.7067 43.068 22.7269 43.1461C22.737 43.1739 22.7823 43.1839 22.8503 43.1814C22.737 43.2394 22.6387 43.3049 22.5681 43.3679C22.3438 43.5644 22.2002 43.824 22.233 43.8996C22.2456 43.9349 22.4698 43.8946 22.5076 43.8845L22.5429 43.8769C22.1826 44.1314 21.9709 44.4439 21.9079 44.6127C21.8348 44.7614 21.855 44.832 21.986 44.7866C21.7139 45.0361 21.5551 45.3057 21.5072 45.4569C21.4341 45.6207 21.4719 45.6888 21.6332 45.6106C21.3434 45.913 21.1645 46.2809 21.099 46.4951C21.0511 46.6489 21.0813 46.7144 21.1947 46.6589C20.973 46.9185 20.8193 47.1831 20.8798 47.2637C20.8873 47.2713 20.9024 47.2738 20.9251 47.2713C20.7336 47.5334 20.2397 48.5539 20.1364 49.01C20.0507 49.383 20.2044 49.3553 20.4514 49.0655C20.6 48.8866 20.8697 48.5464 21.1872 48.0751C21.3686 47.808 21.4745 47.6442 21.5349 47.5182C21.5526 47.5434 21.5753 47.546 21.6055 47.5208C21.7038 47.4326 21.923 47.2259 22.0692 46.8303C22.0666 46.921 22.0742 46.9916 22.117 46.9991C22.2531 47.0243 22.6412 46.6262 22.8478 46.0617L22.8453 46.0844C22.8226 46.2885 22.9007 46.3036 23.0343 46.1701C23.1931 46.0088 23.435 45.6837 23.5685 45.2906V45.2956C23.5685 45.4292 23.5786 45.5502 23.6265 45.5779C23.6769 45.6081 23.7802 45.5275 23.9012 45.3108C23.9994 45.1394 24.0776 44.9202 24.1229 44.6909C24.1305 44.7312 24.138 44.774 24.1506 44.8143C24.1683 44.8874 24.191 44.9378 24.2288 44.9353C24.3144 44.9303 24.4682 44.7589 24.5639 44.4792C24.6067 44.3557 24.6395 44.1919 24.6597 44.0029C24.6723 44.0558 24.6849 44.1088 24.6975 44.1592C24.7176 44.2272 24.7403 44.2751 24.7781 44.27C24.8083 44.265 24.8436 44.2398 24.8839 44.197C24.957 44.1138 25.0503 43.9172 25.1057 43.7282C25.1637 43.5317 25.204 43.252 25.2166 42.9571C25.2241 43 25.2317 43.0428 25.2393 43.0831C25.2519 43.1411 25.2695 43.1839 25.2997 43.1814C25.3275 43.1814 25.3577 43.1613 25.393 43.126C25.4585 43.0605 25.5517 42.8992 25.6072 42.7455C25.6601 42.5943 25.7004 42.375 25.7231 42.1382C25.7306 42.1533 25.7407 42.1634 25.7533 42.1608C25.771 42.1608 25.7911 42.1482 25.8188 42.1256C25.8642 42.0802 25.9247 41.9693 25.96 41.8635C26.1817 41.2058 26.149 40.9815 26.4589 40.4448C26.5295 40.3288 26.5773 40.2406 26.6126 40.1802C26.4816 43.4057 26.6504 46.349 26.9503 48.8891C27.0489 49.7239 27.7241 49.5171 27.6382 48.8891C27.3056 46.4573 27.1166 43.6249 27.2476 40.4876C27.6609 41.1403 27.5475 41.2537 27.7819 41.9592C27.8172 42.0651 27.8776 42.1734 27.9205 42.2163C27.9457 42.2415 27.9658 42.2541 27.9835 42.2541C27.9961 42.2541 28.0036 42.244 28.0137 42.2289C28.0339 42.4607 28.0717 42.6774 28.1246 42.8211C28.1775 42.9748 28.2657 43.1285 28.3312 43.194C28.364 43.2268 28.3942 43.2469 28.4194 43.2495C28.4522 43.2495 28.4673 43.2091 28.4799 43.1537C28.49 43.1134 28.495 43.0731 28.5026 43.0327C28.5127 43.3175 28.5505 43.5922 28.6059 43.7837C28.6613 43.9651 28.7521 44.1592 28.8226 44.2398C28.8629 44.2826 28.8982 44.3078 28.9259 44.3129C28.9612 44.3179 28.9864 44.27 29.0015 44.2045C29.0166 44.1541 29.0292 44.1037 29.0418 44.0533C29.062 44.2348 29.0922 44.396 29.1326 44.5145C29.2258 44.7891 29.3745 44.958 29.4576 44.963C29.4929 44.9655 29.5181 44.9151 29.5358 44.8471C29.5458 44.8068 29.5534 44.7665 29.5635 44.7236C29.6063 44.9504 29.6794 45.1621 29.7751 45.3284C29.8936 45.5426 29.9969 45.6207 30.0423 45.593C30.0876 45.5628 30.1002 45.4468 30.1027 45.3158V45.3108C30.2313 45.6963 30.4631 46.0163 30.6193 46.1726C30.7478 46.3036 30.8234 46.2885 30.8008 46.0894V46.0642C30.9973 46.6186 31.3753 47.0067 31.5089 46.9815C31.5492 46.9739 31.5593 46.9059 31.5567 46.8177C31.6953 47.2058 31.9095 47.4074 32.0053 47.493C32.0355 47.5182 32.0557 47.5157 32.0733 47.493C32.1338 47.614 32.2346 47.7753 32.4085 48.0373C32.7184 48.496 32.978 48.8286 33.1242 49.0025C33.3056 49.2192 33.5248 49.3805 33.4316 48.9546Z" stroke="white" stroke-width="2.6" mask="url(#path-1-outside-1)"/>
</svg>
